<svg xmlns="http://www.w3.org/2000/svg" width="100" height="100" viewBox="0 0 100 100">
  <g id="Grupo_1108152" data-name="Grupo 1108152" transform="translate(-298.051 -826)">
    <rect id="Rectángulo_402721" data-name="Rectángulo 402721" width="100" height="100" rx="10" transform="translate(298.051 826)" fill="#feeec9"/>
    <g id="Grupo_1108151" data-name="Grupo 1108151" transform="translate(305.051 832.998)">
      <g id="Grupo_1108134" data-name="Grupo 1108134" transform="translate(2.694 1.248)">
        <g id="Grupo_1108107" data-name="Grupo 1108107" transform="translate(0 47.494)">
          <path id="Trazado_899017" data-name="Trazado 899017" d="M74.237,328.218a2.757,2.757,0,0,1-2.754-2.754V319.4a2.733,2.733,0,0,1,1.561-2.479l.094-.045V300.2a.75.75,0,0,1,.527-.719l.116-.037v-2.992a8.955,8.955,0,0,0-6.846-3.174H60.116a23.844,23.844,0,0,1,.835,3.062.754.754,0,0,1-.739.9H57.475V303.3a.75.75,0,0,1-.759.755.735.735,0,0,1-.505-.2l-.883-.815-2.41,4.174a.753.753,0,0,1-1.3,0l-2.45-4.243-2.45,4.243a.753.753,0,0,1-1.3,0l-2.45-4.243-2.45,4.243a.753.753,0,0,1-1.3,0l-2.41-4.174-.883.814a.735.735,0,0,1-.505.2.75.75,0,0,1-.759-.755V297.25H31.91a.754.754,0,0,1-.739-.9,23.812,23.812,0,0,1,.835-3.062H25.187a8.977,8.977,0,0,0-8.977,8.977v23.632a2.493,2.493,0,0,0,2.493,2.493H74.237Z" transform="translate(-16.21 -293.283)" fill="#ffa78f"/>
        </g>
        <g id="Grupo_1108108" data-name="Grupo 1108108" transform="translate(9.687 47.494)">
          <path id="Trazado_899018" data-name="Trazado 899018" d="M101.832,315.033a6.033,6.033,0,0,1-5.543-3.652l-1.628-3.791a.746.746,0,0,1-.651-.377l-2.45-4.243-2.45,4.243a.753.753,0,0,1-1.3,0l-2.41-4.174-.883.814a.735.735,0,0,1-.505.2.75.75,0,0,1-.759-.755v-6.049H80.51a.754.754,0,0,1-.739-.9,23.815,23.815,0,0,1,.835-3.062H74.5v35.1h40.329V315.033Z" transform="translate(-74.497 -293.285)" fill="#c86d36"/>
        </g>
        <g id="Grupo_1108109" data-name="Grupo 1108109" transform="translate(45.03 69.242)">
          <path id="Trazado_899019" data-name="Trazado 899019" d="M287.169,424.149h4.986V437.5h-4.986Z" transform="translate(-287.169 -424.149)" fill="#ac5e2e"/>
        </g>
        <g id="Grupo_1108111" data-name="Grupo 1108111" transform="translate(24.613 57.511)">
          <g id="Grupo_1108110" data-name="Grupo 1108110">
            <path id="Trazado_899020" data-name="Trazado 899020" d="M171.867,362.843a6.028,6.028,0,0,1-.69-1.2l-1.559-3.629a.911.911,0,0,1-.865-.456l-2.306-3.994-2.137,3.7,1.881,4.378a6.033,6.033,0,0,0,5.543,3.652h.219A9.915,9.915,0,0,1,171.867,362.843Z" transform="translate(-164.311 -353.564)" fill="#ac5e2e"/>
          </g>
        </g>
        <g id="Grupo_1108112" data-name="Grupo 1108112" transform="translate(6.363 47.494)">
          <path id="Trazado_899021" data-name="Trazado 899021" d="M57.111,293.284a8.976,8.976,0,0,0-2.614.388v34.714h3.324v-35.1Z" transform="translate(-54.497 -293.284)" fill="#f89580"/>
        </g>
        <g id="Grupo_1108113" data-name="Grupo 1108113" transform="translate(44.078 47.494)">
          <path id="Trazado_899022" data-name="Trazado 899022" d="M295.388,328.385v-.166a2.757,2.757,0,0,1-2.754-2.754V319.4a2.733,2.733,0,0,1,1.561-2.479l.094-.045V300.2a.75.75,0,0,1,.527-.719l.116-.037v-2.992a8.955,8.955,0,0,0-6.846-3.174h-6.647a8.977,8.977,0,0,1,8.977,8.977v26.125Z" transform="translate(-281.439 -293.283)" fill="#f89580"/>
        </g>
        <g id="Grupo_1108117" data-name="Grupo 1108117" transform="translate(32.128 66.791)">
          <g id="Grupo_1108114" data-name="Grupo 1108114">
            <path id="Trazado_899023" data-name="Trazado 899023" d="M209.575,409.4a10.269,10.269,0,0,0,.141,2.79c.588,3.337,2.3,5.825,5.477,5.264s7.28-2.287,6.724-5.6h-7.491A6.031,6.031,0,0,1,209.575,409.4Z" transform="translate(-209.534 -409.4)" fill="#efe2dd"/>
          </g>
          <g id="Grupo_1108116" data-name="Grupo 1108116" transform="translate(2.734 2.451)">
            <g id="Grupo_1108115" data-name="Grupo 1108115">
              <path id="Trazado_899024" data-name="Trazado 899024" d="M235.638,424.149h-4.986c.44,2.622-2.04,4.251-4.664,5.094a3.955,3.955,0,0,0,2.925.509C232.081,429.193,236.194,427.465,235.638,424.149Z" transform="translate(-225.988 -424.149)" fill="#e1d3ce"/>
            </g>
          </g>
        </g>
        <g id="Grupo_1108124" data-name="Grupo 1108124" transform="translate(2.859)">
          <g id="Grupo_1108118" data-name="Grupo 1108118" transform="translate(27.127 0.121)">
            <path id="Trazado_899025" data-name="Trazado 899025" d="M204.16,26.521l.028.106.109.016a4.26,4.26,0,0,1,3.63,4.2v6.471l2.962-4.077a2.591,2.591,0,0,1,2.9-.942l1.224.4V28.066l5.508-5.508L210.7,20.595l3.352-7.164-10.054,1.387L202.03,8.231l-5.381,5.381a26.9,26.9,0,0,1,7.511,12.909Z" transform="translate(-196.649 -8.231)" fill="#766e6e"/>
          </g>
          <g id="Grupo_1108121" data-name="Grupo 1108121" transform="translate(38.31 5.32)">
            <g id="Grupo_1108119" data-name="Grupo 1108119">
              <path id="Trazado_899026" data-name="Trazado 899026" d="M265.089,46.123l1.714.556,3.352-7.164-4.384.6-1.684,3.74A1.662,1.662,0,0,0,265.089,46.123Z" transform="translate(-263.939 -39.515)" fill="#5b5555"/>
            </g>
            <g id="Grupo_1108120" data-name="Grupo 1108120" transform="translate(3.855 8.297)">
              <path id="Trazado_899027" data-name="Trazado 899027" d="M291.813,89.441l-4.19,4.19a1.662,1.662,0,0,0-.487,1.175v5.428a2.565,2.565,0,0,1,2.1-.228l1.224.4V95.78l5.508-5.508Z" transform="translate(-287.136 -89.441)" fill="#5b5555"/>
            </g>
          </g>
          <g id="Grupo_1108122" data-name="Grupo 1108122" transform="translate(0 0)">
            <path id="Trazado_899028" data-name="Trazado 899028" d="M43.1,37.561a4.528,4.528,0,0,1,4.315-3.173h1.574V30.23a4.246,4.246,0,0,1,4.241-4.241H67.579a4.25,4.25,0,0,1,.679.055C64.332,10.866,51.73,7.5,51.73,7.5l-1.174,7.414-9.13-2.848,1.079,6.7-7.549.462,4.006,5.7-5.547,5.547,6.356.847-2.312,6.239H43.1Z" transform="translate(-33.415 -7.5)" fill="#766e6e"/>
          </g>
          <g id="Grupo_1108123" data-name="Grupo 1108123" transform="translate(17.737)">
            <path id="Trazado_899029" data-name="Trazado 899029" d="M151.712,25.823h4.859a4.438,4.438,0,0,1,.635.046C153.229,10.839,140.722,7.5,140.722,7.5l-.578,3.651A25.992,25.992,0,0,1,151.712,25.823Z" transform="translate(-140.144 -7.5)" fill="#5b5555"/>
          </g>
        </g>
        <g id="Grupo_1108126" data-name="Grupo 1108126" transform="translate(12.177 26.723)">
          <g id="Grupo_1108125" data-name="Grupo 1108125">
            <path id="Trazado_899030" data-name="Trazado 899030" d="M95.745,168.3H94.171a4.686,4.686,0,0,0,0,9.372h1.574Z" transform="translate(-89.485 -168.299)" fill="#f89580"/>
          </g>
        </g>
        <g id="Grupo_1108127" data-name="Grupo 1108127" transform="translate(16.899 76.299)">
          <path id="Trazado_899031" data-name="Trazado 899031" d="M127.294,470.048c0-2.471-2.1-3.431-4.7-3.431s-4.7.959-4.7,3.431a11.044,11.044,0,0,0,.361,2.865h7.855A5.011,5.011,0,0,0,127.294,470.048Z" transform="translate(-117.897 -466.617)" fill="#efe2dd"/>
        </g>
        <g id="Grupo_1108128" data-name="Grupo 1108128" transform="translate(19.936 76.299)">
          <path id="Trazado_899032" data-name="Trazado 899032" d="M137.832,466.617a8.478,8.478,0,0,0-1.662.153c1.775.357,3.037,1.363,3.037,3.277a5.011,5.011,0,0,1-1.181,2.865h3.324a5.011,5.011,0,0,0,1.181-2.865C142.531,467.576,140.427,466.617,137.832,466.617Z" transform="translate(-136.17 -466.617)" fill="#e1d3ce"/>
        </g>
        <g id="Grupo_1108129" data-name="Grupo 1108129" transform="translate(9.687 58.364)">
          <path id="Trazado_899033" data-name="Trazado 899033" d="M74.5,369.191c2.248.6,4.867.28,6.166-1.351,1.847-2.32-1.8-6.39-4.119-8.237a4.322,4.322,0,0,0-2.047-.911Z" transform="translate(-74.497 -358.692)" fill="#efe2dd"/>
        </g>
        <g id="Grupo_1108130" data-name="Grupo 1108130" transform="translate(9.687 58.364)">
          <path id="Trazado_899034" data-name="Trazado 899034" d="M76.544,359.6a4.323,4.323,0,0,0-2.047-.911v2.038c2.133,2.065,4.373,5.187,2.842,7.109a4.34,4.34,0,0,1-2.441,1.446c2.151.459,4.543.088,5.765-1.446C82.51,365.519,78.864,361.449,76.544,359.6Z" transform="translate(-74.497 -358.691)" fill="#e1d3ce"/>
        </g>
        <g id="Grupo_1108131" data-name="Grupo 1108131" transform="translate(18.271 18.323)">
          <path id="Trazado_899035" data-name="Trazado 899035" d="M146.668,131.76l2.646-3.642v-5.956a4.407,4.407,0,0,0-4.407-4.407H130.562a4.407,4.407,0,0,0-4.407,4.407v16.962h.166a5.083,5.083,0,0,1,5.078-5.078h3.871v.377a1.087,1.087,0,0,0,1.086,1.086h2.758a1.087,1.087,0,0,0,1.086-1.086v-.377h3.871a5.046,5.046,0,0,1,2.374.591A2.758,2.758,0,0,1,146.668,131.76Z" transform="translate(-126.155 -117.755)" fill="#ffa78f"/>
        </g>
        <g id="Grupo_1108133" data-name="Grupo 1108133" transform="translate(32.038 18.323)">
          <g id="Grupo_1108132" data-name="Grupo 1108132">
            <path id="Trazado_899036" data-name="Trazado 899036" d="M213.4,122.163v11.725a5.214,5.214,0,0,1,2.009.508,2.757,2.757,0,0,1,.333-2.634l2.644-3.639v-5.959a4.407,4.407,0,0,0-4.407-4.407h-4.986a4.407,4.407,0,0,1,4.407,4.407Z" transform="translate(-208.991 -117.756)" fill="#f89580"/>
          </g>
        </g>
        <path id="Trazado_899037" data-name="Trazado 899037" d="M132.534,223.966a4.156,4.156,0,0,1-.74-2.379V220.03c0-.173-.009-.345-.025-.514l-2.621-3.607a2.759,2.759,0,0,1-.334-.61,5.224,5.224,0,0,0-2.264-.513h-4.037v.543a.919.919,0,0,1-.919.919h-2.758a.919.919,0,0,1-.919-.919v-.543h-4.037a5.244,5.244,0,0,0-5.244,5.244v1.557a4.155,4.155,0,0,1-.74,2.379,18.392,18.392,0,0,0-2.733,6.894.92.92,0,0,0,.9,1.1h2.572v5.883a.919.919,0,0,0,1.543.676l.73-.674,2.306,3.994a.919.919,0,0,0,1.592,0l2.306-3.994,2.306,3.994a.92.92,0,0,0,1.593,0l2.306-3.994,2.306,3.994a.919.919,0,0,0,1.592,0l2.306-3.994.73.674a.919.919,0,0,0,1.543-.676v-5.883h2.572a.92.92,0,0,0,.9-1.1A18.391,18.391,0,0,0,132.534,223.966Z" transform="translate(-90.364 -180.338)" fill="#766e6e"/>
        <path id="Trazado_899038" data-name="Trazado 899038" d="M219.689,223.969a4.216,4.216,0,0,1-.743-2.412v-1.528c0-.174-.009-.345-.025-.514l-2.621-3.607a2.757,2.757,0,0,1-.334-.61,5.224,5.224,0,0,0-2.264-.513h-4.037v.087a5.244,5.244,0,0,1,4.3,5.157v1.528a4.217,4.217,0,0,0,.743,2.412,18.4,18.4,0,0,1,2.73,6.89.92.92,0,0,1-.9,1.1h-.91a1.662,1.662,0,0,0-1.662,1.662v4.221a.919.919,0,0,1-1.543.676l-.73-.674-.609,1.056,1.7,2.939a.919.919,0,0,0,1.592,0l2.306-3.994.73.674a.919.919,0,0,0,1.543-.676v-5.883h2.572a.92.92,0,0,0,.9-1.1A18.4,18.4,0,0,0,219.689,223.969Z" transform="translate(-177.515 -180.337)" fill="#5b5555"/>
      </g>
      <g id="Grupo_1108149" data-name="Grupo 1108149" transform="translate(40.952 24.413)">
        <g id="Grupo_1108148" data-name="Grupo 1108148">
          <g id="Grupo_1108139" data-name="Grupo 1108139" transform="translate(0 0.725)">
            <g id="Grupo_1108135" data-name="Grupo 1108135">
              <path id="Trazado_899039" data-name="Trazado 899039" d="M246.945,162.93l5.305,7.3a2.758,2.758,0,0,0,3.084,1l10.49-3.408V154.792l-10.49-3.408a2.758,2.758,0,0,0-3.084,1l-5.305,7.3A2.759,2.759,0,0,0,246.945,162.93Z" transform="translate(-246.419 -151.248)" fill="#efe2dd"/>
            </g>
            <g id="Grupo_1108136" data-name="Grupo 1108136" transform="translate(4.203 2.464)">
              <path id="Trazado_899040" data-name="Trazado 899040" d="M283.59,166.073v9.582a1.662,1.662,0,0,1-1.148,1.581l-9.341,3.035a2.748,2.748,0,0,1-1.389.08l1.628,2.241a2.758,2.758,0,0,0,3.084,1l10.49-3.408V167.153Z" transform="translate(-271.712 -166.073)" fill="#e1d3ce"/>
            </g>
            <g id="Grupo_1108137" data-name="Grupo 1108137" transform="translate(23.482)">
              <path id="Trazado_899041" data-name="Trazado 899041" d="M406.6,162.93l-5.305,7.3a2.758,2.758,0,0,1-3.084,1l-10.49-3.408V154.792l10.49-3.408a2.758,2.758,0,0,1,3.084,1l5.305,7.3A2.759,2.759,0,0,1,406.6,162.93Z" transform="translate(-387.719 -151.248)" fill="#efe2dd"/>
            </g>
            <g id="Grupo_1108138" data-name="Grupo 1108138" transform="translate(31.815 0)">
              <path id="Trazado_899042" data-name="Trazado 899042" d="M448.4,159.688l-5.305-7.3a2.758,2.758,0,0,0-3.084-1l-2.157.7a2.761,2.761,0,0,1,.255.3l5.305,7.3a2.758,2.758,0,0,1,0,3.242l-5.305,7.3a2.757,2.757,0,0,1-.255.3l2.157.7a2.758,2.758,0,0,0,3.084-1l5.305-7.3A2.759,2.759,0,0,0,448.4,159.688Z" transform="translate(-437.858 -151.249)" fill="#e1d3ce"/>
            </g>
          </g>
          <g id="Grupo_1108141" data-name="Grupo 1108141" transform="translate(19.145)">
            <g id="Grupo_1108140" data-name="Grupo 1108140">
              <path id="Trazado_899043" data-name="Trazado 899043" d="M361.9,177.384h4.046a.748.748,0,0,1,.276.054V148.726a1.839,1.839,0,0,0-1.839-1.839h-.919a1.839,1.839,0,0,0-1.839,1.839v28.712A.746.746,0,0,1,361.9,177.384Z" transform="translate(-361.622 -146.887)" fill="#fbc56d"/>
            </g>
          </g>
          <g id="Grupo_1108143" data-name="Grupo 1108143" transform="translate(20.352)">
            <g id="Grupo_1108142" data-name="Grupo 1108142">
              <path id="Trazado_899044" data-name="Trazado 899044" d="M370.434,146.887h-.919a1.833,1.833,0,0,0-.632.114,1.838,1.838,0,0,1,1.207,1.725v28.658H372a.748.748,0,0,1,.276.054V148.726A1.839,1.839,0,0,0,370.434,146.887Z" transform="translate(-368.883 -146.887)" fill="#e9b665"/>
            </g>
          </g>
          <g id="Grupo_1108144" data-name="Grupo 1108144" transform="translate(18.502 30.331)">
            <path id="Trazado_899045" data-name="Trazado 899045" d="M359.015,346.757h3.354a2.735,2.735,0,0,1,1.265.31V330.314a.919.919,0,0,0-.919-.919h-4.046a.919.919,0,0,0-.919.919v16.753A2.732,2.732,0,0,1,359.015,346.757Z" transform="translate(-357.75 -329.395)" fill="#b9acac"/>
          </g>
          <g id="Grupo_1108145" data-name="Grupo 1108145" transform="translate(20.752 30.331)">
            <path id="Trazado_899046" data-name="Trazado 899046" d="M372.206,330.315v16.443h1.45a2.735,2.735,0,0,1,1.265.31V330.314a.919.919,0,0,0-.919-.919h-2.715a.92.92,0,0,1,.919.919Z" transform="translate(-371.287 -329.395)" fill="#9e9797"/>
          </g>
          <g id="Grupo_1108146" data-name="Grupo 1108146" transform="translate(16.847 47.527)">
            <path id="Trazado_899047" data-name="Trazado 899047" d="M354.065,444.775h-3.354a2.92,2.92,0,0,1-2.92-2.92v-6.064a2.92,2.92,0,0,1,2.92-2.92h3.354a2.92,2.92,0,0,1,2.92,2.92v6.064A2.92,2.92,0,0,1,354.065,444.775Z" transform="translate(-347.791 -432.871)" fill="#ffa78f"/>
          </g>
          <g id="Grupo_1108147" data-name="Grupo 1108147" transform="translate(19.797 47.527)">
            <path id="Trazado_899048" data-name="Trazado 899048" d="M368.869,432.87h-3.324a2.92,2.92,0,0,1,2.92,2.92v6.064a2.92,2.92,0,0,1-2.92,2.92h3.324a2.92,2.92,0,0,0,2.92-2.92V435.79A2.92,2.92,0,0,0,368.869,432.87Z" transform="translate(-365.545 -432.87)" fill="#f89580"/>
          </g>
        </g>
      </g>
      <g id="Grupo_1108150" data-name="Grupo 1108150" transform="translate(0 0.002)">
        <path id="Trazado_899049" data-name="Trazado 899049" d="M154.325,162.253a1.246,1.246,0,0,0-1.246,1.246v2.4a1.246,1.246,0,0,0,2.493,0v-2.4A1.246,1.246,0,0,0,154.325,162.253Z" transform="translate(-127.639 -135.289)"/>
        <path id="Trazado_899050" data-name="Trazado 899050" d="M224.833,162.253a1.246,1.246,0,0,0-1.246,1.246v2.4a1.246,1.246,0,0,0,2.493,0v-2.4A1.246,1.246,0,0,0,224.833,162.253Z" transform="translate(-186.43 -135.289)"/>
        <path id="Trazado_899051" data-name="Trazado 899051" d="M175.351,244.534a1.246,1.246,0,0,0-1.246-1.246h-8.369a1.246,1.246,0,0,0,0,2.493H174.1A1.246,1.246,0,0,0,175.351,244.534Z" transform="translate(-137.153 -202.857)"/>
        <path id="Trazado_899052" data-name="Trazado 899052" d="M143.7,140.635a1.246,1.246,0,0,0,1.246,1.246h3.771a1.246,1.246,0,1,0,0-2.493h-3.771A1.246,1.246,0,0,0,143.7,140.635Z" transform="translate(-119.819 -116.225)"/>
        <path id="Trazado_899053" data-name="Trazado 899053" d="M211.517,141.882h3.771a1.246,1.246,0,0,0,0-2.493h-3.771a1.246,1.246,0,0,0,0,2.493Z" transform="translate(-175.327 -116.225)"/>
        <path id="Trazado_899054" data-name="Trazado 899054" d="M84.321,32.844l-5.305-7.3a4.042,4.042,0,0,0-.54-.6,1.245,1.245,0,0,0-2.207-1.019,4,4,0,0,0-1.73.165L70.313,25.46l-.037-.063a1.246,1.246,0,0,0-2.306.825l-2.03.66v-.63a3.089,3.089,0,0,0-3.085-3.085h-.919a3.089,3.089,0,0,0-3.085,3.085v.63l-2.025-.658A1.246,1.246,0,0,0,54.52,25.4l-.038.065-2.193-.713V21.721l5.143-5.143a1.247,1.247,0,0,0-.637-2.1L48.53,12.822,51.208,7.1a1.246,1.246,0,0,0-1.3-1.763L40.914,6.575,39.256,1.014A1.247,1.247,0,0,0,37.18.489L32.754,4.915c-.476-.41-.941-.782-1.388-1.116A23.182,23.182,0,0,0,24.19.044a1.246,1.246,0,0,0-1.552,1.009l-.949,5.99L13.936,4.624a1.246,1.246,0,0,0-1.6,1.388l.86,5.342-6.176.378a1.246,1.246,0,0,0-.944,1.961l3.4,4.843L4.671,23.342a1.247,1.247,0,0,0,.717,2.117l4.81.641-1.77,4.776A1.246,1.246,0,0,0,9.6,32.556h4.03c0,.034,0,.067,0,.1a5.939,5.939,0,0,0,5.932,5.932h.162V42.5a2.9,2.9,0,0,1-.516,1.666,16.276,16.276,0,0,0-1.756,3.332H11.671A10.238,10.238,0,0,0,1.555,56.247H1.246a1.246,1.246,0,0,0,0,2.493h.2V61.2h-.2a1.246,1.246,0,0,0,0,2.493h.2v2.458h-.2a1.246,1.246,0,0,0,0,2.493h.2V71.1h-.2a1.246,1.246,0,0,0,0,2.493h.2v2.458h-.2a1.246,1.246,0,0,0,0,2.493h.2V81.35A3.744,3.744,0,0,0,5.187,85.09H37.472a1.246,1.246,0,0,0,0-2.493H29.931a4.729,4.729,0,0,0,.306-1.618c0-2.929-2.222-4.677-5.945-4.677s-5.945,1.748-5.945,4.677a13.379,13.379,0,0,0,.1,1.618H13.627v-11c.3.03.6.048.889.048a6.274,6.274,0,0,0,5.006-2.109c.815-1.024,1.4-2.85-.418-5.737a18.72,18.72,0,0,0-3.9-4.251,5.672,5.672,0,0,0-1.577-.895V49.988h3.005q-.2.743-.361,1.531a2.167,2.167,0,0,0,2.122,2.6h1.325v4.636A2.166,2.166,0,0,0,22.9,60.67l1.563,2.707A2.143,2.143,0,0,0,26.34,64.46h0a2.144,2.144,0,0,0,1.876-1.083l1.227-2.125,1.226,2.124a2.148,2.148,0,0,0,1.057.925l1.3,3.028a7.3,7.3,0,0,0,.562,1.057,11.978,11.978,0,0,0,.188,2.658,9.162,9.162,0,0,0,2.081,4.725,4.974,4.974,0,0,0,3.753,1.649,6.251,6.251,0,0,0,1.087-.1c3.491-.616,7.3-2.425,7.756-5.584h3.009V82.6H43.288a1.246,1.246,0,1,0,0,2.493H64.073a4.171,4.171,0,0,0,4.166-4.166V74.859a4.162,4.162,0,0,0-1.655-3.322V67.225a1.247,1.247,0,0,0,0-2.44v-2.45a1.247,1.247,0,0,0,0-2.44V55.662a2.159,2.159,0,0,0-.644-1.539V43.514l2.544.827a1.245,1.245,0,0,0,2.328.756l3.726,1.211a3.992,3.992,0,0,0,4.387-1.337A1.245,1.245,0,0,0,80.8,43.384l-.318-.544,3.843-5.289a3.994,3.994,0,0,0,0-4.707ZM11.134,82.6H5.187A1.248,1.248,0,0,1,3.94,81.351V78.542H5.19a1.246,1.246,0,0,0,0-2.493H3.94V73.591H5.19a1.246,1.246,0,0,0,0-2.493H3.94V68.641H5.19a1.246,1.246,0,0,0,0-2.493H3.94V63.691H5.19a1.246,1.246,0,1,0,0-2.493H3.94V58.741H5.19a1.246,1.246,0,1,0,0-2.493H4.081a7.745,7.745,0,0,1,7.053-6.239V82.6Zm13.158-3.8c2.291,0,3.452.735,3.452,2.184A3.267,3.267,0,0,1,27.16,82.6h-6.2a10.672,10.672,0,0,1-.122-1.618C20.839,79.529,22,78.794,24.292,78.794ZM13.651,61.5A16.07,16.07,0,0,1,17,65.129c.47.745,1.17,2.107.576,2.854a4.374,4.374,0,0,1-3.944,1.106V61.478l.024.019Zm50.44-1.629H60.7V55.989h3.391ZM60.7,67.251h3.391v3.441H60.7V67.251Zm0-2.493v-2.4h3.391v2.4Zm-.6-19.95a1.246,1.246,0,0,0,1.246-1.246V26.251a.593.593,0,0,1,.592-.592h.919a.593.593,0,0,1,.592.592V53.5h-2.1V49.379a1.246,1.246,0,0,0-2.457-.293,10.23,10.23,0,0,0-5.467-1.59H47.643q-.328-.828-.71-1.575a3.986,3.986,0,0,0,3.319.388l3.73-1.212a1.245,1.245,0,0,0,2.328-.757l2.539-.825v.048A1.247,1.247,0,0,0,60.1,44.808ZM45.69,40.495l-3.2-4.408a1.508,1.508,0,0,1,0-1.777l4.844-6.667,2.315,6.088Zm5.094-3.773,2.3,6.045-3.6,1.17a1.507,1.507,0,0,1-1.69-.549l-.5-.692Zm4.836-8.269,3.231,1.05V40.893L55.457,42,52.4,33.959Zm-2.427-.788-1.932,3.3-1.706-4.485ZM37.465,3.73l1.366,4.582A1.246,1.246,0,0,0,40.2,9.19l7.784-1.073L45.6,13.2a1.247,1.247,0,0,0,.885,1.751l7.539,1.507-3.861,3.861a1.247,1.247,0,0,0-.365.881v2.765a4.021,4.021,0,0,0-1.269-.047,1.245,1.245,0,0,0-2.207,1.015,4.027,4.027,0,0,0-.544.6l-.4.556v-2.12a5.663,5.663,0,0,0-4.017-5.411A28.352,28.352,0,0,0,34.565,6.629ZM14.223,30.063H11.388L13.078,25.5a1.246,1.246,0,0,0-1-1.669l-3.856-.514,3.763-3.763a1.247,1.247,0,0,0,.138-1.6L9.4,14.084l5.324-.326a1.246,1.246,0,0,0,1.154-1.442L15.115,7.6l7.208,2.249a1.246,1.246,0,0,0,1.6-.995l.939-5.931a23.174,23.174,0,0,1,5.1,2.934,24.854,24.854,0,0,1,8.705,12.464h-6.07a1.246,1.246,0,0,0,0,2.493h7.122a3.165,3.165,0,0,1,3.161,3.161v5.551L40.47,32.844a4,4,0,0,0-.706,1.668,6.458,6.458,0,0,0-.884-.062h-2.83a1.246,1.246,0,0,0-2.454.3v1.158h-2.1V32.754A4.258,4.258,0,0,1,32.2,30.4l.954-1.446a1.246,1.246,0,1,0-2.081-1.373l-.954,1.446A6.744,6.744,0,0,0,29,32.754v1.7H26.209a6.457,6.457,0,0,0-4,1.383V23.978a3.165,3.165,0,0,1,3.161-3.161h1.406a1.246,1.246,0,0,0,0-2.493H25.372a5.66,5.66,0,0,0-5.654,5.654v2.746h-.162a5.94,5.94,0,0,0-5.334,3.339ZM19.557,36.1a3.44,3.44,0,0,1,0-6.879h.162V36.1h-.162ZM32.545,61.64l-2.023-3.5a1.246,1.246,0,0,0-2.159,0l-2.023,3.5-2.023-3.5a1.247,1.247,0,0,0-1.925-.293l-.181.167V52.875a1.246,1.246,0,0,0-1.246-1.246H18.8a16.957,16.957,0,0,1,2.451-6.04,5.378,5.378,0,0,0,.964-3.091V40.94a4,4,0,0,1,4-4H29.12A2.168,2.168,0,0,0,31.166,38.4h2.758a2.168,2.168,0,0,0,2.046-1.462h2.91a3.979,3.979,0,0,1,1.352.236,4.019,4.019,0,0,0,.238.373l2.406,3.312c0,.026,0,.051,0,.077V42.5a5.378,5.378,0,0,0,.964,3.092,16.952,16.952,0,0,1,2.451,6.04H44.125a1.246,1.246,0,0,0-1.246,1.246v5.136l-.181-.167a1.246,1.246,0,0,0-1.925.293l-2.023,3.5-2.023-3.5a1.246,1.246,0,0,0-2.159,0Zm7.72,13.226a2.614,2.614,0,0,1-2.579-.791,6.626,6.626,0,0,1-1.4-3.2,7.27,7.27,0,0,0,3.434.861h6.171c-.637,1.773-3.663,2.784-5.621,3.129ZM52.709,61.836a1.246,1.246,0,0,0-1.246,1.246v6.161H39.715a4.781,4.781,0,0,1-4.4-2.9l-1.133-2.637a2.213,2.213,0,0,0,.235-.333l1.227-2.124,1.227,2.125a2.166,2.166,0,0,0,3.751,0l1.563-2.707a2.166,2.166,0,0,0,3.183-1.912V54.122H46.7a2.167,2.167,0,0,0,2.122-2.6h0q-.162-.789-.361-1.531h4.962a7.743,7.743,0,0,1,5.431,2.233v1.9a2.159,2.159,0,0,0-.644,1.539V59.9a1.247,1.247,0,0,0,0,2.44v2.45a1.247,1.247,0,0,0,0,2.44v4.313a4.162,4.162,0,0,0-1.655,3.322v6.064A4.141,4.141,0,0,0,56.9,82.6H53.956V63.083a1.246,1.246,0,0,0-1.246-1.246ZM65.746,80.924A1.675,1.675,0,0,1,64.073,82.6H60.718a1.675,1.675,0,0,1-1.673-1.673V74.859a1.675,1.675,0,0,1,1.673-1.673h3.354a1.675,1.675,0,0,1,1.674,1.673v6.064ZM75.24,26.48l-1.706,4.487-1.932-3.3ZM69.338,42l-3.4-1.1V29.5l3.235-1.051L72.4,33.958ZM77,43.388a1.508,1.508,0,0,1-1.69.549l-3.6-1.169,2.3-6.047L77.5,42.693Zm5.3-7.3-3.2,4.4L75.15,33.73l2.314-6.083L82.3,34.309h0a1.508,1.508,0,0,1,0,1.777Z" transform="translate(0 -0.002)"/>
      </g>
    </g>
  </g>
</svg>
