<svg xmlns="http://www.w3.org/2000/svg" xmlns:xlink="http://www.w3.org/1999/xlink" width="169.426" height="169.427" viewBox="0 0 169.426 169.427">
  <defs>
    <clipPath id="clip-path">
      <rect id="Rectángulo_403356" data-name="Rectángulo 403356" width="21.032" height="23.853" fill="none"/>
    </clipPath>
    <clipPath id="clip-path-2">
      <rect id="Rectángulo_403357" data-name="Rectángulo 403357" width="5.751" height="5.898" fill="none"/>
    </clipPath>
    <clipPath id="clip-path-3">
      <rect id="Rectángulo_403358" data-name="Rectángulo 403358" width="6.363" height="6.528" fill="none"/>
    </clipPath>
    <clipPath id="clip-path-4">
      <rect id="Rectángulo_403359" data-name="Rectángulo 403359" width="3.78" height="3.875" fill="none"/>
    </clipPath>
    <clipPath id="clip-path-5">
      <rect id="Rectángulo_403361" data-name="Rectángulo 403361" width="1.058" height="8.069" fill="none"/>
    </clipPath>
    <clipPath id="clip-path-6">
      <rect id="Rectángulo_403362" data-name="Rectángulo 403362" width="1.157" height="8.942" fill="none"/>
    </clipPath>
    <clipPath id="clip-path-7">
      <rect id="Rectángulo_403364" data-name="Rectángulo 403364" width="0.738" height="5.259" fill="none"/>
    </clipPath>
    <clipPath id="clip-path-8">
      <rect id="Rectángulo_403365" data-name="Rectángulo 403365" width="7.17" height="2.45" fill="none"/>
    </clipPath>
    <clipPath id="clip-path-9">
      <rect id="Rectángulo_403366" data-name="Rectángulo 403366" width="7.943" height="2.701" fill="none"/>
    </clipPath>
    <clipPath id="clip-path-10">
      <rect id="Rectángulo_403367" data-name="Rectángulo 403367" width="4.684" height="1.643" fill="none"/>
    </clipPath>
  </defs>
  <g id="Grupo_1112258" data-name="Grupo 1112258" transform="translate(-1250.574 -1400.059)">
    <path id="Trazado_902830" data-name="Trazado 902830" d="M296.322,169.427A84.74,84.74,0,0,1,263.352,6.651a84.63,84.63,0,0,1,92.871,18.16,85.8,85.8,0,0,1,11.1,13.651,84.925,84.925,0,0,1,7.066,79.22,84.631,84.631,0,0,1-78.063,51.744" transform="translate(1038.965 1400.059)" fill="#fbf5ee"/>
    <path id="Trazado_902831" data-name="Trazado 902831" d="M269,99.7c3.373,2.194,5.4,5.309,5.373,9.406-.04,5.014-2.3,9.987-7.09,12.033-2.9,1.238-2.408,3.356-7.1,3.426a19.236,19.236,0,0,1-2.745-1.412c-1.389-.85-3.02-1.182-4.4-2.127a14.1,14.1,0,0,1-3.636-3.62c-5.194-7.556-1.209-17.282,7.35-19.964,2.2-.691,3.773-3.368,5.193-5.317l2.319.264c-1.36,4.146,1.71,5.342,4.736,7.312" transform="translate(1043.759 1412.511)" fill="#993666"/>
    <path id="Trazado_902832" data-name="Trazado 902832" d="M261.09,119.435a2.544,2.544,0,0,1,1.075.07,1.51,1.51,0,0,1,.364.2q.072.049.143.109a1.431,1.431,0,0,1,.411.538,1.139,1.139,0,0,1,.055.154.259.259,0,0,1-.35.336c-.132-.041-.128-.218-.169-.33a.791.791,0,0,0-.02.119c0,.041-.008.083-.014.123a.258.258,0,0,1-.144.224.184.184,0,0,1-.134-.031c-.044-.024-.084-.049-.112-.043-.124.2-.283.115-.454.024-.042-.023-.085-.045-.129-.066-.126-.061-.3-.083-.343.085a1.983,1.983,0,0,0,.02.4.251.251,0,0,1-.035.12c-.208.377-.583-.075-.786-.317a.522.522,0,0,1-.034.116c-.135.184-.263.729-.565.432a.394.394,0,0,1-.422.215.355.355,0,0,1-.229-.274c-.024.027-.055.042-.079.066s-.053.044-.079.066a.531.531,0,0,1-.175.1c-.3.087-.633-.27-.695-.625-.252-1.448,1.991-1.718,2.9-1.814" transform="translate(1045.259 1416.199)" fill="#ae7540"/>
    <path id="Trazado_902833" data-name="Trazado 902833" d="M262.243,114.585a12.317,12.317,0,0,1,.5-1.644,12.589,12.589,0,0,1,.715-1.548q.223-.409.476-.8a11.2,11.2,0,0,1,6.633-4.874c.259-.078.518-.15.778-.219.519-.137,1.04-.259,1.553-.375q.507-.116,1.01-.243a12.638,12.638,0,0,0,6.3-3.213l.62-.514c.2-.168.4-.333.6-.489l2.168.864c-2.4,3.643.246,5.6,2.649,8.3,2.677,3,3.82,6.542,2.712,10.487a16.219,16.219,0,0,1-1.446,3.527c-2.2,3.938-6.12,5.762-10.3,6.806-2.8.7-5.853,1.083-8.434-.822a15.243,15.243,0,0,1-3.293-3.459c-2.407-3.485-4.1-7.482-3.239-11.784" transform="translate(1045.778 1413.665)" fill="#b24b7a"/>
    <path id="Trazado_902834" data-name="Trazado 902834" d="M285.133,110.48a14.543,14.543,0,0,1,2.1,3.519,11.265,11.265,0,0,1,.53,1.757,10.916,10.916,0,0,1-.19,5.344,10.633,10.633,0,0,1-.65,1.681,9.793,9.793,0,0,1-3.171,4.626,10.034,10.034,0,0,1-1.492.991,11.222,11.222,0,0,1-1.929.989c-.519.177-1.045.345-1.579.495s-1.07.282-1.616.394c-2.795.7-5.853,1.083-8.434-.822a15.419,15.419,0,0,1-5.142-7.062,15.923,15.923,0,0,1-.594-2.085,10.624,10.624,0,0,1-.184-5.467,11.557,11.557,0,0,1,.537-1.744c1.7-4.838,6.628-6.929,11.346-7.473.6-.145,1.184-.311,1.76-.507a13.14,13.14,0,0,0,3.289-1.618.4.4,0,0,1,.629.309c.163,2.648,3.326,4.782,4.786,6.673" transform="translate(1045.846 1414.038)" fill="#f4d8ba"/>
    <g id="Grupo_1112248" data-name="Grupo 1112248" transform="translate(1310.325 1520.713)" opacity="0.1">
      <g id="Grupo_1111690" data-name="Grupo 1111690">
        <g id="Grupo_1111689" data-name="Grupo 1111689" clip-path="url(#clip-path)">
          <path id="Trazado_900868" data-name="Trazado 900868" d="M268.79,110.8a8.14,8.14,0,0,0-3.6,4.162,11.072,11.072,0,0,0-.447,1.416,9.579,9.579,0,0,0,.076,4.418c.152.644.286,1.183.447,1.72a13.584,13.584,0,0,0,2.891,5.377,5.752,5.752,0,0,0,1.143,1.018c2.17,1.4,4.607,1.011,6.915.383l.086-.023c.412-.112.838-.228,1.245-.362s.855-.283,1.286-.463a7.118,7.118,0,0,0,.907-.475c.207-.125.414-.258.644-.406a10.508,10.508,0,0,0,1.2-.866,9.57,9.57,0,0,0,2.537-3.912c.043-.11.087-.22.132-.33a10.543,10.543,0,0,0,.4-1.092,9.653,9.653,0,0,0,.17-4.461,10.154,10.154,0,0,0-.41-1.471,9.988,9.988,0,0,0-.606-1.334,15.832,15.832,0,0,0-1.043-1.653,10.178,10.178,0,0,0-.758-.934c-.135-.15-.275-.3-.417-.457A12.123,12.123,0,0,1,279.324,108a5.135,5.135,0,0,1-.456-1.421.1.1,0,0,0-.107,0c-.309.229-.636.45-.973.653a14.192,14.192,0,0,1-1.914.959l-.236.1a7.878,7.878,0,0,1-1.305.464,18.789,18.789,0,0,0-5.543,2.049m-.143-.237a19.351,19.351,0,0,1,5.624-2.081,9.667,9.667,0,0,0,1.5-.551,14.135,14.135,0,0,0,1.876-.941c.322-.194.639-.405.949-.637a.342.342,0,0,1,.548.187,5.027,5.027,0,0,0,.435,1.342,14.351,14.351,0,0,0,2.628,3.443,10.814,10.814,0,0,1,.78.959,16.387,16.387,0,0,1,1.06,1.681,9.947,9.947,0,0,1,1.043,2.883,9.932,9.932,0,0,1-.176,4.589,15.185,15.185,0,0,1-.535,1.448,9.969,9.969,0,0,1-2.613,4.021,11.031,11.031,0,0,1-1.228.889c-.218.141-.435.279-.652.411a7.244,7.244,0,0,1-.943.492c-.423.179-.865.328-1.307.472s-.892.266-1.345.389c-2.348.638-4.878,1.04-7.138-.418a6.109,6.109,0,0,1-1.2-1.066A14.008,14.008,0,0,1,265,122.6c-.171-.573-.313-1.153-.452-1.736a9.9,9.9,0,0,1-.075-4.545,11.323,11.323,0,0,1,.457-1.451,8.471,8.471,0,0,1,3.714-4.3" transform="translate(-264.245 -106.288)" fill="#993666"/>
          <path id="Trazado_900869" data-name="Trazado 900869" d="M270.125,113.647a6.808,6.808,0,0,0-3,3.335,9.3,9.3,0,0,0-.353,1.043,7.724,7.724,0,0,0-.114,3.247c.032.2.072.4.111.594.045.228.092.463.128.7a12.553,12.553,0,0,0,1.688,5.254,2.221,2.221,0,0,0,.931.908,6.748,6.748,0,0,0,5.353-.3c.308-.125.656-.266.981-.418.291-.137.625-.3.933-.477l.059-.034a9.428,9.428,0,0,0,1.063-.792,9.244,9.244,0,0,0,.857-.779,8.842,8.842,0,0,0,1.821-3.268c.027-.079.056-.159.083-.238.111-.316.217-.614.294-.925a9.336,9.336,0,0,0,.165-3.616,9.435,9.435,0,0,0-.652-2.3c-.218-.517-.477-1.011-.678-1.386a8.161,8.161,0,0,0-.489-.791l-.089-.126a9.551,9.551,0,0,1-1.559-2.878,3.715,3.715,0,0,0-.291-.683c-.03-.057-.056-.109-.079-.157a19.247,19.247,0,0,1-2.4,1.757c-.107.066-.21.135-.313.2-.127.085-.26.173-.393.253a3.213,3.213,0,0,1-.527.264,22.529,22.529,0,0,0-3.537,1.609m-.143-.237a22.46,22.46,0,0,1,3.58-1.629,3.116,3.116,0,0,0,.484-.244c.233-.141.462-.3.7-.454a17.267,17.267,0,0,0,2.3-1.693.445.445,0,0,1,.067-.05c.168-.1.355-.067.4.028a6.356,6.356,0,0,1,.421.959,9.846,9.846,0,0,0,1.606,2.917,8.152,8.152,0,0,1,.506.82c.246.459.485.925.688,1.409a9.784,9.784,0,0,1,.4,1.132,10.005,10.005,0,0,1,.268,1.235,9.582,9.582,0,0,1-.17,3.724c-.1.4-.247.793-.384,1.186a7.855,7.855,0,0,1-2.763,4.171,9.441,9.441,0,0,1-1.1.815l-.062.037c-.306.178-.629.335-.955.487s-.66.288-1,.425a7.109,7.109,0,0,1-5.565.3,2.5,2.5,0,0,1-1.053-1.011,12.818,12.818,0,0,1-1.732-5.364c-.066-.431-.168-.856-.238-1.29a8.03,8.03,0,0,1,.119-3.361,9.5,9.5,0,0,1,.364-1.075,7.08,7.08,0,0,1,3.11-3.47" transform="translate(-263.972 -105.883)" fill="#993666"/>
          <path id="Trazado_900870" data-name="Trazado 900870" d="M275.837,112.519a.545.545,0,0,0-.123.1c-.63.695-1.283,1.338-1.78,1.821-.1.1-.2.2-.288.3a4.012,4.012,0,0,1-.62.576c-.219.15-.446.3-.677.451a7.819,7.819,0,0,0-3.272,3.248c-.116.27-.2.478-.261.677a6.362,6.362,0,0,0-.3,2.088c0,.107.008.215.015.321a4.967,4.967,0,0,1,.011.538l-.018.38a10.27,10.27,0,0,0,.506,4.742c.18.411.346.73.7.793a4.988,4.988,0,0,0,3.488-.774c.1-.06.2-.124.3-.19.191-.128.414-.28.631-.448.18-.14.392-.308.582-.486a10.862,10.862,0,0,0,1.218-1.469,9.128,9.128,0,0,0,1.111-2.636l.032-.115c.07-.259.144-.527.2-.791a10.3,10.3,0,0,0,.16-2.783c-.024-.309-.061-.623-.112-.935-.045-.279-.1-.563-.179-.872-.087-.364-.19-.709-.313-1.123a6.674,6.674,0,0,0-.224-.653,7.366,7.366,0,0,1-.605-2.486.477.477,0,0,0-.145-.293Zm-.143-.237a.534.534,0,0,1,.2-.077c.111-.014.394.262.406.576a7,7,0,0,0,.585,2.392,7.164,7.164,0,0,1,.233.679c.111.373.224.75.318,1.137.071.293.134.59.183.892s.09.636.115.959a10.461,10.461,0,0,1-.165,2.857c-.062.313-.149.62-.233.925a9.4,9.4,0,0,1-1.146,2.715,11.236,11.236,0,0,1-1.26,1.519c-.188.176-.394.341-.6.5s-.426.311-.647.459c-.1.068-.206.134-.311.2a5.287,5.287,0,0,1-3.679.809c-.507-.09-.725-.534-.909-.955a11.284,11.284,0,0,1-.511-5.246c.013-.279-.023-.56-.027-.843a6.691,6.691,0,0,1,.314-2.177c.077-.237.171-.47.27-.7.815-1.892,2.6-2.824,4.046-3.818a8.033,8.033,0,0,0,.872-.845c.569-.552,1.179-1.16,1.767-1.808a.84.84,0,0,1,.185-.152" transform="translate(-263.711 -105.488)" fill="#993666"/>
          <path id="Trazado_900871" data-name="Trazado 900871" d="M274.415,115.533a33.418,33.418,0,0,0-1.865,3.007c-.291.564-.606,1.125-.913,1.666-.468.832-.954,1.693-1.351,2.571a7.768,7.768,0,0,0-.691,4.952c.131.574.227.722.452.687a2.706,2.706,0,0,0,.983-.366,4.664,4.664,0,0,0,1.767-2.2,20.219,20.219,0,0,0,1.157-6.808l.03-.535c.024-.417.055-.912.1-1.411a8.2,8.2,0,0,1,.336-1.564m.056-.54a.222.222,0,0,1,.321.261,9.084,9.084,0,0,0-.437,1.866c-.037.463-.067.932-.094,1.4-.144,2.513-.222,5.115-1.208,7.434a4.975,4.975,0,0,1-1.88,2.329,2.978,2.978,0,0,1-1.083.4c-.539.085-.666-.463-.765-.9a8.123,8.123,0,0,1,.709-5.128c.662-1.463,1.534-2.823,2.27-4.25a36.237,36.237,0,0,1,2.1-3.352.236.236,0,0,1,.07-.068" transform="translate(-263.58 -105.115)" fill="#993666"/>
        </g>
      </g>
    </g>
    <path id="Trazado_902835" data-name="Trazado 902835" d="M301.433,122.333l-6.163,2.517a2.09,2.09,0,0,0-1.145,2.724l2.517,6.164a2.091,2.091,0,0,0,2.726,1.144l6.163-2.517a2.089,2.089,0,0,0,1.144-2.724l-2.516-6.164a2.091,2.091,0,0,0-2.726-1.144" transform="translate(1050.098 1416.573)" fill="#e3b07d"/>
    <path id="Trazado_902836" data-name="Trazado 902836" d="M308.088,119.373l-2.68,6.094a2.091,2.091,0,0,0,1.073,2.755l6.094,2.679a2.088,2.088,0,0,0,2.754-1.072l2.68-6.094a2.092,2.092,0,0,0-1.072-2.755l-6.095-2.679a2.089,2.089,0,0,0-2.754,1.072" transform="translate(1051.62 1416.025)" fill="#ce9a68"/>
    <path id="Trazado_902837" data-name="Trazado 902837" d="M313.948,121.5a.539.539,0,1,0-.755-.108.539.539,0,0,0,.755.108" transform="translate(1052.682 1416.35)" fill="#e3b07d"/>
    <path id="Trazado_902838" data-name="Trazado 902838" d="M311.359,121.492a.154.154,0,0,0,.205-.185c-.136-.485-.469-1.375-1-.9s.324.9.791,1.083" transform="translate(1052.319 1416.315)" fill="#ae7540"/>
    <path id="Trazado_902839" data-name="Trazado 902839" d="M322.851,115.129l-6.557-1.151a2.09,2.09,0,0,0-2.42,1.7l-1.151,6.557a2.088,2.088,0,0,0,1.7,2.419l6.557,1.152a2.091,2.091,0,0,0,2.42-1.7l1.151-6.557a2.089,2.089,0,0,0-1.7-2.42" transform="translate(1052.628 1415.46)" fill="#e3b07d"/>
    <path id="Trazado_902840" data-name="Trazado 902840" d="M321.019,121.538a.538.538,0,1,0-.076-.758.539.539,0,0,0,.076.758" transform="translate(1053.727 1416.357)" fill="#ce9a68"/>
    <path id="Trazado_902841" data-name="Trazado 902841" d="M317.971,120.043a.539.539,0,1,0-.075-.758.539.539,0,0,0,.075.758" transform="translate(1053.315 1416.155)" fill="#ce9a68"/>
    <path id="Trazado_902842" data-name="Trazado 902842" d="M314.28,122.184a.539.539,0,1,0-.075-.758.539.539,0,0,0,.075.758" transform="translate(1052.816 1416.444)" fill="#ce9a68"/>
    <path id="Trazado_902843" data-name="Trazado 902843" d="M317.164,116.709a.539.539,0,1,0-.075-.758.539.539,0,0,0,.075.758" transform="translate(1053.206 1415.705)" fill="#ce9a68"/>
    <path id="Trazado_902844" data-name="Trazado 902844" d="M318.941,122.57a.154.154,0,0,0,.023-.276c-.43-.26-1.282-.681-1.341.027s.851.435,1.318.249" transform="translate(1053.294 1416.539)" fill="#ae7540"/>
    <path id="Trazado_902845" data-name="Trazado 902845" d="M320.412,119.024a.155.155,0,0,0,.229.156c.437-.247,1.223-.783.633-1.182s-.8.528-.863,1.026" transform="translate(1053.671 1415.995)" fill="#ae7540"/>
    <path id="Trazado_902846" data-name="Trazado 902846" d="M314.713,118.22a.154.154,0,0,1,.187-.2c.482.14,1.37.481.888,1s-.9-.331-1.075-.8" transform="translate(1052.9 1416.01)" fill="#ae7540"/>
    <path id="Trazado_902847" data-name="Trazado 902847" d="M316.5,44.51a4.622,4.622,0,0,1,.334-3.442l9.449-9.7a.479.479,0,0,1,.61-.065,4.444,4.444,0,0,1,1.792,2.543,3.987,3.987,0,0,1-.415,3.382l-9.442,9.7a.477.477,0,0,1-.617.059,4.466,4.466,0,0,1-1.71-2.468" transform="translate(1053.119 1404.278)" fill="#e3b07d"/>
    <path id="Trazado_902848" data-name="Trazado 902848" d="M326.92,36.578a3.78,3.78,0,0,0,.156-2.679,4.029,4.029,0,0,0-1.547-2.258,4.353,4.353,0,0,0-.114,2.727,4.054,4.054,0,0,0,1.505,2.21" transform="translate(1054.326 1404.336)" fill="#ae7540"/>
    <g id="Grupo_1112249" data-name="Grupo 1112249" transform="translate(1373.393 1438.431)" opacity="0.5">
      <g id="Grupo_1111693" data-name="Grupo 1111693">
        <g id="Grupo_1111692" data-name="Grupo 1111692" clip-path="url(#clip-path-2)">
          <path id="Trazado_900898" data-name="Trazado 900898" d="M325.553,33.9l-.1-.1L319.8,39.6l.1.1Z" transform="translate(-319.803 -33.803)" fill="#be8854"/>
        </g>
      </g>
    </g>
    <g id="Grupo_1112250" data-name="Grupo 1112250" transform="translate(1373.221 1439.878)" opacity="0.5">
      <g id="Grupo_1111696" data-name="Grupo 1111696">
        <g id="Grupo_1111695" data-name="Grupo 1111695" clip-path="url(#clip-path-3)">
          <path id="Trazado_900899" data-name="Trazado 900899" d="M326.015,35.177l-.1-.1-6.262,6.431.1.1Z" transform="translate(-319.652 -35.078)" fill="#be8854"/>
        </g>
      </g>
    </g>
    <g id="Grupo_1112251" data-name="Grupo 1112251" transform="translate(1376.419 1440.652)" opacity="0.5">
      <g id="Grupo_1111699" data-name="Grupo 1111699">
        <g id="Grupo_1111698" data-name="Grupo 1111698" clip-path="url(#clip-path-4)">
          <path id="Trazado_900900" data-name="Trazado 900900" d="M326.249,35.859l-.1-.1-3.678,3.778.1.1Z" transform="translate(-322.469 -35.76)" fill="#be8854"/>
        </g>
      </g>
    </g>
    <path id="Trazado_902849" data-name="Trazado 902849" d="M318.992,41.912a4.627,4.627,0,0,1-1.845-2.929l1.535-13.471a.482.482,0,0,1,.443-.426A4.456,4.456,0,0,1,322.1,26a3.99,3.99,0,0,1,1.742,2.931L322.31,42.393a.479.479,0,0,1-.453.426,4.481,4.481,0,0,1-2.865-.907" transform="translate(1053.23 1403.448)" fill="#edbf8f"/>
    <path id="Trazado_902850" data-name="Trazado 902850" d="M323.118,28.507a3.79,3.79,0,0,0-1.518-2.216,4.04,4.04,0,0,0-2.609-.84,4.361,4.361,0,0,0,1.58,2.229,4.058,4.058,0,0,0,2.546.826" transform="translate(1053.48 1403.498)" fill="#ae7540"/>
    <g id="Grupo_1112252" data-name="Grupo 1112252" transform="translate(1372.415 1431.391)" opacity="0.5">
      <g id="Grupo_1111702" data-name="Grupo 1111702">
        <g id="Grupo_1111701" data-name="Grupo 1111701" clip-path="url(#clip-path-5)">
          <rect id="Rectángulo_403360" data-name="Rectángulo 403360" width="8.104" height="0.142" transform="matrix(0.112, -0.994, 0.994, 0.112, 0.004, 8.053)" fill="#be8854"/>
        </g>
      </g>
    </g>
    <g id="Grupo_1112253" data-name="Grupo 1112253" transform="translate(1373.551 1432.267)" opacity="0.5">
      <g id="Grupo_1111705" data-name="Grupo 1111705">
        <g id="Grupo_1111704" data-name="Grupo 1111704" clip-path="url(#clip-path-6)">
          <path id="Trazado_900903" data-name="Trazado 900903" d="M321.1,28.389l-.141-.016L319.942,37.3l.141.016Z" transform="translate(-319.943 -28.373)" fill="#be8854"/>
        </g>
      </g>
    </g>
    <g id="Grupo_1112254" data-name="Grupo 1112254" transform="translate(1374.932 1432.503)" opacity="0.5">
      <g id="Grupo_1111708" data-name="Grupo 1111708">
        <g id="Grupo_1111707" data-name="Grupo 1111707" clip-path="url(#clip-path-7)">
          <rect id="Rectángulo_403363" data-name="Rectángulo 403363" width="5.277" height="0.142" transform="matrix(0.112, -0.994, 0.994, 0.112, 0.003, 5.243)" fill="#be8854"/>
        </g>
      </g>
    </g>
    <path id="Trazado_902851" data-name="Trazado 902851" d="M338.623,50.58a4.311,4.311,0,0,1-3.043,1.286l-11.922-3.874a.455.455,0,0,1-.3-.506,4.764,4.764,0,0,1,1.45-2.748,3.69,3.69,0,0,1,3.025-1.186l11.911,3.871a.455.455,0,0,1,.293.518,4.8,4.8,0,0,1-1.419,2.64" transform="translate(1054.07 1405.942)" fill="#edbf8f"/>
    <path id="Trazado_902852" data-name="Trazado 902852" d="M327.349,43.9a3.578,3.578,0,0,0-2.328,1.093,4.319,4.319,0,0,0-1.3,2.4,4.144,4.144,0,0,0,2.353-1.152,4.337,4.337,0,0,0,1.279-2.342" transform="translate(1054.119 1405.992)" fill="#ae7540"/>
    <g id="Grupo_1112255" data-name="Grupo 1112255" transform="translate(1381.761 1451.023)" opacity="0.5">
      <g id="Grupo_1111711" data-name="Grupo 1111711">
        <g id="Grupo_1111710" data-name="Grupo 1111710" clip-path="url(#clip-path-8)">
          <path id="Trazado_900906" data-name="Trazado 900906" d="M334.345,47.212,327.219,44.9l-.044.134,7.127,2.316Z" transform="translate(-327.175 -44.896)" fill="#be8854"/>
        </g>
      </g>
    </g>
    <g id="Grupo_1112256" data-name="Grupo 1112256" transform="translate(1380.932 1452.257)" opacity="0.5">
      <g id="Grupo_1111714" data-name="Grupo 1111714">
        <g id="Grupo_1111713" data-name="Grupo 1111713" clip-path="url(#clip-path-9)">
          <path id="Trazado_900907" data-name="Trazado 900907" d="M334.388,48.55l-7.9-2.567-.043.134,7.9,2.567Z" transform="translate(-326.445 -45.983)" fill="#be8854"/>
        </g>
      </g>
    </g>
    <g id="Grupo_1112257" data-name="Grupo 1112257" transform="translate(1380.166 1453.039)" opacity="0.5">
      <g id="Grupo_1111717" data-name="Grupo 1111717">
        <g id="Grupo_1111716" data-name="Grupo 1111716" clip-path="url(#clip-path-10)">
          <path id="Trazado_900908" data-name="Trazado 900908" d="M330.454,48.18l-4.641-1.507-.043.134,4.641,1.508Z" transform="translate(-325.77 -46.672)" fill="#be8854"/>
        </g>
      </g>
    </g>
    <path id="Trazado_902853" data-name="Trazado 902853" d="M257.356,38.74a1.745,1.745,0,0,0-2.092-.076,61.956,61.956,0,0,1-6.606,3.87,78.481,78.481,0,0,1-15.338,5.979,1.229,1.229,0,0,0-1.027,1.479,1.506,1.506,0,0,0,1.847.776,81.952,81.952,0,0,0,16.109-6.282,63.756,63.756,0,0,0,6.926-4.067,1.04,1.04,0,0,0,.182-1.679" transform="translate(1041.754 1405.242)" fill="#8fb35c"/>
    <path id="Trazado_902854" data-name="Trazado 902854" d="M255.2,38.627a2.8,2.8,0,0,1,.9-.311l.4-.018a.913.913,0,0,1,.588.233l.044.062a.5.5,0,0,1,.171.4.772.772,0,0,1-.068.5,1.61,1.61,0,0,1-.335.528,2.205,2.205,0,0,1-.51.495l-.435.278a2.824,2.824,0,0,1-.9.311l-.4.018a.919.919,0,0,1-.588-.233l-.044-.064a.492.492,0,0,1-.171-.4.772.772,0,0,1,.068-.5,1.609,1.609,0,0,1,.335-.528,2.229,2.229,0,0,1,.51-.495l.435-.278" transform="translate(1044.673 1405.235)" fill="#a4c079"/>
    <path id="Trazado_902855" data-name="Trazado 902855" d="M257.208,37.788a1.4,1.4,0,0,1,1.932.25c.316.451-.1,1.42-.882,1.829a1.4,1.4,0,0,1-1.931-.251c-.317-.45.1-1.419.881-1.828" transform="translate(1044.995 1405.131)" fill="#8fb35c"/>
    <path id="Trazado_902856" data-name="Trazado 902856" d="M261.6,35.988c.331.471.011,1.374-.7,1.937-.679.535-1.6.767-1.945.271-.33-.471-.011-1.375.7-1.938.679-.534,1.6-.766,1.945-.27" transform="translate(1045.347 1404.886)" fill="#8fb35c"/>
    <path id="Trazado_902857" data-name="Trazado 902857" d="M258.27,36.326c.908-.553,1.706-.576,2.094-.024.158.225.022.715-.148,1.024a3.207,3.207,0,0,1-1.036,1.07c-.908.552-1.707.576-2.1.023-.158-.224-.022-.714.149-1.023a3.175,3.175,0,0,1,1.036-1.07" transform="translate(1045.103 1404.911)" fill="#8fb35c"/>
    <path id="Trazado_902858" data-name="Trazado 902858" d="M262.973,34.634a1.6,1.6,0,0,1-.587,2.031c-.739.588-1.668.689-2.023.184a1.606,1.606,0,0,1,.587-2.032c.739-.588,1.666-.689,2.023-.183" transform="translate(1045.532 1404.696)" fill="#a4c079"/>
    <path id="Trazado_902859" data-name="Trazado 902859" d="M259.555,34.338c.746-.459,1.71-.519,2.046-.041.305.435.158,1.22-.638,1.708-.746.459-1.71.519-2.044.041-.305-.435-.159-1.22.637-1.708" transform="translate(1045.34 1404.649)" fill="#8fb35c"/>
    <path id="Trazado_902860" data-name="Trazado 902860" d="M255.212,34.583c.746-.459,1.71-.519,2.046-.041.305.435.158,1.22-.638,1.708-.746.459-1.71.519-2.044.041-.305-.435-.159-1.22.637-1.708" transform="translate(1044.753 1404.683)" fill="#8fb35c"/>
    <path id="Trazado_902861" data-name="Trazado 902861" d="M263.884,32.542a1.479,1.479,0,0,1-.411,2.048c-.723.6-1.824.788-2.193.262a1.479,1.479,0,0,1,.411-2.049c.723-.6,1.823-.787,2.193-.261" transform="translate(1045.645 1404.416)" fill="#a4c079"/>
    <path id="Trazado_902862" data-name="Trazado 902862" d="M262.292,32.684c.741,1.055-2.047,3.277-2.832,2.159-.741-1.055,2.046-3.277,2.832-2.159" transform="translate(1045.417 1404.436)" fill="#8fb35c"/>
    <path id="Trazado_902863" data-name="Trazado 902863" d="M258.587,32.628c.93-.563,1.736-.385,2.108.146.344.488.03,1.538-.828,2.058-.93.563-1.736.384-2.108-.145-.344-.489-.03-1.539.828-2.059" transform="translate(1045.185 1404.422)" fill="#a4c079"/>
    <path id="Trazado_902864" data-name="Trazado 902864" d="M258.109,33.133c.3.431.188,1.125-.475,1.706-.513.45-1.536.909-1.857.452-.3-.432-.188-1.125.475-1.706.513-.451,1.536-.909,1.857-.452" transform="translate(1044.914 1404.512)" fill="#8fb35c"/>
    <path id="Trazado_902865" data-name="Trazado 902865" d="M260.253,37.035c.326.463.062,1.279-.646,1.849-.612.493-1.628.863-1.972.373-.326-.463-.062-1.279.646-1.849.612-.493,1.628-.864,1.972-.373" transform="translate(1045.168 1405.033)" fill="#a4c079"/>
    <path id="Trazado_902866" data-name="Trazado 902866" d="M258.092,34.84c.327.465-.167,1.483-.878,1.972-.8.554-1.506.516-1.849.028-.328-.465.167-1.483.877-1.972.8-.554,1.506-.515,1.849-.028" transform="translate(1044.866 1404.717)" fill="#a4c079"/>
    <path id="Trazado_902867" data-name="Trazado 902867" d="M257.53,35.162c.758-.476,1.863-.652,2.223-.14.33.471.138,1.269-.7,1.795-.758.476-1.863.652-2.223.14-.33-.47-.138-1.269.7-1.795" transform="translate(1045.057 1404.75)" fill="#a4c079"/>
    <path id="Trazado_902868" data-name="Trazado 902868" d="M257.527,36.686c.352.5-.14,1.577-.907,2.117-.846.6-1.63.583-2,.06-.352-.5.138-1.577.906-2.117.846-.595,1.63-.583,2-.06" transform="translate(1044.764 1404.965)" fill="#8fb35c"/>
    <path id="Trazado_902869" data-name="Trazado 902869" d="M253.745,35.713c.787-.506,1.753-.521,2.1-.025a1.349,1.349,0,0,1-.611,1.837c-.786.506-1.753.522-2.1.026a1.348,1.348,0,0,1,.61-1.838" transform="translate(1044.556 1404.833)" fill="#8fb35c"/>
    <path id="Trazado_902870" data-name="Trazado 902870" d="M255.018,37.312a1.562,1.562,0,0,1-.447,2.084c-.7.605-1.773.848-2.144.319a1.561,1.561,0,0,1,.446-2.084c.7-.605,1.773-.848,2.145-.319" transform="translate(1044.452 1405.063)" fill="#a4c079"/>
    <path id="Trazado_902871" data-name="Trazado 902871" d="M257.19,33.925c.762-.479,1.653-.465,1.984.007a1.3,1.3,0,0,1-.612,1.75c-.763.479-1.653.465-1.984-.007a1.3,1.3,0,0,1,.612-1.75" transform="translate(1045.023 1404.597)" fill="#8fb35c"/>
    <path id="Trazado_902872" data-name="Trazado 902872" d="M254.436,38.142l.338-.035a.735.735,0,0,1,.509.2l.044.062a.5.5,0,0,1,.165.344.754.754,0,0,1-.008.447,1.379,1.379,0,0,1-.237.516,1.777,1.777,0,0,1-.381.476l-.316.255a2.074,2.074,0,0,1-.689.313l-.338.035a.735.735,0,0,1-.509-.2l-.044-.062a.5.5,0,0,1-.165-.344.754.754,0,0,1,.008-.447,1.387,1.387,0,0,1,.237-.517,1.8,1.8,0,0,1,.381-.476l.316-.254a2.077,2.077,0,0,1,.689-.314" transform="translate(1044.529 1405.209)" fill="#8fb35c"/>
    <path id="Trazado_902873" data-name="Trazado 902873" d="M249.951,33.938a1.743,1.743,0,0,0-1.913.849,62.36,62.36,0,0,1-4.241,6.375,78.465,78.465,0,0,1-11.163,12.1,1.227,1.227,0,0,0-.274,1.779,1.5,1.5,0,0,0,2-.111,81.969,81.969,0,0,0,11.724-12.71,63.84,63.84,0,0,0,4.441-6.693,1.04,1.04,0,0,0-.573-1.588" transform="translate(1041.733 1404.639)" fill="#a4c079"/>
    <path id="Trazado_902874" data-name="Trazado 902874" d="M248.449,33.655a2.841,2.841,0,0,1,.67-.674c.117-.062.233-.126.348-.19a.923.923,0,0,1,.631-.049l.068.037a.5.5,0,0,1,.33.288.753.753,0,0,1,.157.478,1.592,1.592,0,0,1-.068.621,2.271,2.271,0,0,1-.241.669c-.09.148-.179.294-.27.44a2.82,2.82,0,0,1-.67.674l-.348.19a.923.923,0,0,1-.631.049l-.067-.037a.494.494,0,0,1-.33-.288.76.76,0,0,1-.158-.478,1.593,1.593,0,0,1,.069-.621,2.239,2.239,0,0,1,.241-.669l.269-.44" transform="translate(1043.866 1404.479)" fill="#8fb35c"/>
    <path id="Trazado_902875" data-name="Trazado 902875" d="M249.905,31.986a1.4,1.4,0,0,1,1.846-.622c.481.266.534,1.319.009,2.03a1.4,1.4,0,0,1-1.846.622c-.481-.266-.534-1.319-.009-2.03" transform="translate(1044.091 1404.277)" fill="#a4c079"/>
    <path id="Trazado_902876" data-name="Trazado 902876" d="M253.049,28.451c.5.278.612,1.229.216,2.049-.376.778-1.1,1.389-1.629,1.1-.5-.278-.613-1.231-.217-2.05.376-.778,1.1-1.388,1.63-1.1" transform="translate(1044.314 1403.895)" fill="#a4c079"/>
    <path id="Trazado_902877" data-name="Trazado 902877" d="M250.192,30.236c.574-.895,1.282-1.266,1.873-.94.24.133.333.633.316.985a3.186,3.186,0,0,1-.463,1.416c-.573.9-1.282,1.266-1.872.94-.24-.132-.333-.632-.316-.984a3.189,3.189,0,0,1,.462-1.417" transform="translate(1044.118 1404.003)" fill="#a4c079"/>
    <path id="Trazado_902878" data-name="Trazado 902878" d="M253.7,26.628a1.606,1.606,0,0,1,.363,2.083c-.406.853-1.2,1.35-1.738,1.051a1.605,1.605,0,0,1-.363-2.083c.406-.853,1.2-1.35,1.738-1.051" transform="translate(1044.391 1403.646)" fill="#8fb35c"/>
    <path id="Trazado_902879" data-name="Trazado 902879" d="M250.507,27.862c.47-.739,1.309-1.216,1.82-.933a1.259,1.259,0,0,1,.177,1.814c-.47.739-1.309,1.216-1.821.934a1.261,1.261,0,0,1-.176-1.815" transform="translate(1044.184 1403.688)" fill="#a4c079"/>
    <path id="Trazado_902880" data-name="Trazado 902880" d="M246.712,29.987c.47-.739,1.309-1.216,1.82-.933a1.259,1.259,0,0,1,.177,1.814c-.47.739-1.309,1.216-1.821.934a1.261,1.261,0,0,1-.176-1.815" transform="translate(1043.671 1403.975)" fill="#a4c079"/>
    <path id="Trazado_902881" data-name="Trazado 902881" d="M253.6,24.353a1.479,1.479,0,0,1,.529,2.021c-.388.856-1.294,1.507-1.857,1.2a1.48,1.48,0,0,1-.529-2.022c.388-.855,1.294-1.508,1.857-1.2" transform="translate(1044.365 1403.34)" fill="#8fb35c"/>
    <path id="Trazado_902882" data-name="Trazado 902882" d="M252.216,25.187c1.128.622-.4,3.843-1.6,3.182-1.129-.622.4-3.843,1.6-3.182" transform="translate(1044.185 1403.451)" fill="#a4c079"/>
    <path id="Trazado_902883" data-name="Trazado 902883" d="M248.875,26.753c.589-.914,1.392-1.107,1.959-.793a1.668,1.668,0,0,1,.158,2.214c-.588.914-1.391,1.106-1.958.793a1.667,1.667,0,0,1-.159-2.214" transform="translate(1043.958 1403.549)" fill="#8fb35c"/>
    <path id="Trazado_902884" data-name="Trazado 902884" d="M248.666,27.407c.462.255.663.929.322,1.741-.264.63-.982,1.49-1.471,1.22-.462-.254-.663-.929-.322-1.741.263-.629.982-1.49,1.471-1.22" transform="translate(1043.752 1403.756)" fill="#a4c079"/>
    <path id="Trazado_902885" data-name="Trazado 902885" d="M252.3,29.985c.495.274.618,1.122.23,1.945-.335.712-1.085,1.489-1.609,1.2-.5-.272-.618-1.122-.23-1.945.334-.711,1.084-1.489,1.609-1.2" transform="translate(1044.217 1404.104)" fill="#8fb35c"/>
    <path id="Trazado_902886" data-name="Trazado 902886" d="M249.393,28.954c.5.275.5,1.405.076,2.157-.479.85-1.128,1.125-1.649.837-.5-.275-.5-1.405-.076-2.157.479-.85,1.127-1.125,1.649-.837" transform="translate(1043.808 1403.957)" fill="#8fb35c"/>
    <path id="Trazado_902887" data-name="Trazado 902887" d="M249.041,29.505c.473-.759,1.388-1.4,1.937-1.1.5.278.681,1.08.158,1.921-.473.759-1.388,1.4-1.937,1.1-.5-.278-.681-1.081-.158-1.921" transform="translate(1043.982 1403.888)" fill="#8fb35c"/>
    <path id="Trazado_902888" data-name="Trazado 902888" d="M249.688,30.87c.536.3.566,1.478.115,2.3-.5.906-1.209,1.24-1.77.931-.536-.3-.566-1.478-.115-2.3.5-.907,1.209-1.24,1.77-.931" transform="translate(1043.831 1404.216)" fill="#a4c079"/>
    <path id="Trazado_902889" data-name="Trazado 902889" d="M245.886,31.646c.485-.8,1.347-1.237,1.878-.944a1.348,1.348,0,0,1,.258,1.918c-.485.8-1.346,1.237-1.878.944a1.349,1.349,0,0,1-.258-1.918" transform="translate(1043.562 1404.196)" fill="#a4c079"/>
    <path id="Trazado_902890" data-name="Trazado 902890" d="M247.72,32.527a1.562,1.562,0,0,1,.512,2.069c-.36.849-1.221,1.539-1.788,1.227a1.562,1.562,0,0,1-.512-2.069c.36-.849,1.221-1.539,1.788-1.227" transform="translate(1043.581 1404.445)" fill="#8fb35c"/>
    <path id="Trazado_902891" data-name="Trazado 902891" d="M248.2,28.522c.475-.765,1.282-1.142,1.787-.864a1.3,1.3,0,0,1,.217,1.841c-.474.765-1.282,1.143-1.787.864a1.3,1.3,0,0,1-.217-1.841" transform="translate(1043.875 1403.785)" fill="#a4c079"/>
    <path id="Trazado_902892" data-name="Trazado 902892" d="M247.56,33.518l.288-.179a.735.735,0,0,1,.544-.047l.067.037a.5.5,0,0,1,.3.236.759.759,0,0,1,.188.406,1.389,1.389,0,0,1,.014.568,1.829,1.829,0,0,1-.134.595l-.173.368a2.091,2.091,0,0,1-.481.585l-.288.179a.737.737,0,0,1-.545.045l-.066-.036a.5.5,0,0,1-.3-.237.751.751,0,0,1-.188-.405,1.39,1.39,0,0,1-.014-.568,1.793,1.793,0,0,1,.134-.595l.173-.368a2.056,2.056,0,0,1,.481-.585" transform="translate(1043.715 1404.554)" fill="#a4c079"/>
    <path id="Trazado_902893" data-name="Trazado 902893" d="M303.617,42.144s-.757-7.854-6.021-12.3-9.787-4.653-9.787-4.653l-14.6,26.637Z" transform="translate(1047.292 1403.464)" fill="#8fb35c"/>
    <path id="Trazado_902894" data-name="Trazado 902894" d="M272.868,49.459c6.114-3.644,36.531-11.483,36.531-11.483s1.769,3.066.456,5c0,0-34.421,11.054-45.276,17.139Z" transform="translate(1046.125 1405.191)" fill="#acc079"/>
    <path id="Trazado_902895" data-name="Trazado 902895" d="M306.293,27.349s-9.05,14.6-19.635,20.962-22.312,11.838-22.312,11.838L271.337,48.6S286.2,40.1,292.713,30.28s7.045-10.35,7.045-10.35,1.411.314,3.445,2.81a27.92,27.92,0,0,1,3.09,4.61" transform="translate(1046.094 1402.752)" fill="#acc079"/>
    <path id="Trazado_902896" data-name="Trazado 902896" d="M297.667,18.208C291.941,25.87,285.659,45.891,274.56,57c-5.223,5.23-15.228,11.571-24.609,16.909,1.083-2.124,1.172-4.746-.58-6.3a11.778,11.778,0,0,0-1.883-1.322,65.913,65.913,0,0,0,14.052-9.8c14.3-13.372,20.613-28.108,27.045-33.911s9.082-4.378,9.082-4.378" transform="translate(1043.815 1402.499)" fill="#acc079"/>
    <path id="Trazado_902897" data-name="Trazado 902897" d="M252.632,68.168c-10.555,6.005-20.319,10.741-21.6,11.194a14.8,14.8,0,0,1-2.72-4.923c-1.208-3.349-.411-5.4-.411-5.4a99.185,99.185,0,0,0,22.266-8.493,11.809,11.809,0,0,1,1.884,1.322c1.75,1.55,1.663,4.172.58,6.3" transform="translate(1041.133 1408.243)" fill="#f4d8ba"/>
    <path id="Trazado_902898" data-name="Trazado 902898" d="M270.494,55.467a54.655,54.655,0,0,0,11.152-15.028c.354-.649.694-1.271,1.028-1.864l-.33-.187c-.336.595-.675,1.218-1.032,1.87a54.29,54.29,0,0,1-11.079,14.934Z" transform="translate(1046.889 1405.247)" fill="#8fb35c"/>
    <path id="Trazado_902899" data-name="Trazado 902899" d="M278.7,45.8c.034-.011,3.443-1.156,8.754-2.561l-.1-.367c-5.324,1.408-8.744,2.556-8.778,2.568Z" transform="translate(1048.018 1405.854)" fill="#8fb35c"/>
    <path id="Trazado_902900" data-name="Trazado 902900" d="M311.8,54.232c18.566,0,44.076,12.472,42.375,27.211S327.816,95.614,311.8,95.614s-40.674.568-42.375-14.171S293.236,54.232,311.8,54.232" transform="translate(1046.77 1407.389)" fill="#ae7540"/>
    <path id="Trazado_902901" data-name="Trazado 902901" d="M331.452,70.716c-1.813,1.484-9.936-5.255-20.091-16.214A62.162,62.162,0,0,1,326.6,58.3c4.149,6.728,6.095,11.4,4.854,12.411" transform="translate(1052.448 1407.426)" fill="#be8854"/>
    <path id="Trazado_902902" data-name="Trazado 902902" d="M310.985,70.719c-1.69,1.384-8.865-4.379-18.058-14.047a60.134,60.134,0,0,1,10.75-2.2c5.8,8.757,8.771,15.045,7.308,16.243" transform="translate(1049.957 1407.422)" fill="#be8854"/>
    <path id="Trazado_902903" data-name="Trazado 902903" d="M290.685,70.1c-1.235,1.011-5.4-1.792-11.134-7.145a53.19,53.19,0,0,1,7.113-3.892c3.568,5.985,5.174,10.093,4.021,11.037" transform="translate(1048.149 1408.042)" fill="#be8854"/>
    <path id="Trazado_902904" data-name="Trazado 902904" d="M295.94,107.413a16.38,16.38,0,0,1,1.311-4.6c-1.438-1.707-.695-3.585,1.235-6.016a13.8,13.8,0,0,1,1.66-1.8c-.807-2.325.7-4.248,3.639-6.42a19.365,19.365,0,0,1,2.141-1.4c0-2.973,2.571-4.658,6.919-6.121,4.273-1.437,7.308-1.666,9.118.571a14.819,14.819,0,0,1,3.766-.43c3.652-.043,6.017.577,6.779,2.916a13.666,13.666,0,0,1,2.41.431c3.047.78,4.779,1.844,4.614,4.133a16.455,16.455,0,0,1,3.727,2.819c2.791,2.777,4.016,7.6.687,9.43-2.941,1.613-5.422-.67-8.57-1.446-.115.146-.233.293-.356.437-1.135,1.324-3.552.606-4.155.452l-.341-.086c-1.2,1.444-3.848,1.378-4.553,1.386l-.379.007c-1.08,1.9-3.99,2.771-4.788,3.04-.746.25-3.274,1.2-5.242.619-.85.615-2.54,1.7-4.062,1.347l-.219.275c-.387.487-1.88,2.52-3.584,2.151-.207-.044-.41-.1-.61-.15-2.073,2.529-2.655,5.888-6,6.384-3.755.557-5.7-4.029-5.151-7.928" transform="translate(1050.352 1410.866)" fill="#ffa440"/>
    <path id="Trazado_902905" data-name="Trazado 902905" d="M331.122,97.272a.167.167,0,0,0,.1-.1l3.429-8.363a.17.17,0,1,0-.314-.128l-3.429,8.362a.17.17,0,0,0,.092.222.173.173,0,0,0,.119,0" transform="translate(1055.089 1412.031)" fill="#ffb41c"/>
    <path id="Trazado_902906" data-name="Trazado 902906" d="M326.513,98.645a.171.171,0,0,0,.114-.141L328.3,84.489a.17.17,0,1,0-.337-.04l-1.678,14.015a.172.172,0,0,0,.149.19.191.191,0,0,0,.076-.008" transform="translate(1054.466 1411.453)" fill="#ffb41c"/>
    <path id="Trazado_902907" data-name="Trazado 902907" d="M322.375,100.389a.169.169,0,0,0,.112-.193L319.03,82.185a.17.17,0,1,0-.334.064l3.458,18.011a.169.169,0,0,0,.2.135l.023-.006" transform="translate(1053.439 1411.148)" fill="#ffb41c"/>
    <path id="Trazado_902908" data-name="Trazado 902908" d="M305.883,105.625a.17.17,0,0,0,.032-.308l-7.786-4.589a.17.17,0,1,0-.173.293l7.786,4.589a.171.171,0,0,0,.141.015" transform="translate(1050.625 1413.67)" fill="#ffb41c"/>
    <path id="Trazado_902909" data-name="Trazado 902909" d="M310.218,104.058a.16.16,0,0,0,.064-.039.169.169,0,0,0,0-.241l-9.806-10.153a.17.17,0,1,0-.245.236l9.807,10.153a.168.168,0,0,0,.176.043" transform="translate(1050.938 1412.707)" fill="#ffb41c"/>
    <path id="Trazado_902910" data-name="Trazado 902910" d="M313.219,103.469a.174.174,0,0,0,.1-.237l-8.131-16.438a.17.17,0,0,0-.3.151l8.131,16.438a.171.171,0,0,0,.207.086" transform="translate(1051.57 1411.777)" fill="#ffb41c"/>
    <path id="Trazado_902911" data-name="Trazado 902911" d="M252.777,80.489c-2.689,3.307-2.674,5.168-5.808,4.954s-7.943,1.027-10.608,1.9a8.2,8.2,0,0,1-5.171-.156,5.578,5.578,0,0,0-1.036,1.761c-.515,1.253-2.875,1.868,5.619,6.942s15.147-5.911,15.191-9.432a11.3,11.3,0,0,1,1.813-5.972" transform="translate(1041.378 1410.938)" fill="#f4dabf"/>
    <path id="Trazado_902912" data-name="Trazado 902912" d="M242.654,90.615a9.6,9.6,0,0,1-10.37-.3s2.461-1.662.811-3.05a7.516,7.516,0,0,0,2.884-.33c2.665-.876,7.474-2.12,10.608-1.9a3.261,3.261,0,0,0,3.317-1.463c-1.569,3.812-1.5,3.793-7.25,7.052" transform="translate(1041.76 1411.354)" fill="#efceb4"/>
  </g>
</svg>
