<svg xmlns="http://www.w3.org/2000/svg" xmlns:xlink="http://www.w3.org/1999/xlink" width="169.426" height="169.427" viewBox="0 0 169.426 169.427">
  <defs>
    <clipPath id="clip-path">
      <rect id="Rectángulo_403340" data-name="Rectángulo 403340" width="29.425" height="53.995" fill="none"/>
    </clipPath>
    <clipPath id="clip-path-2">
      <rect id="Rectángulo_403352" data-name="Rectángulo 403352" width="25.463" height="23.666" fill="none"/>
    </clipPath>
    <clipPath id="clip-path-3">
      <rect id="Rectángulo_403353" data-name="Rectángulo 403353" width="1.299" height="1.29" fill="none"/>
    </clipPath>
    <clipPath id="clip-path-4">
      <rect id="Rectángulo_403354" data-name="Rectángulo 403354" width="1.166" height="1.162" fill="none"/>
    </clipPath>
    <clipPath id="clip-path-5">
      <rect id="Rectángulo_403355" data-name="Rectángulo 403355" width="1.395" height="1.373" fill="none"/>
    </clipPath>
    <clipPath id="clip-path-6">
      <rect id="Rectángulo_403341" data-name="Rectángulo 403341" width="0.323" height="0.572" fill="none"/>
    </clipPath>
    <clipPath id="clip-path-7">
      <rect id="Rectángulo_403342" data-name="Rectángulo 403342" width="0.335" height="0.454" fill="none"/>
    </clipPath>
    <clipPath id="clip-path-8">
      <rect id="Rectángulo_403343" data-name="Rectángulo 403343" width="0.413" height="0.385" fill="none"/>
    </clipPath>
    <clipPath id="clip-path-9">
      <rect id="Rectángulo_403344" data-name="Rectángulo 403344" width="0.226" height="0.485" fill="none"/>
    </clipPath>
    <clipPath id="clip-path-10">
      <rect id="Rectángulo_403345" data-name="Rectángulo 403345" width="0.354" height="0.424" fill="none"/>
    </clipPath>
    <clipPath id="clip-path-11">
      <rect id="Rectángulo_403346" data-name="Rectángulo 403346" width="0.253" height="0.591" fill="none"/>
    </clipPath>
    <clipPath id="clip-path-13">
      <rect id="Rectángulo_403348" data-name="Rectángulo 403348" width="0.331" height="0.569" fill="none"/>
    </clipPath>
    <clipPath id="clip-path-14">
      <rect id="Rectángulo_403349" data-name="Rectángulo 403349" width="0.258" height="0.591" fill="none"/>
    </clipPath>
    <clipPath id="clip-path-15">
      <rect id="Rectángulo_403350" data-name="Rectángulo 403350" width="0.325" height="0.482" fill="none"/>
    </clipPath>
  </defs>
  <g id="Grupo_1112278" data-name="Grupo 1112278" transform="translate(-1165.861 -1196.063)">
    <path id="Trazado_902970" data-name="Trazado 902970" d="M84.714,169.427A84.74,84.74,0,0,1,51.744,6.651a84.739,84.739,0,0,1,65.94,156.125,84.168,84.168,0,0,1-32.97,6.651" transform="translate(1165.86 1196.063)" fill="#fbf5ee"/>
    <g id="Grupo_1112263" data-name="Grupo 1112263" transform="translate(1260.267 1228.796)" opacity="0.9">
      <g id="Grupo_1111645" data-name="Grupo 1111645">
        <g id="Grupo_1111644" data-name="Grupo 1111644" clip-path="url(#clip-path)">
          <path id="Trazado_900793" data-name="Trazado 900793" d="M87.777,28.837l20.23.026c2.594,2.419,4.584,6.894,4.584,12.154V78.943a3.887,3.887,0,0,1-3.888,3.888H87.053a3.887,3.887,0,0,1-3.887-3.888V41.017c0-5.28,2.006-9.767,4.611-12.18" transform="translate(-83.165 -28.836)" fill="#fff"/>
        </g>
      </g>
    </g>
    <path id="Trazado_902971" data-name="Trazado 902971" d="M108.9,34.109a11.345,11.345,0,0,1,1.376,6.195V78.231a1.822,1.822,0,0,1-1.82,1.82H86.808a1.822,1.822,0,0,1-1.82-1.82V40.3a11.335,11.335,0,0,1,1.376-6.195Z" transform="translate(1177.348 1200.673)" fill="#dd2241"/>
    <path id="Trazado_902972" data-name="Trazado 902972" d="M87.092,29.656h20.7a1.277,1.277,0,0,0,1.277-1.277V24.053a1.276,1.276,0,0,0-1.277-1.277h-20.7a1.277,1.277,0,0,0-1.277,1.277v4.326a1.278,1.278,0,0,0,1.277,1.277" transform="translate(1177.459 1199.142)" fill="#a9afb5"/>
    <path id="Trazado_902973" data-name="Trazado 902973" d="M89.07,66.4h16.493a2.287,2.287,0,0,0,2.281-2.282V43.5a2.288,2.288,0,0,0-2.281-2.282H89.07A2.289,2.289,0,0,0,86.788,43.5V64.118A2.288,2.288,0,0,0,89.07,66.4" transform="translate(1177.591 1201.634)" fill="#fff"/>
    <path id="Trazado_902974" data-name="Trazado 902974" d="M91.2,58.443h11.767a.6.6,0,0,0,.6-.6v-.3a.6.6,0,0,0-.6-.6H91.2a.6.6,0,0,0-.6.6v.3a.6.6,0,0,0,.6.6" transform="translate(1178.106 1203.759)" fill="#979ea6"/>
    <path id="Trazado_902975" data-name="Trazado 902975" d="M94.028,59.261h5.356a.4.4,0,1,1,0,.793H94.028a.4.4,0,0,1,0-.793" transform="translate(1178.516 1204.072)" fill="#979ea6"/>
    <path id="Trazado_902976" data-name="Trazado 902976" d="M94.576,47.692a3.469,3.469,0,0,0-1.232-1.335,5.4,5.4,0,0,0-2.224-.548,9.273,9.273,0,0,0,2.031,1.521c1.009.5,1.425.362,1.425.362" transform="translate(1178.177 1202.255)" fill="#2d664e"/>
    <path id="Trazado_902977" data-name="Trazado 902977" d="M95.227,46.063a4.005,4.005,0,0,1,1.276-.687,5.619,5.619,0,0,1-.906,1.711,2.5,2.5,0,0,1-1.647.74,4.632,4.632,0,0,1,1.277-1.764" transform="translate(1178.559 1202.196)" fill="#2d664e"/>
    <path id="Trazado_902978" data-name="Trazado 902978" d="M94.616,47.55a1.712,1.712,0,0,0-1.682-.376,4.31,4.31,0,0,0-2.009,1.109,5.494,5.494,0,0,0,2.245-.125,6.2,6.2,0,0,0,1.446-.608" transform="translate(1178.15 1202.432)" fill="#2d664e"/>
    <path id="Trazado_902979" data-name="Trazado 902979" d="M94.2,48.092a3.4,3.4,0,0,0,.9-1.594,5.668,5.668,0,0,0-.174-2.351,9.3,9.3,0,0,0-.825,2.435c-.16,1.137.1,1.51.1,1.51" transform="translate(1178.573 1202.029)" fill="#2d664e"/>
    <path id="Trazado_902980" data-name="Trazado 902980" d="M94.352,48.038a1.78,1.78,0,0,0-.169-1.767,4.643,4.643,0,0,0-1.7-1.671,5.917,5.917,0,0,0,.828,2.183,6.665,6.665,0,0,0,1.044,1.255" transform="translate(1178.36 1202.091)" fill="#2d664e"/>
    <path id="Trazado_902981" data-name="Trazado 902981" d="M91.672,51.85c.438,2.4,5.157,5.154,6.956,4.477,1.551-.581,2.652-4.385,2.212-6.784s-2.52-4.177-5.805-3.059c-2.748.934-3.8,2.975-3.363,5.366" transform="translate(1178.238 1202.3)" fill="#ee2d45"/>
    <path id="Trazado_902982" data-name="Trazado 902982" d="M28.915,47.518a1.758,1.758,0,0,0,.847,1.322,6.863,6.863,0,0,0,1.4,1.069c.493.217,1.12.232,1.71.444.524.187.99.635,1.568.831.422.144,1.1-.059,1.723.137.5.158.908.8,1.476.948.535.143,1.142.094,1.69.2a13.806,13.806,0,0,0,1.7-.1c.612.051,1.2.547,1.694.462a2.5,2.5,0,0,0,1.571-.9c.342-.506-.034-1.251-.185-1.89a18,18,0,0,0-.28-1.892c-.283-.579-1.069-.756-1.445-1.17a7.685,7.685,0,0,0-1.2-1.279,13.534,13.534,0,0,0-1.553-.871c-.415-.208-.817-.848-1.469-1.1a11.26,11.26,0,0,0-1.784-.361,8.431,8.431,0,0,0-1.789.182,6.725,6.725,0,0,0-1.815-.036c-.569.184-1,.887-1.6,1.242s-1.412.411-1.826.867a2.343,2.343,0,0,0-.434,1.884" transform="translate(1169.765 1201.923)" fill="#5b244e"/>
    <path id="Trazado_902983" data-name="Trazado 902983" d="M41.838,47.657c-.393-.143-.787-.32-1.191-.427a.426.426,0,0,0-.44.073,1.346,1.346,0,0,0-.217.411,1.346,1.346,0,0,1-.66.711,2.529,2.529,0,0,1-.98.126.537.537,0,0,0-.454.253,1.155,1.155,0,0,0-.131.557.145.145,0,0,1-.291,0,1.132,1.132,0,0,1,.444-.981c.325-.2.7-.067,1.053-.137a1.072,1.072,0,0,0,.772-.686c.138-.33.321-.655.73-.644a2.064,2.064,0,0,1,.638.173l.8.294c.175.064.1.344-.078.279" transform="translate(1170.926 1202.403)" fill="#70325e"/>
    <path id="Trazado_902984" data-name="Trazado 902984" d="M36.7,46.565a.671.671,0,0,0,.447-.381,1.738,1.738,0,0,0,.126-.383.91.91,0,0,0,.054-.342c-.019-.089-.163-.136-.237-.174-.1-.052-.2-.1-.308-.149a1.964,1.964,0,0,0-.6-.174,1.007,1.007,0,0,0-.587.117,1.685,1.685,0,0,1-.578.253,1.531,1.531,0,0,1-.711-.173,1.093,1.093,0,0,0-.655-.019,2.8,2.8,0,0,0-1.252.954c-.125.138-.326-.072-.2-.209a3.248,3.248,0,0,1,1.269-.991,1.441,1.441,0,0,1,.759-.059c.264.053.528.268.806.2.235-.057.425-.237.655-.313a1.372,1.372,0,0,1,.714-.018,3.015,3.015,0,0,1,.7.263c.208.1.49.207.513.473a1.52,1.52,0,0,1-.067.438,1.851,1.851,0,0,1-.167.473.937.937,0,0,1-.612.492c-.182.04-.255-.241-.073-.28" transform="translate(1170.207 1202.1)" fill="#70325e"/>
    <path id="Trazado_902985" data-name="Trazado 902985" d="M29.267,46.209a1.991,1.991,0,0,0,.755,1.216,2.081,2.081,0,0,0,1.481.391,3.892,3.892,0,0,1,1.75.032,1.321,1.321,0,0,1,.645.52,2.4,2.4,0,0,0,.459.606,1.425,1.425,0,0,0,1.517.16c.166-.087.308.166.142.253a1.709,1.709,0,0,1-1.5.023,1.584,1.584,0,0,1-.6-.47c-.183-.238-.286-.537-.546-.708a2.809,2.809,0,0,0-1.83-.129,2.364,2.364,0,0,1-1.59-.368,2.29,2.29,0,0,1-.968-1.452c-.034-.183.246-.257.28-.073" transform="translate(1169.778 1202.294)" fill="#70325e"/>
    <path id="Trazado_902986" data-name="Trazado 902986" d="M42,51.171a2.707,2.707,0,0,0-.944-.516,1,1,0,0,0-.461-.007,1.546,1.546,0,0,0-.438.221,1.31,1.31,0,0,1-.883.217,3.332,3.332,0,0,1-.919-.294c-.17-.075-.019-.322.15-.249a2.458,2.458,0,0,0,.921.263.912.912,0,0,0,.437-.1c.146-.076.278-.179.426-.252a1.829,1.829,0,0,1,1.863.468c.15.109,0,.359-.15.249" transform="translate(1171.035 1202.866)" fill="#70325e"/>
    <path id="Trazado_902987" data-name="Trazado 902987" d="M50.023,30.8c-.182-.532-.655-.806-1.122-1.191a4.939,4.939,0,0,0-1.374-.926c-.51-.2-.984-.695-1.572-.8a11.4,11.4,0,0,0-1.749-.079,11.9,11.9,0,0,0-1.754,0c-.58.079-1.058.621-1.59.792a8.762,8.762,0,0,0-1.573.791c-.529.3-1.284.244-1.75.619a12.3,12.3,0,0,0-1.322,1.269,12.038,12.038,0,0,0-.858,1.623c-.355.526-1,.872-1.229,1.387a7.284,7.284,0,0,0-.523,1.782,2.5,2.5,0,0,0,.427,1.782c.234.341.728.428,1.489.469a12.534,12.534,0,0,0,1.618-.1c.484-.044,1.045.09,1.645.006.5-.069,1-.4,1.579-.492.506-.081,1.124.319,1.694.225.512-.085.941-.818,1.506-.913.633-.108,1.288.32,1.778.209a8.8,8.8,0,0,0,1.64-.58,5.358,5.358,0,0,0,1.57-.853,7.823,7.823,0,0,0,.984-1.568c.308-.513.183-1.2.311-1.764a3.062,3.062,0,0,0,.177-1.689" transform="translate(1170.399 1199.815)" fill="#5b244e"/>
    <path id="Trazado_902988" data-name="Trazado 902988" d="M34.877,36.786a3.814,3.814,0,0,0,1.5-.043,8.718,8.718,0,0,0,1.487-.589,3.459,3.459,0,0,1,1.384-.351,1.937,1.937,0,0,1,.657.117,1.853,1.853,0,0,0,.687.19c.545-.015.971-.5,1.29-.892.119-.145.333.051.215.194a2.684,2.684,0,0,1-1.152.927,1.19,1.19,0,0,1-.717.01,6.23,6.23,0,0,0-.695-.232,2.6,2.6,0,0,0-1.431.25A11.864,11.864,0,0,1,36.551,37a4.161,4.161,0,0,1-1.739.07c-.184-.031-.119-.313.065-.283" transform="translate(1170.551 1200.815)" fill="#70325e"/>
    <path id="Trazado_902989" data-name="Trazado 902989" d="M37.88,34.388a1.1,1.1,0,0,1-1.9.284c-.574-.711-.032-1.727.405-2.355a2.942,2.942,0,0,1,.922-.9A2.132,2.132,0,0,1,37.9,31.2a1.156,1.156,0,0,0,.262-.075.3.3,0,0,0,.162-.254A2.339,2.339,0,0,1,38.7,29.64a.865.865,0,0,1,1.093-.232,1.981,1.981,0,0,1,.946,1.057,1.006,1.006,0,0,1-.336,1.129c-.153.108-.31-.136-.158-.243a.717.717,0,0,0,.21-.82,1.716,1.716,0,0,0-.731-.83.588.588,0,0,0-.481-.1.743.743,0,0,0-.386.305,2.966,2.966,0,0,0-.266,1.077c-.089.405-.461.431-.792.532a2.018,2.018,0,0,0-.892.6,4.123,4.123,0,0,0-.614.908,1.848,1.848,0,0,0-.259,1.057.817.817,0,0,0,1.584.168c.068-.175.325-.039.259.134" transform="translate(1170.69 1200.023)" fill="#70325e"/>
    <path id="Trazado_902990" data-name="Trazado 902990" d="M42.15,31.121a1.616,1.616,0,0,1,.973-1.078,4.332,4.332,0,0,1,.849-.264,4.47,4.47,0,0,1,.766-.121,1.918,1.918,0,0,1,.727.087,2.509,2.509,0,0,1,.664.392,1.253,1.253,0,0,0,.721.316c.254,0,.388-.2.556-.363a.611.611,0,0,1,.658-.185,1.081,1.081,0,0,1,.492.519c.092.162-.152.32-.244.158a.838.838,0,0,0-.358-.41c-.2-.074-.347.128-.465.251a.909.909,0,0,1-.554.316,1.129,1.129,0,0,1-.669-.162c-.212-.118-.394-.284-.6-.413a1.425,1.425,0,0,0-.633-.212,3.966,3.966,0,0,0-1.437.226,1.529,1.529,0,0,0-1.165,1.011.144.144,0,0,1-.282-.065" transform="translate(1171.557 1200.07)" fill="#70325e"/>
    <path id="Trazado_902991" data-name="Trazado 902991" d="M42.222,32.7a.817.817,0,0,0,.445.969,1.293,1.293,0,0,0,1.21-.125,2.289,2.289,0,0,1,1.174-.46.939.939,0,0,1,.854.712c.146.436.119,1.023-.385,1.2-.176.064-.262-.213-.087-.276.412-.148.27-.765.1-1.047a.715.715,0,0,0-.992-.182,4.342,4.342,0,0,1-1.2.548,1.331,1.331,0,0,1-1.082-.3,1.092,1.092,0,0,1-.3-1.182.146.146,0,0,1,.2-.061.148.148,0,0,1,.061.2" transform="translate(1171.524 1200.453)" fill="#70325e"/>
    <path id="Trazado_902992" data-name="Trazado 902992" d="M53.481,42.919a2.283,2.283,0,0,0,.137-1.261,3.818,3.818,0,0,0-.145-1.277,6.616,6.616,0,0,0-.321-1.328,8.858,8.858,0,0,0-.834-1.073,9.2,9.2,0,0,0-.882-1.035c-.338-.3-.9-.311-1.268-.539a6.747,6.747,0,0,0-1.26-.53c-.439-.163-.79-.635-1.245-.721a9.567,9.567,0,0,0-1.414-.141,9.265,9.265,0,0,0-1.391.311c-.489.056-1.016-.149-1.437-.026a5.551,5.551,0,0,0-1.315.589,1.93,1.93,0,0,0-.837,1.148c-.084.31.114.645.473,1.115a9.548,9.548,0,0,0,.874.9c.269.263.473.662.825.974.292.259.738.388,1.085.683.3.259.377.824.72,1.112.309.259.957.143,1.3.429.383.32.46.922.772,1.154a6.746,6.746,0,0,0,1.168.674,4.132,4.132,0,0,0,1.293.5A6.046,6.046,0,0,0,51.2,44.37c.457-.076.8-.494,1.2-.7.42-.221.851-.351,1.085-.746" transform="translate(1171.436 1200.795)" fill="#ffae40"/>
    <path id="Trazado_902993" data-name="Trazado 902993" d="M41.767,37.293a2.956,2.956,0,0,0,.783.865,6.61,6.61,0,0,0,1.1.581,2.677,2.677,0,0,1,.9.64,1.482,1.482,0,0,1,.261.446,1.457,1.457,0,0,0,.234.5,1.521,1.521,0,0,0,1.177.311c.145,0,.137.222-.007.225a2.08,2.08,0,0,1-1.127-.212.934.934,0,0,1-.368-.419,4.814,4.814,0,0,0-.212-.527,2.034,2.034,0,0,0-.868-.719,9.265,9.265,0,0,1-1.156-.6,3.255,3.255,0,0,1-.917-.991c-.074-.125.126-.228.2-.1" transform="translate(1171.477 1201.096)" fill="#ffcd5a"/>
    <path id="Trazado_902994" data-name="Trazado 902994" d="M44.927,37.735a.854.854,0,0,1-1.123-.976c.129-.7,1-.889,1.594-.947a2.276,2.276,0,0,1,.992.092,1.65,1.65,0,0,1,.429.236.967.967,0,0,0,.176.117.234.234,0,0,0,.233-.033,1.8,1.8,0,0,1,.915-.394.672.672,0,0,1,.688.529,1.53,1.53,0,0,1-.148,1.089.779.779,0,0,1-.835.372c-.14-.037-.075-.252.065-.216a.558.558,0,0,0,.589-.289,1.319,1.319,0,0,0,.12-.849.456.456,0,0,0-.185-.333.564.564,0,0,0-.373-.074,2.3,2.3,0,0,0-.77.386c-.284.152-.487-.054-.714-.2a1.573,1.573,0,0,0-.8-.224,3.21,3.21,0,0,0-.845.1,1.425,1.425,0,0,0-.754.38.634.634,0,0,0,.7,1.018c.136-.048.185.171.05.219" transform="translate(1171.779 1200.901)" fill="#ffcd5a"/>
    <path id="Trazado_902995" data-name="Trazado 902995" d="M48.753,38.759a1.257,1.257,0,0,1,1.126.031,4.419,4.419,0,0,1,1.041.758,1.515,1.515,0,0,1,.316.475,1.988,1.988,0,0,1,.1.588.972.972,0,0,0,.176.583c.131.15.316.128.495.146a.47.47,0,0,1,.439.294.836.836,0,0,1-.057.552c-.051.136-.267.072-.216-.064a.656.656,0,0,0,.06-.419c-.054-.152-.251-.14-.381-.148a.7.7,0,0,1-.465-.168.886.886,0,0,1-.242-.476c-.036-.185-.031-.376-.058-.562a1.09,1.09,0,0,0-.193-.48,3.074,3.074,0,0,0-.857-.733,1.182,1.182,0,0,0-1.183-.178.113.113,0,0,1-.1-.2" transform="translate(1172.442 1201.285)" fill="#ffcd5a"/>
    <path id="Trazado_902996" data-name="Trazado 902996" d="M47.816,39.661a.634.634,0,0,0-.347.751,1,1,0,0,0,.682.65,1.777,1.777,0,0,1,.863.461.727.727,0,0,1,.01.862c-.184.305-.544.586-.9.379-.126-.072-.007-.262.119-.191.294.169.587-.226.67-.465.109-.318-.118-.554-.393-.677A3.344,3.344,0,0,1,47.59,41a1.037,1.037,0,0,1-.37-.789.847.847,0,0,1,.546-.772.114.114,0,0,1,.135.084.116.116,0,0,1-.085.135" transform="translate(1172.243 1201.394)" fill="#ffcd5a"/>
    <path id="Trazado_902997" data-name="Trazado 902997" d="M71.65,30.05a3.956,3.956,0,0,0-.577-2.693,8.679,8.679,0,0,0-3.736-3.726,1.921,1.921,0,0,0-2.3.639c-.415.455-.432,1.175.083,2.117.5.907,1.518,1.514,1.772,1.859.345.47.4,1.63,1.022,2.233a2.656,2.656,0,0,0,2.279.875A2.985,2.985,0,0,0,71.65,30.05" transform="translate(1174.609 1199.234)" fill="#d3820d"/>
    <path id="Trazado_902998" data-name="Trazado 902998" d="M61.463,22.164c-.008.63,1.152,1.32,2.162,1.679.969.344,2.035.677,2.466.766a14.058,14.058,0,0,0,2.148-.14,2.266,2.266,0,0,0,1.873-.56,1.484,1.484,0,0,0,.346-1.577c-.208-.469-.753-.262-1.656-.667A13.858,13.858,0,0,1,66.215,20.1a4.779,4.779,0,0,0-2.494.6c-1.04.409-2.25.838-2.258,1.46" transform="translate(1174.168 1198.775)" fill="#a96707"/>
    <path id="Trazado_902999" data-name="Trazado 902999" d="M58.782,25.78a2.164,2.164,0,0,0,.394,2.362,21.158,21.158,0,0,0,1.779,1.881c.489.473,1.465.352,1.982.7.6.4.9.625,1.555.493.61-.124,1.116-.269,1.277-.892s-.272-.968-1.1-2.155c-.535-.766-.613-1.534-1.181-1.98a5.87,5.87,0,0,0-2.433-.989,2.139,2.139,0,0,0-2.274.577" transform="translate(1173.778 1199.459)" fill="#a96707"/>
    <path id="Trazado_903000" data-name="Trazado 903000" d="M59.452,21.181c-.218-.473-1.444-.815-2.629-.627-.8.126-1.455.969-2.214,1.409S52.7,22.481,52.2,23.11a2,2,0,0,0-.241,2.357,1.9,1.9,0,0,0,2.18.447c.772-.253,1.371-1.133,2.038-1.532a11.3,11.3,0,0,0,2.12-1.058c.776-.723,1.37-1.681,1.158-2.142" transform="translate(1172.846 1198.834)" fill="#d3820d"/>
    <path id="Trazado_903001" data-name="Trazado 903001" d="M80.737,104.324c4.5-1.855,7.557-.778,7.557-.778s-2.2,4.47-5.739,5.971a9.816,9.816,0,0,1-6.811.228s1.891-4.141,4.994-5.422" transform="translate(1176.098 1210.017)" fill="#2d6655"/>
    <path id="Trazado_903002" data-name="Trazado 903002" d="M89.338,108.235a15.845,15.845,0,0,1,.43-2.811A13.77,13.77,0,0,1,91.5,101.5l-.588-.106a14.057,14.057,0,0,0-1.5,3.945,15.958,15.958,0,0,0-.439,2.923Z" transform="translate(1177.886 1209.769)" fill="#5d473f"/>
    <path id="Trazado_903003" data-name="Trazado 903003" d="M75.071,114.772a12.043,12.043,0,0,1,4.137-7.4,7.121,7.121,0,0,1,5.348-1.585c1.38.168,2.711.611,4.078.857a16.491,16.491,0,0,0,5.974-.082,18.275,18.275,0,0,1,5.179-.713,7.246,7.246,0,0,1,4.879,3.041,12.887,12.887,0,0,1,2.638,6.231c1.027,7.439-2.97,15.737-8.946,18.4a8.4,8.4,0,0,1-5.63.561,6.12,6.12,0,0,0-3.272,0,8.312,8.312,0,0,1-6.035-.629c-5.887-2.854-9.615-11.277-8.349-18.679" transform="translate(1175.974 1210.354)" fill="#ee3738"/>
    <path id="Trazado_903004" data-name="Trazado 903004" d="M84.018,106.08a34.215,34.215,0,0,1,7.619-4.4l-.077-.2a34.322,34.322,0,0,0-7.674,4.428Z" transform="translate(1177.199 1209.779)" fill="#2d6655"/>
    <path id="Trazado_903005" data-name="Trazado 903005" d="M53.169,62.407a3.5,3.5,0,0,0-.666-3.992,2.857,2.857,0,0,1,1.553-3.771c2.661-1.442,10.868-4.1,19.518-4.1s16.858,2.662,19.52,4.1a2.857,2.857,0,0,1,1.552,3.771,3.5,3.5,0,0,0-.665,3.992c1.109,2.329,6.432,7.577,6.432,18.317S88.324,101.8,88.324,101.8h-29.5s-12.087-10.34-12.087-21.08,5.323-15.988,6.433-18.317" transform="translate(1172.178 1202.894)" fill="#d37941"/>
    <path id="Trazado_903006" data-name="Trazado 903006" d="M67.264,48.812A3.535,3.535,0,1,0,70.8,45.276a3.536,3.536,0,0,0-3.536,3.536" transform="translate(1174.952 1202.183)" fill="#d37941"/>
    <rect id="Rectángulo_404082" data-name="Rectángulo 404082" width="34.965" height="0.692" transform="translate(1228.338 1260.989)" fill="#b75f2e"/>
    <path id="Trazado_903007" data-name="Trazado 903007" d="M18.353,63.234l50.255,16.1a2.366,2.366,0,0,0,1.444-4.505L19.8,58.73a2.365,2.365,0,0,0-1.443,4.5" transform="translate(1168.119 1203.985)" fill="#ce9a68"/>
    <path id="Trazado_903008" data-name="Trazado 903008" d="M60.027,69.086s4.471-2.1,11.85.261,9.8,6.675,9.8,6.675a21.785,21.785,0,0,1-1.07,5.192,19.752,19.752,0,0,1-2.1,4.708s-4.47,2.1-11.85-.262-9.8-6.674-9.8-6.674a19.725,19.725,0,0,1,1.025-5.053,21.793,21.793,0,0,1,2.147-4.847" transform="translate(1173.545 1205.284)" fill="#ce9a68"/>
    <path id="Trazado_903009" data-name="Trazado 903009" d="M71.309,68.139q.393.126.767.261a.727.727,0,0,1,.442.906L66.94,86.714a.727.727,0,0,1-.887.481q-.381-.107-.775-.234c-.262-.084-.518-.17-.767-.261a.727.727,0,0,1-.442-.906l5.578-17.408a.726.726,0,0,1,.885-.481q.383.107.776.234" transform="translate(1174.516 1205.237)" fill="#e3b07d"/>
    <path id="Trazado_903010" data-name="Trazado 903010" d="M79.108,73.669a2.809,2.809,0,0,1,.48,2.05A32.728,32.728,0,0,1,78.4,80.631a30.5,30.5,0,0,1-1.836,4.538,2.8,2.8,0,0,1-1.572,1.371c-.277.1-.605.2-.982.3a.728.728,0,0,1-.871-.93l4.1-12.791a.728.728,0,0,1,1.249-.25c.246.294.452.564.619.8" transform="translate(1175.742 1205.877)" fill="#e3b07d"/>
    <path id="Trazado_903011" data-name="Trazado 903011" d="M76.7,71.572l-5.017,15.66a.727.727,0,0,1-.682.506,17.862,17.862,0,0,1-2.208-.111.73.73,0,0,1-.619-.947l5.35-16.7a.732.732,0,0,1,1.055-.412,18.021,18.021,0,0,1,1.861,1.193.726.726,0,0,1,.261.809" transform="translate(1175.07 1205.453)" fill="#e3b07d"/>
    <path id="Trazado_903012" data-name="Trazado 903012" d="M68.423,68.292l-5.35,16.7a.73.73,0,0,1-1.053.412,17.92,17.92,0,0,1-1.862-1.192A.729.729,0,0,1,59.9,83.4l5.019-15.66a.727.727,0,0,1,.682-.507,18.1,18.1,0,0,1,2.208.111.731.731,0,0,1,.618.948" transform="translate(1173.952 1205.15)" fill="#e3b07d"/>
    <path id="Trazado_903013" data-name="Trazado 903013" d="M59.786,69.337a2.809,2.809,0,0,1,1.582-1.389c.274-.1.6-.2.968-.293a.728.728,0,0,1,.871.93l-4.1,12.791a.727.727,0,0,1-1.249.249c-.25-.3-.457-.572-.627-.812a2.809,2.809,0,0,1-.482-2.03,30.45,30.45,0,0,1,1.144-4.76,32.643,32.643,0,0,1,1.89-4.686" transform="translate(1173.527 1205.204)" fill="#e3b07d"/>
    <g id="Grupo_1112274" data-name="Grupo 1112274" transform="translate(1229.977 1271.864)" opacity="0.8">
      <g id="Grupo_1111678" data-name="Grupo 1111678">
        <g id="Grupo_1111677" data-name="Grupo 1111677" clip-path="url(#clip-path-2)">
          <path id="Trazado_900847" data-name="Trazado 900847" d="M57.089,74.519c.787-2.475,2.036-5.072,3.14-6.13,1.275-1.221,3.091-1.73,7.981-1.589s9.491,3.1,11.377,4.369a5.412,5.412,0,0,1,2.241,4.093,38.508,38.508,0,0,1,.1,4.147q-.012.363-.027.707a.766.766,0,0,1-.882.729,8.18,8.18,0,0,1-2.125-.9c-1.238-.607-3.119-.67-3.527,1.049-.359,1.507.685,3.289.864,4.764.243,2-.526,4.883-3.15,4.672-4.964-.4-1.461-6.108-1.7-8.8a2.04,2.04,0,0,0-.83-1.55,2.165,2.165,0,0,0-2.023-.065,4.394,4.394,0,0,0-1.651,1.388,10.131,10.131,0,0,1-1.042,1.3,1.752,1.752,0,0,1-1.494.531c-.919-.209-1.05-1.274-1.636-1.845-.864-.842-1.73-.213-2.772-.513-.721-.207-1.068-.983-1.647-1.439a3.963,3.963,0,0,0-1.246-.5l-.563-.775a14.394,14.394,0,0,1,.607-3.648" transform="translate(-56.482 -66.776)" fill="#ffc75a"/>
        </g>
      </g>
    </g>
    <path id="Trazado_903014" data-name="Trazado 903014" d="M27.216,90.162c-8.943,7.187-1.561,24.348,11.581,32.064s26.983,1.443,28.3-1.912-5.447-5.3-9.46-15.255S37.749,81.7,27.216,90.162" transform="translate(1169.008 1207.887)" fill="#fca417"/>
    <path id="Trazado_903015" data-name="Trazado 903015" d="M40.489,79.1C31.134,80.948,27.3,86.032,27.3,86.032s8.44,4.919,15.855,3.528a19.244,19.244,0,0,0,11.377-7.012s-7.582-4.715-14.04-3.443" transform="translate(1169.55 1206.726)" fill="#2d6655"/>
    <path id="Trazado_903016" data-name="Trazado 903016" d="M36.124,85.523A66.923,66.923,0,0,0,18.9,86.6l-.09-.41A67.379,67.379,0,0,1,36.156,85.1Z" transform="translate(1168.403 1207.544)" fill="#2d6655"/>
    <path id="Trazado_903017" data-name="Trazado 903017" d="M27.126,92.673a18.644,18.644,0,0,0-3.04-3.056A18.794,18.794,0,0,0,18,86.582l.875-.77A18.537,18.537,0,0,1,24.6,89.128a18.942,18.942,0,0,1,3.15,3.185Z" transform="translate(1168.292 1207.661)" fill="#5d473f"/>
    <path id="Trazado_903018" data-name="Trazado 903018" d="M108.412,88.07l-.4.989-4-3.3.646-.784Z" transform="translate(1179.919 1207.548)" fill="#5e884a"/>
    <path id="Trazado_903019" data-name="Trazado 903019" d="M108.633,85.467c-.7.755-1.422,1.487-2.178,2.186a11.125,11.125,0,0,0-3.208,6.1c-1.862,9.043,6.936,15.347,14.3,13.494a10.844,10.844,0,0,0,3.919-1.886c7.052-2.1,10.414-10.869,5.86-17.063-3.712-5.047-13.464-8.469-18.689-2.83" transform="translate(1179.782 1207.221)" fill="#70325e"/>
    <path id="Trazado_903020" data-name="Trazado 903020" d="M120.889,104.524a.178.178,0,0,1-.109.079c-3.955,1-8.823-.459-12.111-3.62a11,11,0,0,1-3.413-10.462.181.181,0,0,1,.354.075,10.654,10.654,0,0,0,3.31,10.125c3.2,3.079,7.933,4.5,11.772,3.532a.181.181,0,0,1,.22.131.189.189,0,0,1-.023.141" transform="translate(1180.054 1208.278)" fill="#572544"/>
    <path id="Trazado_903021" data-name="Trazado 903021" d="M124.361,72.737l.842.15-.544-4.129-.808.106Z" transform="translate(1182.601 1205.356)" fill="#65884a"/>
    <path id="Trazado_903022" data-name="Trazado 903022" d="M123.311,71.312c.812-.154,1.618-.336,2.416-.553a8.925,8.925,0,0,1,5.517.412c6.948,2.58,7.5,11.253,3.1,15.476a8.7,8.7,0,0,1-2.951,1.866,8.931,8.931,0,0,1-14.11-3.273c-1.857-4.676-.036-12.772,6.027-13.928" transform="translate(1181.62 1205.591)" fill="#ffa440"/>
    <path id="Trazado_903023" data-name="Trazado 903023" d="M130.244,88.249a.148.148,0,0,0,.1-.041,10.865,10.865,0,0,0,2.69-9.789,8.841,8.841,0,0,0-5.671-6.777.147.147,0,1,0-.1.277,8.55,8.55,0,0,1,5.483,6.561A10.562,10.562,0,0,1,130.142,88a.147.147,0,0,0,.1.253" transform="translate(1183.049 1205.745)" fill="#ff622c"/>
    <path id="Trazado_903024" data-name="Trazado 903024" d="M121.935,48.862a2.41,2.41,0,0,0-3.7,3.085,2.412,2.412,0,0,0,3.7-3.085" transform="translate(1181.77 1202.556)" fill="#ee2d45"/>
    <g id="Grupo_1112275" data-name="Grupo 1112275" transform="translate(1301.19 1252.294)" opacity="0.5">
      <g id="Grupo_1111681" data-name="Grupo 1111681">
        <g id="Grupo_1111680" data-name="Grupo 1111680" clip-path="url(#clip-path-3)">
          <path id="Trazado_900859" data-name="Trazado 900859" d="M120.491,49.988a.6.6,0,0,0-.118-.227.616.616,0,0,0-.422-.221.675.675,0,0,0-.732.611.615.615,0,0,0,.142.455.65.65,0,0,0,.912.065.664.664,0,0,0,.219-.682m-1,.318a.37.37,0,0,1-.011-.133.408.408,0,0,1,.149-.282.414.414,0,0,1,.3-.1.367.367,0,0,1,.247.129.4.4,0,0,1-.618.515.362.362,0,0,1-.07-.134" transform="translate(-119.216 -49.536)" fill="#fcc7bf"/>
        </g>
      </g>
    </g>
    <path id="Trazado_903025" data-name="Trazado 903025" d="M126.707,48.668a2.077,2.077,0,0,0-3.3,2.527,2.078,2.078,0,0,0,3.3-2.527" transform="translate(1182.482 1202.531)" fill="#ee2d45"/>
    <g id="Grupo_1112276" data-name="Grupo 1112276" transform="translate(1306.946 1251.865)" opacity="0.5">
      <g id="Grupo_1111684" data-name="Grupo 1111684">
        <g id="Grupo_1111683" data-name="Grupo 1111683" clip-path="url(#clip-path-4)">
          <path id="Trazado_900861" data-name="Trazado 900861" d="M125.431,49.576a.56.56,0,0,0-.094-.192.572.572,0,0,0-.38-.22.592.592,0,0,0-.665.51.563.563,0,0,0,.115.425.587.587,0,0,0,1.025-.522m-.3-.036a.329.329,0,0,1-.522.4.314.314,0,0,1-.062-.234.336.336,0,0,1,.375-.288.313.313,0,0,1,.21.121" transform="translate(-124.286 -49.158)" fill="#fcc7bf"/>
        </g>
      </g>
    </g>
    <path id="Trazado_903026" data-name="Trazado 903026" d="M128.5,54.406a2.647,2.647,0,0,0-4.225,3.175,2.651,2.651,0,0,0,4.225-3.175" transform="translate(1182.591 1203.284)" fill="#ee2d45"/>
    <g id="Grupo_1112277" data-name="Grupo 1112277" transform="translate(1308.26 1258.567)" opacity="0.5">
      <g id="Grupo_1111687" data-name="Grupo 1111687">
        <g id="Grupo_1111686" data-name="Grupo 1111686" clip-path="url(#clip-path-5)">
          <path id="Trazado_900863" data-name="Trazado 900863" d="M126.815,55.533a.62.62,0,0,0-.1-.209.643.643,0,0,0-.43-.254.742.742,0,0,0-.831.624.649.649,0,0,0,.125.485.7.7,0,0,0,.971.108.714.714,0,0,0,.269-.754m-1.1.361a.4.4,0,0,1-.01-.165.483.483,0,0,1,.538-.405.393.393,0,0,1,.261.153.455.455,0,0,1-.725.545.367.367,0,0,1-.064-.128" transform="translate(-125.444 -55.063)" fill="#fcc7bf"/>
        </g>
      </g>
    </g>
    <g id="Grupo_1112264" data-name="Grupo 1112264" transform="translate(1276.819 1250.12)" opacity="0.5">
      <g id="Grupo_1111648" data-name="Grupo 1111648">
        <g id="Grupo_1111647" data-name="Grupo 1111647" clip-path="url(#clip-path-6)">
          <path id="Trazado_900805" data-name="Trazado 900805" d="M97.966,48.192a.084.084,0,0,0,.058-.042.385.385,0,0,0-.157-.52.082.082,0,0,0-.078.144.22.22,0,0,1,.09.3.084.084,0,0,0,.034.111.08.08,0,0,0,.053.008" transform="translate(-97.747 -47.621)" fill="#fcc7bf"/>
        </g>
      </g>
    </g>
    <g id="Grupo_1112265" data-name="Grupo 1112265" transform="translate(1277.042 1256.07)" opacity="0.5">
      <g id="Grupo_1111651" data-name="Grupo 1111651">
        <g id="Grupo_1111650" data-name="Grupo 1111650" clip-path="url(#clip-path-7)">
          <path id="Trazado_900806" data-name="Trazado 900806" d="M98.039,53.316a.318.318,0,0,0,.226-.394.085.085,0,0,0-.1-.057.083.083,0,0,0-.057.1.153.153,0,0,1-.106.19.082.082,0,0,0,.037.159" transform="translate(-97.943 -52.863)" fill="#fcc7bf"/>
        </g>
      </g>
    </g>
    <g id="Grupo_1112266" data-name="Grupo 1112266" transform="translate(1274.252 1250.013)" opacity="0.5">
      <g id="Grupo_1111654" data-name="Grupo 1111654">
        <g id="Grupo_1111653" data-name="Grupo 1111653" clip-path="url(#clip-path-8)">
          <path id="Trazado_900807" data-name="Trazado 900807" d="M95.831,47.91a.082.082,0,0,0,.067-.085.318.318,0,0,0-.336-.3.082.082,0,1,0,.01.163.154.154,0,0,1,.111.039.156.156,0,0,1,.051.106.082.082,0,0,0,.086.077h.01" transform="translate(-95.485 -47.526)" fill="#fcc7bf"/>
        </g>
      </g>
    </g>
    <g id="Grupo_1112267" data-name="Grupo 1112267" transform="translate(1277.12 1254.357)" opacity="0.5">
      <g id="Grupo_1111657" data-name="Grupo 1111657">
        <g id="Grupo_1111656" data-name="Grupo 1111656" clip-path="url(#clip-path-9)">
          <path id="Trazado_900808" data-name="Trazado 900808" d="M98.107,51.838a.3.3,0,0,0,.043-.46.082.082,0,0,0-.116.116.145.145,0,0,1,0,.205.082.082,0,0,0,0,.116.084.084,0,0,0,.073.023" transform="translate(-98.011 -51.354)" fill="#fcc7bf"/>
        </g>
      </g>
    </g>
    <g id="Grupo_1112268" data-name="Grupo 1112268" transform="translate(1275.201 1255.462)" opacity="0.5">
      <g id="Grupo_1111660" data-name="Grupo 1111660">
        <g id="Grupo_1111659" data-name="Grupo 1111659" clip-path="url(#clip-path-10)">
          <path id="Trazado_900809" data-name="Trazado 900809" d="M96.606,52.749a.082.082,0,0,0,.066-.067.3.3,0,0,0-.056-.23.3.3,0,0,0-.2-.124.082.082,0,0,0-.025.161.154.154,0,0,1,.094.058.147.147,0,0,1,.025.108.081.081,0,0,0,.068.094.079.079,0,0,0,.028,0" transform="translate(-96.321 -52.326)" fill="#fcc7bf"/>
        </g>
      </g>
    </g>
    <g id="Grupo_1112269" data-name="Grupo 1112269" transform="translate(1275.819 1253.849)" opacity="0.5">
      <g id="Grupo_1111663" data-name="Grupo 1111663">
        <g id="Grupo_1111662" data-name="Grupo 1111662" clip-path="url(#clip-path-11)">
          <path id="Trazado_900810" data-name="Trazado 900810" d="M96.962,51.5a.366.366,0,0,0,.156-.294.385.385,0,0,0-.111-.271.081.081,0,0,0-.116,0,.083.083,0,0,0,0,.117.215.215,0,0,1,.065.156.219.219,0,0,1-.065.156.082.082,0,0,0,0,.116.084.084,0,0,0,.073.023" transform="translate(-96.866 -50.906)" fill="#fcc7bf"/>
        </g>
      </g>
    </g>
    <g id="Grupo_1112270" data-name="Grupo 1112270" transform="translate(1276.358 1257.154)" opacity="0.5">
      <g id="Grupo_1111666" data-name="Grupo 1111666">
        <g id="Grupo_1111665" data-name="Grupo 1111665" clip-path="url(#clip-path-11)">
          <path id="Trazado_900811" data-name="Trazado 900811" d="M97.436,54.407a.366.366,0,0,0,.156-.294.379.379,0,0,0-.112-.271.081.081,0,0,0-.116,0,.082.082,0,0,0,0,.116.219.219,0,0,1,0,.311.082.082,0,0,0,0,.116.084.084,0,0,0,.073.023" transform="translate(-97.34 -53.817)" fill="#fcc7bf"/>
        </g>
      </g>
    </g>
    <g id="Grupo_1112271" data-name="Grupo 1112271" transform="translate(1274.193 1253.08)" opacity="0.5">
      <g id="Grupo_1111669" data-name="Grupo 1111669">
        <g id="Grupo_1111668" data-name="Grupo 1111668" clip-path="url(#clip-path-13)">
          <path id="Trazado_900812" data-name="Trazado 900812" d="M95.666,50.8a.086.086,0,0,0,.059-.044.385.385,0,0,0-.173-.515.082.082,0,0,0-.074.148.219.219,0,0,1,.1.3.083.083,0,0,0,.037.11.08.08,0,0,0,.051.007" transform="translate(-95.434 -50.228)" fill="#fcc7bf"/>
        </g>
      </g>
    </g>
    <g id="Grupo_1112272" data-name="Grupo 1112272" transform="translate(1277.886 1252.358)" opacity="0.5">
      <g id="Grupo_1111672" data-name="Grupo 1111672">
        <g id="Grupo_1111671" data-name="Grupo 1111671" clip-path="url(#clip-path-14)">
          <path id="Trazado_900813" data-name="Trazado 900813" d="M98.783,50.182a.381.381,0,0,0,.065-.563.082.082,0,0,0-.116,0,.081.081,0,0,0-.006.116.221.221,0,0,1-.014.311.082.082,0,0,0,0,.116.081.081,0,0,0,.075.025" transform="translate(-98.686 -49.593)" fill="#fcc7bf"/>
        </g>
      </g>
    </g>
    <g id="Grupo_1112273" data-name="Grupo 1112273" transform="translate(1275.788 1251.847)" opacity="0.5">
      <g id="Grupo_1111675" data-name="Grupo 1111675">
        <g id="Grupo_1111674" data-name="Grupo 1111674" clip-path="url(#clip-path-15)">
          <path id="Trazado_900814" data-name="Trazado 900814" d="M97.081,49.623a.081.081,0,0,0,.062-.052.329.329,0,0,0-.009-.252.334.334,0,0,0-.185-.171.082.082,0,0,0-.106.049.081.081,0,0,0,.048.1.166.166,0,0,1,.093.086.16.16,0,0,1,0,.127.082.082,0,0,0,.049.106.094.094,0,0,0,.043,0" transform="translate(-96.839 -49.142)" fill="#fcc7bf"/>
        </g>
      </g>
    </g>
  </g>
</svg>
