<svg xmlns="http://www.w3.org/2000/svg" width="190.086" height="177.724" viewBox="0 0 190.086 177.724">
  <g id="Grupo_1111877" data-name="Grupo 1111877" transform="translate(-1229.914 -3468.407)">
    <path id="Trazado_901344" data-name="Trazado 901344" d="M174.594,177.722H15.493C6.936,177.722,0,171.892,0,164.7V13.018C0,5.827,6.936,0,15.493,0h159.1c8.556,0,15.493,5.829,15.493,13.02V164.7c0,7.191-6.936,13.02-15.493,13.02" transform="translate(1229.914 3468.409)" fill="#c4e6e5"/>
    <path id="Trazado_901345" data-name="Trazado 901345" d="M129.593,281.2l-1.029,1.052,14.756,14.439L123.394,314.37H97.479V302.007H96.007V313.3L77.944,296.581l18.72-18.72h21.892v-1.472H97.095V262.327H95.623V276.82L76.057,296.386v15.925h1.472V298.423L95.555,318.8H123.52v12.911h1.472V318.8h.157l19.078-20.872,7.066,12.443,1.28-.727-7.615-13.408Z" transform="translate(1165.051 3245.689)" fill="#040504"/>
    <path id="Trazado_901346" data-name="Trazado 901346" d="M731.374,296.253l0,0-15.291-14.962-1.029,1.052,14.756,14.439-19.926,17.676H683.97V302.094H682.5v11.294l-18.063-16.72,18.72-18.72h21.892v-1.472H683.587V262.414h-1.472v14.493l-19.35,19.35.071.071-.108-.055-6.874,13.492,1.311.668,6.361-12.484,18.522,20.939h27.965V331.8h1.472V318.888h.157l18.321-20.044V309.9h1.472V296.253Z" transform="translate(670.591 3245.616)" fill="#040504"/>
    <path id="Trazado_901347" data-name="Trazado 901347" d="M598.652,584.406a4.85,4.85,0,0,1,1.193-3.479,4.057,4.057,0,0,1,3.081-1.257,4.276,4.276,0,0,1,2.228.59,3.858,3.858,0,0,1,1.513,1.647,5.347,5.347,0,0,1,.521,2.4,5.258,5.258,0,0,1-.548,2.429,3.741,3.741,0,0,1-1.552,1.622,4.436,4.436,0,0,1-2.167.551,4.219,4.219,0,0,1-2.253-.609,3.916,3.916,0,0,1-1.5-1.662,5.036,5.036,0,0,1-.511-2.228m1.218.018a3.576,3.576,0,0,0,.867,2.542,3.027,3.027,0,0,0,4.371-.009,3.791,3.791,0,0,0,.862-2.661,4.573,4.573,0,0,0-.368-1.9,2.83,2.83,0,0,0-1.078-1.26,2.921,2.921,0,0,0-1.592-.447,3.02,3.02,0,0,0-2.158.861,3.848,3.848,0,0,0-.9,2.877" transform="translate(719.373 2975.056)" fill="#040504"/>
    <path id="Trazado_901348" data-name="Trazado 901348" d="M195.358,195.274l1.181.3a3.976,3.976,0,0,1-1.336,2.219,3.682,3.682,0,0,1-2.359.764,4.24,4.24,0,0,1-2.347-.588,3.667,3.667,0,0,1-1.376-1.7,6.069,6.069,0,0,1-.472-2.393,5.259,5.259,0,0,1,.533-2.432,3.651,3.651,0,0,1,1.516-1.577,4.43,4.43,0,0,1,2.164-.539,3.659,3.659,0,0,1,2.253.682,3.542,3.542,0,0,1,1.273,1.918l-1.163.274a2.758,2.758,0,0,0-.9-1.419,2.4,2.4,0,0,0-1.485-.445,2.885,2.885,0,0,0-1.72.493,2.6,2.6,0,0,0-.971,1.324,5.329,5.329,0,0,0-.28,1.714,5.445,5.445,0,0,0,.332,1.988,2.472,2.472,0,0,0,1.032,1.269,2.893,2.893,0,0,0,1.516.42,2.54,2.54,0,0,0,1.68-.572,2.929,2.929,0,0,0,.932-1.7" transform="translate(1069.031 3307.947)" fill="#040504"/>
    <path id="Trazado_901349" data-name="Trazado 901349" d="M252.392,199.285v-8.925h1.181v3.665h4.639v-3.665h1.181v8.925h-1.181v-4.207h-4.639v4.207Z" transform="translate(1014.669 3307.065)" fill="#040504"/>
    <path id="Trazado_901350" data-name="Trazado 901350" d="M311.718,248.323v.614h-3.439a1.13,1.13,0,0,1,.074-.444,2.345,2.345,0,0,1,.421-.692,6.592,6.592,0,0,1,.836-.788,7.077,7.077,0,0,0,1.147-1.1,1.32,1.32,0,0,0,.3-.768.854.854,0,0,0-.272-.641.979.979,0,0,0-.708-.261,1,1,0,0,0-.738.277,1.048,1.048,0,0,0-.28.767l-.657-.067a1.617,1.617,0,0,1,.507-1.12,1.732,1.732,0,0,1,1.182-.385,1.649,1.649,0,0,1,1.186.415,1.364,1.364,0,0,1,.437,1.029,1.563,1.563,0,0,1-.128.614,2.381,2.381,0,0,1-.424.635,10.335,10.335,0,0,1-.985.916q-.575.483-.738.655a2.1,2.1,0,0,0-.27.346Z" transform="translate(967.009 3261.564)" fill="#040504"/>
    <path id="Trazado_901351" data-name="Trazado 901351" d="M338.35,194.021a4.85,4.85,0,0,1,1.193-3.479,4.057,4.057,0,0,1,3.081-1.257,4.274,4.274,0,0,1,2.228.591,3.858,3.858,0,0,1,1.513,1.647,5.348,5.348,0,0,1,.52,2.4,5.258,5.258,0,0,1-.548,2.429,3.741,3.741,0,0,1-1.552,1.623,4.436,4.436,0,0,1-2.167.551,4.219,4.219,0,0,1-2.253-.609,3.916,3.916,0,0,1-1.5-1.662,5.035,5.035,0,0,1-.511-2.228m1.218.018a3.576,3.576,0,0,0,.867,2.542,3.027,3.027,0,0,0,4.371-.009,3.791,3.791,0,0,0,.862-2.661,4.572,4.572,0,0,0-.368-1.9,2.831,2.831,0,0,0-1.078-1.26,2.921,2.921,0,0,0-1.592-.447,3.02,3.02,0,0,0-2.158.861,3.848,3.848,0,0,0-.9,2.877" transform="translate(941.363 3307.982)" fill="#040504"/>
    <path id="Trazado_901352" data-name="Trazado 901352" d="M406.932,199.285v-8.925h1.181v3.665h4.639v-3.665h1.181v8.925h-1.181v-4.207h-4.639v4.207Z" transform="translate(882.875 3307.065)" fill="#040504"/>
    <path id="Trazado_901353" data-name="Trazado 901353" d="M188.021,463.5a4.85,4.85,0,0,1,1.193-3.479,4.057,4.057,0,0,1,3.081-1.257,4.275,4.275,0,0,1,2.228.59A3.858,3.858,0,0,1,196.036,461a5.348,5.348,0,0,1,.52,2.4,5.258,5.258,0,0,1-.548,2.429,3.74,3.74,0,0,1-1.552,1.623,4.436,4.436,0,0,1-2.167.551,4.219,4.219,0,0,1-2.253-.609,3.916,3.916,0,0,1-1.5-1.662,5.035,5.035,0,0,1-.511-2.228m1.218.018a3.576,3.576,0,0,0,.867,2.542,3.027,3.027,0,0,0,4.371-.009,3.791,3.791,0,0,0,.862-2.661,4.573,4.573,0,0,0-.368-1.9,2.83,2.83,0,0,0-1.078-1.26,2.921,2.921,0,0,0-1.592-.447,3.02,3.02,0,0,0-2.158.861,3.848,3.848,0,0,0-.9,2.877" transform="translate(1069.566 3078.17)" fill="#040504"/>
    <path id="Trazado_901354" data-name="Trazado 901354" d="M256.6,468.759v-8.925h1.181V463.5h4.639v-3.665H263.6v8.925h-1.181v-4.207h-4.639v4.207Z" transform="translate(1011.078 3077.253)" fill="#040504"/>
    <path id="Trazado_901355" data-name="Trazado 901355" d="M52.88,618.807a4.85,4.85,0,0,1,1.193-3.479,4.057,4.057,0,0,1,3.081-1.257,4.275,4.275,0,0,1,2.228.591,3.858,3.858,0,0,1,1.513,1.647,5.348,5.348,0,0,1,.521,2.4,5.258,5.258,0,0,1-.548,2.429,3.741,3.741,0,0,1-1.552,1.623,4.435,4.435,0,0,1-2.167.551A4.22,4.22,0,0,1,54.9,622.7a3.917,3.917,0,0,1-1.5-1.662,5.035,5.035,0,0,1-.511-2.228m1.218.018a3.575,3.575,0,0,0,.868,2.542,3.027,3.027,0,0,0,4.371-.009A3.791,3.791,0,0,0,60.2,618.7a4.572,4.572,0,0,0-.368-1.9,2.83,2.83,0,0,0-1.078-1.26,2.921,2.921,0,0,0-1.592-.447,3.02,3.02,0,0,0-2.158.861,3.848,3.848,0,0,0-.9,2.877" transform="translate(1184.817 2945.718)" fill="#040504"/>
    <path id="Trazado_901356" data-name="Trazado 901356" d="M121.463,624.07v-8.925h1.181v3.665h4.639v-3.665h1.181v8.925h-1.181v-4.207h-4.639v4.207Z" transform="translate(1126.328 2944.801)" fill="#040504"/>
    <path id="Trazado_901357" data-name="Trazado 901357" d="M377.621,751.93a4.85,4.85,0,0,1,1.193-3.479,4.058,4.058,0,0,1,3.081-1.257,4.274,4.274,0,0,1,2.228.591,3.858,3.858,0,0,1,1.513,1.647,5.347,5.347,0,0,1,.52,2.4,5.258,5.258,0,0,1-.548,2.429,3.74,3.74,0,0,1-1.552,1.623,4.436,4.436,0,0,1-2.167.551,4.219,4.219,0,0,1-2.253-.609,3.917,3.917,0,0,1-1.5-1.662,5.037,5.037,0,0,1-.511-2.229m1.218.018a3.575,3.575,0,0,0,.868,2.542,3.027,3.027,0,0,0,4.371-.009,3.791,3.791,0,0,0,.862-2.661,4.573,4.573,0,0,0-.368-1.9,2.83,2.83,0,0,0-1.078-1.26,2.922,2.922,0,0,0-1.592-.447,3.02,3.02,0,0,0-2.158.861,3.848,3.848,0,0,0-.9,2.877" transform="translate(907.872 2832.188)" fill="#040504"/>
    <path id="Trazado_901358" data-name="Trazado 901358" d="M446.2,757.194v-8.925h1.181v3.665h4.639v-3.665h1.181v8.925h-1.181v-4.207h-4.639v4.207Z" transform="translate(849.383 2831.271)" fill="#040504"/>
    <path id="Trazado_901359" data-name="Trazado 901359" d="M374.091,341.264a4.85,4.85,0,0,1,1.193-3.479,4.057,4.057,0,0,1,3.081-1.257,4.275,4.275,0,0,1,2.228.59,3.859,3.859,0,0,1,1.513,1.647,5.348,5.348,0,0,1,.521,2.4,5.258,5.258,0,0,1-.548,2.429,3.741,3.741,0,0,1-1.552,1.623,4.435,4.435,0,0,1-2.167.551,4.22,4.22,0,0,1-2.253-.609,3.917,3.917,0,0,1-1.5-1.662,5.036,5.036,0,0,1-.511-2.228m1.218.018a3.575,3.575,0,0,0,.868,2.542,3.027,3.027,0,0,0,4.371-.009,3.792,3.792,0,0,0,.861-2.661,4.572,4.572,0,0,0-.368-1.9,2.831,2.831,0,0,0-1.078-1.26,2.922,2.922,0,0,0-1.592-.447,3.02,3.02,0,0,0-2.158.861,3.848,3.848,0,0,0-.9,2.877" transform="translate(910.882 3182.411)" fill="#040504"/>
    <path id="Trazado_901360" data-name="Trazado 901360" d="M820.648,195.361l1.181.3a3.976,3.976,0,0,1-1.336,2.219,3.682,3.682,0,0,1-2.359.764,4.24,4.24,0,0,1-2.347-.588,3.667,3.667,0,0,1-1.376-1.7,6.068,6.068,0,0,1-.472-2.393,5.259,5.259,0,0,1,.533-2.432,3.65,3.65,0,0,1,1.516-1.577,4.43,4.43,0,0,1,2.164-.539,3.659,3.659,0,0,1,2.253.682,3.543,3.543,0,0,1,1.273,1.918l-1.163.274a2.759,2.759,0,0,0-.9-1.419,2.4,2.4,0,0,0-1.486-.444,2.885,2.885,0,0,0-1.72.493,2.6,2.6,0,0,0-.971,1.324,5.329,5.329,0,0,0-.28,1.714,5.445,5.445,0,0,0,.332,1.988,2.472,2.472,0,0,0,1.032,1.269,2.893,2.893,0,0,0,1.516.42,2.54,2.54,0,0,0,1.68-.572,2.929,2.929,0,0,0,.932-1.7" transform="translate(535.772 3307.873)" fill="#040504"/>
    <path id="Trazado_901361" data-name="Trazado 901361" d="M877.682,199.371v-8.925h1.181v3.665H883.5v-3.665h1.181v8.925H883.5v-4.207h-4.639v4.207Z" transform="translate(481.411 3306.992)" fill="#040504"/>
    <path id="Trazado_901362" data-name="Trazado 901362" d="M937.008,248.41v.614h-3.439a1.131,1.131,0,0,1,.074-.444,2.35,2.35,0,0,1,.421-.692,6.588,6.588,0,0,1,.836-.788,7.079,7.079,0,0,0,1.147-1.1,1.32,1.32,0,0,0,.3-.769.854.854,0,0,0-.271-.641.979.979,0,0,0-.708-.261,1,1,0,0,0-.738.277,1.048,1.048,0,0,0-.281.767l-.656-.067a1.616,1.616,0,0,1,.508-1.12,1.731,1.731,0,0,1,1.182-.385,1.649,1.649,0,0,1,1.185.415,1.363,1.363,0,0,1,.437,1.029,1.563,1.563,0,0,1-.128.614,2.384,2.384,0,0,1-.424.635,10.345,10.345,0,0,1-.985.916q-.575.483-.738.655a2.1,2.1,0,0,0-.27.346Z" transform="translate(433.75 3261.491)" fill="#040504"/>
    <path id="Trazado_901363" data-name="Trazado 901363" d="M963.64,194.108a4.85,4.85,0,0,1,1.193-3.479,4.057,4.057,0,0,1,3.081-1.257,4.275,4.275,0,0,1,2.228.591,3.859,3.859,0,0,1,1.513,1.647,5.348,5.348,0,0,1,.521,2.4,5.26,5.26,0,0,1-.548,2.429,3.74,3.74,0,0,1-1.552,1.623,4.435,4.435,0,0,1-2.167.551,4.219,4.219,0,0,1-2.253-.609,3.916,3.916,0,0,1-1.5-1.662,5.035,5.035,0,0,1-.511-2.228m1.218.018a3.576,3.576,0,0,0,.867,2.542,3.027,3.027,0,0,0,4.371-.009,3.791,3.791,0,0,0,.862-2.661,4.572,4.572,0,0,0-.368-1.9,2.83,2.83,0,0,0-1.078-1.26,2.921,2.921,0,0,0-1.592-.447,3.02,3.02,0,0,0-2.158.861,3.848,3.848,0,0,0-.9,2.877" transform="translate(408.104 3307.908)" fill="#040504"/>
    <path id="Trazado_901364" data-name="Trazado 901364" d="M1032.223,199.371v-8.925h1.181v3.665h4.639v-3.665h1.181v8.925h-1.181v-4.207H1033.4v4.207Z" transform="translate(349.616 3306.992)" fill="#040504"/>
    <path id="Trazado_901365" data-name="Trazado 901365" d="M813.311,463.583A4.85,4.85,0,0,1,814.5,460.1a4.057,4.057,0,0,1,3.081-1.257,4.274,4.274,0,0,1,2.228.591,3.857,3.857,0,0,1,1.513,1.647,5.348,5.348,0,0,1,.52,2.4,5.261,5.261,0,0,1-.548,2.429,3.74,3.74,0,0,1-1.553,1.623,4.436,4.436,0,0,1-2.167.551,4.219,4.219,0,0,1-2.253-.609,3.916,3.916,0,0,1-1.5-1.662,5.035,5.035,0,0,1-.511-2.228m1.218.018a3.576,3.576,0,0,0,.867,2.542,3.027,3.027,0,0,0,4.371-.009,3.791,3.791,0,0,0,.862-2.661,4.571,4.571,0,0,0-.368-1.9,2.83,2.83,0,0,0-1.078-1.26,2.921,2.921,0,0,0-1.592-.447,3.02,3.02,0,0,0-2.158.861,3.848,3.848,0,0,0-.9,2.877" transform="translate(536.308 3078.096)" fill="#040504"/>
    <path id="Trazado_901366" data-name="Trazado 901366" d="M881.894,468.846v-8.925h1.181v3.665h4.639v-3.665h1.181v8.925h-1.181v-4.207h-4.639v4.207Z" transform="translate(477.819 3077.179)" fill="#040504"/>
    <path id="Trazado_901367" data-name="Trazado 901367" d="M1002.911,752.017a4.85,4.85,0,0,1,1.193-3.479,4.057,4.057,0,0,1,3.081-1.257,4.275,4.275,0,0,1,2.228.591,3.859,3.859,0,0,1,1.513,1.647,5.348,5.348,0,0,1,.52,2.4,5.259,5.259,0,0,1-.548,2.429,3.74,3.74,0,0,1-1.552,1.622,4.435,4.435,0,0,1-2.167.551,4.218,4.218,0,0,1-2.253-.609,3.916,3.916,0,0,1-1.5-1.662,5.036,5.036,0,0,1-.511-2.228m1.218.018a3.576,3.576,0,0,0,.867,2.542,3.027,3.027,0,0,0,4.371-.009,3.791,3.791,0,0,0,.861-2.661,4.572,4.572,0,0,0-.368-1.9,2.83,2.83,0,0,0-1.078-1.26,2.922,2.922,0,0,0-1.592-.447,3.02,3.02,0,0,0-2.158.862,3.848,3.848,0,0,0-.9,2.877" transform="translate(374.613 2832.113)" fill="#040504"/>
    <path id="Trazado_901368" data-name="Trazado 901368" d="M1071.494,757.281v-8.925h1.181v3.665h4.639v-3.665h1.181v8.925h-1.181v-4.207h-4.639v4.207Z" transform="translate(316.125 2831.196)" fill="#040504"/>
    <path id="Trazado_901369" data-name="Trazado 901369" d="M1138.457,605.23a4.85,4.85,0,0,1,1.193-3.479,4.057,4.057,0,0,1,3.081-1.257,4.276,4.276,0,0,1,2.228.59,3.86,3.86,0,0,1,1.513,1.647,5.348,5.348,0,0,1,.52,2.4,5.259,5.259,0,0,1-.548,2.429,3.742,3.742,0,0,1-1.552,1.623,4.435,4.435,0,0,1-2.167.551,4.22,4.22,0,0,1-2.253-.609,3.917,3.917,0,0,1-1.5-1.662,5.035,5.035,0,0,1-.511-2.228m1.218.018a3.576,3.576,0,0,0,.867,2.542,3.027,3.027,0,0,0,4.371-.009,3.791,3.791,0,0,0,.862-2.661,4.573,4.573,0,0,0-.368-1.9,2.831,2.831,0,0,0-1.078-1.26,2.922,2.922,0,0,0-1.592-.447,3.02,3.02,0,0,0-2.158.861,3.848,3.848,0,0,0-.9,2.877" transform="translate(259.018 2957.297)" fill="#040504"/>
    <path id="Trazado_901370" data-name="Trazado 901370" d="M1207.04,610.493v-8.925h1.181v3.665h4.639v-3.665h1.181v8.925h-1.181v-4.207h-4.639v4.207Z" transform="translate(200.528 2956.379)" fill="#040504"/>
    <path id="Trazado_901371" data-name="Trazado 901371" d="M999.382,341.351a4.85,4.85,0,0,1,1.193-3.479,4.057,4.057,0,0,1,3.081-1.257,4.276,4.276,0,0,1,2.228.59,3.859,3.859,0,0,1,1.513,1.647,5.348,5.348,0,0,1,.52,2.4,5.259,5.259,0,0,1-.548,2.429,3.741,3.741,0,0,1-1.553,1.623,4.435,4.435,0,0,1-2.167.551,4.219,4.219,0,0,1-2.253-.609,3.916,3.916,0,0,1-1.5-1.662,5.035,5.035,0,0,1-.511-2.228m1.218.018a3.576,3.576,0,0,0,.867,2.542,3.027,3.027,0,0,0,4.371-.009,3.792,3.792,0,0,0,.861-2.661,4.569,4.569,0,0,0-.368-1.9,2.828,2.828,0,0,0-1.078-1.26,2.921,2.921,0,0,0-1.592-.447,3.019,3.019,0,0,0-2.158.861,3.848,3.848,0,0,0-.9,2.877" transform="translate(377.623 3182.337)" fill="#040504"/>
    <path id="Trazado_901379" data-name="Trazado 901379" d="M348.82,1153.927a17.634,17.634,0,0,1,0-11.795,14.4,14.4,0,0,1,3.058-4.826l1.674,1.808a12.053,12.053,0,0,0-2.4,4.017,15.541,15.541,0,0,0,0,9.8,12.178,12.178,0,0,0,2.4,4.028l-1.674,1.8a14.4,14.4,0,0,1-3.058-4.826" transform="translate(933.3 2469.492)" fill="#1a1818"/>
    <path id="Trazado_901380" data-name="Trazado 901380" d="M400.918,1163.749a4.909,4.909,0,0,1-2-2.092,6.988,6.988,0,0,1-.7-3.225v-4.452a6.989,6.989,0,0,1,.7-3.225,4.944,4.944,0,0,1,2-2.1,6.111,6.111,0,0,1,3.063-.737,5.608,5.608,0,0,1,2.65.625,5.351,5.351,0,0,1,1.975,1.8,7.277,7.277,0,0,1,1.077,2.784h-2.745a3.893,3.893,0,0,0-.636-1.367,3.039,3.039,0,0,0-1.032-.9,2.741,2.741,0,0,0-1.289-.312,2.978,2.978,0,0,0-1.6.418,2.76,2.76,0,0,0-1.043,1.188,4.176,4.176,0,0,0-.368,1.819v4.452a4.176,4.176,0,0,0,.368,1.819,2.722,2.722,0,0,0,1.043,1.183,3.008,3.008,0,0,0,1.6.413,2.841,2.841,0,0,0,1.3-.3,2.94,2.94,0,0,0,1.032-.882,3.683,3.683,0,0,0,.625-1.395h2.745a7.407,7.407,0,0,1-1.088,2.784,5.345,5.345,0,0,1-1.975,1.8,5.581,5.581,0,0,1-2.639.625,6.146,6.146,0,0,1-3.063-.731" transform="translate(890.302 2460.44)" fill="#1a1818"/>
    <path id="Trazado_901381" data-name="Trazado 901381" d="M490.009,1256.192h-1.555v-7.69l-1.249.631V1247.5l1.379-.768h1.425Z" transform="translate(814.417 2376.172)" fill="#1a1818"/>
    <path id="Trazado_901382" data-name="Trazado 901382" d="M518.307,1254.248l3.272-4.333a2.861,2.861,0,0,0,.394-.686,1.806,1.806,0,0,0,.14-.66v-.013a.938.938,0,0,0-.289-.735,1.19,1.19,0,0,0-.823-.26,1.121,1.121,0,0,0-.829.315,1.449,1.449,0,0,0-.381.895v.006h-1.6v-.006a3.518,3.518,0,0,1,.455-1.457,2.461,2.461,0,0,1,.963-.924,2.89,2.89,0,0,1,1.379-.319,3.432,3.432,0,0,1,1.477.29,2.078,2.078,0,0,1,.933.843,2.605,2.605,0,0,1,.322,1.333v.007a3.33,3.33,0,0,1-.218,1.161,4.37,4.37,0,0,1-.6,1.1l-2.537,3.331h3.409v1.49h-5.465Z" transform="translate(787.992 2376.736)" fill="#1a1818"/>
    <path id="Trazado_901383" data-name="Trazado 901383" d="M573.423,1149.058h2.667v16.225h-2.667Zm1.417,6.93h9.228v2.555H574.84Zm7.633-6.93h2.667v16.225h-2.667Z" transform="translate(740.889 2459.471)" fill="#1a1818"/>
    <path id="Trazado_901384" data-name="Trazado 901384" d="M670.457,1254.248l3.272-4.333a2.862,2.862,0,0,0,.394-.686,1.809,1.809,0,0,0,.14-.66v-.013a.938.938,0,0,0-.289-.735,1.19,1.19,0,0,0-.823-.26,1.121,1.121,0,0,0-.829.315,1.451,1.451,0,0,0-.38.895v.006h-1.6v-.006a3.518,3.518,0,0,1,.455-1.457,2.461,2.461,0,0,1,.963-.924,2.89,2.89,0,0,1,1.379-.319,3.432,3.432,0,0,1,1.477.29,2.078,2.078,0,0,1,.933.843,2.605,2.605,0,0,1,.322,1.333v.007a3.331,3.331,0,0,1-.218,1.161,4.37,4.37,0,0,1-.6,1.1l-2.537,3.331h3.409v1.49h-5.465Z" transform="translate(658.236 2376.736)" fill="#1a1818"/>
    <path id="Trazado_901385" data-name="Trazado 901385" d="M717.222,1254.248l3.272-4.333a2.858,2.858,0,0,0,.394-.686,1.805,1.805,0,0,0,.14-.66v-.013a.938.938,0,0,0-.289-.735,1.189,1.189,0,0,0-.823-.26,1.121,1.121,0,0,0-.829.315,1.451,1.451,0,0,0-.381.895v.006h-1.6v-.006a3.518,3.518,0,0,1,.455-1.457,2.461,2.461,0,0,1,.963-.924,2.89,2.89,0,0,1,1.379-.319,3.432,3.432,0,0,1,1.477.29,2.078,2.078,0,0,1,.933.843,2.606,2.606,0,0,1,.322,1.333v.007a3.331,3.331,0,0,1-.218,1.161,4.368,4.368,0,0,1-.6,1.1l-2.537,3.331h3.409v1.49h-5.465Z" transform="translate(618.354 2376.736)" fill="#1a1818"/>
    <path id="Trazado_901386" data-name="Trazado 901386" d="M772.831,1163.739a5.135,5.135,0,0,1-2.042-2.1,6.557,6.557,0,0,1-.725-3.141v-4.6a6.558,6.558,0,0,1,.725-3.141,5.138,5.138,0,0,1,2.042-2.1,6.625,6.625,0,0,1,6.093,0,5.141,5.141,0,0,1,2.042,2.1,6.56,6.56,0,0,1,.725,3.141v4.6a6.558,6.558,0,0,1-.725,3.141,5.137,5.137,0,0,1-2.042,2.1,6.623,6.623,0,0,1-6.093,0m4.659-2.3a2.712,2.712,0,0,0,1.077-1.144,3.714,3.714,0,0,0,.379-1.713v-4.754a3.714,3.714,0,0,0-.379-1.713,2.713,2.713,0,0,0-1.077-1.144,3.438,3.438,0,0,0-3.225,0,2.711,2.711,0,0,0-1.077,1.144,3.712,3.712,0,0,0-.379,1.713v4.754a3.711,3.711,0,0,0,.379,1.713,2.709,2.709,0,0,0,1.077,1.144,3.436,3.436,0,0,0,3.225,0" transform="translate(573.189 2460.439)" fill="#1a1818"/>
    <path id="Trazado_901387" data-name="Trazado 901387" d="M866.019,1256.192h-1.555v-7.69l-1.249.631V1247.5l1.379-.768h1.425Z" transform="translate(493.749 2376.172)" fill="#1a1818"/>
    <path id="Trazado_901388" data-name="Trazado 901388" d="M896.12,1256.192h-1.555v-7.69l-1.249.631V1247.5l1.379-.768h1.425Z" transform="translate(468.078 2376.172)" fill="#1a1818"/>
    <path id="Trazado_901389" data-name="Trazado 901389" d="M920.64,1156.957a12.181,12.181,0,0,0,2.4-4.028,15.541,15.541,0,0,0,0-9.8,12.059,12.059,0,0,0-2.4-4.017l1.674-1.808a14.4,14.4,0,0,1,3.058,4.826,17.634,17.634,0,0,1,0,11.795,14.4,14.4,0,0,1-3.058,4.826Z" transform="translate(444.775 2469.492)" fill="#1a1818"/>
    <rect id="Rectángulo_403436" data-name="Rectángulo 403436" width="190.086" height="177.724" transform="translate(1229.914 3468.407)" fill="none"/>
  </g>
</svg>
