<svg id="Grupo_1111883" data-name="Grupo 1111883" xmlns="http://www.w3.org/2000/svg" xmlns:xlink="http://www.w3.org/1999/xlink" width="194.036" height="178.485" viewBox="0 0 194.036 178.485">
  <defs>
    <clipPath id="clip-path">
      <rect id="Rectángulo_403441" data-name="Rectángulo 403441" width="194.036" height="178.485" fill="none"/>
    </clipPath>
  </defs>
  <g id="Grupo_1111882" data-name="Grupo 1111882" clip-path="url(#clip-path)">
    <path id="Trazado_901432" data-name="Trazado 901432" d="M178.221,178.485H15.815A15.815,15.815,0,0,1,0,162.671V15.815A15.815,15.815,0,0,1,15.815,0H178.221a15.815,15.815,0,0,1,15.815,15.815V162.671a15.815,15.815,0,0,1-15.815,15.815" fill="#c8db8d"/>
    <path id="Trazado_901433" data-name="Trazado 901433" d="M723.394,300.882V285.6h-1.5v12.08l-13.477-13.327-1.056,1.068,14.533,14.372v.3l-19.941,17.69h-25.98V305.22h-1.5v11.6l-18.219-16.865L675.2,281h21.9v-1.5H675.639V265.331h-1.5v14.606l-19.49,19.492h-.033v1.031l-.01.01.01.012v9.477l-9.869-7.292-.893,1.208,11.067,8.177a.751.751,0,0,0,1.2-.6v-9.267l17.771,20.09h28.758v12.9h1.5V321.81l19.129-20.928Z" transform="translate(-547.119 -225.468)" fill="#040504"/>
    <path id="Trazado_901434" data-name="Trazado 901434" d="M121.571,288.111a.751.751,0,0,0-.413.671V298L107.21,284.352l-1.051,1.074,15,14.677v.022l-19.907,17.66H75.14V305.331h-1.5v11.364L55.451,299.86,74.313,281H96.377v-1.5H74.753V265.331h-1.5v14.606L55.168,298.019V285.3h-1.5v15.009h.4l-.162.158,19.283,21.8h28.185v13.006h1.5V322.269h.153l19.616-21.46-.01-.01h.028V290.27l9.6,7.091.893-1.208-10.8-7.976a.751.751,0,0,0-.785-.066" transform="translate(-45.603 -225.468)" fill="#040504"/>
    <path id="Trazado_901435" data-name="Trazado 901435" d="M170.753,199.236l1.191.3a4.008,4.008,0,0,1-1.347,2.237,3.711,3.711,0,0,1-2.378.77,4.273,4.273,0,0,1-2.366-.592,3.7,3.7,0,0,1-1.387-1.715,6.118,6.118,0,0,1-.476-2.412,5.3,5.3,0,0,1,.537-2.452,3.679,3.679,0,0,1,1.528-1.59,4.465,4.465,0,0,1,2.182-.543,3.689,3.689,0,0,1,2.271.687,3.57,3.57,0,0,1,1.283,1.933l-1.172.276a2.782,2.782,0,0,0-.908-1.43,2.421,2.421,0,0,0-1.5-.448,2.909,2.909,0,0,0-1.734.5,2.625,2.625,0,0,0-.979,1.335,5.373,5.373,0,0,0-.282,1.728,5.49,5.49,0,0,0,.334,2,2.491,2.491,0,0,0,1.04,1.28,2.918,2.918,0,0,0,1.528.424,2.561,2.561,0,0,0,1.694-.577,2.953,2.953,0,0,0,.939-1.712" transform="translate(-139.352 -164.208)" fill="#040504"/>
    <path id="Trazado_901436" data-name="Trazado 901436" d="M226.938,203.258v-9h1.191v3.695h4.677v-3.695H234v9h-1.191v-4.241h-4.677v4.241Z" transform="translate(-192.843 -165.075)" fill="#040504"/>
    <path id="Trazado_901437" data-name="Trazado 901437" d="M285.595,251.6v.619h-3.467a1.138,1.138,0,0,1,.075-.447,2.367,2.367,0,0,1,.424-.7,6.648,6.648,0,0,1,.843-.794,7.138,7.138,0,0,0,1.156-1.111,1.33,1.33,0,0,0,.3-.775.861.861,0,0,0-.274-.646.988.988,0,0,0-.714-.263,1.006,1.006,0,0,0-.744.279,1.056,1.056,0,0,0-.283.773l-.662-.068a1.63,1.63,0,0,1,.512-1.129,1.746,1.746,0,0,1,1.192-.388,1.662,1.662,0,0,1,1.2.419,1.374,1.374,0,0,1,.44,1.038,1.572,1.572,0,0,1-.129.619,2.4,2.4,0,0,1-.428.64,10.4,10.4,0,0,1-.993.923q-.58.487-.744.66a2.117,2.117,0,0,0-.272.349Z" transform="translate(-239.74 -209.846)" fill="#040504"/>
    <path id="Trazado_901438" data-name="Trazado 901438" d="M311.824,197.974a4.889,4.889,0,0,1,1.2-3.507,4.09,4.09,0,0,1,3.105-1.267,4.309,4.309,0,0,1,2.246.6,3.888,3.888,0,0,1,1.525,1.66,5.392,5.392,0,0,1,.525,2.415,5.3,5.3,0,0,1-.552,2.449,3.77,3.77,0,0,1-1.565,1.636,4.471,4.471,0,0,1-2.185.555,4.255,4.255,0,0,1-2.271-.614,3.949,3.949,0,0,1-1.516-1.675,5.079,5.079,0,0,1-.515-2.246m1.227.018a3.6,3.6,0,0,0,.875,2.562,3.051,3.051,0,0,0,4.407-.009,3.822,3.822,0,0,0,.868-2.682,4.608,4.608,0,0,0-.371-1.918,2.854,2.854,0,0,0-1.086-1.27,2.945,2.945,0,0,0-1.6-.451,3.045,3.045,0,0,0-2.176.868,3.879,3.879,0,0,0-.911,2.9" transform="translate(-264.976 -164.173)" fill="#040504"/>
    <path id="Trazado_901439" data-name="Trazado 901439" d="M379.552,203.258v-9h1.191v3.695h4.677v-3.695h1.19v9h-1.19v-4.241h-4.677v4.241Z" transform="translate(-322.528 -165.075)" fill="#040504"/>
    <path id="Trazado_901440" data-name="Trazado 901440" d="M163.369,464.089a4.89,4.89,0,0,1,1.2-3.507,4.09,4.09,0,0,1,3.105-1.267,4.309,4.309,0,0,1,2.246.6,3.89,3.89,0,0,1,1.525,1.66,5.393,5.393,0,0,1,.525,2.415,5.3,5.3,0,0,1-.552,2.449,3.771,3.771,0,0,1-1.565,1.636,4.471,4.471,0,0,1-2.185.555,4.255,4.255,0,0,1-2.271-.614,3.949,3.949,0,0,1-1.516-1.675,5.078,5.078,0,0,1-.515-2.246m1.227.018a3.6,3.6,0,0,0,.875,2.562,3.051,3.051,0,0,0,4.407-.009,3.822,3.822,0,0,0,.868-2.682,4.608,4.608,0,0,0-.371-1.918,2.854,2.854,0,0,0-1.086-1.27,2.945,2.945,0,0,0-1.6-.451,3.045,3.045,0,0,0-2.176.868,3.879,3.879,0,0,0-.911,2.9" transform="translate(-138.824 -390.307)" fill="#040504"/>
    <path id="Trazado_901441" data-name="Trazado 901441" d="M231.1,469.373v-9h1.191v3.695h4.677v-3.695h1.191v9h-1.191v-4.241h-4.677v4.241Z" transform="translate(-196.377 -391.209)" fill="#040504"/>
    <path id="Trazado_901442" data-name="Trazado 901442" d="M823.74,464.089a4.889,4.889,0,0,1,1.2-3.507,4.09,4.09,0,0,1,3.105-1.267,4.309,4.309,0,0,1,2.246.6,3.889,3.889,0,0,1,1.525,1.66,5.392,5.392,0,0,1,.525,2.415,5.3,5.3,0,0,1-.552,2.449,3.771,3.771,0,0,1-1.565,1.636,4.471,4.471,0,0,1-2.185.555,4.255,4.255,0,0,1-2.271-.614,3.949,3.949,0,0,1-1.516-1.675,5.077,5.077,0,0,1-.516-2.246m1.227.018a3.6,3.6,0,0,0,.875,2.562,3.051,3.051,0,0,0,4.407-.009,3.822,3.822,0,0,0,.868-2.682,4.607,4.607,0,0,0-.371-1.918,2.854,2.854,0,0,0-1.086-1.27,2.945,2.945,0,0,0-1.6-.451,3.045,3.045,0,0,0-2.176.868,3.879,3.879,0,0,0-.911,2.9" transform="translate(-699.981 -390.307)" fill="#040504"/>
    <path id="Trazado_901443" data-name="Trazado 901443" d="M891.468,469.373v-9h1.191v3.695h4.677v-3.695h1.19v9h-1.19v-4.241h-4.677v4.241Z" transform="translate(-757.533 -391.209)" fill="#040504"/>
    <path id="Trazado_901444" data-name="Trazado 901444" d="M29.913,333.6a4.889,4.889,0,0,1,1.2-3.508,4.09,4.09,0,0,1,3.105-1.267,4.309,4.309,0,0,1,2.246.6,3.889,3.889,0,0,1,1.525,1.66,5.393,5.393,0,0,1,.525,2.415,5.3,5.3,0,0,1-.552,2.449,3.771,3.771,0,0,1-1.565,1.635,4.471,4.471,0,0,1-2.185.555,4.253,4.253,0,0,1-2.271-.614,3.949,3.949,0,0,1-1.516-1.675,5.078,5.078,0,0,1-.515-2.246m1.227.018a3.6,3.6,0,0,0,.875,2.562,3.051,3.051,0,0,0,4.407-.009,3.822,3.822,0,0,0,.868-2.682,4.61,4.61,0,0,0-.371-1.918,2.855,2.855,0,0,0-1.086-1.27,2.945,2.945,0,0,0-1.6-.451,3.045,3.045,0,0,0-2.176.868,3.879,3.879,0,0,0-.911,2.9" transform="translate(-25.419 -279.424)" fill="#040504"/>
    <path id="Trazado_901445" data-name="Trazado 901445" d="M97.641,338.886v-9h1.191v3.695h4.677v-3.695h1.19v9h-1.19v-4.241H98.832v4.241Z" transform="translate(-82.972 -280.326)" fill="#040504"/>
    <path id="Trazado_901446" data-name="Trazado 901446" d="M1141.2,331.987a4.89,4.89,0,0,1,1.2-3.507,4.09,4.09,0,0,1,3.105-1.267,4.309,4.309,0,0,1,2.246.6,3.888,3.888,0,0,1,1.525,1.66,5.391,5.391,0,0,1,.525,2.415,5.3,5.3,0,0,1-.552,2.449,3.77,3.77,0,0,1-1.565,1.636,4.471,4.471,0,0,1-2.185.555,4.254,4.254,0,0,1-2.271-.614,3.948,3.948,0,0,1-1.516-1.676,5.076,5.076,0,0,1-.516-2.246m1.227.018a3.6,3.6,0,0,0,.875,2.562,3.051,3.051,0,0,0,4.406-.009,3.822,3.822,0,0,0,.868-2.682,4.609,4.609,0,0,0-.371-1.918,2.854,2.854,0,0,0-1.086-1.27,2.945,2.945,0,0,0-1.6-.451,3.044,3.044,0,0,0-2.176.868,3.879,3.879,0,0,0-.911,2.9" transform="translate(-969.748 -278.052)" fill="#040504"/>
    <path id="Trazado_901447" data-name="Trazado 901447" d="M1208.93,337.271v-9h1.191v3.695h4.677v-3.695h1.19v9h-1.19V333.03h-4.677v4.241Z" transform="translate(-1027.3 -278.954)" fill="#040504"/>
    <path id="Trazado_901448" data-name="Trazado 901448" d="M350.606,748.928a4.889,4.889,0,0,1,1.2-3.508,4.09,4.09,0,0,1,3.105-1.267,4.309,4.309,0,0,1,2.246.6,3.888,3.888,0,0,1,1.525,1.66,5.392,5.392,0,0,1,.525,2.415,5.3,5.3,0,0,1-.552,2.449,3.771,3.771,0,0,1-1.565,1.635,4.471,4.471,0,0,1-2.185.555,4.254,4.254,0,0,1-2.271-.614,3.948,3.948,0,0,1-1.516-1.675,5.076,5.076,0,0,1-.516-2.246m1.227.018a3.6,3.6,0,0,0,.875,2.562,3.051,3.051,0,0,0,4.407-.009,3.822,3.822,0,0,0,.868-2.682,4.607,4.607,0,0,0-.371-1.918,2.854,2.854,0,0,0-1.086-1.271,2.945,2.945,0,0,0-1.6-.451,3.044,3.044,0,0,0-2.176.868,3.879,3.879,0,0,0-.911,2.9" transform="translate(-297.931 -632.351)" fill="#040504"/>
    <path id="Trazado_901449" data-name="Trazado 901449" d="M418.334,754.211v-9h1.191v3.695H424.2v-3.695h1.191v9H424.2V749.97h-4.677v4.241Z" transform="translate(-355.483 -633.253)" fill="#040504"/>
    <path id="Trazado_901450" data-name="Trazado 901450" d="M1012.968,748.928a4.89,4.89,0,0,1,1.2-3.508,4.09,4.09,0,0,1,3.105-1.267,4.309,4.309,0,0,1,2.246.6,3.888,3.888,0,0,1,1.525,1.66,5.393,5.393,0,0,1,.525,2.415,5.3,5.3,0,0,1-.552,2.449,3.771,3.771,0,0,1-1.565,1.635,4.471,4.471,0,0,1-2.185.555,4.254,4.254,0,0,1-2.271-.614,3.948,3.948,0,0,1-1.516-1.675,5.076,5.076,0,0,1-.516-2.246m1.227.018a3.6,3.6,0,0,0,.875,2.562,3.051,3.051,0,0,0,4.407-.009,3.822,3.822,0,0,0,.868-2.682,4.608,4.608,0,0,0-.371-1.918,2.854,2.854,0,0,0-1.086-1.271,2.945,2.945,0,0,0-1.6-.451,3.044,3.044,0,0,0-2.176.868,3.879,3.879,0,0,0-.911,2.9" transform="translate(-860.78 -632.351)" fill="#040504"/>
    <path id="Trazado_901451" data-name="Trazado 901451" d="M1080.7,754.211v-9h1.191v3.695h4.677v-3.695h1.191v9h-1.191V749.97h-4.677v4.241Z" transform="translate(-918.332 -633.253)" fill="#040504"/>
    <path id="Trazado_901452" data-name="Trazado 901452" d="M347.12,343.381a4.889,4.889,0,0,1,1.2-3.507,4.09,4.09,0,0,1,3.105-1.267,4.309,4.309,0,0,1,2.246.6,3.889,3.889,0,0,1,1.525,1.66,5.392,5.392,0,0,1,.525,2.415,5.3,5.3,0,0,1-.552,2.449,3.771,3.771,0,0,1-1.565,1.636,4.471,4.471,0,0,1-2.185.555,4.254,4.254,0,0,1-2.271-.614,3.947,3.947,0,0,1-1.516-1.675,5.077,5.077,0,0,1-.516-2.246m1.227.018a3.6,3.6,0,0,0,.875,2.562,3.051,3.051,0,0,0,4.406-.009,3.821,3.821,0,0,0,.869-2.682,4.608,4.608,0,0,0-.371-1.918,2.854,2.854,0,0,0-1.086-1.27,2.945,2.945,0,0,0-1.6-.451,3.044,3.044,0,0,0-2.176.868,3.878,3.878,0,0,0-.911,2.9" transform="translate(-294.969 -287.734)" fill="#040504"/>
    <path id="Trazado_901453" data-name="Trazado 901453" d="M1009.482,343.381a4.89,4.89,0,0,1,1.2-3.507,4.09,4.09,0,0,1,3.105-1.267,4.309,4.309,0,0,1,2.246.6,3.89,3.89,0,0,1,1.525,1.66,5.393,5.393,0,0,1,.525,2.415,5.3,5.3,0,0,1-.552,2.449,3.771,3.771,0,0,1-1.565,1.636,4.472,4.472,0,0,1-2.185.555,4.255,4.255,0,0,1-2.271-.614,3.949,3.949,0,0,1-1.516-1.675,5.079,5.079,0,0,1-.515-2.246m1.227.018a3.6,3.6,0,0,0,.875,2.562,3.051,3.051,0,0,0,4.407-.009,3.822,3.822,0,0,0,.868-2.682,4.608,4.608,0,0,0-.371-1.918,2.854,2.854,0,0,0-1.086-1.27,2.945,2.945,0,0,0-1.6-.451,3.044,3.044,0,0,0-2.176.868,3.878,3.878,0,0,0-.911,2.9" transform="translate(-857.817 -287.734)" fill="#040504"/>
    <path id="Trazado_901454" data-name="Trazado 901454" d="M829.131,199.236l1.191.3a4.008,4.008,0,0,1-1.347,2.237,3.712,3.712,0,0,1-2.378.77,4.273,4.273,0,0,1-2.366-.592,3.7,3.7,0,0,1-1.387-1.715,6.121,6.121,0,0,1-.476-2.412,5.3,5.3,0,0,1,.537-2.452,3.678,3.678,0,0,1,1.528-1.59,4.465,4.465,0,0,1,2.182-.543,3.689,3.689,0,0,1,2.271.687,3.57,3.57,0,0,1,1.283,1.933l-1.172.276a2.782,2.782,0,0,0-.908-1.43,2.421,2.421,0,0,0-1.5-.448,2.908,2.908,0,0,0-1.734.5,2.626,2.626,0,0,0-.979,1.335,5.372,5.372,0,0,0-.282,1.728,5.49,5.49,0,0,0,.334,2,2.492,2.492,0,0,0,1.04,1.28,2.918,2.918,0,0,0,1.528.424,2.561,2.561,0,0,0,1.694-.577,2.953,2.953,0,0,0,.939-1.712" transform="translate(-698.815 -164.208)" fill="#040504"/>
    <path id="Trazado_901455" data-name="Trazado 901455" d="M885.317,203.258v-9h1.191v3.695h4.677v-3.695h1.19v9h-1.19v-4.241h-4.677v4.241Z" transform="translate(-752.307 -165.075)" fill="#040504"/>
    <path id="Trazado_901456" data-name="Trazado 901456" d="M943.974,251.6v.619h-3.467a1.138,1.138,0,0,1,.075-.447,2.367,2.367,0,0,1,.424-.7,6.649,6.649,0,0,1,.843-.794A7.143,7.143,0,0,0,943,249.165a1.33,1.33,0,0,0,.3-.775.861.861,0,0,0-.274-.646.987.987,0,0,0-.714-.263,1.006,1.006,0,0,0-.744.279,1.056,1.056,0,0,0-.283.773l-.662-.068a1.63,1.63,0,0,1,.512-1.129,1.746,1.746,0,0,1,1.192-.388,1.662,1.662,0,0,1,1.195.419,1.374,1.374,0,0,1,.44,1.038,1.576,1.576,0,0,1-.129.619,2.406,2.406,0,0,1-.428.64,10.387,10.387,0,0,1-.993.923q-.58.487-.744.66a2.112,2.112,0,0,0-.272.349Z" transform="translate(-799.204 -209.846)" fill="#040504"/>
    <path id="Trazado_901457" data-name="Trazado 901457" d="M970.2,197.974a4.889,4.889,0,0,1,1.2-3.507,4.09,4.09,0,0,1,3.105-1.267,4.309,4.309,0,0,1,2.246.6,3.887,3.887,0,0,1,1.525,1.66,5.392,5.392,0,0,1,.525,2.415,5.3,5.3,0,0,1-.552,2.449,3.771,3.771,0,0,1-1.565,1.636,4.471,4.471,0,0,1-2.185.555,4.255,4.255,0,0,1-2.271-.614,3.948,3.948,0,0,1-1.516-1.675,5.077,5.077,0,0,1-.516-2.246m1.227.018a3.6,3.6,0,0,0,.875,2.562,3.051,3.051,0,0,0,4.406-.009,3.822,3.822,0,0,0,.868-2.682,4.61,4.61,0,0,0-.371-1.918,2.854,2.854,0,0,0-1.086-1.27,2.944,2.944,0,0,0-1.6-.451,3.045,3.045,0,0,0-2.176.868,3.879,3.879,0,0,0-.911,2.9" transform="translate(-824.44 -164.173)" fill="#040504"/>
    <path id="Trazado_901458" data-name="Trazado 901458" d="M1037.931,203.258v-9h1.191v3.695h4.676v-3.695h1.191v9H1043.8v-4.241h-4.676v4.241Z" transform="translate(-881.992 -165.075)" fill="#040504"/>
    <path id="Trazado_901459" data-name="Trazado 901459" d="M585.053,470.936a4.889,4.889,0,0,1,1.2-3.507,4.09,4.09,0,0,1,3.105-1.267,4.309,4.309,0,0,1,2.246.6,3.888,3.888,0,0,1,1.525,1.66,5.392,5.392,0,0,1,.525,2.415,5.3,5.3,0,0,1-.552,2.449,3.771,3.771,0,0,1-1.565,1.635,4.471,4.471,0,0,1-2.185.555,4.255,4.255,0,0,1-2.271-.614,3.948,3.948,0,0,1-1.516-1.675,5.077,5.077,0,0,1-.516-2.246m1.227.018a3.6,3.6,0,0,0,.875,2.562,3.051,3.051,0,0,0,4.407-.009,3.822,3.822,0,0,0,.868-2.682,4.608,4.608,0,0,0-.371-1.918,2.854,2.854,0,0,0-1.086-1.27,2.945,2.945,0,0,0-1.6-.451,3.045,3.045,0,0,0-2.176.868,3.879,3.879,0,0,0-.911,2.9" transform="translate(-497.155 -396.125)" fill="#040504"/>
    <path id="Trazado_901460" data-name="Trazado 901460" d="M338.007,934.274a18,18,0,0,1,0-12.04,14.7,14.7,0,0,1,3.121-4.927l1.709,1.845a12.3,12.3,0,0,0-2.449,4.1,15.864,15.864,0,0,0,0,10,12.43,12.43,0,0,0,2.449,4.112l-1.709,1.834a14.7,14.7,0,0,1-3.121-4.927" transform="translate(-286.344 -779.491)" fill="#1a1818"/>
    <path id="Trazado_901461" data-name="Trazado 901461" d="M390.139,944.081a5.009,5.009,0,0,1-2.039-2.136,7.132,7.132,0,0,1-.712-3.292v-4.545a7.133,7.133,0,0,1,.712-3.292,5.046,5.046,0,0,1,2.039-2.141,6.237,6.237,0,0,1,3.127-.752,5.723,5.723,0,0,1,2.705.638,5.46,5.46,0,0,1,2.016,1.84,7.43,7.43,0,0,1,1.1,2.842h-2.8a3.969,3.969,0,0,0-.649-1.4,3.1,3.1,0,0,0-1.054-.917,2.8,2.8,0,0,0-1.316-.319,3.039,3.039,0,0,0-1.635.427,2.817,2.817,0,0,0-1.065,1.213,4.263,4.263,0,0,0-.376,1.857v4.545a4.263,4.263,0,0,0,.376,1.857,2.779,2.779,0,0,0,1.065,1.208,3.071,3.071,0,0,0,1.635.421,2.9,2.9,0,0,0,1.327-.307,3,3,0,0,0,1.054-.9,3.763,3.763,0,0,0,.638-1.424h2.8a7.561,7.561,0,0,1-1.111,2.842,5.459,5.459,0,0,1-2.016,1.84,5.7,5.7,0,0,1-2.694.638,6.275,6.275,0,0,1-3.127-.746" transform="translate(-329.187 -788.512)" fill="#1a1818"/>
    <path id="Trazado_901462" data-name="Trazado 901462" d="M479.231,1036.391h-1.587v-7.849l-1.275.644v-1.667l1.408-.784h1.454Z" transform="translate(-404.799 -872.478)" fill="#1a1818"/>
    <path id="Trazado_901463" data-name="Trazado 901463" d="M507.475,1034.42l3.34-4.423a2.913,2.913,0,0,0,.4-.7,1.846,1.846,0,0,0,.143-.674v-.013a.958.958,0,0,0-.3-.75,1.215,1.215,0,0,0-.84-.266,1.145,1.145,0,0,0-.847.322,1.48,1.48,0,0,0-.389.913v.007h-1.634v-.007a3.586,3.586,0,0,1,.465-1.487,2.513,2.513,0,0,1,.983-.943,2.951,2.951,0,0,1,1.408-.325,3.5,3.5,0,0,1,1.507.3,2.121,2.121,0,0,1,.953.86,2.66,2.66,0,0,1,.329,1.361v.007a3.4,3.4,0,0,1-.222,1.185,4.461,4.461,0,0,1-.614,1.126l-2.59,3.4h3.48v1.521h-5.578Z" transform="translate(-431.13 -871.915)" fill="#1a1818"/>
    <path id="Trazado_901464" data-name="Trazado 901464" d="M562.588,929.06h2.722v16.562h-2.722Zm1.447,7.074h9.42v2.608h-9.42Zm7.791-7.074h2.722v16.562h-2.722Z" transform="translate(-478.065 -789.478)" fill="#1a1818"/>
    <path id="Trazado_901465" data-name="Trazado 901465" d="M659.624,1034.42l3.34-4.423a2.911,2.911,0,0,0,.4-.7,1.843,1.843,0,0,0,.143-.674v-.013a.957.957,0,0,0-.3-.75,1.214,1.214,0,0,0-.84-.266,1.145,1.145,0,0,0-.847.322,1.48,1.48,0,0,0-.388.913v.007H659.5v-.007a3.59,3.59,0,0,1,.465-1.487,2.512,2.512,0,0,1,.983-.943,2.951,2.951,0,0,1,1.408-.325,3.5,3.5,0,0,1,1.507.3,2.122,2.122,0,0,1,.953.86,2.662,2.662,0,0,1,.329,1.361v.007a3.4,3.4,0,0,1-.222,1.185,4.459,4.459,0,0,1-.614,1.126l-2.59,3.4h3.48v1.521h-5.578Z" transform="translate(-560.42 -871.915)" fill="#1a1818"/>
    <path id="Trazado_901466" data-name="Trazado 901466" d="M706.39,1034.42l3.34-4.423a2.92,2.92,0,0,0,.4-.7,1.846,1.846,0,0,0,.143-.674v-.013a.958.958,0,0,0-.3-.75,1.215,1.215,0,0,0-.84-.266,1.145,1.145,0,0,0-.847.322,1.48,1.48,0,0,0-.388.913v.007H706.27v-.007a3.589,3.589,0,0,1,.465-1.487,2.513,2.513,0,0,1,.983-.943,2.951,2.951,0,0,1,1.408-.325,3.5,3.5,0,0,1,1.507.3,2.121,2.121,0,0,1,.953.86,2.66,2.66,0,0,1,.329,1.361v.007a3.4,3.4,0,0,1-.223,1.185,4.461,4.461,0,0,1-.614,1.126l-2.59,3.4h3.48v1.521H706.39Z" transform="translate(-600.16 -871.915)" fill="#1a1818"/>
    <path id="Trazado_901467" data-name="Trazado 901467" d="M762.054,944.069a5.242,5.242,0,0,1-2.085-2.142,6.693,6.693,0,0,1-.74-3.207v-4.693a6.694,6.694,0,0,1,.74-3.206,5.245,5.245,0,0,1,2.085-2.142,6.762,6.762,0,0,1,6.219,0,5.247,5.247,0,0,1,2.085,2.142,6.7,6.7,0,0,1,.74,3.206v4.693a6.7,6.7,0,0,1-.74,3.207,5.244,5.244,0,0,1-2.085,2.142,6.761,6.761,0,0,1-6.219,0m4.756-2.352a2.767,2.767,0,0,0,1.1-1.168,3.79,3.79,0,0,0,.387-1.748v-4.852a3.79,3.79,0,0,0-.387-1.748,2.768,2.768,0,0,0-1.1-1.167,3.507,3.507,0,0,0-3.292,0,2.768,2.768,0,0,0-1.1,1.167,3.79,3.79,0,0,0-.387,1.748V938.8a3.79,3.79,0,0,0,.387,1.748,2.767,2.767,0,0,0,1.1,1.168,3.509,3.509,0,0,0,3.292,0" transform="translate(-645.162 -788.512)" fill="#1a1818"/>
    <path id="Trazado_901468" data-name="Trazado 901468" d="M855.242,1036.391h-1.587v-7.849l-1.275.644v-1.667l1.408-.784h1.454Z" transform="translate(-724.318 -872.478)" fill="#1a1818"/>
    <path id="Trazado_901469" data-name="Trazado 901469" d="M885.344,1036.391h-1.587v-7.849l-1.275.644v-1.667l1.408-.784h1.455Z" transform="translate(-749.897 -872.478)" fill="#1a1818"/>
    <path id="Trazado_901470" data-name="Trazado 901470" d="M909.8,937.367a12.435,12.435,0,0,0,2.449-4.112,15.864,15.864,0,0,0,0-10,12.311,12.311,0,0,0-2.449-4.1l1.709-1.845a14.7,14.7,0,0,1,3.121,4.927,18,18,0,0,1,0,12.04,14.7,14.7,0,0,1-3.121,4.927Z" transform="translate(-773.115 -779.491)" fill="#1a1818"/>
  </g>
</svg>
