<svg id="Grupo_1111881" data-name="Grupo 1111881" xmlns="http://www.w3.org/2000/svg" xmlns:xlink="http://www.w3.org/1999/xlink" width="205.61" height="178.815" viewBox="0 0 205.61 178.815">
  <defs>
    <clipPath id="clip-path">
      <rect id="Rectángulo_403439" data-name="Rectángulo 403439" width="205.61" height="178.815" fill="none"/>
    </clipPath>
  </defs>
  <g id="Grupo_1111880" data-name="Grupo 1111880" clip-path="url(#clip-path)">
    <path id="Trazado_901390" data-name="Trazado 901390" d="M190.028,178.815H15.582A15.582,15.582,0,0,1,0,163.233V15.582A15.582,15.582,0,0,1,15.582,0H190.028A15.582,15.582,0,0,1,205.61,15.582V163.233a15.582,15.582,0,0,1-15.582,15.582" fill="#ffdbaa"/>
    <path id="Trazado_901391" data-name="Trazado 901391" d="M729.44,340.124l.064-.1-21.924-14.38-.812,1.238,21.458,14.074v.06l-15.032,19.351v-11.2h-1.48V362.25H690.295l-15.78-21.2,21.014-14.628-.846-1.215-20.4,14.2V315.865h-1.48v24.872h.012l-6.761,13.27,1.319.672,6.207-12.182,15.081,24.741v12.823h1.48V367.283h23.311l14.77-23.449v11.534h1.48V340.124Z" transform="translate(-567.464 -269.109)" fill="#040504"/>
    <path id="Trazado_901392" data-name="Trazado 901392" d="M138.152,270.719l-1.035,1.058L151.957,286.3l-20.041,17.778H105.853V291.642h-1.48V303L86.206,286.185l18.828-18.827h22.017v-1.48H105.467V251.735h-1.48v14.576L84.309,285.989v16.016h1.48V288.038l18.129,20.5h28.125v12.985h1.48V308.533h.158l19.188-20.992,7.107,12.514,1.287-.731-7.658-13.485Z" transform="translate(-71.829 -214.472)" fill="#040504"/>
    <path id="Trazado_901393" data-name="Trazado 901393" d="M957.122,473.891a4.877,4.877,0,0,1-1.2,3.5,4.08,4.08,0,0,1-3.1,1.264,4.3,4.3,0,0,1-2.241-.594,3.88,3.88,0,0,1-1.522-1.656,5.379,5.379,0,0,1-.524-2.409,5.289,5.289,0,0,1,.551-2.443,3.762,3.762,0,0,1,1.561-1.632,4.46,4.46,0,0,1,2.18-.554,4.243,4.243,0,0,1,2.266.612,3.939,3.939,0,0,1,1.512,1.672,5.064,5.064,0,0,1,.514,2.241m-1.225-.018a3.6,3.6,0,0,0-.873-2.556,3.044,3.044,0,0,0-4.4.009,3.813,3.813,0,0,0-.867,2.676,4.6,4.6,0,0,0,.37,1.913,2.847,2.847,0,0,0,1.084,1.268,2.938,2.938,0,0,0,1.6.45,3.037,3.037,0,0,0,2.171-.866,3.87,3.87,0,0,0,.909-2.893" transform="translate(-808.129 -399.888)" fill="#040504"/>
    <path id="Trazado_901394" data-name="Trazado 901394" d="M897.419,470.4v8.976h-1.188V475.69h-4.666v3.686h-1.188V470.4h1.188v4.231h4.666V470.4Z" transform="translate(-758.579 -400.769)" fill="#040504"/>
    <path id="Trazado_901395" data-name="Trazado 901395" d="M794.848,762.64a4.877,4.877,0,0,1,1.2-3.5,4.081,4.081,0,0,1,3.1-1.265,4.3,4.3,0,0,1,2.241.594,3.88,3.88,0,0,1,1.522,1.656,5.378,5.378,0,0,1,.523,2.409,5.29,5.29,0,0,1-.551,2.443,3.762,3.762,0,0,1-1.561,1.632,4.461,4.461,0,0,1-2.18.554,4.243,4.243,0,0,1-2.266-.612,3.939,3.939,0,0,1-1.512-1.672,5.065,5.065,0,0,1-.514-2.241m1.225.018a3.6,3.6,0,0,0,.872,2.557,3.044,3.044,0,0,0,4.4-.009,3.813,3.813,0,0,0,.866-2.676,4.6,4.6,0,0,0-.37-1.913,2.846,2.846,0,0,0-1.084-1.268,2.938,2.938,0,0,0-1.6-.45,3.037,3.037,0,0,0-2.171.866,3.869,3.869,0,0,0-.909,2.893" transform="translate(-677.19 -645.691)" fill="#040504"/>
    <path id="Trazado_901396" data-name="Trazado 901396" d="M863.431,767.928v-8.976h1.188v3.686h4.666v-3.686h1.188v8.976h-1.188V763.7h-4.666v4.231Z" transform="translate(-735.621 -646.608)" fill="#040504"/>
    <path id="Trazado_901397" data-name="Trazado 901397" d="M874.26,346.936a4.878,4.878,0,0,1,1.027-3.554,4.08,4.08,0,0,1,3.033-1.415,4.3,4.3,0,0,1,2.268.483,3.879,3.879,0,0,1,1.6,1.58,5.378,5.378,0,0,1,.641,2.381,5.288,5.288,0,0,1-.431,2.467,3.761,3.761,0,0,1-1.479,1.706,4.461,4.461,0,0,1-2.15.66,4.243,4.243,0,0,1-2.293-.5,3.939,3.939,0,0,1-1.592-1.6,5.067,5.067,0,0,1-.624-2.213m1.224-.042a3.6,3.6,0,0,0,1,2.51,3.044,3.044,0,0,0,4.391-.225,3.813,3.813,0,0,0,.734-2.715,4.6,4.6,0,0,0-.464-1.893A2.848,2.848,0,0,0,880,343.359a2.94,2.94,0,0,0-1.621-.371,3.038,3.038,0,0,0-2.126.972,3.87,3.87,0,0,0-.766,2.934" transform="translate(-744.839 -291.342)" fill="#040504"/>
    <path id="Trazado_901398" data-name="Trazado 901398" d="M695.771,248.558l1.188.3a4,4,0,0,1-1.344,2.232,3.7,3.7,0,0,1-2.373.769,4.263,4.263,0,0,1-2.36-.591,3.688,3.688,0,0,1-1.384-1.711,6.105,6.105,0,0,1-.475-2.406,5.29,5.29,0,0,1,.536-2.446,3.672,3.672,0,0,1,1.525-1.586,4.456,4.456,0,0,1,2.177-.542,3.68,3.68,0,0,1,2.266.686,3.562,3.562,0,0,1,1.28,1.929l-1.17.276a2.775,2.775,0,0,0-.906-1.427,2.415,2.415,0,0,0-1.494-.447,2.9,2.9,0,0,0-1.73.5,2.618,2.618,0,0,0-.977,1.332,5.361,5.361,0,0,0-.282,1.724,5.477,5.477,0,0,0,.334,2,2.486,2.486,0,0,0,1.038,1.277,2.91,2.91,0,0,0,1.525.422,2.555,2.555,0,0,0,1.69-.576,2.946,2.946,0,0,0,.937-1.708" transform="translate(-587.03 -206.669)" fill="#040504"/>
    <path id="Trazado_901399" data-name="Trazado 901399" d="M752.766,252.587V243.61h1.188V247.3h4.666V243.61h1.188v8.976H758.62v-4.231h-4.666v4.231Z" transform="translate(-641.338 -207.55)" fill="#040504"/>
    <path id="Trazado_901400" data-name="Trazado 901400" d="M812.112,301.6v.618h-3.459a1.135,1.135,0,0,1,.075-.446,2.363,2.363,0,0,1,.423-.7,6.627,6.627,0,0,1,.841-.793,7.12,7.12,0,0,0,1.153-1.108,1.327,1.327,0,0,0,.3-.773.859.859,0,0,0-.273-.644.986.986,0,0,0-.712-.262,1,1,0,0,0-.742.278,1.053,1.053,0,0,0-.282.771l-.66-.068a1.626,1.626,0,0,1,.51-1.126,1.742,1.742,0,0,1,1.189-.387,1.659,1.659,0,0,1,1.192.418,1.371,1.371,0,0,1,.439,1.035,1.57,1.57,0,0,1-.129.618,2.393,2.393,0,0,1-.426.639,10.392,10.392,0,0,1-.991.921q-.578.486-.742.659a2.112,2.112,0,0,0-.271.348Z" transform="translate(-688.951 -253.005)" fill="#040504"/>
    <path id="Trazado_901401" data-name="Trazado 901401" d="M838.724,247.3a4.878,4.878,0,0,1,1.2-3.5,4.081,4.081,0,0,1,3.1-1.264,4.3,4.3,0,0,1,2.241.594,3.881,3.881,0,0,1,1.522,1.656,5.378,5.378,0,0,1,.523,2.409,5.291,5.291,0,0,1-.551,2.443,3.763,3.763,0,0,1-1.561,1.632,4.461,4.461,0,0,1-2.18.554,4.243,4.243,0,0,1-2.266-.612,3.939,3.939,0,0,1-1.512-1.672,5.065,5.065,0,0,1-.514-2.241m1.225.018a3.6,3.6,0,0,0,.872,2.556,3.044,3.044,0,0,0,4.4-.009,3.813,3.813,0,0,0,.866-2.676,4.6,4.6,0,0,0-.37-1.913,2.847,2.847,0,0,0-1.084-1.268,2.938,2.938,0,0,0-1.6-.45,3.037,3.037,0,0,0-2.171.866,3.87,3.87,0,0,0-.909,2.893" transform="translate(-714.571 -206.634)" fill="#040504"/>
    <path id="Trazado_901402" data-name="Trazado 901402" d="M907.307,252.587V243.61h1.188V247.3h4.666V243.61h1.188v8.976H913.16v-4.231h-4.666v4.231Z" transform="translate(-773.002 -207.55)" fill="#040504"/>
    <path id="Trazado_901403" data-name="Trazado 901403" d="M1071.927,598.083l1.188.3a4,4,0,0,1-1.344,2.232,3.7,3.7,0,0,1-2.373.769,4.264,4.264,0,0,1-2.361-.591,3.69,3.69,0,0,1-1.384-1.712,6.1,6.1,0,0,1-.475-2.406,5.29,5.29,0,0,1,.536-2.446,3.673,3.673,0,0,1,1.525-1.586,4.455,4.455,0,0,1,2.177-.542,3.681,3.681,0,0,1,2.266.686,3.562,3.562,0,0,1,1.28,1.929l-1.17.276a2.773,2.773,0,0,0-.906-1.427,2.414,2.414,0,0,0-1.494-.447,2.9,2.9,0,0,0-1.73.5,2.616,2.616,0,0,0-.977,1.332,5.359,5.359,0,0,0-.282,1.724,5.476,5.476,0,0,0,.334,2,2.486,2.486,0,0,0,1.038,1.277,2.911,2.911,0,0,0,1.525.422,2.555,2.555,0,0,0,1.69-.576,2.944,2.944,0,0,0,.937-1.708" transform="translate(-907.505 -504.455)" fill="#040504"/>
    <path id="Trazado_901404" data-name="Trazado 901404" d="M1128.922,602.111v-8.976h1.188v3.686h4.666v-3.686h1.188v8.976h-1.188V597.88h-4.666v4.231Z" transform="translate(-961.813 -505.336)" fill="#040504"/>
    <path id="Trazado_901405" data-name="Trazado 901405" d="M1188.268,651.125v.618h-3.459a1.137,1.137,0,0,1,.075-.446,2.363,2.363,0,0,1,.423-.7,6.626,6.626,0,0,1,.841-.793,7.126,7.126,0,0,0,1.153-1.108,1.328,1.328,0,0,0,.3-.773.859.859,0,0,0-.273-.644.985.985,0,0,0-.712-.262,1,1,0,0,0-.742.278,1.054,1.054,0,0,0-.282.771l-.66-.068a1.626,1.626,0,0,1,.51-1.126,1.741,1.741,0,0,1,1.189-.387,1.658,1.658,0,0,1,1.192.418,1.371,1.371,0,0,1,.439,1.035,1.569,1.569,0,0,1-.129.618,2.394,2.394,0,0,1-.427.639,10.4,10.4,0,0,1-.991.921q-.578.485-.742.659a2.108,2.108,0,0,0-.271.348Z" transform="translate(-1009.426 -550.791)" fill="#040504"/>
    <path id="Trazado_901406" data-name="Trazado 901406" d="M1214.88,596.824a4.878,4.878,0,0,1,1.2-3.5,4.081,4.081,0,0,1,3.1-1.264,4.3,4.3,0,0,1,2.241.594,3.879,3.879,0,0,1,1.522,1.656,5.379,5.379,0,0,1,.523,2.409,5.291,5.291,0,0,1-.551,2.443,3.763,3.763,0,0,1-1.561,1.632,4.462,4.462,0,0,1-2.18.554,4.243,4.243,0,0,1-2.265-.612,3.937,3.937,0,0,1-1.512-1.672,5.062,5.062,0,0,1-.514-2.241m1.225.018a3.6,3.6,0,0,0,.872,2.556,3.044,3.044,0,0,0,4.4-.009,3.812,3.812,0,0,0,.866-2.676,4.6,4.6,0,0,0-.37-1.914,2.846,2.846,0,0,0-1.084-1.267,2.939,2.939,0,0,0-1.6-.45,3.037,3.037,0,0,0-2.171.866,3.87,3.87,0,0,0-.909,2.893" transform="translate(-1035.047 -504.42)" fill="#040504"/>
    <path id="Trazado_901407" data-name="Trazado 901407" d="M1283.463,602.111v-8.976h1.188v3.686h4.666v-3.686h1.188v8.976h-1.188V597.88h-4.666v4.231Z" transform="translate(-1093.477 -505.336)" fill="#040504"/>
    <path id="Trazado_901408" data-name="Trazado 901408" d="M606.9,573.841a4.878,4.878,0,0,1,1.2-3.5,4.081,4.081,0,0,1,3.1-1.264,4.3,4.3,0,0,1,2.241.594,3.881,3.881,0,0,1,1.522,1.656,5.379,5.379,0,0,1,.523,2.409,5.288,5.288,0,0,1-.551,2.443,3.761,3.761,0,0,1-1.561,1.632,4.461,4.461,0,0,1-2.18.554,4.244,4.244,0,0,1-2.266-.612,3.938,3.938,0,0,1-1.512-1.672,5.064,5.064,0,0,1-.514-2.241m1.225.018a3.6,3.6,0,0,0,.872,2.556,3.044,3.044,0,0,0,4.4-.009,3.813,3.813,0,0,0,.867-2.676,4.6,4.6,0,0,0-.371-1.913,2.846,2.846,0,0,0-1.084-1.268,2.937,2.937,0,0,0-1.6-.45,3.037,3.037,0,0,0-2.171.866,3.87,3.87,0,0,0-.909,2.893" transform="translate(-517.066 -484.839)" fill="#040504"/>
    <path id="Trazado_901409" data-name="Trazado 901409" d="M203.648,184.716l1.188.3a4,4,0,0,1-1.344,2.232,3.7,3.7,0,0,1-2.373.769,4.264,4.264,0,0,1-2.36-.591,3.689,3.689,0,0,1-1.384-1.711,6.1,6.1,0,0,1-.475-2.406,5.289,5.289,0,0,1,.536-2.446,3.672,3.672,0,0,1,1.525-1.586,4.455,4.455,0,0,1,2.177-.542,3.68,3.68,0,0,1,2.266.686,3.562,3.562,0,0,1,1.28,1.929l-1.17.276a2.774,2.774,0,0,0-.906-1.427,2.415,2.415,0,0,0-1.494-.447,2.9,2.9,0,0,0-1.73.5,2.618,2.618,0,0,0-.977,1.332,5.36,5.36,0,0,0-.282,1.724,5.477,5.477,0,0,0,.334,2,2.486,2.486,0,0,0,1.038,1.277,2.91,2.91,0,0,0,1.525.422,2.555,2.555,0,0,0,1.69-.576,2.945,2.945,0,0,0,.937-1.708" transform="translate(-167.754 -152.277)" fill="#040504"/>
    <path id="Trazado_901410" data-name="Trazado 901410" d="M260.644,188.744v-8.976h1.188v3.686H266.5v-3.686h1.188v8.976H266.5v-4.231h-4.666v4.231Z" transform="translate(-222.062 -153.158)" fill="#040504"/>
    <path id="Trazado_901411" data-name="Trazado 901411" d="M319.989,237.758v.618H316.53a1.136,1.136,0,0,1,.075-.446,2.361,2.361,0,0,1,.423-.7,6.632,6.632,0,0,1,.841-.793,7.118,7.118,0,0,0,1.153-1.108,1.328,1.328,0,0,0,.3-.773.858.858,0,0,0-.273-.644.985.985,0,0,0-.712-.262,1,1,0,0,0-.743.278,1.054,1.054,0,0,0-.282.771l-.66-.068a1.626,1.626,0,0,1,.51-1.126,1.742,1.742,0,0,1,1.189-.387,1.659,1.659,0,0,1,1.192.418,1.372,1.372,0,0,1,.439,1.035,1.569,1.569,0,0,1-.129.618,2.4,2.4,0,0,1-.427.639,10.415,10.415,0,0,1-.991.921q-.578.485-.742.659a2.113,2.113,0,0,0-.271.348Z" transform="translate(-269.675 -198.613)" fill="#040504"/>
    <path id="Trazado_901412" data-name="Trazado 901412" d="M346.6,183.456a4.878,4.878,0,0,1,1.2-3.5,4.08,4.08,0,0,1,3.1-1.264,4.3,4.3,0,0,1,2.241.594,3.88,3.88,0,0,1,1.522,1.656,5.379,5.379,0,0,1,.523,2.409,5.289,5.289,0,0,1-.551,2.443,3.762,3.762,0,0,1-1.561,1.632,4.461,4.461,0,0,1-2.18.554,4.243,4.243,0,0,1-2.266-.612,3.939,3.939,0,0,1-1.512-1.672,5.065,5.065,0,0,1-.514-2.241m1.225.018a3.6,3.6,0,0,0,.872,2.556,3.044,3.044,0,0,0,4.4-.009,3.813,3.813,0,0,0,.866-2.676,4.6,4.6,0,0,0-.37-1.913,2.847,2.847,0,0,0-1.084-1.268,2.938,2.938,0,0,0-1.6-.45,3.037,3.037,0,0,0-2.171.866,3.87,3.87,0,0,0-.909,2.893" transform="translate(-295.295 -152.241)" fill="#040504"/>
    <path id="Trazado_901413" data-name="Trazado 901413" d="M415.184,188.744v-8.976h1.188v3.686h4.666v-3.686h1.188v8.976h-1.188v-4.231h-4.666v4.231Z" transform="translate(-353.726 -153.158)" fill="#040504"/>
    <path id="Trazado_901414" data-name="Trazado 901414" d="M196.272,452.931a4.878,4.878,0,0,1,1.2-3.5,4.081,4.081,0,0,1,3.1-1.264,4.3,4.3,0,0,1,2.241.594,3.882,3.882,0,0,1,1.522,1.656,5.379,5.379,0,0,1,.523,2.409,5.288,5.288,0,0,1-.551,2.443,3.763,3.763,0,0,1-1.561,1.632,4.461,4.461,0,0,1-2.18.554,4.244,4.244,0,0,1-2.266-.612,3.939,3.939,0,0,1-1.512-1.672,5.064,5.064,0,0,1-.514-2.241m1.225.018a3.6,3.6,0,0,0,.873,2.556,3.044,3.044,0,0,0,4.4-.009,3.813,3.813,0,0,0,.867-2.676,4.6,4.6,0,0,0-.37-1.913,2.847,2.847,0,0,0-1.084-1.268,2.938,2.938,0,0,0-1.6-.45,3.037,3.037,0,0,0-2.171.866,3.87,3.87,0,0,0-.909,2.893" transform="translate(-167.219 -381.827)" fill="#040504"/>
    <path id="Trazado_901415" data-name="Trazado 901415" d="M264.855,458.219v-8.976h1.188v3.686h4.666v-3.686H271.9v8.976h-1.188v-4.231h-4.666v4.231Z" transform="translate(-225.65 -382.743)" fill="#040504"/>
    <path id="Trazado_901416" data-name="Trazado 901416" d="M61.131,608.242a4.878,4.878,0,0,1,1.2-3.5,4.08,4.08,0,0,1,3.1-1.264,4.3,4.3,0,0,1,2.241.594,3.88,3.88,0,0,1,1.522,1.656,5.378,5.378,0,0,1,.523,2.409,5.288,5.288,0,0,1-.551,2.443,3.761,3.761,0,0,1-1.561,1.632,4.46,4.46,0,0,1-2.18.554,4.244,4.244,0,0,1-2.266-.612,3.939,3.939,0,0,1-1.512-1.672,5.065,5.065,0,0,1-.514-2.241m1.225.018a3.6,3.6,0,0,0,.873,2.556,3.044,3.044,0,0,0,4.4-.009,3.813,3.813,0,0,0,.866-2.676,4.6,4.6,0,0,0-.37-1.913,2.846,2.846,0,0,0-1.084-1.268,2.938,2.938,0,0,0-1.6-.45,3.037,3.037,0,0,0-2.171.866,3.87,3.87,0,0,0-.909,2.893" transform="translate(-52.082 -514.148)" fill="#040504"/>
    <path id="Trazado_901417" data-name="Trazado 901417" d="M129.714,613.53v-8.976H130.9v3.686h4.666v-3.686h1.188v8.976h-1.188V609.3H130.9v4.231Z" transform="translate(-110.513 -515.064)" fill="#040504"/>
    <path id="Trazado_901418" data-name="Trazado 901418" d="M385.872,741.366a4.878,4.878,0,0,1,1.2-3.5,4.08,4.08,0,0,1,3.1-1.264,4.3,4.3,0,0,1,2.241.594,3.881,3.881,0,0,1,1.521,1.656,5.377,5.377,0,0,1,.524,2.409,5.289,5.289,0,0,1-.551,2.443,3.762,3.762,0,0,1-1.561,1.632,4.46,4.46,0,0,1-2.18.554,4.244,4.244,0,0,1-2.266-.612,3.938,3.938,0,0,1-1.512-1.672,5.062,5.062,0,0,1-.515-2.241m1.225.018a3.6,3.6,0,0,0,.872,2.556,3.044,3.044,0,0,0,4.4-.009,3.814,3.814,0,0,0,.867-2.676,4.6,4.6,0,0,0-.371-1.913,2.846,2.846,0,0,0-1.084-1.268,2.939,2.939,0,0,0-1.6-.45,3.037,3.037,0,0,0-2.171.866,3.87,3.87,0,0,0-.909,2.893" transform="translate(-328.753 -627.566)" fill="#040504"/>
    <path id="Trazado_901419" data-name="Trazado 901419" d="M454.455,746.654v-8.976h1.188v3.686h4.666v-3.686H461.5v8.976h-1.188v-4.231h-4.666v4.231Z" transform="translate(-387.184 -628.482)" fill="#040504"/>
    <path id="Trazado_901420" data-name="Trazado 901420" d="M382.343,330.7a4.877,4.877,0,0,1,1.2-3.5,4.08,4.08,0,0,1,3.1-1.264,4.3,4.3,0,0,1,2.241.594,3.881,3.881,0,0,1,1.522,1.656,5.378,5.378,0,0,1,.523,2.409,5.288,5.288,0,0,1-.551,2.443,3.761,3.761,0,0,1-1.561,1.632,4.461,4.461,0,0,1-2.18.554,4.244,4.244,0,0,1-2.266-.612,3.939,3.939,0,0,1-1.512-1.672,5.065,5.065,0,0,1-.514-2.241m1.225.018a3.6,3.6,0,0,0,.873,2.556,3.044,3.044,0,0,0,4.4-.009,3.813,3.813,0,0,0,.866-2.676,4.6,4.6,0,0,0-.37-1.913,2.847,2.847,0,0,0-1.084-1.268,2.938,2.938,0,0,0-1.6-.45,3.037,3.037,0,0,0-2.171.866,3.87,3.87,0,0,0-.909,2.893" transform="translate(-325.746 -277.688)" fill="#040504"/>
    <path id="Trazado_901421" data-name="Trazado 901421" d="M392.163,954.024a17.735,17.735,0,0,1,0-11.863,14.48,14.48,0,0,1,3.075-4.854l1.683,1.818a12.121,12.121,0,0,0-2.413,4.04,15.631,15.631,0,0,0,0,9.854,12.245,12.245,0,0,0,2.413,4.051l-1.683,1.807a14.478,14.478,0,0,1-3.075-4.854" transform="translate(-333.243 -798.562)" fill="#1a1818"/>
    <path id="Trazado_901422" data-name="Trazado 901422" d="M444.27,963.843a4.936,4.936,0,0,1-2.009-2.1,7.028,7.028,0,0,1-.7-3.243v-4.478a7.029,7.029,0,0,1,.7-3.243,4.973,4.973,0,0,1,2.009-2.11,6.146,6.146,0,0,1,3.081-.741,5.639,5.639,0,0,1,2.665.629A5.38,5.38,0,0,1,452,950.364a7.319,7.319,0,0,1,1.083,2.8h-2.761a3.915,3.915,0,0,0-.64-1.375,3.056,3.056,0,0,0-1.038-.9,2.756,2.756,0,0,0-1.3-.314,3,3,0,0,0-1.61.421,2.776,2.776,0,0,0-1.049,1.2,4.2,4.2,0,0,0-.37,1.829V958.5a4.2,4.2,0,0,0,.37,1.829,2.739,2.739,0,0,0,1.049,1.19,3.025,3.025,0,0,0,1.61.415,2.859,2.859,0,0,0,1.308-.3,2.957,2.957,0,0,0,1.038-.887,3.71,3.71,0,0,0,.629-1.4h2.761a7.453,7.453,0,0,1-1.094,2.8,5.38,5.38,0,0,1-1.987,1.812,5.614,5.614,0,0,1-2.654.629,6.183,6.183,0,0,1-3.081-.735" transform="translate(-376.198 -807.606)" fill="#1a1818"/>
    <path id="Trazado_901423" data-name="Trazado 901423" d="M533.362,1056.248H531.8v-7.734l-1.256.635v-1.642l1.387-.772h1.433Z" transform="translate(-452.008 -891.791)" fill="#1a1818"/>
    <path id="Trazado_901424" data-name="Trazado 901424" d="M561.644,1054.3l3.291-4.357a2.876,2.876,0,0,0,.4-.69,1.816,1.816,0,0,0,.141-.664v-.013a.944.944,0,0,0-.291-.739,1.2,1.2,0,0,0-.828-.262,1.127,1.127,0,0,0-.834.317,1.458,1.458,0,0,0-.383.9v.007h-1.61v-.007a3.539,3.539,0,0,1,.458-1.466,2.479,2.479,0,0,1,.968-.929,2.909,2.909,0,0,1,1.387-.321,3.453,3.453,0,0,1,1.485.291,2.09,2.09,0,0,1,.939.847,2.62,2.62,0,0,1,.324,1.341v.007a3.35,3.35,0,0,1-.219,1.168,4.4,4.4,0,0,1-.6,1.109l-2.552,3.35h3.429v1.5h-5.5Z" transform="translate(-478.406 -891.227)" fill="#1a1818"/>
    <path id="Trazado_901425" data-name="Trazado 901425" d="M616.76,949.06h2.682v16.318H616.76Zm1.425,6.969h9.281v2.57h-9.281Zm7.676-6.969h2.682v16.318h-2.682Z" transform="translate(-525.464 -808.575)" fill="#1a1818"/>
    <path id="Trazado_901426" data-name="Trazado 901426" d="M713.794,1054.3l3.291-4.357a2.87,2.87,0,0,0,.4-.69,1.815,1.815,0,0,0,.141-.664v-.013a.943.943,0,0,0-.291-.739,1.2,1.2,0,0,0-.828-.262,1.127,1.127,0,0,0-.834.317,1.458,1.458,0,0,0-.383.9v.007h-1.61v-.007a3.539,3.539,0,0,1,.458-1.466,2.477,2.477,0,0,1,.968-.929,2.909,2.909,0,0,1,1.387-.321,3.452,3.452,0,0,1,1.485.291,2.09,2.09,0,0,1,.939.847,2.622,2.622,0,0,1,.324,1.341v.007a3.346,3.346,0,0,1-.219,1.168,4.392,4.392,0,0,1-.605,1.109l-2.552,3.35h3.429v1.5h-5.5Z" transform="translate(-608.034 -891.227)" fill="#1a1818"/>
    <path id="Trazado_901427" data-name="Trazado 901427" d="M760.56,1054.3l3.291-4.357a2.876,2.876,0,0,0,.4-.69,1.818,1.818,0,0,0,.141-.664v-.013a.943.943,0,0,0-.291-.739,1.2,1.2,0,0,0-.828-.262,1.128,1.128,0,0,0-.834.317,1.458,1.458,0,0,0-.383.9v.007h-1.609v-.007a3.535,3.535,0,0,1,.458-1.466,2.477,2.477,0,0,1,.969-.929,2.908,2.908,0,0,1,1.387-.321,3.452,3.452,0,0,1,1.485.291,2.089,2.089,0,0,1,.939.847,2.621,2.621,0,0,1,.324,1.341v.007a3.349,3.349,0,0,1-.219,1.168,4.386,4.386,0,0,1-.605,1.109l-2.552,3.35h3.428v1.5h-5.5Z" transform="translate(-647.877 -891.227)" fill="#1a1818"/>
    <path id="Trazado_901428" data-name="Trazado 901428" d="M816.184,963.831a5.166,5.166,0,0,1-2.054-2.11,6.6,6.6,0,0,1-.729-3.159v-4.624a6.6,6.6,0,0,1,.729-3.159,5.168,5.168,0,0,1,2.054-2.11,6.663,6.663,0,0,1,6.128,0,5.17,5.17,0,0,1,2.054,2.11,6.6,6.6,0,0,1,.729,3.159v4.624a6.6,6.6,0,0,1-.729,3.159,5.169,5.169,0,0,1-2.054,2.11,6.662,6.662,0,0,1-6.128,0m4.685-2.318a2.727,2.727,0,0,0,1.083-1.15,3.735,3.735,0,0,0,.382-1.723V953.86a3.735,3.735,0,0,0-.382-1.723,2.728,2.728,0,0,0-1.083-1.15,3.456,3.456,0,0,0-3.243,0,2.726,2.726,0,0,0-1.083,1.15,3.732,3.732,0,0,0-.382,1.723v4.781a3.733,3.733,0,0,0,.382,1.723,2.726,2.726,0,0,0,1.083,1.15,3.457,3.457,0,0,0,3.243,0" transform="translate(-692.997 -807.606)" fill="#1a1818"/>
    <path id="Trazado_901429" data-name="Trazado 901429" d="M909.373,1056.248h-1.564v-7.734l-1.256.635v-1.642l1.387-.772h1.433Z" transform="translate(-772.36 -891.791)" fill="#1a1818"/>
    <path id="Trazado_901430" data-name="Trazado 901430" d="M939.473,1056.248H937.91v-7.734l-1.256.635v-1.642l1.387-.772h1.433Z" transform="translate(-798.005 -891.791)" fill="#1a1818"/>
    <path id="Trazado_901431" data-name="Trazado 901431" d="M963.977,957.072a12.252,12.252,0,0,0,2.413-4.051,15.627,15.627,0,0,0,0-9.854,12.128,12.128,0,0,0-2.413-4.04l1.683-1.818a14.484,14.484,0,0,1,3.075,4.854,17.735,17.735,0,0,1,0,11.863,14.482,14.482,0,0,1-3.075,4.854Z" transform="translate(-821.284 -798.562)" fill="#1a1818"/>
  </g>
</svg>
