<svg xmlns="http://www.w3.org/2000/svg" xmlns:xlink="http://www.w3.org/1999/xlink" width="412" height="297" viewBox="0 0 412 297">
  <defs>
    <clipPath id="clip-path">
      <rect id="Rectángulo_403422" data-name="Rectángulo 403422" width="210.735" height="227.653" fill="none"/>
    </clipPath>
  </defs>
  <g id="Grupo_1111866" data-name="Grupo 1111866" transform="translate(4074 8915)">
    <rect id="Rectángulo_403419" data-name="Rectángulo 403419" width="412" height="297" rx="10" transform="translate(-4074 -8915)" fill="#e8f5d5"/>
    <g id="Grupo_1111865" data-name="Grupo 1111865" transform="translate(-3973 -8880)">
      <path id="Trazado_901315" data-name="Trazado 901315" d="M92.755,271.913l-48.7,48.994,48.7,48.7h68.294l51.666-48.4-51.666-48.4Z" transform="translate(-33.87 -209.036)" fill="#b3d196"/>
      <g id="Grupo_1111864" data-name="Grupo 1111864">
        <g id="Grupo_1111863" data-name="Grupo 1111863" clip-path="url(#clip-path)">
          <path id="Trazado_901316" data-name="Trazado 901316" d="M531.467,244.451c0,5.544-3.914,10.038-8.743,10.038s-8.743-4.494-8.743-10.038,3.914-10.038,8.743-10.038,8.743,4.494,8.743,10.038" transform="translate(-395.127 -180.207)" fill="#fff"/>
          <line id="Línea_594" data-name="Línea 594" y2="38.926" transform="translate(10.335 74.59)" fill="none" stroke="#161615" stroke-miterlimit="10" stroke-width="5"/>
          <path id="Trazado_901317" data-name="Trazado 901317" d="M90.434,115.859v36.878L41.673,201.5" transform="translate(-32.037 -89.068)" fill="none" stroke="#161615" stroke-miterlimit="10" stroke-width="5"/>
          <line id="Línea_595" data-name="Línea 595" x1="38.107" y1="37.287" transform="translate(139.938 75.142)" fill="none" stroke="#161615" stroke-miterlimit="10" stroke-width="5"/>
          <line id="Línea_596" data-name="Línea 596" x2="55.317" transform="translate(58.397 63.669)" fill="none" stroke="#161615" stroke-miterlimit="10" stroke-width="5"/>
          <path id="Trazado_901318" data-name="Trazado 901318" d="M90.8,539.469h72.116l47.941-52.448-50.809,45.073H93.256L43.679,486.2Z" transform="translate(-33.578 -373.771)" fill="#161615"/>
          <path id="Trazado_901319" data-name="Trazado 901319" d="M90.8,539.469h72.116l47.941-52.448-50.809,45.073H93.256L43.679,486.2Z" transform="translate(-33.578 -373.771)" fill="none" stroke="#161615" stroke-miterlimit="10" stroke-width="5"/>
          <line id="Línea_597" data-name="Línea 597" y1="34.009" transform="translate(127.918 165.698)" fill="none" stroke="#161615" stroke-miterlimit="10" stroke-width="5"/>
          <line id="Línea_598" data-name="Línea 598" y2="32.644" transform="translate(59.353 125.678)" fill="none" stroke="#161615" stroke-miterlimit="10" stroke-width="5"/>
          <path id="Trazado_901320" data-name="Trazado 901320" d="M229.054,14.889l2.943.743a9.91,9.91,0,0,1-3.33,5.53,9.176,9.176,0,0,1-5.879,1.9,10.564,10.564,0,0,1-5.849-1.464,9.141,9.141,0,0,1-3.429-4.241,15.131,15.131,0,0,1-1.176-5.963,13.105,13.105,0,0,1,1.328-6.061,9.1,9.1,0,0,1,3.778-3.93A11.038,11.038,0,0,1,222.833.066a9.121,9.121,0,0,1,5.614,1.7,8.827,8.827,0,0,1,3.171,4.779l-2.9.683a6.877,6.877,0,0,0-2.246-3.535,5.984,5.984,0,0,0-3.7-1.108,7.191,7.191,0,0,0-4.286,1.229,6.488,6.488,0,0,0-2.42,3.3,13.283,13.283,0,0,0-.7,4.271,13.572,13.572,0,0,0,.827,4.954,6.159,6.159,0,0,0,2.572,3.163,7.211,7.211,0,0,0,3.778,1.047,6.331,6.331,0,0,0,4.188-1.426,7.3,7.3,0,0,0,2.321-4.233" transform="translate(-163.234 -0.051)" fill="#161615"/>
          <path id="Trazado_901321" data-name="Trazado 901321" d="M313.443,23.948V1.705h2.943v9.134h11.561V1.705h2.943V23.948h-2.943V13.464H316.386V23.948Z" transform="translate(-240.962 -1.311)" fill="#161615"/>
          <path id="Trazado_901322" data-name="Trazado 901322" d="M410.661,97.823v1.53H402.09a2.816,2.816,0,0,1,.186-1.106,5.845,5.845,0,0,1,1.048-1.725,16.419,16.419,0,0,1,2.083-1.964,17.653,17.653,0,0,0,2.857-2.746,3.288,3.288,0,0,0,.743-1.915,2.128,2.128,0,0,0-.677-1.6,2.442,2.442,0,0,0-1.765-.65,2.487,2.487,0,0,0-1.84.69,2.61,2.61,0,0,0-.7,1.911l-1.636-.168a4.027,4.027,0,0,1,1.265-2.791,4.313,4.313,0,0,1,2.945-.96,4.109,4.109,0,0,1,2.954,1.035,3.4,3.4,0,0,1,1.088,2.565,3.89,3.89,0,0,1-.318,1.53,5.944,5.944,0,0,1-1.057,1.583,25.781,25.781,0,0,1-2.455,2.282q-1.433,1.2-1.84,1.632a5.241,5.241,0,0,0-.672.862Z" transform="translate(-309.109 -66.369)" fill="#161615"/>
          <path id="Trazado_901323" data-name="Trazado 901323" d="M449.788,11.8q0-5.538,2.974-8.671A10.109,10.109,0,0,1,460.439,0a10.652,10.652,0,0,1,5.553,1.472,9.612,9.612,0,0,1,3.77,4.1,13.33,13.33,0,0,1,1.3,5.97,13.1,13.1,0,0,1-1.365,6.054,9.322,9.322,0,0,1-3.869,4.043,11.053,11.053,0,0,1-5.4,1.373A10.516,10.516,0,0,1,454.81,21.5a9.76,9.76,0,0,1-3.747-4.142,12.553,12.553,0,0,1-1.274-5.553m3.034.046a8.911,8.911,0,0,0,2.162,6.334,7.543,7.543,0,0,0,10.894-.023,9.448,9.448,0,0,0,2.147-6.63,11.4,11.4,0,0,0-.918-4.741,7.057,7.057,0,0,0-2.685-3.141,7.283,7.283,0,0,0-3.968-1.115,7.527,7.527,0,0,0-5.379,2.147q-2.253,2.147-2.253,7.169" transform="translate(-345.778)" fill="#161615"/>
          <path id="Trazado_901324" data-name="Trazado 901324" d="M558.573,23.948V1.705h2.943v9.134h11.561V1.705h2.943V23.948h-2.943V13.464H561.516V23.948Z" transform="translate(-429.408 -1.311)" fill="#161615"/>
          <path id="Trazado_901325" data-name="Trazado 901325" d="M211.338,439.242q0-5.538,2.974-8.671a10.109,10.109,0,0,1,7.677-3.133,10.654,10.654,0,0,1,5.553,1.472,9.614,9.614,0,0,1,3.77,4.1,13.331,13.331,0,0,1,1.3,5.97,13.1,13.1,0,0,1-1.365,6.054,9.323,9.323,0,0,1-3.869,4.043,11.053,11.053,0,0,1-5.4,1.373,10.516,10.516,0,0,1-5.614-1.517,9.76,9.76,0,0,1-3.747-4.142,12.553,12.553,0,0,1-1.274-5.553m3.034.046a8.91,8.91,0,0,0,2.162,6.334,7.542,7.542,0,0,0,10.894-.023,9.448,9.448,0,0,0,2.147-6.63,11.4,11.4,0,0,0-.918-4.741,7.056,7.056,0,0,0-2.685-3.141A7.282,7.282,0,0,0,222,429.972a7.527,7.527,0,0,0-5.379,2.147q-2.253,2.147-2.253,7.169" transform="translate(-162.468 -328.597)" fill="#161615"/>
          <path id="Trazado_901326" data-name="Trazado 901326" d="M320.123,451.386V429.144h2.943v9.134h11.561v-9.134h2.943v22.243h-2.943V440.9H323.066v10.484Z" transform="translate(-246.097 -329.908)" fill="#161615"/>
          <path id="Trazado_901327" data-name="Trazado 901327" d="M0,217.119q0-5.538,2.974-8.671a10.11,10.11,0,0,1,7.677-3.133,10.653,10.653,0,0,1,5.553,1.472,9.614,9.614,0,0,1,3.77,4.1,13.33,13.33,0,0,1,1.3,5.97,13.1,13.1,0,0,1-1.365,6.054,9.322,9.322,0,0,1-3.869,4.044,11.054,11.054,0,0,1-5.4,1.373,10.516,10.516,0,0,1-5.614-1.517,9.761,9.761,0,0,1-3.747-4.142A12.554,12.554,0,0,1,0,217.119m3.034.046A8.911,8.911,0,0,0,5.2,223.5a7.111,7.111,0,0,0,5.424,2.314,7.1,7.1,0,0,0,5.47-2.336,9.448,9.448,0,0,0,2.147-6.63,11.4,11.4,0,0,0-.918-4.741,7.055,7.055,0,0,0-2.685-3.14,7.28,7.28,0,0,0-3.968-1.115A7.527,7.527,0,0,0,5.288,210q-2.253,2.147-2.253,7.169" transform="translate(-0.001 -157.838)" fill="#161615"/>
          <path id="Trazado_901328" data-name="Trazado 901328" d="M108.785,229.263V207.02h2.943v9.134H123.29V207.02h2.943v22.243H123.29V218.779H111.729v10.484Z" transform="translate(-83.63 -159.149)" fill="#161615"/>
          <path id="Trazado_901329" data-name="Trazado 901329" d="M512.08,896.754q0-5.538,2.974-8.671a10.109,10.109,0,0,1,7.677-3.133,10.653,10.653,0,0,1,5.553,1.472,9.614,9.614,0,0,1,3.77,4.1,13.331,13.331,0,0,1,1.3,5.97,13.105,13.105,0,0,1-1.365,6.054,9.322,9.322,0,0,1-3.869,4.043,11.053,11.053,0,0,1-5.4,1.373,10.517,10.517,0,0,1-5.614-1.517,9.762,9.762,0,0,1-3.747-4.142,12.552,12.552,0,0,1-1.274-5.553m3.034.046a8.91,8.91,0,0,0,2.162,6.334,7.542,7.542,0,0,0,10.894-.023,9.447,9.447,0,0,0,2.147-6.63,11.4,11.4,0,0,0-.918-4.741,7.056,7.056,0,0,0-2.685-3.141,7.284,7.284,0,0,0-3.968-1.115,7.527,7.527,0,0,0-5.379,2.147q-2.253,2.147-2.253,7.169" transform="translate(-393.666 -680.313)" fill="#161615"/>
          <path id="Trazado_901330" data-name="Trazado 901330" d="M620.865,908.9V886.656h2.943v9.134H635.37v-9.134h2.943V908.9H635.37V898.414H623.808V908.9Z" transform="translate(-477.295 -681.624)" fill="#161615"/>
          <line id="Línea_599" data-name="Línea 599" y1="34.009" transform="translate(177.636 111.857)" fill="none" stroke="#161615" stroke-miterlimit="10" stroke-width="5"/>
          <path id="Trazado_901331" data-name="Trazado 901331" d="M727.082,663.922q0-5.538,2.974-8.671a10.11,10.11,0,0,1,7.677-3.133,10.653,10.653,0,0,1,5.553,1.472,9.615,9.615,0,0,1,3.77,4.1,13.335,13.335,0,0,1,1.3,5.97,13.1,13.1,0,0,1-1.366,6.054,9.322,9.322,0,0,1-3.869,4.043,11.053,11.053,0,0,1-5.4,1.373,10.518,10.518,0,0,1-5.614-1.517,9.762,9.762,0,0,1-3.747-4.142,12.552,12.552,0,0,1-1.274-5.553m3.034.046a8.91,8.91,0,0,0,2.162,6.334,7.543,7.543,0,0,0,10.894-.023,9.448,9.448,0,0,0,2.147-6.63,11.4,11.4,0,0,0-.918-4.741,7.057,7.057,0,0,0-2.685-3.141,7.281,7.281,0,0,0-3.968-1.115,7.526,7.526,0,0,0-5.378,2.147q-2.253,2.147-2.253,7.169" transform="translate(-558.951 -501.321)" fill="#161615"/>
          <path id="Trazado_901332" data-name="Trazado 901332" d="M835.867,676.066V653.823h2.943v9.134h11.561v-9.134h2.943v22.243h-2.943V665.582H838.81v10.484Z" transform="translate(-642.58 -502.632)" fill="#161615"/>
          <path id="Trazado_901333" data-name="Trazado 901333" d="M506.481,245.359q0-5.538,2.974-8.671a10.11,10.11,0,0,1,7.677-3.133,10.653,10.653,0,0,1,5.553,1.472,9.614,9.614,0,0,1,3.77,4.1,13.331,13.331,0,0,1,1.3,5.97,13.1,13.1,0,0,1-1.365,6.054,9.323,9.323,0,0,1-3.869,4.043,11.053,11.053,0,0,1-5.4,1.373,10.515,10.515,0,0,1-5.614-1.517,9.761,9.761,0,0,1-3.747-4.142,12.552,12.552,0,0,1-1.274-5.553m3.034.046a8.91,8.91,0,0,0,2.162,6.334,7.543,7.543,0,0,0,10.894-.023,9.448,9.448,0,0,0,2.147-6.63,11.4,11.4,0,0,0-.918-4.741,7.053,7.053,0,0,0-2.685-3.14,7.279,7.279,0,0,0-3.968-1.115,7.527,7.527,0,0,0-5.379,2.147q-2.253,2.147-2.253,7.169" transform="translate(-389.362 -179.547)" fill="#161615"/>
        </g>
      </g>
    </g>
  </g>
</svg>
