<svg xmlns="http://www.w3.org/2000/svg" xmlns:xlink="http://www.w3.org/1999/xlink" width="169.426" height="169.427" viewBox="0 0 169.426 169.427">
  <defs>
    <clipPath id="clip-path">
      <rect id="Rectángulo_403368" data-name="Rectángulo 403368" width="35.746" height="47.194" fill="none"/>
    </clipPath>
    <clipPath id="clip-path-2">
      <rect id="Rectángulo_403369" data-name="Rectángulo 403369" width="32.697" height="26.233" fill="none"/>
    </clipPath>
    <clipPath id="clip-path-3">
      <rect id="Rectángulo_403370" data-name="Rectángulo 403370" width="27.079" height="31.63" fill="none"/>
    </clipPath>
  </defs>
  <g id="Grupo_1112262" data-name="Grupo 1112262" transform="translate(-1059.19 -1379.913)">
    <path id="Trazado_902913" data-name="Trazado 902913" d="M506.845,169.427A84.74,84.74,0,0,1,473.875,6.651a84.739,84.739,0,0,1,65.94,156.125,84.164,84.164,0,0,1-32.97,6.651" transform="translate(637.058 1379.913)" fill="#fbf5ee"/>
    <path id="Trazado_902914" data-name="Trazado 902914" d="M521.6,103.275h28.643a.577.577,0,0,0,.577-.578V57.537H521.6Z" transform="translate(650.503 1387.69)" fill="#499479"/>
    <path id="Trazado_902915" data-name="Trazado 902915" d="M517.488,41.686h27.305a.957.957,0,0,1,.957.958v4.032H516.53V42.644a.958.958,0,0,1,.958-.958" transform="translate(649.817 1385.548)" fill="#499479"/>
    <path id="Trazado_902916" data-name="Trazado 902916" d="M551.506,59.085l-5.755-13H516.53l5.755,13Z" transform="translate(649.818 1386.142)" fill="#50a081"/>
    <path id="Trazado_902917" data-name="Trazado 902917" d="M512.038,103.275h10.933V57.537H511.46V102.7a.578.578,0,0,0,.578.578" transform="translate(649.132 1387.69)" fill="#50a081"/>
    <path id="Trazado_902918" data-name="Trazado 902918" d="M517.216,46.083l5.755,13H511.46Z" transform="translate(649.132 1386.142)" fill="#499479"/>
    <path id="Trazado_902919" data-name="Trazado 902919" d="M549.583,101.162h-8.9a3.581,3.581,0,0,1-3.553-3.139l-2.715-21.792h21.438l-2.714,21.792a3.582,3.582,0,0,1-3.554,3.139" transform="translate(652.235 1390.217)" fill="#f4dabf"/>
    <path id="Trazado_902920" data-name="Trazado 902920" d="M558.771,76.43H532.278a.768.768,0,0,1-.767-.769v-.129a.768.768,0,0,1,.767-.769h26.492a.768.768,0,0,1,.769.769v.129a.768.768,0,0,1-.769.769" transform="translate(651.843 1390.019)" fill="#b24b7a"/>
    <path id="Trazado_902921" data-name="Trazado 902921" d="M553.394,94.879l1.824-14.644H534.912l1.824,14.644Z" transform="translate(652.302 1390.758)" fill="#993666"/>
    <path id="Trazado_902922" data-name="Trazado 902922" d="M543.533,83.6l-1.873,3.244a2.941,2.941,0,1,0,5.094,0L544.881,83.6a.778.778,0,0,0-1.347,0" transform="translate(653.161 1391.16)" fill="#fff"/>
    <path id="Trazado_902923" data-name="Trazado 902923" d="M502.246,106.4h28.681a.578.578,0,0,0,.578-.579V36.373H502.246Z" transform="translate(647.887 1384.829)" fill="#8fb35c"/>
    <path id="Trazado_902924" data-name="Trazado 902924" d="M498.128,20.5H525.47a.958.958,0,0,1,.958.959V25.5H497.169V21.46a.959.959,0,0,1,.959-.959" transform="translate(647.201 1382.684)" fill="#8fb35c"/>
    <path id="Trazado_902925" data-name="Trazado 902925" d="M532.192,37.923,526.429,24.9H497.17l5.763,13.019Z" transform="translate(647.201 1383.279)" fill="#a4c079"/>
    <path id="Trazado_902926" data-name="Trazado 902926" d="M492.671,106.4h10.948V36.373H492.093v69.453a.578.578,0,0,0,.578.579" transform="translate(646.515 1384.829)" fill="#a4c079"/>
    <path id="Trazado_902927" data-name="Trazado 902927" d="M497.856,24.9l5.763,13.019H492.092Z" transform="translate(646.515 1383.279)" fill="#8fb35c"/>
    <path id="Trazado_902928" data-name="Trazado 902928" d="M510.384,30.658a4.471,4.471,0,0,0,8.909,0,4.471,4.471,0,0,0-8.909,0" transform="translate(648.987 1383.505)" fill="#fbf5ee"/>
    <path id="Trazado_902929" data-name="Trazado 902929" d="M528.552,55.722a2.475,2.475,0,0,0-3.217.006,3.715,3.715,0,0,1-4.826,0,2.472,2.472,0,0,0-3.211,0,3.714,3.714,0,0,1-4.828,0,2.476,2.476,0,0,0-3.221.009,3.719,3.719,0,0,1-4.832-.011,2.459,2.459,0,0,0-2.172-.513V53.932a3.725,3.725,0,0,1,2.99.849,2.477,2.477,0,0,0,3.219-.01,3.715,3.715,0,0,1,4.826.006,2.471,2.471,0,0,0,3.211,0,3.716,3.716,0,0,1,4.829,0,2.473,2.473,0,0,0,3.216-.007,3.717,3.717,0,0,1,4.827.006,2.46,2.46,0,0,0,2.141.524v1.267a3.718,3.718,0,0,1-2.953-.847" transform="translate(647.887 1387.196)" fill="#fff"/>
    <path id="Trazado_902930" data-name="Trazado 902930" d="M528.552,61.08a2.475,2.475,0,0,0-3.217.006,3.714,3.714,0,0,1-4.826,0,2.471,2.471,0,0,0-3.211,0,3.713,3.713,0,0,1-4.828,0,2.476,2.476,0,0,0-3.221.009,3.719,3.719,0,0,1-4.832-.011,2.459,2.459,0,0,0-2.172-.513V59.29a3.726,3.726,0,0,1,2.99.849,2.479,2.479,0,0,0,3.221-.01,3.714,3.714,0,0,1,4.824.006,2.471,2.471,0,0,0,3.211,0,3.717,3.717,0,0,1,4.829,0,2.473,2.473,0,0,0,3.216-.007,3.714,3.714,0,0,1,4.827.006,2.463,2.463,0,0,0,2.141.524v1.267a3.718,3.718,0,0,1-2.953-.847" transform="translate(647.887 1387.921)" fill="#fff"/>
    <path id="Trazado_902931" data-name="Trazado 902931" d="M528.552,66.438a2.474,2.474,0,0,0-3.217.006,3.714,3.714,0,0,1-4.826,0,2.472,2.472,0,0,0-3.211,0,3.713,3.713,0,0,1-4.828,0,2.477,2.477,0,0,0-3.221.009,3.719,3.719,0,0,1-4.832-.011,2.459,2.459,0,0,0-2.172-.513V64.648a3.726,3.726,0,0,1,2.99.849,2.479,2.479,0,0,0,3.221-.01,3.714,3.714,0,0,1,4.824.006,2.472,2.472,0,0,0,3.211,0,3.716,3.716,0,0,1,4.829,0,2.474,2.474,0,0,0,3.216-.007,3.717,3.717,0,0,1,4.827.006,2.46,2.46,0,0,0,2.141.524v1.267a3.718,3.718,0,0,1-2.953-.847" transform="translate(647.887 1388.645)" fill="#fff"/>
    <path id="Trazado_902932" data-name="Trazado 902932" d="M461.922,48.871H448.8l-1.068-6.4a.85.85,0,0,1,.838-.99h13.585a.849.849,0,0,1,.838.99Z" transform="translate(640.517 1385.521)" fill="#ce9a68"/>
    <g id="Grupo_1112259" data-name="Grupo 1112259" transform="translate(1078.003 1431.973)" opacity="0.7">
      <g id="Grupo_1111720" data-name="Grupo 1111720">
        <g id="Grupo_1111719" data-name="Grupo 1111719" clip-path="url(#clip-path)">
          <path id="Trazado_900988" data-name="Trazado 900988" d="M470.21,57.843c-4.1-3.057-6.419-6.358-6.419-7.947a18.144,18.144,0,0,1,.734-4.034H448.631a18.17,18.17,0,0,1,.733,4.034c0,1.589-2.324,4.89-6.419,7.947s-4.708,11.126-3.973,18.34c.459,4.517,1.445,9.992,2.119,13.455a4.225,4.225,0,0,0,4.148,3.418h22.677a4.225,4.225,0,0,0,4.148-3.418c.674-3.463,1.661-8.938,2.119-13.455.734-7.214.123-15.283-3.973-18.34" transform="translate(-438.705 -45.861)" fill="#edbf8f"/>
        </g>
      </g>
    </g>
    <g id="Grupo_1112260" data-name="Grupo 1112260" transform="translate(1079.528 1451.405)" opacity="0.9">
      <g id="Grupo_1111723" data-name="Grupo 1111723">
        <g id="Grupo_1111722" data-name="Grupo 1111722" clip-path="url(#clip-path-2)">
          <path id="Trazado_900989" data-name="Trazado 900989" d="M440.549,62.98a37.661,37.661,0,0,0-.238,10.734c.445,4.374,1.387,9.657,2.1,13.318a2.7,2.7,0,0,0,2.648,2.182h22.677a2.7,2.7,0,0,0,2.648-2.182c.712-3.661,1.654-8.944,2.1-13.318a37.619,37.619,0,0,0-.238-10.734Z" transform="translate(-440.048 -62.98)" fill="#fff"/>
        </g>
      </g>
    </g>
    <path id="Trazado_902933" data-name="Trazado 902933" d="M463.221,47.571h-15.59a1.529,1.529,0,0,1,0-3.057h15.59a1.529,1.529,0,0,1,0,3.057" transform="translate(640.298 1385.93)" fill="#edbf8f"/>
    <path id="Trazado_902934" data-name="Trazado 902934" d="M457.832,43.538a.571.571,0,1,1-.444-.674.571.571,0,0,1,.444.674" transform="translate(641.731 1385.705)" fill="#be8854"/>
    <path id="Trazado_902935" data-name="Trazado 902935" d="M452,43.623a.836.836,0,1,1-.649-.986.835.835,0,0,1,.649.986" transform="translate(640.872 1385.674)" fill="#be8854"/>
    <path id="Trazado_902936" data-name="Trazado 902936" d="M460.653,42.887A.836.836,0,1,1,460,41.9a.836.836,0,0,1,.649.986" transform="translate(642.042 1385.574)" fill="#be8854"/>
    <path id="Trazado_902937" data-name="Trazado 902937" d="M466.388,90.15V57.61c0-11.354,4.885-19.565,5.489-23.219a14.582,14.582,0,0,0,.2-5.251c-.964-.305-.868-1.142-.868-2.144,0-1.267.333-1.916,1.9-1.916h11.118c1.571,0,1.9.649,1.9,1.916,0,1,.1,1.839-.868,2.144a14.582,14.582,0,0,0,.2,5.251c.6,3.654,5.489,11.865,5.489,23.219V90.15c0,2.869.242,5.579-2.941,5.579H469.33c-3.183,0-2.941-2.711-2.941-5.579" transform="translate(643.04 1383.303)" fill="#f4dabf"/>
    <path id="Trazado_902938" data-name="Trazado 902938" d="M485.812,28.8c.386-.418.331-1.085.331-1.849,0-1.286-.337-1.943-1.932-1.943H472.926c-1.594,0-1.931.657-1.931,1.943,0,.815-.177,1.41.3,1.819,0,0-.837,1.537-1.816,3.133a35.249,35.249,0,0,1-2.625,3.512s-.329,2.4,3.179,4.025,4-1.034,8.169-.855,6.256,2.214,9.446,1.585,3-2.924,3-2.924l-2.329-3.147a5.446,5.446,0,0,0,1.013-.778,1.5,1.5,0,0,0,.306-1.107s-.368-.329-1.748-1.5c-1.1-.93-2.08-1.92-2.08-1.92" transform="translate(643.102 1383.293)" fill="#edbf8f"/>
    <path id="Trazado_902939" data-name="Trazado 902939" d="M470.667,28.625h14.792a.242.242,0,0,0,0-.484H470.667a.242.242,0,1,0,0,.484" transform="translate(643.586 1383.717)" fill="#5d463f"/>
    <path id="Trazado_902940" data-name="Trazado 902940" d="M483.45,49.236V83.4a1.94,1.94,0,0,1-1.939,1.94H466.388V54.609a41.307,41.307,0,0,1,.665-7.312h14.457a1.939,1.939,0,0,1,1.939,1.939" transform="translate(643.04 1386.306)" fill="#edbf8f"/>
    <path id="Trazado_902941" data-name="Trazado 902941" d="M485.268,32.313c.06-.032.065-.067.045-.092l-2.4-3.094a.056.056,0,0,0-.079-.01.058.058,0,0,0-.01.081l2.4,3.093a.057.057,0,0,0,.045.023" transform="translate(645.26 1383.847)" fill="#ce9a68"/>
    <path id="Trazado_902942" data-name="Trazado 902942" d="M483.951,36.111c.049-.015.065-.048.053-.077l-2.526-6.892a.057.057,0,0,0-.107.039l2.526,6.893a.057.057,0,0,0,.053.037" transform="translate(645.065 1383.848)" fill="#ce9a68"/>
    <path id="Trazado_902943" data-name="Trazado 902943" d="M480.231,32.147a.057.057,0,0,0,.057-.062l-.247-2.926a.054.054,0,0,0-.061-.052.056.056,0,0,0-.052.061l.247,2.928a.057.057,0,0,0,.057.052" transform="translate(644.87 1383.848)" fill="#ce9a68"/>
    <path id="Trazado_902944" data-name="Trazado 902944" d="M471.785,34.414a.056.056,0,0,0,.054-.041l1.594-5.195a.057.057,0,0,0-.039-.072.056.056,0,0,0-.072.037l-1.593,5.2a.058.058,0,0,0,.037.072l.017,0" transform="translate(643.762 1383.847)" fill="#ce9a68"/>
    <path id="Trazado_902945" data-name="Trazado 902945" d="M470.3,31.664a.058.058,0,0,0,.051-.031l1.294-2.444a.057.057,0,0,0-.1-.053l-1.294,2.444a.057.057,0,0,0,.024.077.053.053,0,0,0,.026.007" transform="translate(643.562 1383.848)" fill="#ce9a68"/>
    <path id="Trazado_902946" data-name="Trazado 902946" d="M475.1,74.022c22.71,0,30.126,7.482,30.126,13.309V100.97c0,7.583-21.917,12.117-29,11.785,0,0-19.828,1.444-26.357.549-1.337-.184-3.967-1.635-3.967-3.6V87.331c0-7.937,9.6-13.309,29.2-13.309" transform="translate(640.271 1389.918)" fill="#ffe6aa"/>
    <path id="Trazado_902947" data-name="Trazado 902947" d="M476.229,81.967c-2.516,3.244-7.945,8.21-7.945,13.44v21.122c0,2.317.861,2.846,7.945,3.177s29-4.2,29-11.785V87.331c0-5.827-7.416-13.309-30.126-13.309-19.6,0-29.2,5.372-29.2,13.309v22.379c0,1.96,2.676,3.2,3.967,3.594,0,0-.722-.548-.722-2.6V90.575c0-1.987,1.456-3.709,5.5-5.1a73.62,73.62,0,0,1,21.584-3.509" transform="translate(640.271 1389.918)" fill="#fca417"/>
    <path id="Trazado_902948" data-name="Trazado 902948" d="M475.091,74.022c20.9,0,28.846,6.336,29.98,11.887-1.134,5.014-9.08,10.738-29.98,10.738q-3.639,0-6.82-.219V95.409c0-5.231,5.43-10.2,7.946-13.441a73.629,73.629,0,0,0-21.585,3.509c-4.039,1.391-5.5,3.113-5.5,5.1v.377A8.318,8.318,0,0,1,446,85.909c1.1-7.149,10.685-11.887,29.091-11.887" transform="translate(640.284 1389.918)" fill="#ffb41c"/>
    <g id="Grupo_1112261" data-name="Grupo 1112261" transform="translate(1089.421 1471.885)" opacity="0.5">
      <g id="Grupo_1111726" data-name="Grupo 1111726">
        <g id="Grupo_1111725" data-name="Grupo 1111725" clip-path="url(#clip-path-3)">
          <path id="Trazado_901006" data-name="Trazado 901006" d="M448.763,109.756V89.628a3.7,3.7,0,0,1,1.076-2.612,5.572,5.572,0,0,1,.507-.477,7.133,7.133,0,0,1,.616-.461,14.233,14.233,0,0,1,3.3-1.548A71.164,71.164,0,0,1,472.1,81.16l.551-.034c.478-.027.91-.048,1.293-.064.3-.011.566-.02.8-.026.712-.018,1.1-.016,1.1-.016-.1.125-.2.253-.3.383q-.2.249-.419.509c-.127.151-.257.305-.39.462-1.241,1.452-2.765,3.143-4.06,4.985-.065.091-.128.184-.192.276q-.15.221-.3.444c-.218.334-.427.672-.623,1.015-.039.067-.077.134-.115.2a10.743,10.743,0,0,0-1.546,5.167v17.826c-6.282.319-14.605.593-18.411.07,0,0-.723-.551-.723-2.6" transform="translate(-448.763 -81.021)" fill="#ffc75a"/>
        </g>
      </g>
    </g>
    <path id="Trazado_902949" data-name="Trazado 902949" d="M449.839,87.016a5.736,5.736,0,0,1,.507-.477,7.133,7.133,0,0,1,.616-.461,14.233,14.233,0,0,1,3.3-1.548A71.164,71.164,0,0,1,472.1,81.16l.551-.034c.478-.027.91-.048,1.293-.062.3-.012.566-.02.8-.027.712-.018,1.1-.016,1.1-.016-.1.125-.2.253-.3.383q-.2.249-.419.509a82.164,82.164,0,0,0-10.986,1.168,44.134,44.134,0,0,0-11.257,3.315c-1.962.9-2.913,1.984-2.916,4.181,0,6.137.267,12.28-.111,18.411-.056.9.018,2.029.854,2.358a2.129,2.129,0,0,0,.778.1c1.477.007,2.955.023,4.433.032,1.127.007,4.359-.037,5.485-.048,1.181-.011,5.062-.14,6.5-.2v1.055c-6.282.319-14.605.593-18.411.07,0,0-.723-.551-.723-2.6V89.628a3.7,3.7,0,0,1,1.076-2.612" transform="translate(640.658 1390.864)" fill="#ffc75a"/>
    <path id="Trazado_902950" data-name="Trazado 902950" d="M460.929,92.576a1.188,1.188,0,1,1-.035-1.75,1.242,1.242,0,0,1,.035,1.75" transform="translate(642.016 1392.152)" fill="#ffb41c"/>
    <path id="Trazado_902951" data-name="Trazado 902951" d="M453.344,98.852a.975.975,0,1,1,.926-1.023.977.977,0,0,1-.926,1.023" transform="translate(641.139 1393.011)" fill="#ffb41c"/>
    <path id="Trazado_902952" data-name="Trazado 902952" d="M461.166,100.444a.975.975,0,1,1,.926-1.023.977.977,0,0,1-.926,1.023" transform="translate(642.196 1393.227)" fill="#ffb41c"/>
    <path id="Trazado_902953" data-name="Trazado 902953" d="M452.9,90.155A.943.943,0,1,1,454,89.389a.942.942,0,0,1-1.091.766" transform="translate(641.112 1391.846)" fill="#ffb41c"/>
    <path id="Trazado_902954" data-name="Trazado 902954" d="M456.84,96.122a.561.561,0,1,1,.274.745.562.562,0,0,1-.274-.745" transform="translate(641.743 1392.861)" fill="#ffb41c"/>
    <path id="Trazado_902955" data-name="Trazado 902955" d="M461.548,93.983a.561.561,0,1,1,.274.745.562.562,0,0,1-.274-.745" transform="translate(642.379 1392.572)" fill="#ffb41c"/>
    <path id="Trazado_902956" data-name="Trazado 902956" d="M466.285,85.376a.418.418,0,1,1,.143-.573.417.417,0,0,1-.143.573" transform="translate(642.94 1391.348)" fill="#ffb41c"/>
    <path id="Trazado_902957" data-name="Trazado 902957" d="M463.368,102.183a.418.418,0,1,1,.143-.573.418.418,0,0,1-.143.573" transform="translate(642.546 1393.62)" fill="#ffb41c"/>
    <path id="Trazado_902958" data-name="Trazado 902958" d="M457.548,88.461a.418.418,0,1,1,.143-.573.417.417,0,0,1-.143.573" transform="translate(641.76 1391.766)" fill="#ffb41c"/>
    <path id="Trazado_902959" data-name="Trazado 902959" d="M454.3,103.64a.418.418,0,1,1,.143-.573.417.417,0,0,1-.143.573" transform="translate(641.321 1393.816)" fill="#ffb41c"/>
    <path id="Trazado_902960" data-name="Trazado 902960" d="M462.951,86.09a.993.993,0,1,1,0,1.269.9.9,0,0,1,0-1.269" transform="translate(642.541 1391.527)" fill="#ffb41c"/>
    <path id="Trazado_902961" data-name="Trazado 902961" d="M454.71,92.435a.6.6,0,1,1-.565-.633.6.6,0,0,1,.565.633" transform="translate(641.299 1392.321)" fill="#ffb41c"/>
    <path id="Trazado_902962" data-name="Trazado 902962" d="M457.183,105.683a.975.975,0,1,1,.926-1.023.977.977,0,0,1-.926,1.023" transform="translate(641.657 1393.935)" fill="#ffb41c"/>
    <path id="Trazado_902963" data-name="Trazado 902963" d="M503.991,95.748s-.171-3.561,7.96-4.568,13.168-2.848,13.122-4.629,2.335-1.881,3.251,0,4.67,3.012,8.608,3.912,12.464,1.9,11.314,5.7-43.956,6.99-44.256-.417" transform="translate(648.123 1391.426)" fill="#fff"/>
    <path id="Trazado_902964" data-name="Trazado 902964" d="M502.4,95.692a1.338,1.338,0,0,1,1.448-1.2h44.164a1.338,1.338,0,0,1,1.448,1.2c-.024,2.585-.293,8.773-2.209,12.965a12.315,12.315,0,0,1-6.07,5.835,10.123,10.123,0,0,1-4.312.946H514.99a10.127,10.127,0,0,1-4.313-.946,12.324,12.324,0,0,1-6.07-5.835c-1.916-4.192-2.184-10.38-2.208-12.965" transform="translate(647.908 1392.685)" fill="#bc6637"/>
    <path id="Trazado_902965" data-name="Trazado 902965" d="M480.291,121.643c-3.1-3.13-2.909-6.465-1.88-10.718s4.031-5.3,4.031-5.3-1.536,2.737.073,3.2,5.149-4.391,7.919-3.013a4.283,4.283,0,0,1,1.713,1.464,4.022,4.022,0,0,1,3.712,1.174c5.477,4.956.65,10.059-5.139,15.036-3.578,3.076-8.87-.274-10.429-1.846" transform="translate(644.574 1394.183)" fill="#fff"/>
    <path id="Trazado_902966" data-name="Trazado 902966" d="M487.565,114.847c.434-.413.878-.864,1.329-1.357,4.059-4.419,2.953-6.038,2.9-6.1l-.179.131c.01.015,1.021,1.57-2.887,5.825-3.973,4.327-7.354,5.45-7.387,5.461l.067.211a18.4,18.4,0,0,0,6.153-4.166" transform="translate(645.062 1394.428)" fill="#f4dabf"/>
    <path id="Trazado_902967" data-name="Trazado 902967" d="M482.4,110.975a3.821,3.821,0,0,1-1.955-.09l-.091.166a3.8,3.8,0,0,0,2.11.136,5.841,5.841,0,0,0,.829-.213A4.646,4.646,0,0,0,486,108.746l-.107-.175a4.749,4.749,0,0,1-3.5,2.4" transform="translate(644.928 1394.588)" fill="#f4dabf"/>
    <path id="Trazado_902968" data-name="Trazado 902968" d="M510.417,136.683l-27.729-12.607a1.1,1.1,0,0,1-.205-1.878L497.3,111.045a1.1,1.1,0,0,1,1.605.317l13.631,22.96a1.662,1.662,0,0,1-2.117,2.361" transform="translate(645.156 1394.893)" fill="#d37941"/>
    <path id="Trazado_902969" data-name="Trazado 902969" d="M492.291,127.842a.149.149,0,0,1-.081-.179l4.637-15.431a.149.149,0,1,1,.286.086L492.5,127.748a.149.149,0,0,1-.186.1.056.056,0,0,1-.019-.007" transform="translate(646.53 1395.068)" fill="#b75f2e"/>
  </g>
</svg>
