<svg xmlns="http://www.w3.org/2000/svg" width="85" height="78.278" viewBox="0 0 85 78.278">
  <g id="Grupo_1112203" data-name="Grupo 1112203" transform="translate(0 -20.246)">
    <g id="Grupo_1112201" data-name="Grupo 1112201" transform="translate(1.243 21.491)">
      <g id="Grupo_1112200" data-name="Grupo 1112200" transform="translate(0 0)">
        <g id="Grupo_1112196" data-name="Grupo 1112196" transform="translate(0 7.218)">
          <g id="Grupo_1112179" data-name="Grupo 1112179" transform="translate(36.044 17.72)">
            <g id="Grupo_1112178" data-name="Grupo 1112178">
              <g id="Grupo_1112177" data-name="Grupo 1112177">
                <g id="Grupo_1112176" data-name="Grupo 1112176">
                  <circle id="Elipse_11675" data-name="Elipse 11675" cx="10.228" cy="10.228" r="10.228" fill="#fcc16d"/>
                </g>
              </g>
            </g>
          </g>
          <g id="Grupo_1112183" data-name="Grupo 1112183" transform="translate(44.153 17.721)">
            <g id="Grupo_1112182" data-name="Grupo 1112182">
              <g id="Grupo_1112181" data-name="Grupo 1112181">
                <g id="Grupo_1112180" data-name="Grupo 1112180">
                  <path id="Trazado_902793" data-name="Trazado 902793" d="M285.8,188.192A10.234,10.234,0,0,1,273.447,198.2a10.836,10.836,0,0,0,0-20.016A10.236,10.236,0,0,1,285.8,188.192Z" transform="translate(-273.447 -177.964)" fill="#fca62f"/>
                </g>
              </g>
            </g>
          </g>
          <g id="Grupo_1112187" data-name="Grupo 1112187">
            <g id="Grupo_1112185" data-name="Grupo 1112185" transform="translate(49.397 0.135)">
              <g id="Grupo_1112184" data-name="Grupo 1112184">
                <path id="Trazado_902794" data-name="Trazado 902794" d="M306.439,91.544l17.868,6.5a10.313,10.313,0,1,0,7.054-19.382l-17.868-6.5a2.127,2.127,0,0,0-2.726,1.271l-5.6,15.384A2.127,2.127,0,0,0,306.439,91.544Z" transform="translate(-305.038 -72.033)" fill="#fcc16d"/>
                <path id="Trazado_902795" data-name="Trazado 902795" d="M394.129,110.572a10.311,10.311,0,0,1-13.218,6.164l-8-2.912a10.313,10.313,0,0,0,7.054-19.382l8,2.912a10.313,10.313,0,0,1,6.164,13.218Z" transform="translate(-361.643 -90.722)" fill="#fca62f"/>
              </g>
            </g>
            <g id="Grupo_1112186" data-name="Grupo 1112186">
              <path id="Trazado_902796" data-name="Trazado 902796" d="M39.2,90.733l-17.868,6.5a10.313,10.313,0,0,1-7.054-19.382l17.868-6.5a2.127,2.127,0,0,1,2.726,1.271l5.6,15.384A2.127,2.127,0,0,1,39.2,90.733Z" transform="translate(-7.488 -71.222)" fill="#c5d3dd"/>
              <path id="Trazado_902797" data-name="Trazado 902797" d="M118.542,72.621,124.141,88a2.128,2.128,0,0,1-1.271,2.726l-8,2.912a2.128,2.128,0,0,0,1.271-2.726l-5.6-15.384a2.128,2.128,0,0,0-2.726-1.271l8-2.912A2.128,2.128,0,0,1,118.542,72.621Z" transform="translate(-91.159 -71.221)" fill="#a0acb9"/>
            </g>
          </g>
          <g id="Grupo_1112189" data-name="Grupo 1112189" transform="translate(21.13 6.649)">
            <g id="Grupo_1112188" data-name="Grupo 1112188">
              <circle id="Elipse_11676" data-name="Elipse 11676" cx="10.228" cy="10.228" r="10.228" fill="#fca62f"/>
            </g>
          </g>
          <path id="Trazado_902798" data-name="Trazado 902798" d="M183.182,131.489a10.228,10.228,0,1,0,0-19.982,10.649,10.649,0,0,1,0,19.982Z" transform="translate(-154.013 -104.621)" fill="#f98824"/>
          <g id="Grupo_1112192" data-name="Grupo 1112192" transform="translate(16.849 34.367)">
            <g id="Grupo_1112191" data-name="Grupo 1112191">
              <g id="Grupo_1112190" data-name="Grupo 1112190">
                <circle id="Elipse_11677" data-name="Elipse 11677" cx="10.228" cy="10.228" r="10.228" fill="#31a7fb"/>
                <path id="Trazado_902799" data-name="Trazado 902799" d="M164.959,288.465a10.231,10.231,0,0,1-13.384,9.73,10.229,10.229,0,0,0,0-19.46,10.231,10.231,0,0,1,13.384,9.73Z" transform="translate(-144.503 -278.237)" fill="#1c96f9"/>
              </g>
            </g>
          </g>
          <g id="Grupo_1112195" data-name="Grupo 1112195" transform="translate(43.116 45.797)">
            <g id="Grupo_1112194" data-name="Grupo 1112194">
              <g id="Grupo_1112193" data-name="Grupo 1112193">
                <circle id="Elipse_11678" data-name="Elipse 11678" cx="10.228" cy="10.228" r="10.228" fill="#fb3a82"/>
                <path id="Trazado_902800" data-name="Trazado 902800" d="M323.187,357.313a10.231,10.231,0,0,1-13.384,9.73,10.229,10.229,0,0,0,0-19.46,10.231,10.231,0,0,1,13.384,9.73Z" transform="translate(-302.731 -347.085)" fill="#fb1466"/>
              </g>
            </g>
          </g>
        </g>
        <g id="Grupo_1112197" data-name="Grupo 1112197" transform="translate(60.763 39.746)">
          <path id="Trazado_902801" data-name="Trazado 902801" d="M384.293,270.8h-2.074v-2.074a1.568,1.568,0,0,0-1.568-1.568h-1.937a1.568,1.568,0,0,0-1.568,1.568V270.8h-2.074a1.568,1.568,0,0,0-1.568,1.568v1.937a1.568,1.568,0,0,0,1.568,1.568h2.074v2.074a1.568,1.568,0,0,0,1.568,1.568h1.937a1.568,1.568,0,0,0,1.568-1.568v-2.075h2.074a1.568,1.568,0,0,0,1.568-1.568v-1.937A1.568,1.568,0,0,0,384.293,270.8Z" transform="translate(-373.504 -267.158)" fill="#23f1a8"/>
        </g>
        <g id="Grupo_1112198" data-name="Grupo 1112198" transform="translate(37.695)">
          <path id="Trazado_902802" data-name="Trazado 902802" d="M245.339,31.387h-2.074V29.313a1.568,1.568,0,0,0-1.568-1.568H239.76a1.568,1.568,0,0,0-1.568,1.568v2.075h-2.074a1.568,1.568,0,0,0-1.568,1.568v1.937a1.568,1.568,0,0,0,1.568,1.568h2.074v2.075A1.568,1.568,0,0,0,239.76,40.1H241.7a1.568,1.568,0,0,0,1.568-1.568V36.46h2.074a1.568,1.568,0,0,0,1.568-1.568V32.955A1.568,1.568,0,0,0,245.339,31.387Z" transform="translate(-234.55 -27.745)" fill="#23f1a8"/>
        </g>
        <g id="Grupo_1112199" data-name="Grupo 1112199" transform="translate(7.296 63.431)">
          <path id="Trazado_902803" data-name="Trazado 902803" d="M62.224,413.472H60.15V411.4a1.568,1.568,0,0,0-1.568-1.568H56.645a1.568,1.568,0,0,0-1.568,1.568v2.075H53a1.568,1.568,0,0,0-1.568,1.568v1.937A1.568,1.568,0,0,0,53,418.545h2.075v2.075a1.568,1.568,0,0,0,1.568,1.568h1.937a1.568,1.568,0,0,0,1.568-1.568v-2.075h2.075a1.568,1.568,0,0,0,1.568-1.568V415.04A1.568,1.568,0,0,0,62.224,413.472Z" transform="translate(-51.435 -409.83)" fill="#23f1a8"/>
        </g>
      </g>
    </g>
    <g id="Grupo_1112202" data-name="Grupo 1112202" transform="translate(0 20.246)">
      <path id="Trazado_902804" data-name="Trazado 902804" d="M266.7,204.6H263.97a1.245,1.245,0,0,0-1.245,1.245v9.12a1.245,1.245,0,0,0,1.245,1.245H266.7a4.512,4.512,0,0,0,4.507-4.507v-2.6A4.512,4.512,0,0,0,266.7,204.6Zm2.017,7.1a2.019,2.019,0,0,1-2.017,2.017h-1.48v-6.629h1.48a2.019,2.019,0,0,1,2.017,2.017Z" transform="translate(-219.109 -173.998)"/>
      <path id="Trazado_902805" data-name="Trazado 902805" d="M83.91,76.541a11.483,11.483,0,0,0-6.522-5.976l-17.868-6.5A3.372,3.372,0,0,0,55.2,66.076L49.6,81.46c-.02.054-.034.109-.05.164a11.469,11.469,0,0,0-5.478.347c0-.042,0-.085,0-.127A11.479,11.479,0,0,0,31.429,70.43L29.8,65.941a3.376,3.376,0,0,0-4.322-2.016l-9.079,3.3a1.245,1.245,0,0,0,.852,2.34l9.079-3.3a.883.883,0,0,1,1.131.527l1.517,4.168A11.46,11.46,0,0,0,22.36,87.008l-7.7,2.8a9.068,9.068,0,0,1-6.2-17.042l3.688-1.342a1.245,1.245,0,0,0-.852-2.34L7.605,70.429a11.558,11.558,0,1,0,7.906,21.722l8.249-3a11.464,11.464,0,0,0,12.284,3.639c0,.042,0,.085,0,.127A11.472,11.472,0,0,0,53.1,102.934a1.245,1.245,0,1,0-1.215-2.174,8.982,8.982,0,0,1-13.358-7.845,9.1,9.1,0,0,1,.1-1.315,11.516,11.516,0,0,0,5.061-6.814,9,9,0,0,1,6.124-.556,3.355,3.355,0,0,0,1.8,1.552l2.31.841A8.976,8.976,0,0,1,55.3,97.4a1.245,1.245,0,1,0,2.157,1.245,11.49,11.49,0,0,0,.469-10.563l11.558,4.207A11.558,11.558,0,0,0,83.91,76.541ZM32.6,90.827a8.983,8.983,0,1,1,8.983-8.983A8.993,8.993,0,0,1,32.6,90.827Zm49.356-6.3a9.067,9.067,0,0,1-11.622,5.419l-17.868-6.5a.883.883,0,0,1-.527-1.131l5.6-15.384a.882.882,0,0,1,1.13-.527l17.868,6.5a9.068,9.068,0,0,1,5.42,11.622Z" transform="translate(0 -56.505)"/>
      <path id="Trazado_902806" data-name="Trazado 902806" d="M170.774,142.987a1.245,1.245,0,0,0,1.761-1.761,5.523,5.523,0,1,0,0,7.815,1.245,1.245,0,0,0-1.761-1.761,3.036,3.036,0,1,1,0-4.293Z" transform="translate(-136.027 -119.795)"/>
      <path id="Trazado_902807" data-name="Trazado 902807" d="M112.951,270.734a11.473,11.473,0,1,0,11.473,11.473A11.486,11.486,0,0,0,112.951,270.734Zm0,20.456a8.983,8.983,0,1,1,8.983-8.983A8.993,8.993,0,0,1,112.951,291.19Z" transform="translate(-84.631 -229.15)"/>
      <path id="Trazado_902808" data-name="Trazado 902808" d="M154.357,310.088a3.374,3.374,0,0,0-2.837-5.209h-3.174a1.245,1.245,0,0,0-1.245,1.245v9.12a1.245,1.245,0,0,0,1.245,1.245h3.562a3.668,3.668,0,0,0,2.45-6.4Zm-4.767-2.719h1.929a.889.889,0,0,1,0,1.779H149.59ZM151.907,314H149.59v-2.361h2.317a1.18,1.18,0,0,1,0,2.361Z" transform="translate(-122.679 -257.626)"/>
      <path id="Trazado_902809" data-name="Trazado 902809" d="M272.762,339.584a11.541,11.541,0,0,0-11,8.2,1.245,1.245,0,0,0,2.387.71,8.981,8.981,0,1,1-.1,4.788,1.245,1.245,0,0,0-2.413.614,11.474,11.474,0,1,0,11.119-14.309Z" transform="translate(-218.174 -286.57)"/>
      <path id="Trazado_902810" data-name="Trazado 902810" d="M300.564,384.244a1.246,1.246,0,0,0,1.167-.811l.373-1h4.223l.373,1a1.245,1.245,0,1,0,2.334-.868l-2.755-7.4a2.2,2.2,0,0,0-4.126,0l-2.755,7.4a1.246,1.246,0,0,0,1.167,1.68Zm4.836-4.3h-2.37l1.185-3.185Z" transform="translate(-249.627 -315.045)"/>
      <path id="Trazado_902811" data-name="Trazado 902811" d="M378.041,263.3h-.829v-.829a2.816,2.816,0,0,0-2.813-2.813h-1.937a2.816,2.816,0,0,0-2.813,2.813v.829h-.829a2.816,2.816,0,0,0-2.813,2.813v1.937a2.816,2.816,0,0,0,2.813,2.813h.829v.829a2.816,2.816,0,0,0,2.813,2.813H374.4a2.816,2.816,0,0,0,2.813-2.813v-.829h.829a2.816,2.816,0,0,0,2.813-2.813v-1.937A2.816,2.816,0,0,0,378.041,263.3Zm.322,4.75a.323.323,0,0,1-.322.323h-2.074a1.245,1.245,0,0,0-1.245,1.245v2.074a.323.323,0,0,1-.322.322h-1.937a.323.323,0,0,1-.322-.322v-2.074a1.245,1.245,0,0,0-1.245-1.245H368.82a.323.323,0,0,1-.322-.323v-1.937a.323.323,0,0,1,.322-.322h2.074a1.245,1.245,0,0,0,1.245-1.245v-2.074a.323.323,0,0,1,.322-.323H374.4a.323.323,0,0,1,.322.323v2.074a1.245,1.245,0,0,0,1.245,1.245h2.074a.323.323,0,0,1,.322.322Z" transform="translate(-305.245 -219.912)"/>
      <path id="Trazado_902812" data-name="Trazado 902812" d="M229.865,31.45h.83v.829a2.816,2.816,0,0,0,2.813,2.813h1.937a2.816,2.816,0,0,0,2.813-2.813V31.45h.829a2.816,2.816,0,0,0,2.813-2.813V26.7a2.816,2.816,0,0,0-2.813-2.813h-.829v-.829a2.816,2.816,0,0,0-2.813-2.813h-1.937a2.816,2.816,0,0,0-2.813,2.813v.829h-.83a2.816,2.816,0,0,0-2.813,2.813v1.937a2.816,2.816,0,0,0,2.813,2.813Zm-.323-4.75a.323.323,0,0,1,.322-.323h2.075a1.245,1.245,0,0,0,1.245-1.245V23.059a.323.323,0,0,1,.322-.322h1.937a.323.323,0,0,1,.322.322v2.075a1.245,1.245,0,0,0,1.245,1.245h2.074a.323.323,0,0,1,.322.323v1.937a.323.323,0,0,1-.322.322h-2.074a1.245,1.245,0,0,0-1.245,1.245V32.28a.323.323,0,0,1-.322.323h-1.937a.323.323,0,0,1-.322-.323V30.205a1.245,1.245,0,0,0-1.245-1.245h-2.075a.323.323,0,0,1-.322-.322Z" transform="translate(-189.358 -20.246)"/>
      <path id="Trazado_902813" data-name="Trazado 902813" d="M55.969,405.973H55.14v-.829a2.816,2.816,0,0,0-2.813-2.813H50.39a2.816,2.816,0,0,0-2.813,2.813v.829h-.829a2.816,2.816,0,0,0-2.813,2.813v1.937a2.816,2.816,0,0,0,2.813,2.813h.829v.829a2.816,2.816,0,0,0,2.813,2.813h1.937a2.816,2.816,0,0,0,2.813-2.813v-.829h.829a2.816,2.816,0,0,0,2.813-2.813v-1.937A2.815,2.815,0,0,0,55.969,405.973Zm.322,4.75a.323.323,0,0,1-.322.323H53.895a1.245,1.245,0,0,0-1.245,1.245v2.074a.323.323,0,0,1-.323.322H50.39a.323.323,0,0,1-.322-.322V412.29a1.245,1.245,0,0,0-1.245-1.245H46.748a.323.323,0,0,1-.323-.323v-1.937a.323.323,0,0,1,.323-.322h2.075a1.245,1.245,0,0,0,1.245-1.245v-2.074a.323.323,0,0,1,.322-.323h1.937a.323.323,0,0,1,.323.323v2.074a1.245,1.245,0,0,0,1.245,1.245h2.075a.323.323,0,0,1,.322.322v1.937Z" transform="translate(-36.641 -338.9)"/>
    </g>
  </g>
</svg>
