<svg xmlns="http://www.w3.org/2000/svg" width="80" height="80" viewBox="0 0 80 80">
  <g id="Grupo_1112175" data-name="Grupo 1112175" transform="translate(-200 -5139)">
    <rect id="Rectángulo_403497" data-name="Rectángulo 403497" width="80" height="80" rx="10" transform="translate(200 5139)" fill="#fed57b"/>
    <g id="Layer_x0020_1" transform="translate(204.871 5147.233)">
      <g id="_1994413841440" transform="translate(4.055 0.22)">
        <g id="Grupo_1112174" data-name="Grupo 1112174">
          <g id="_338740296" transform="translate(0 19.337)">
            <path id="Trazado_902773" data-name="Trazado 902773" d="M35.173,179.648l-.216,0c-5.618-.109-10.813-4.359-13.9-11.37a.229.229,0,0,1-.012-.031,13.568,13.568,0,0,0-9.62-8.74,17.427,17.427,0,0,0-6.51-.4.739.739,0,0,1-.249-1.458,18.6,18.6,0,0,1,7.072.416,15.135,15.135,0,0,1,10.678,9.635c2.848,6.462,7.544,10.376,12.567,10.472,4.757.094,9.186-3.339,12.163-9.414a16.084,16.084,0,0,1,3.4-6.05c2.425-2.744,6.957-5.956,14.777-5.681a.739.739,0,0,1-.052,1.478c-5.813-.2-10.4,1.538-13.617,5.183a14.543,14.543,0,0,0-3.1,5.5.821.821,0,0,1-.054.148c-3.2,6.566-8.048,10.312-13.336,10.313Z" transform="translate(-4.055 -157.006)" fill="#62724a" fill-rule="evenodd"/>
          </g>
          <g id="_338739984" transform="translate(0.158 19.035)">
            <path id="Trazado_902774" data-name="Trazado 902774" d="M8.039,177.166a14.651,14.651,0,0,1-2.076-.128.74.74,0,0,1,.227-1.462,17.413,17.413,0,0,0,6.5-.506,13.564,13.564,0,0,0,9.481-8.89l.012-.031c2.974-7.06,8.1-11.391,13.716-11.589,5.369-.189,10.369,3.492,13.714,10.1a.782.782,0,0,1,.056.147,14.726,14.726,0,0,0,3.229,5.5c3.275,3.558,7.868,5.213,13.651,4.917a.739.739,0,1,1,.076,1.476q-.685.035-1.336.035c-7.008,0-11.206-2.934-13.53-5.481a16.092,16.092,0,0,1-3.5-6c-3.074-6.029-7.556-9.39-12.31-9.222-5.02.176-9.655,4.165-12.4,10.671a15.136,15.136,0,0,1-10.525,9.8,19.211,19.211,0,0,1-4.989.655Z" transform="translate(-5.338 -154.554)" fill="#62724a" fill-rule="evenodd"/>
          </g>
          <g id="_338739384" transform="translate(6.011 20.194)">
            <path id="Trazado_902775" data-name="Trazado 902775" d="M53.683,184.939a.739.739,0,0,1-.739-.734L52.79,164.7a.739.739,0,1,1,1.479-.012l.154,19.51a.74.74,0,0,1-.734.745Z" transform="translate(-52.79 -163.95)" fill="#62724a" fill-rule="evenodd"/>
          </g>
          <g id="_338741280" transform="translate(10.615 21.915)">
            <path id="Trazado_902776" data-name="Trazado 902776" d="M90.986,195.384a.741.741,0,0,1-.74-.734l-.126-16a.739.739,0,0,1,.734-.745h0a.74.74,0,0,1,.74.734l.126,16a.74.74,0,0,1-.734.745Z" transform="translate(-90.12 -177.91)" fill="#62724a" fill-rule="evenodd"/>
          </g>
          <g id="_338741040" transform="translate(54.976 19.811)">
            <path id="Trazado_902777" data-name="Trazado 902777" d="M450.694,181.834a.74.74,0,0,1-.74-.733L449.8,161.6a.741.741,0,0,1,.734-.746h.006a.739.739,0,0,1,.739.734l.154,19.505a.74.74,0,0,1-.733.746Z" transform="translate(-449.8 -160.85)" fill="#62724a" fill-rule="evenodd"/>
          </g>
          <g id="_338752224" transform="translate(50.399 21.505)">
            <path id="Trazado_902778" data-name="Trazado 902778" d="M413.557,192.248a.74.74,0,0,1-.739-.734l-.128-16.189a.74.74,0,0,1,.734-.745h.006a.738.738,0,0,1,.739.734L414.3,191.5a.739.739,0,0,1-.734.745Z" transform="translate(-412.69 -174.58)" fill="#62724a" fill-rule="evenodd"/>
          </g>
          <g id="_338729808" transform="translate(22.369 22.3)">
            <path id="Trazado_902779" data-name="Trazado 902779" d="M186.278,197.568a.74.74,0,0,1-.74-.733l-.118-15.062a.739.739,0,1,1,1.479-.011l.118,15.06a.738.738,0,0,1-.734.745Z" transform="translate(-185.42 -181.028)" fill="#62724a" fill-rule="evenodd"/>
          </g>
          <g id="_338757264" transform="translate(27.81 19.351)">
            <path id="Trazado_902780" data-name="Trazado 902780" d="M230.444,179.471a.738.738,0,0,1-.739-.733l-.165-20.873a.739.739,0,0,1,.734-.745h.006a.739.739,0,0,1,.739.733l.165,20.873a.74.74,0,0,1-.734.745Z" transform="translate(-229.54 -157.12)" fill="#62724a" fill-rule="evenodd"/>
          </g>
          <g id="_338752056" transform="translate(38.18 22.205)">
            <path id="Trazado_902781" data-name="Trazado 902781" d="M314.478,196.739a.74.74,0,0,1-.74-.733l-.118-15a.74.74,0,0,1,.734-.745h.006a.739.739,0,0,1,.739.734l.118,15a.74.74,0,0,1-.733.746Z" transform="translate(-313.62 -180.26)" fill="#62724a" fill-rule="evenodd"/>
          </g>
          <g id="_338751528" transform="translate(32.692 19.295)">
            <path id="Trazado_902782" data-name="Trazado 902782" d="M270.024,179.047a.739.739,0,0,1-.739-.734l-.165-20.907a.741.741,0,0,1,.734-.746h.006a.739.739,0,0,1,.739.734l.165,20.908a.74.74,0,0,1-.734.745Z" transform="translate(-269.12 -156.66)" fill="#62724a" fill-rule="evenodd"/>
          </g>
          <g id="_338742360" transform="translate(39.77)">
            <path id="Trazado_902783" data-name="Trazado 902783" d="M330.241,7.683a3.732,3.732,0,1,1,3.732-3.731A3.735,3.735,0,0,1,330.241,7.683Zm0-5.984a2.253,2.253,0,1,0,2.253,2.253A2.255,2.255,0,0,0,330.241,1.7Z" transform="translate(-326.51 -0.22)" fill="#62724a" fill-rule="evenodd"/>
          </g>
          <g id="_338744016" transform="translate(29.917 7.3)">
            <path id="Trazado_902784" data-name="Trazado 902784" d="M250.351,66.873a3.732,3.732,0,1,1,3.731-3.731A3.735,3.735,0,0,1,250.351,66.873Zm0-5.984a2.253,2.253,0,1,0,2.252,2.253A2.255,2.255,0,0,0,250.351,60.889Z" transform="translate(-246.62 -59.41)" fill="#62724a" fill-rule="evenodd"/>
          </g>
          <g id="_338742432" transform="translate(49.623 9.734)">
            <path id="Trazado_902785" data-name="Trazado 902785" d="M410.131,86.6a3.732,3.732,0,1,1,3.732-3.731A3.735,3.735,0,0,1,410.131,86.6Zm0-5.984a2.253,2.253,0,1,0,2.253,2.253A2.255,2.255,0,0,0,410.131,80.619Z" transform="translate(-406.4 -79.14)" fill="#62724a" fill-rule="evenodd"/>
          </g>
          <g id="_338732664" transform="translate(35.128 4.696)">
            <path id="Trazado_902786" data-name="Trazado 902786" d="M289.61,43.366a.739.739,0,0,1-.422-1.347l5.174-3.59a.739.739,0,1,1,.842,1.214l-5.174,3.592A.737.737,0,0,1,289.61,43.366Z" transform="translate(-288.87 -38.296)" fill="#62724a" fill-rule="evenodd"/>
          </g>
          <g id="_338751240" transform="translate(45.171 4.767)">
            <path id="Trazado_902787" data-name="Trazado 902787" d="M376.442,46.124a.732.732,0,0,1-.54-.234l-5.4-5.773a.739.739,0,0,1,1.079-1.01l5.4,5.773a.739.739,0,0,1-.539,1.244Z" transform="translate(-370.302 -38.872)" fill="#62724a" fill-rule="evenodd"/>
          </g>
          <g id="Grupo_1112173" data-name="Grupo 1112173" transform="translate(14.427 42.587)">
            <g id="_338754192" transform="translate(5.414 3.145)">
              <path id="Trazado_902788" data-name="Trazado 902788" d="M169.589,381.572a.741.741,0,0,1-.369-.1L165.29,379.2a.741.741,0,0,1-.37-.64v-4.538a.741.741,0,0,1,.37-.64l3.931-2.269a.739.739,0,0,1,.739,0l3.929,2.269a.738.738,0,0,1,.37.64v4.538a.738.738,0,0,1-.37.64l-3.929,2.269A.746.746,0,0,1,169.589,381.572Zm-3.191-3.435,3.191,1.841,3.191-1.841v-3.684l-3.191-1.843-3.191,1.843Z" transform="translate(-164.92 -371.018)" fill="#62724a" fill-rule="evenodd"/>
            </g>
            <g id="_338752752" transform="translate(9.345 9.952)">
              <path id="Trazado_902789" data-name="Trazado 902789" d="M201.458,436.762a.734.734,0,0,1-.369-.1l-3.929-2.268a.738.738,0,0,1-.37-.64v-4.539a.738.738,0,0,1,.37-.64l3.929-2.268a.739.739,0,0,1,.739,0l3.929,2.268a.738.738,0,0,1,.37.64v4.539a.738.738,0,0,1-.37.64l-3.929,2.268A.735.735,0,0,1,201.458,436.762Zm-3.189-3.435,3.189,1.841,3.191-1.841v-3.685l-3.191-1.841-3.189,1.841Z" transform="translate(-196.79 -426.207)" fill="#62724a" fill-rule="evenodd"/>
            </g>
            <g id="_338746488">
              <path id="Trazado_902790" data-name="Trazado 902790" d="M127.179,352.408a.736.736,0,0,1-.523-.216l-5.414-5.414a.74.74,0,0,1,1.046-1.046l5.414,5.414a.739.739,0,0,1-.523,1.262Z" transform="translate(-121.025 -345.515)" fill="#62724a" fill-rule="evenodd"/>
            </g>
            <g id="_338738280" transform="translate(17.204 10.531)">
              <path id="Trazado_902791" data-name="Trazado 902791" d="M261.251,434.071a.74.74,0,0,1-.19-1.454l6.3-1.688a.739.739,0,0,1,.382,1.428l-6.3,1.69A.792.792,0,0,1,261.251,434.071Z" transform="translate(-260.513 -430.903)" fill="#62724a" fill-rule="evenodd"/>
            </g>
            <g id="_338745936" transform="translate(1.484 9.952)">
              <path id="Trazado_902792" data-name="Trazado 902792" d="M137.729,436.762a.735.735,0,0,1-.37-.1l-3.929-2.268a.738.738,0,0,1-.37-.64v-4.539a.738.738,0,0,1,.37-.64l3.929-2.268a.741.741,0,0,1,.74,0l3.929,2.268a.741.741,0,0,1,.37.64v4.539a.741.741,0,0,1-.37.64l-3.929,2.268A.738.738,0,0,1,137.729,436.762Zm-3.191-3.435,3.191,1.841,3.191-1.841v-3.685l-3.191-1.841-3.191,1.841Z" transform="translate(-133.06 -426.207)" fill="#62724a" fill-rule="evenodd"/>
            </g>
          </g>
        </g>
      </g>
    </g>
  </g>
</svg>
