<svg xmlns="http://www.w3.org/2000/svg" width="85" height="85" viewBox="0 0 85 85">
  <g id="Grupo_1112245" data-name="Grupo 1112245" transform="translate(-180.051 -1916)">
    <rect id="Rectángulo_404080" data-name="Rectángulo 404080" width="85" height="85" transform="translate(180.051 1916)" fill="#fed57b"/>
    <g id="Grupo_1112244" data-name="Grupo 1112244" transform="translate(189.051 1911.969)">
      <g id="Grupo_1112242" data-name="Grupo 1112242" transform="translate(1.303 16.336)">
        <path id="Trazado_902823" data-name="Trazado 902823" d="M198.069,26.842a3.562,3.562,0,0,0-6.169,0L185.865,37.3H204.1Z" transform="translate(-163 -25.061)" fill="#b5b4ee"/>
        <path id="Trazado_902824" data-name="Trazado 902824" d="M148.473,119.147H130.234l-8.315,14.4h34.869Z" transform="translate(-107.369 -106.913)" fill="#ffad95"/>
        <path id="Trazado_902825" data-name="Trazado 902825" d="M73.506,350.625l-5.753-9.964h-51.5L10.5,350.625a3.562,3.562,0,0,0,3.085,5.343H70.421A3.562,3.562,0,0,0,73.506,350.625Z" transform="translate(-10.019 -299.624)" fill="#9de3d1"/>
        <path id="Trazado_902826" data-name="Trazado 902826" d="M101.157,229.9H66.289l-8.315,14.4h51.5Z" transform="translate(-51.739 -203.269)" fill="#ffee80"/>
        <path id="Trazado_902827" data-name="Trazado 902827" d="M177.129,325.845a7.056,7.056,0,0,0-3.625.327,6.983,6.983,0,0,1-4.7,0,7.056,7.056,0,0,0-3.625-.327c-4.6.809-7.514,6.11-6.506,11.841s5.553,9.722,10.154,8.913a6.93,6.93,0,0,0,2.328-.863,6.925,6.925,0,0,0,2.328.863c4.6.809,9.147-3.182,10.154-8.913s-1.906-11.033-6.506-11.841Z" transform="translate(-139.169 -286.644)" fill="#ffad95"/>
        <path id="Trazado_902828" data-name="Trazado 902828" d="M261.982,282.5A6.625,6.625,0,0,1,256,281.9a6.042,6.042,0,0,1,9.526-4.248A6.626,6.626,0,0,1,261.982,282.5Z" transform="translate(-224.016 -243.871)" fill="#9de3d1"/>
      </g>
      <g id="Grupo_1112243" data-name="Grupo 1112243" transform="translate(0 15.032)">
        <path id="Trazado_902829" data-name="Trazado 902829" d="M65.918,66.686l-5.753-9.964-8.313-14.4-8.314-14.4h0L37.5,17.464a4.98,4.98,0,0,0-.819-1.058,4.871,4.871,0,0,0-7.607,1.059L14.723,42.321,6.41,56.722.657,66.686A4.863,4.863,0,0,0,0,69.112,4.944,4.944,0,0,0,1.366,72.5a4.814,4.814,0,0,0,3.5,1.487H22.441A9.729,9.729,0,0,0,29.778,77.7a8.107,8.107,0,0,0,1.406-.123,8.189,8.189,0,0,0,2.1-.672,8.183,8.183,0,0,0,2.1.672,9.4,9.4,0,0,0,8.746-3.591H61.7a4.858,4.858,0,0,0,4.214-7.3ZM38.738,53.778a4.935,4.935,0,0,1-3.895-.111,4.5,4.5,0,0,1,6.415-2.861A4.935,4.935,0,0,1,38.738,53.778Zm4.649,2.293a8.549,8.549,0,0,0-1.759-1.127A8.723,8.723,0,0,0,44.084,50.4a1.3,1.3,0,0,0-.635-1.423,7.89,7.89,0,0,0-7.148-.66,6.64,6.64,0,0,0-1.711,1.111V48.6a1.3,1.3,0,0,0-2.606,0v6.219a5.62,5.62,0,0,1-.609-.179,8.287,8.287,0,0,0-8.188,1.433H9.795l6.809-11.8h4.835a1.3,1.3,0,1,0,0-2.606h-3.33l6.81-11.8H41.656l6.81,11.8H33.31a1.3,1.3,0,1,0,0,2.606H49.971l6.809,11.8ZM31.33,18.768a2.212,2.212,0,0,1,1.64-1.108,2.274,2.274,0,0,1,1.887.606,2.358,2.358,0,0,1,.387.5l4.908,8.5H26.423ZM4.87,71.378a2.2,2.2,0,0,1-1.622-.684,2.313,2.313,0,0,1-.642-1.581,2.221,2.221,0,0,1,.308-1.123L8.29,58.676h12.7c-.06.1-.121.2-.179.308A13.2,13.2,0,0,0,19.522,67.6a14.062,14.062,0,0,0,1.227,3.774Zm30.971,3.631a5.632,5.632,0,0,1-1.892-.7,1.3,1.3,0,0,0-1.324,0,5.636,5.636,0,0,1-1.892.7c-2.449.43-4.893-.81-6.588-3.041a1.287,1.287,0,0,0-.09-.121,11.193,11.193,0,0,1-1.968-4.693A10.591,10.591,0,0,1,23.1,60.239a6.392,6.392,0,0,1,4.44-3.419,5.588,5.588,0,0,1,.969-.085,5.88,5.88,0,0,1,1.991.355,8.3,8.3,0,0,0,5.581,0,5.739,5.739,0,0,1,2.96-.271,6.392,6.392,0,0,1,4.44,3.419,10.59,10.59,0,0,1,1.009,6.914,11.192,11.192,0,0,1-1.976,4.7c-.027.033-.052.068-.076.1-1.695,2.235-4.142,3.48-6.593,3.049ZM61.7,71.378H45.828A14.065,14.065,0,0,0,47.053,67.6a13.2,13.2,0,0,0-1.291-8.619c-.058-.105-.119-.206-.179-.308h12.7l5.377,9.312a2.224,2.224,0,0,1,.308,1.123A2.27,2.27,0,0,1,61.7,71.378Z" transform="translate(0 -15.032)"/>
        <circle id="Elipse_11685" data-name="Elipse 11685" cx="1.303" cy="1.303" r="1.303" transform="translate(26.06 26.637)"/>
      </g>
    </g>
  </g>
</svg>
