<svg xmlns="http://www.w3.org/2000/svg" xmlns:xlink="http://www.w3.org/1999/xlink" width="284.329" height="223.4" viewBox="0 0 284.329 223.4">
  <defs>
    <clipPath id="clip-path">
      <rect id="Rectángulo_400902" data-name="Rectángulo 400902" width="80.845" height="71.673" fill="#997b4d"/>
    </clipPath>
    <linearGradient id="linear-gradient" x1="-57.06" y1="3.484" x2="-57.432" y2="3.469" gradientUnits="objectBoundingBox">
      <stop offset="0" stop-color="#00796b"/>
      <stop offset="1" stop-color="#00657a"/>
    </linearGradient>
    <linearGradient id="linear-gradient-2" x1="-7.808" y1="12.038" x2="-7.729" y2="12.091" gradientUnits="objectBoundingBox">
      <stop offset="0" stop-color="#0a9f8f"/>
      <stop offset="1" stop-color="#0fa8ad"/>
    </linearGradient>
    <linearGradient id="linear-gradient-3" x1="-25.459" y1="275.202" x2="-25.662" y2="274.738" gradientUnits="objectBoundingBox">
      <stop offset="0" stop-color="#8ed7e0"/>
      <stop offset="1" stop-color="#9ad1f5"/>
    </linearGradient>
    <linearGradient id="linear-gradient-4" x1="-5.736" y1="8.181" x2="-5.568" y2="8.082" gradientUnits="objectBoundingBox">
      <stop offset="0" stop-color="#108aa3"/>
      <stop offset="1" stop-color="#0f9ba3"/>
    </linearGradient>
    <linearGradient id="linear-gradient-5" x1="-36.775" y1="22.621" x2="-36.577" y2="22.978" gradientUnits="objectBoundingBox">
      <stop offset="0" stop-color="#a1d4e6"/>
      <stop offset="1" stop-color="#d6eeff"/>
    </linearGradient>
    <linearGradient id="linear-gradient-6" x1="-4.829" y1="7.863" x2="-5.153" y2="8.104" gradientUnits="objectBoundingBox">
      <stop offset="0" stop-color="#ebac90"/>
      <stop offset="1" stop-color="#f6cfa1"/>
    </linearGradient>
    <linearGradient id="linear-gradient-7" x1="-21.228" y1="14.89" x2="-21.153" y2="14.64" gradientUnits="objectBoundingBox">
      <stop offset="0" stop-color="#33241f"/>
      <stop offset="1" stop-color="#2e3031"/>
    </linearGradient>
    <linearGradient id="linear-gradient-8" x1="-4.88" y1="9.085" x2="-5.267" y2="9.196" gradientUnits="objectBoundingBox">
      <stop offset="0" stop-color="#9a1b32"/>
      <stop offset="1" stop-color="#bb4272"/>
    </linearGradient>
  </defs>
  <g id="Grupo_1107862" data-name="Grupo 1107862" transform="translate(-1075 -528.422)">
    <circle id="Elipse_11651" data-name="Elipse 11651" cx="47.829" cy="47.829" r="47.829" transform="translate(1075 528.422)" fill="#c6e697"/>
    <g id="Elipse_11653" data-name="Elipse 11653" transform="translate(1105 591.422)" fill="none" stroke="#c6e697" stroke-width="1">
      <circle cx="72.329" cy="72.329" r="72.329" stroke="none"/>
      <circle cx="72.329" cy="72.329" r="71.829" fill="none"/>
    </g>
    <circle id="Elipse_11652" data-name="Elipse 11652" cx="34.329" cy="34.329" r="34.329" transform="translate(1290.671 674.422)" fill="#fed57b"/>
    <g id="Grupo_1105011" data-name="Grupo 1105011" transform="translate(1278.483 544.795)">
      <g id="Grupo_1098724" data-name="Grupo 1098724" transform="translate(0 0)">
        <g id="Grupo_1098723" data-name="Grupo 1098723" clip-path="url(#clip-path)">
          <path id="Trazado_872910" data-name="Trazado 872910" d="M3.228,1.614A1.614,1.614,0,1,1,1.614,0,1.614,1.614,0,0,1,3.228,1.614" fill="#997b4d"/>
          <path id="Trazado_872911" data-name="Trazado 872911" d="M32.182,1.614A1.614,1.614,0,1,1,30.568,0a1.614,1.614,0,0,1,1.614,1.614" transform="translate(-13.43)" fill="#997b4d"/>
          <path id="Trazado_872912" data-name="Trazado 872912" d="M61.135,1.614A1.614,1.614,0,1,1,59.521,0a1.614,1.614,0,0,1,1.614,1.614" transform="translate(-26.86)" fill="#997b4d"/>
          <path id="Trazado_872913" data-name="Trazado 872913" d="M90.088,1.614A1.614,1.614,0,1,1,88.474,0a1.614,1.614,0,0,1,1.614,1.614" transform="translate(-40.29)" fill="#997b4d"/>
          <path id="Trazado_872914" data-name="Trazado 872914" d="M119.041,1.614A1.614,1.614,0,1,1,117.427,0a1.614,1.614,0,0,1,1.614,1.614" transform="translate(-53.719)" fill="#997b4d"/>
          <path id="Trazado_872915" data-name="Trazado 872915" d="M147.995,1.614A1.614,1.614,0,1,1,146.381,0a1.614,1.614,0,0,1,1.614,1.614" transform="translate(-67.149)" fill="#997b4d"/>
          <path id="Trazado_872916" data-name="Trazado 872916" d="M3.228,33.529a1.614,1.614,0,1,1-1.614-1.614,1.614,1.614,0,0,1,1.614,1.614" transform="translate(0 -14.804)" fill="#997b4d"/>
          <path id="Trazado_872917" data-name="Trazado 872917" d="M32.182,33.529a1.614,1.614,0,1,1-1.614-1.614,1.614,1.614,0,0,1,1.614,1.614" transform="translate(-13.43 -14.804)" fill="#997b4d"/>
          <path id="Trazado_872918" data-name="Trazado 872918" d="M61.135,33.529a1.614,1.614,0,1,1-1.614-1.614,1.614,1.614,0,0,1,1.614,1.614" transform="translate(-26.86 -14.804)" fill="#997b4d"/>
          <path id="Trazado_872919" data-name="Trazado 872919" d="M90.088,33.529a1.614,1.614,0,1,1-1.614-1.614,1.614,1.614,0,0,1,1.614,1.614" transform="translate(-40.29 -14.804)" fill="#997b4d"/>
          <path id="Trazado_872920" data-name="Trazado 872920" d="M119.041,33.529a1.614,1.614,0,1,1-1.614-1.614,1.614,1.614,0,0,1,1.614,1.614" transform="translate(-53.719 -14.804)" fill="#997b4d"/>
          <path id="Trazado_872921" data-name="Trazado 872921" d="M147.995,33.529a1.614,1.614,0,1,1-1.614-1.614,1.614,1.614,0,0,1,1.614,1.614" transform="translate(-67.149 -14.804)" fill="#997b4d"/>
          <path id="Trazado_872922" data-name="Trazado 872922" d="M3.228,65.444A1.614,1.614,0,1,1,1.614,63.83a1.614,1.614,0,0,1,1.614,1.614" transform="translate(0 -29.607)" fill="#997b4d"/>
          <path id="Trazado_872923" data-name="Trazado 872923" d="M32.182,65.444a1.614,1.614,0,1,1-1.614-1.614,1.614,1.614,0,0,1,1.614,1.614" transform="translate(-13.43 -29.607)" fill="#997b4d"/>
          <path id="Trazado_872924" data-name="Trazado 872924" d="M61.135,65.444a1.614,1.614,0,1,1-1.614-1.614,1.614,1.614,0,0,1,1.614,1.614" transform="translate(-26.86 -29.607)" fill="#997b4d"/>
          <path id="Trazado_872925" data-name="Trazado 872925" d="M90.088,65.444a1.614,1.614,0,1,1-1.614-1.614,1.614,1.614,0,0,1,1.614,1.614" transform="translate(-40.29 -29.607)" fill="#997b4d"/>
          <path id="Trazado_872926" data-name="Trazado 872926" d="M119.041,65.444a1.614,1.614,0,1,1-1.614-1.614,1.614,1.614,0,0,1,1.614,1.614" transform="translate(-53.719 -29.607)" fill="#997b4d"/>
          <path id="Trazado_872927" data-name="Trazado 872927" d="M147.995,65.444a1.614,1.614,0,1,1-1.614-1.614,1.614,1.614,0,0,1,1.614,1.614" transform="translate(-67.149 -29.607)" fill="#997b4d"/>
          <path id="Trazado_872928" data-name="Trazado 872928" d="M3.228,97.359a1.614,1.614,0,1,1-1.614-1.614,1.614,1.614,0,0,1,1.614,1.614" transform="translate(0 -44.411)" fill="#997b4d"/>
          <path id="Trazado_872929" data-name="Trazado 872929" d="M32.182,97.359a1.614,1.614,0,1,1-1.614-1.614,1.614,1.614,0,0,1,1.614,1.614" transform="translate(-13.43 -44.411)" fill="#997b4d"/>
          <path id="Trazado_872930" data-name="Trazado 872930" d="M61.135,97.359a1.614,1.614,0,1,1-1.614-1.614,1.614,1.614,0,0,1,1.614,1.614" transform="translate(-26.86 -44.411)" fill="#997b4d"/>
          <path id="Trazado_872931" data-name="Trazado 872931" d="M90.088,97.359a1.614,1.614,0,1,1-1.614-1.614,1.614,1.614,0,0,1,1.614,1.614" transform="translate(-40.29 -44.411)" fill="#997b4d"/>
          <path id="Trazado_872932" data-name="Trazado 872932" d="M119.041,97.359a1.614,1.614,0,1,1-1.614-1.614,1.614,1.614,0,0,1,1.614,1.614" transform="translate(-53.719 -44.411)" fill="#997b4d"/>
          <path id="Trazado_872933" data-name="Trazado 872933" d="M147.995,97.359a1.614,1.614,0,1,1-1.614-1.614,1.614,1.614,0,0,1,1.614,1.614" transform="translate(-67.149 -44.411)" fill="#997b4d"/>
          <path id="Trazado_872934" data-name="Trazado 872934" d="M3.228,129.274a1.614,1.614,0,1,1-1.614-1.614,1.614,1.614,0,0,1,1.614,1.614" transform="translate(0 -59.214)" fill="#997b4d"/>
          <path id="Trazado_872935" data-name="Trazado 872935" d="M32.182,129.274a1.614,1.614,0,1,1-1.614-1.614,1.614,1.614,0,0,1,1.614,1.614" transform="translate(-13.43 -59.214)" fill="#997b4d"/>
          <path id="Trazado_872936" data-name="Trazado 872936" d="M61.135,129.274a1.614,1.614,0,1,1-1.614-1.614,1.614,1.614,0,0,1,1.614,1.614" transform="translate(-26.86 -59.214)" fill="#997b4d"/>
          <path id="Trazado_872937" data-name="Trazado 872937" d="M90.088,129.274a1.614,1.614,0,1,1-1.614-1.614,1.614,1.614,0,0,1,1.614,1.614" transform="translate(-40.29 -59.214)" fill="#997b4d"/>
          <path id="Trazado_872938" data-name="Trazado 872938" d="M119.041,129.274a1.614,1.614,0,1,1-1.614-1.614,1.614,1.614,0,0,1,1.614,1.614" transform="translate(-53.719 -59.214)" fill="#997b4d"/>
          <path id="Trazado_872939" data-name="Trazado 872939" d="M147.995,129.274a1.614,1.614,0,1,1-1.614-1.614,1.614,1.614,0,0,1,1.614,1.614" transform="translate(-67.149 -59.214)" fill="#997b4d"/>
        </g>
      </g>
    </g>
    <g id="_329137411_3e9099ea-f189-4f57-8b46-68e4827388fe" data-name="329137411_3e9099ea-f189-4f57-8b46-68e4827388fe" transform="translate(975.443 421.165)">
      <path id="Trazado_897955" data-name="Trazado 897955" d="M1894.571,1243.671a1.63,1.63,0,0,1,1.049.11c.215.262.235.26.235.595-.166.236-.287.416-.59.468a3.5,3.5,0,0,1-.712-.009A3.381,3.381,0,0,1,1894.571,1243.671Z" transform="translate(-1589.87 -1018.444)" fill="#10488f"/>
      <path id="Trazado_897956" data-name="Trazado 897956" d="M1885.9,1717.71q1.237,1.046,2.538,2.011l-.6,1.028c-.83-.635-1.608-1.324-2.39-2.016A1.994,1.994,0,0,1,1885.9,1717.71Z" transform="translate(-1581.656 -1447.922)" fill="#007a8e"/>
      <path id="Trazado_897957" data-name="Trazado 897957" d="M1573.412,756.61l.543.041.03.062c0,2.47.081,4.948.038,7.417-.007.4.057.941-.235,1.226l-.28-.018c-.055-.069-.141-.122-.164-.207-.193-.706,0-7.113.032-8.429Z" transform="translate(-1298.838 -577.23)" fill="#0f743d"/>
      <path id="Trazado_897958" data-name="Trazado 897958" d="M522.309,674.867q2.62,3.51,5.514,6.8c.474.54,1.083.983,1.53,1.525a1.16,1.16,0,0,1,.262.563l-.1.3a.657.657,0,0,1-.664-.052,6.425,6.425,0,0,1-1.27-1.385q-1.8-2.12-3.5-4.319a27.943,27.943,0,0,0-2.273-2.964Z" transform="translate(-346.298 -503.176)" fill="#269b55"/>
      <path id="Trazado_897959" data-name="Trazado 897959" d="M1834.528,406.737a14.82,14.82,0,0,1,8.386,2.962l-.448.252a13.817,13.817,0,0,0-10.887-2.453,13.6,13.6,0,0,0-6.9,3.829l-.074-.4C1827.195,407.936,1830.753,407.019,1834.528,406.737Z" transform="translate(-1526.54 -260.268)" fill="#e96d2f"/>
      <path id="Trazado_897960" data-name="Trazado 897960" d="M1727.991,1736.579a59.32,59.32,0,0,0-.507-8.492c-.174-1.236-.884-3.008-.8-4.186.02-.282.087-.3.3-.452a.9.9,0,0,1,.679.073c.518.7.894,4.041,1.074,5.12a10.092,10.092,0,0,0,.292,2.755q0,2.492.043,4.983A5.016,5.016,0,0,1,1727.991,1736.579Z" transform="translate(-1437.824 -1453.093)" fill="url(#linear-gradient)"/>
      <path id="Trazado_897961" data-name="Trazado 897961" d="M578.737,1574.91l.461.983c-3.939,1.81-7.866,3.683-11.852,5.385l-.142-.77-.121-.4C571.018,1578.511,574.816,1576.556,578.737,1574.91Z" transform="translate(-387.309 -1318.555)" fill="#0a989b"/>
      <path id="Trazado_897962" data-name="Trazado 897962" d="M2141.923,1275.4a14.928,14.928,0,0,0-.892-5.466c-.157-.422-.433-.781-.6-1.189a.852.852,0,0,1-.006-.779.952.952,0,0,1,.544-.5c1.359.438,1.837,4.451,1.968,5.732.057.559-.07,1.719.242,2.14l.187-.311c.175-.211.345-.422.508-.642l.345.017c-.1.3-.207.434-.12.746a23.3,23.3,0,0,0-1.055,4.01,2.5,2.5,0,0,1-1.458.106,14.454,14.454,0,0,0,.364-3.405Z" transform="translate(-1812.568 -1040.029)" fill="#002d2c"/>
      <path id="Trazado_897963" data-name="Trazado 897963" d="M616.083,1237.515l.059-.044a8.623,8.623,0,0,1-.031,1.182l-15.8.037a3.653,3.653,0,0,1,.478-1.074q4.322-.034,8.645-.007C610.76,1237.617,614.985,1237.866,616.083,1237.515Z" transform="translate(-417.411 -1012.858)" fill="#0a989b"/>
      <path id="Trazado_897964" data-name="Trazado 897964" d="M1724.449,1244.094c3.53-.062,7.071-.008,10.6-.013,1.811,0,3.64.05,5.446-.093a3.39,3.39,0,0,0-.019,1.164c-5.257.014-10.565-.182-15.814.013a3.055,3.055,0,0,0-.148,1.253C1724.507,1245.639,1724.41,1244.873,1724.449,1244.094Z" transform="translate(-1435.797 -1018.761)" fill="#007a8e"/>
      <path id="Trazado_897965" data-name="Trazado 897965" d="M2091.624,1315.865c-2.07.083-3.943.055-5.654-1.307a2.8,2.8,0,0,1-1.185-1.784,1,1,0,0,1,.269-.808,1.714,1.714,0,0,1,1.41-.311c2.264.325,3.871,1.995,5.136,3.752Z" transform="translate(-1762.244 -1080.038)" fill="#f4c63d"/>
      <path id="Trazado_897966" data-name="Trazado 897966" d="M1234.6,1728.93c.443.03.88.027,1.324.019-.018,2.828-.059,5.658-.038,8.486a33.705,33.705,0,0,1-.032,5.161,1.267,1.267,0,0,1-.462.934c-.291-.013-.331-.084-.564-.267C1234.357,1742.337,1234.611,1730.914,1234.6,1728.93Z" transform="translate(-991.982 -1458.087)" fill="#0a989b"/>
      <path id="Trazado_897967" data-name="Trazado 897967" d="M771.8,789.972l1.04.018c.049,1.175.013,2.354-.005,3.529,1.756,1.582,3.369,3.371,5.011,5.073,1.513,1.567,3.085,3.087,4.528,4.718-.226.23-.456.458-.675.7-3.426-3.234-6.672-6.689-9.934-10.088Q771.808,791.946,771.8,789.972Z" transform="translate(-572.742 -607.453)" fill="url(#linear-gradient-2)"/>
      <path id="Trazado_897968" data-name="Trazado 897968" d="M1651.68,1498.58c3.382,3.015,6.486,6.452,9.675,9.68q3.026,3.044,5.995,6.143c.93.972,1.94,1.93,2.786,2.974.008.039.012.079.023.116a1.148,1.148,0,0,0,.348.476l-.063-.137-.014.165c-.4-.037-.575-.134-.905.115-1.713-1.9-3.566-3.694-5.375-5.5q-4.049-4.025-8.019-8.127c-1.652-1.685-3.347-3.333-4.923-5.09Z" transform="translate(-1369.452 -1249.405)" fill="#0a989b"/>
      <path id="Trazado_897969" data-name="Trazado 897969" d="M1803.379,438.226a14.21,14.21,0,0,1,4.648,6.32,14.37,14.37,0,0,1,.819,3.277,12.136,12.136,0,0,1,.152,1.346c-.044.875-.137,1.723-.267,2.589a15.429,15.429,0,0,1-1.315,3.806,13.829,13.829,0,0,1-8,7.046q-.337.112-.679.207t-.688.174q-.346.079-.7.14t-.7.105q-.352.044-.707.071t-.709.036q-.355.009-.71,0t-.709-.034q-.354-.026-.706-.069t-.7-.1q-.35-.061-.7-.138t-.689-.173q-.342-.095-.679-.206t-.668-.24q-.331-.128-.655-.272t-.641-.3a13.97,13.97,0,0,1-6.823-8.285,14.58,14.58,0,0,1,.433-9.515c.459-1.038,1.137-1.933,1.659-2.929l.1-.185.544-.664.78-.769.074.4a14.062,14.062,0,0,0-3.787,10.306q.024.344.064.687t.1.682q.057.34.132.677t.165.67q.09.333.2.661t.23.65q.123.322.262.638t.292.624q.154.308.323.609t.353.593q.184.292.381.575t.41.555q.211.272.436.534t.462.512q.237.25.487.489t.51.464q.25.212.51.412t.53.386q.27.186.548.359t.566.331q.287.158.581.3t.6.273q.3.129.609.243t.62.212q.313.1.63.181t.638.149q.321.067.645.117t.65.085q.326.034.653.052t.655.019q.328,0,.655-.013t.654-.046a13.158,13.158,0,0,0,9.355-4.8,14.722,14.722,0,0,0,3.071-6.735,14.881,14.881,0,0,0,.025-3.106,25.6,25.6,0,0,0-.613-2.955,14.528,14.528,0,0,0-4.8-6.765Z" transform="translate(-1487.004 -288.795)" fill="#d95724"/>
      <path id="Trazado_897970" data-name="Trazado 897970" d="M371.13,1634.42l.142.77-.013.166c-.074,1.052-.009,2.072-.158,3.133a11.3,11.3,0,0,1-3.616,6.438,10.458,10.458,0,0,1-7.9,2.65,10.816,10.816,0,0,1-7.475-3.68,9.369,9.369,0,0,1-1.466-2.247c.8.133,1.583,1.125,2.211,1.628q.217.174.442.338t.458.316q.233.153.472.293t.486.271q.246.129.5.246t.51.222q.258.1.52.2t.53.171q.267.079.537.145t.544.118q.273.052.549.092t.553.065q.277.026.555.038t.556.011q.278,0,.556-.017t.555-.044q.2-.023.389-.054t.386-.068q.193-.038.384-.083t.38-.1q.189-.052.377-.11t.372-.125q.185-.066.367-.138t.362-.152q.18-.079.356-.165t.35-.178q.173-.092.343-.191t.336-.2q.166-.1.328-.215t.32-.228q.158-.117.311-.239t.3-.25q.149-.128.293-.261t.283-.272q.139-.139.273-.282t.262-.292q.128-.149.251-.3t.24-.311q.117-.158.228-.32t.216-.328q.105-.166.2-.335t.191-.343q.093-.173.179-.35t.166-.356q.079-.179.152-.362t.139-.367q.066-.185.125-.372t.111-.376c.2-.72.475-3.049.866-3.486C371.058,1634.492,371.095,1634.457,371.13,1634.42Z" transform="translate(-191.235 -1372.467)" fill="#eb9948"/>
      <path id="Trazado_897971" data-name="Trazado 897971" d="M147.725,1647.05a3.178,3.178,0,0,0,1.14,1.814c3.128,0,6.28-.06,9.405.059a6.031,6.031,0,0,0,.249,1.4l.12.852c-3.024-.023-6.054-.3-9.072-.483-2.473-.2-4.977-.364-7.424-.788-.724-.125-2.147-.288-2.585-.914l.077-.2c1.588-1.287,5.977-1.126,8-1.508Z" transform="translate(0 -1383.909)" fill="#b1afbb"/>
      <path id="Trazado_897972" data-name="Trazado 897972" d="M1654.41,424.015c3.518-1.023,6.272-1.954,9.982-1.249a10.123,10.123,0,0,1,4.106,3.3q-.728.217-1.468.389C1662.15,427.62,1658.649,426.608,1654.41,424.015Z" transform="translate(-1372.355 -274.566)" fill="#669f26"/>
      <path id="Trazado_897973" data-name="Trazado 897973" d="M2173.348,1278.88a6.206,6.206,0,0,1,3.525-3.86,12.136,12.136,0,0,1,6.407-.309c-2.612,2.39-4.012,7.354-8.345,7.132a4.978,4.978,0,0,1-1.594-.412l-.054.03c-.087-.311.023-.448.12-.746l-.345-.017c-.163.221-.333.431-.508.642C2172.791,1280.512,2173.078,1279.7,2173.348,1278.88Z" transform="translate(-1841.759 -1046.343)" fill="#269b55"/>
      <path id="Trazado_897974" data-name="Trazado 897974" d="M2173.481,1299.6a16.1,16.1,0,0,1,5.548-3.847.949.949,0,0,1-.34.265,14.658,14.658,0,0,0-5.346,4.726l-.054.03c-.087-.311.023-.448.12-.746l-.345-.016c-.163.221-.333.431-.508.642.236-.828.523-1.643.794-2.46a1.339,1.339,0,0,1,.842.187C2174.125,1298.833,2173.721,1299.211,2173.481,1299.6Z" transform="translate(-1841.761 -1065.658)" fill="#126127"/>
      <path id="Trazado_897975" data-name="Trazado 897975" d="M431.752,1836.106a4.247,4.247,0,0,1,2.506.524q.087.053.172.11t.166.118c.054.041.108.083.16.127s.1.088.153.135.1.094.146.142.093.1.138.15.088.1.131.156.083.108.122.163.078.112.114.169.072.115.105.174.066.119.1.18.059.122.087.184.053.125.077.188.047.128.068.192.04.13.058.2.034.132.048.2a3.99,3.99,0,0,1,.09.8,3.961,3.961,0,0,1-.169,1.188,3.993,3.993,0,0,1-.308.741,3.978,3.978,0,0,1-.209.343,4.141,4.141,0,0,1-2.71,1.7,4.374,4.374,0,0,1-2.443-.46,4.032,4.032,0,0,1-1.947-2.5,3.938,3.938,0,0,1,.43-3.08A4.2,4.2,0,0,1,431.752,1836.106Z" transform="translate(-261.552 -1555.175)" fill="#42c9c6"/>
      <path id="Trazado_897976" data-name="Trazado 897976" d="M447.112,1853.961a3.213,3.213,0,0,1,2.018.235,3,3,0,0,1,1.2,2.116q-.088.312-.2.617a2.505,2.505,0,0,1-1.53,1.6,2.571,2.571,0,0,1-1.19-.031,2.664,2.664,0,0,1-.727-.349,2.682,2.682,0,0,1-.412-.348q-.094-.1-.177-.2a2.625,2.625,0,0,1-.156-.22q-.072-.114-.133-.235a2.267,2.267,0,0,1-.126-1.8A2.51,2.51,0,0,1,447.112,1853.961Z" transform="translate(-277.205 -1571.307)" fill="#fff"/>
      <path id="Trazado_897977" data-name="Trazado 897977" d="M286.939,1145.282a1.094,1.094,0,0,0-.1-.455,3.566,3.566,0,0,1-1.881-1.054,2.172,2.172,0,0,1-.441-1.654,2.412,2.412,0,0,1,.786-1.793c1.214-.892,6.1-.76,7.725-.56a2.283,2.283,0,0,1,1.58.755,2.79,2.79,0,0,1,.622,2.039,2.576,2.576,0,0,1-.889,1.835,2.759,2.759,0,0,1-1.426.459c-.886-.045-1.79-.01-2.678-.012a10.461,10.461,0,0,0-3.166.086l-.091.355Z" transform="translate(-131.311 -924.212)" fill="#3d85bd"/>
      <path id="Trazado_897978" data-name="Trazado 897978" d="M348.265,1141.17a2.283,2.283,0,0,1,1.58.755,2.79,2.79,0,0,1,.622,2.039,2.576,2.576,0,0,1-.889,1.835,2.758,2.758,0,0,1-1.426.46c-.886-.045-1.79-.01-2.678-.012.054-1.673.011-3.359.008-5.033C346.411,1141.22,347.336,1141.223,348.265,1141.17Z" transform="translate(-186.545 -925.615)" fill="#326a9f"/>
      <path id="Trazado_897979" data-name="Trazado 897979" d="M690.282,1525.064a4.9,4.9,0,0,1,.85-3.776,3.639,3.639,0,0,1,2.539-1.373,4.06,4.06,0,0,1,3.058.925,4.162,4.162,0,0,1,1.532,2.8,3.619,3.619,0,0,1-.909,2.7,4.188,4.188,0,0,1-2.87,1.524,4.431,4.431,0,0,1-3.255-1.278,6.783,6.783,0,0,1-.484-.532Z" transform="translate(-498.855 -1268.708)" fill="#42c9c6"/>
      <path id="Trazado_897980" data-name="Trazado 897980" d="M709.049,1536.81a3.511,3.511,0,0,1,1.259.061,2.493,2.493,0,0,1,1.495,1.323,2.425,2.425,0,0,1,.167.472,2.411,2.411,0,0,1,.046.246,2.374,2.374,0,0,1,.02.25,2.489,2.489,0,0,1-.006.251,2.442,2.442,0,0,1-.09.492,2.486,2.486,0,0,1-.083.236,2.555,2.555,0,0,1-1.518,1.365,3.926,3.926,0,0,1-1.458-.11,2.85,2.85,0,0,1-1.6-1.678,4.74,4.74,0,0,1,.136-1.307A2.68,2.68,0,0,1,709.049,1536.81Z" transform="translate(-514.315 -1284.014)" fill="#fff"/>
      <path id="Trazado_897981" data-name="Trazado 897981" d="M526.808,1192.482a4.928,4.928,0,0,1-.533.767q-.123.148-.26.284t-.286.257a3.822,3.822,0,0,1-.31.228q-.16.106-.33.2t-.348.163q-.178.074-.362.129t-.373.093q-.189.037-.38.056a3.866,3.866,0,0,1-2.958-.921,4.48,4.48,0,0,1-1.489-3.21,3.73,3.73,0,0,1,.005-.377q.012-.188.043-.374a3.7,3.7,0,0,1,.08-.368q.049-.182.117-.358t.152-.345a3.7,3.7,0,0,1,.186-.328q.1-.159.217-.308a3.724,3.724,0,0,1,.247-.284q.076-.078.156-.153t.163-.145q.083-.07.17-.136t.177-.128q.09-.062.183-.119t.188-.109q.1-.052.194-.1t.2-.09q.1-.042.2-.08c.068-.025.137-.048.206-.069s.139-.041.21-.059.141-.034.212-.048.143-.027.215-.038.144-.02.216-.027.145-.012.217-.016.145-.005.218-.005.134,0,.2.006.134.009.2.017.133.016.2.027.132.023.2.037.131.03.2.047.129.036.193.057.127.043.19.067.124.049.186.076.122.056.182.086.119.062.177.095.115.068.172.1.112.074.166.113.108.079.16.121.1.085.154.129.1.09.147.137.095.095.14.144a4.835,4.835,0,0,1,1.072,3.681A3.635,3.635,0,0,0,526.808,1192.482Z" transform="translate(-343.908 -966.65)" fill="#42c9c6"/>
      <path id="Trazado_897982" data-name="Trazado 897982" d="M538.652,1203.622a2.906,2.906,0,0,1,1.24.162,2.7,2.7,0,0,1,1.453,1.449,2.446,2.446,0,0,1-.019,2,2.568,2.568,0,0,1-1.693,1.324,3.27,3.27,0,0,1-1.533-.193,2.583,2.583,0,0,1-1.375-1.467,2.3,2.3,0,0,1-.069-.227q-.029-.115-.046-.233a2.345,2.345,0,0,1-.023-.236q-.006-.118,0-.237t.024-.236q.018-.117.047-.233t.07-.227q.04-.112.092-.219A2.871,2.871,0,0,1,538.652,1203.622Z" transform="translate(-359.679 -982.188)" fill="#fff"/>
      <path id="Trazado_897983" data-name="Trazado 897983" d="M1410.624,1776.386a4.5,4.5,0,0,1,2.258.474q.1.049.188.1t.183.113q.09.059.177.123c.058.043.115.087.17.132s.11.092.163.141.1.1.156.149.1.1.148.157.094.108.139.164.089.113.13.171.083.117.122.177.076.122.112.184.07.125.1.189.063.129.092.194.057.132.082.2.05.135.072.2.042.137.061.206q.054.2.088.4t.047.411q.013.207.006.413a4.117,4.117,0,0,1-.036.412q-.028.205-.076.406t-.117.4q-.068.2-.156.383a4.094,4.094,0,0,1-.193.366,3.993,3.993,0,0,1-5.81,1.393q-.086-.058-.169-.121t-.163-.129q-.08-.067-.156-.138t-.149-.145q-.073-.074-.142-.152t-.134-.159q-.065-.081-.125-.166t-.117-.172q-.056-.088-.108-.178c-.034-.06-.067-.121-.1-.183s-.062-.124-.09-.188-.055-.127-.08-.192-.049-.13-.07-.2-.042-.132-.06-.2-.035-.134-.05-.2-.029-.136-.04-.2q-.038-.208-.055-.419t-.013-.422q0-.211.029-.421t.07-.416q.046-.206.111-.407a4.271,4.271,0,0,1,.566-1.128A4.33,4.33,0,0,1,1410.624,1776.386Z" transform="translate(-1148.138 -1501.076)" fill="#42c9c6"/>
      <path id="Trazado_897984" data-name="Trazado 897984" d="M1424.526,1792.294a3.227,3.227,0,0,1,1.3.194,2.6,2.6,0,0,1,1.48,1.462,2.659,2.659,0,0,1,.089.263,2.667,2.667,0,0,1,.093.547,2.669,2.669,0,0,1,0,.278,2.731,2.731,0,0,1-.026.277,2.668,2.668,0,0,1-.137.538,2.651,2.651,0,0,1-.11.255,3.277,3.277,0,0,1-2.027,1.625,2.924,2.924,0,0,1-1.44-.282,2.844,2.844,0,0,1-1.452-1.747,2.608,2.608,0,0,1-.064-.258c-.017-.087-.03-.175-.038-.263s-.012-.177-.012-.265.006-.177.015-.265a2.637,2.637,0,0,1,.041-.262,2.674,2.674,0,0,1,.158-.506,2.623,2.623,0,0,1,.116-.239A2.855,2.855,0,0,1,1424.526,1792.294Z" transform="translate(-1161.977 -1515.488)" fill="#fff"/>
      <path id="Trazado_897985" data-name="Trazado 897985" d="M1715.041,260.171c.238.374.483.745.7,1.132,2.322,3.5,6.648,8.021,5.762,12.572a6.357,6.357,0,0,1-.684,1.887.9.9,0,0,1-.121-.013,58.208,58.208,0,0,1-4.78-4.63,6.2,6.2,0,0,1-.606-.971,14.476,14.476,0,0,1-.7-7.922A10.039,10.039,0,0,1,1715.041,260.171Z" transform="translate(-1426.672 -127.489)" fill="#669f26"/>
      <path id="Trazado_897986" data-name="Trazado 897986" d="M1586.206,357.077c.8-.1,1.54-.415,2.344-.495a3.131,3.131,0,0,0,2.031.024,1.95,1.95,0,0,1,.794.343,3.665,3.665,0,0,0,1.237.6l.211-.059a6.2,6.2,0,0,0,.606.971,58.19,58.19,0,0,0,4.78,4.63.889.889,0,0,0,.121.013,7.652,7.652,0,0,1,2.976,2.764,2.1,2.1,0,0,1,.162.39l-.544.664c-.209-.174-.388-.412-.6-.6a10.123,10.123,0,0,0-4.106-3.3q-.874-.951-1.779-1.871a4.133,4.133,0,0,1-2.3,1.034c-3.858.554-9.9-1.642-12.983-3.958,2.4-.171,4.712-.839,7.146-.889Z" transform="translate(-1304.184 -214.831)" fill="#669f26"/>
      <path id="Trazado_897987" data-name="Trazado 897987" d="M1654.05,357.077c.8-.1,1.54-.415,2.344-.495a3.131,3.131,0,0,0,2.031.024,1.949,1.949,0,0,1,.794.343,1.82,1.82,0,0,1-.243.351l.081.025c-.667.092-1.282-.01-1.962.09-.019,0-.038,0-.057,0a14.855,14.855,0,0,0-2.888-.07Z" transform="translate(-1372.029 -214.831)" fill="url(#linear-gradient-3)"/>
      <path id="Trazado_897988" data-name="Trazado 897988" d="M1688.013,360.479a3.665,3.665,0,0,0,1.237.6l.211-.059a6.2,6.2,0,0,0,.606.971,58.185,58.185,0,0,0,4.78,4.63.889.889,0,0,0,.121.013,7.653,7.653,0,0,1,2.976,2.764,2.108,2.108,0,0,1,.162.39l-.544.664c-.209-.174-.388-.412-.6-.6a10.123,10.123,0,0,0-4.106-3.3q-.874-.951-1.779-1.871c-1.453-1.528-3.178-3.154-5.247-3.743.019,0,.038,0,.057,0,.68-.1,1.295,0,1.961-.09l-.081-.025A1.826,1.826,0,0,0,1688.013,360.479Z" transform="translate(-1400.822 -218.361)" fill="#52c0e6"/>
      <path id="Trazado_897989" data-name="Trazado 897989" d="M1922.893,1706.116l1.118-.22c-.856,4.67-2.666,8.841-6.7,11.622a13.383,13.383,0,0,1-9.892,2.2c-1.182-.223-5.188-1.283-5.834-2.226a.743.743,0,0,1-.043-.085l.146-.262c.351-.081.706-.144,1.059-.212l.4.231a.571.571,0,0,0,.226.191,4.8,4.8,0,0,0,1.107.229,13.5,13.5,0,0,0,7.348-.84c4.094-1.6,6.614-4.259,9.136-7.734A16.373,16.373,0,0,0,1922.893,1706.116Z" transform="translate(-1596.244 -1437.219)" fill="#669f26"/>
      <path id="Trazado_897990" data-name="Trazado 897990" d="M1306.115,2017.439c2.546.024,7.021-.487,8.862,1.475a4.5,4.5,0,0,1,1.115,3.358,4.329,4.329,0,0,1-3.022,4.072c-1.145-.319-5.491-.023-7.113-.138.262-.224.533-.448.774-.7a5.339,5.339,0,0,0,1.343-3.993A5.51,5.51,0,0,0,1306.115,2017.439Z" transform="translate(-1056.68 -1719.418)" fill="#f1a82b"/>
      <path id="Trazado_897991" data-name="Trazado 897991" d="M1615.87,720.211a3.507,3.507,0,0,1-.342-2.7,3.937,3.937,0,0,1,1.982-2.365q.089-.047.18-.089t.184-.079q.093-.037.188-.07t.191-.06q.1-.028.194-.05t.2-.04q.1-.017.2-.03t.2-.019c.067,0,.133-.008.2-.009s.133,0,.2,0,.133.006.2.011.133.013.2.022.132.02.2.032.131.027.2.042.129.033.193.053.127.04.19.062a3.67,3.67,0,0,1,2.092,2,3.783,3.783,0,0,1-5.089,4.958,4.51,4.51,0,0,1-1.019-.714c-5.17,4.865-10,10.209-14.918,15.336l-.5-.4-.335-.293Q1608.284,727.946,1615.87,720.211Z" transform="translate(-1323.83 -539.266)" fill="url(#linear-gradient-4)"/>
      <path id="Trazado_897992" data-name="Trazado 897992" d="M1770.7,726.243a3.781,3.781,0,0,1,1.416.084,2.8,2.8,0,0,1,1.7,1.5q.054.119.1.243a2.558,2.558,0,0,1,.115.509q.016.13.019.261a2.605,2.605,0,0,1-.042.52,2.56,2.56,0,0,1-.06.254,2.605,2.605,0,0,1-.085.247,3.046,3.046,0,0,1-1.849,1.671,2.792,2.792,0,0,1-.314.041,2.826,2.826,0,0,1-.631-.025,2.779,2.779,0,0,1-.309-.065,2.68,2.68,0,0,1-1.721-1.4q-.06-.119-.108-.244a2.641,2.641,0,0,1-.084-.253,2.612,2.612,0,0,1-.058-.26q-.023-.132-.032-.265a2.661,2.661,0,0,1-.006-.267,2.614,2.614,0,0,1,.021-.266,2.7,2.7,0,0,1,.119-.519A3.037,3.037,0,0,1,1770.7,726.243Z" transform="translate(-1475.931 -549.695)" fill="#fff"/>
      <path id="Trazado_897993" data-name="Trazado 897993" d="M1303.368,2215.774q3.459.053,6.917-.035a4.558,4.558,0,0,1,3.062,2.376,5.072,5.072,0,0,1,.2,3.93,4.221,4.221,0,0,1-2.3,2.57c-1.7.734-6.158.482-8.129.445a7.254,7.254,0,0,0,.87-.7,5.182,5.182,0,0,0,1.4-3.78,6.3,6.3,0,0,0-2.272-4.742Z" transform="translate(-1054.102 -1899.103)" fill="#3d85bd"/>
      <path id="Trazado_897994" data-name="Trazado 897994" d="M1248.771,2110.907c1.622.115,5.967-.181,7.113.138a5.308,5.308,0,0,1,2.94,2.97q.046.127.086.256t.073.26c.022.087.042.175.059.264s.032.177.045.266.023.179.032.269.014.179.018.27,0,.18,0,.27,0,.18-.01.27-.014.18-.024.269-.023.179-.038.268-.032.177-.051.265-.041.175-.065.262-.05.173-.079.259-.059.17-.091.254-.068.167-.1.249-.076.163-.117.244a5.7,5.7,0,0,1-2.883,2.543q-3.458.088-6.917.035a5.839,5.839,0,0,0,.431-.4,6,6,0,0,0,1.593-4.438,6.449,6.449,0,0,0-2.214-4.779c-1.907.1-3.829.009-5.736-.043a7.949,7.949,0,0,1,2.086-.165A28.021,28.021,0,0,0,1248.771,2110.907Z" transform="translate(-999.493 -1804.118)" fill="#da811e"/>
      <path id="Trazado_897995" data-name="Trazado 897995" d="M395.245,466.6a1.213,1.213,0,0,0-.05-.115c-.29-.514-1.059-.988-1.485-1.436-1.518-1.6-3.29-4.606-2.941-6.9l.159-.223c.56.031.93.515,1.284.913,2.143,2.408,2.292,4.991,3.269,7.885.627,1.335,1.3,2.652,1.952,3.975-.162-1.019-.322-2.039-.4-3.068-.157-1.946-.187-4.563,1.151-6.132,1.6,2.917.716,7.377.036,10.452a61.17,61.17,0,0,1,3.475,5.707c-.372-2.154-1.444-7.858-.144-9.7.033-.047.07-.092.1-.138l.231-.027c.79.66,1.059,2.8,1.151,3.784a20.834,20.834,0,0,1-.555,6.755l-.495.464c-.03,0-.061.009-.091.011-2.356.167-6.017-1.974-7.766-3.436-.679-.568-2.25-1.889-2.335-2.8l.15-.117c2.021.01,7.693,4.286,9.6,5.581-1.179-1.9-2.335-3.947-3.679-5.722a17.536,17.536,0,0,1-6.6-3.974,8.574,8.574,0,0,1-1.723-2.907c3.037,1.056,5.9,3.706,7.956,6.132C396.7,470.009,395.544,468.349,395.245,466.6Z" transform="translate(-226.468 -306.643)" fill="#2db34f"/>
      <path id="Trazado_897996" data-name="Trazado 897996" d="M1758.324,1698.4c.332.3.655.6.957.927.684.1,2.089.2,2.524.763a1.353,1.353,0,0,1,.077.126,2,2,0,0,0-.454,1.024c-1.283,3.24-2.725,6.42-6.122,7.909a7.023,7.023,0,0,1-5.295.2,7.116,7.116,0,0,1-1.168-.615,10.093,10.093,0,0,1-.292-2.755.851.851,0,0,0,.125-.277,9.729,9.729,0,0,1,.583-1.494,8.678,8.678,0,0,1,5.993-4.655,21.638,21.638,0,0,0,2.3-.358c.052-.018.1-.038.156-.057.33-.249.5-.152.905-.115l.014-.165.063.136a1.144,1.144,0,0,1-.348-.476C1758.336,1698.479,1758.333,1698.439,1758.324,1698.4Z" transform="translate(-1457.641 -1430.429)" fill="#269b55"/>
      <path id="Trazado_897997" data-name="Trazado 897997" d="M359.27,1573.18a11.726,11.726,0,0,1,3.109,5.364l.121.4c-.035.037-.072.072-.106.109-.39.436-.666,2.765-.866,3.486q-.052.189-.111.376t-.125.372q-.066.185-.139.367t-.152.362q-.079.18-.166.356t-.179.349q-.092.173-.191.343t-.2.335q-.105.166-.216.328t-.228.319q-.117.157-.24.311t-.251.3q-.128.148-.262.292t-.273.282q-.139.138-.283.272t-.293.262q-.149.128-.3.251t-.311.239q-.158.117-.32.228t-.328.215q-.166.1-.336.2t-.343.191q-.173.092-.35.178t-.356.165q-.18.079-.362.151t-.367.138q-.185.066-.372.125t-.377.11q-.189.052-.38.1t-.384.083q-.193.038-.387.068t-.389.054q-.277.029-.555.044t-.556.017q-.278,0-.556-.01t-.555-.038q-.277-.026-.553-.065t-.549-.092q-.273-.053-.544-.118t-.537-.145q-.267-.079-.53-.171t-.52-.2q-.258-.1-.51-.222t-.5-.246q-.246-.129-.486-.27t-.472-.294q-.233-.153-.458-.316t-.442-.338c-.628-.5-1.415-1.494-2.211-1.628a11.841,11.841,0,0,1-.776-1.915l-.12-.851c.193-.124.082-.078.34-.12a6.05,6.05,0,0,0,.7.551,13.116,13.116,0,0,0,9.405,2.054,10.313,10.313,0,0,0,6.519-4.5A10.167,10.167,0,0,0,359.27,1573.18Z" transform="translate(-182.605 -1316.988)" fill="#f1a82b"/>
      <path id="Trazado_897998" data-name="Trazado 897998" d="M1252.612,440.65a10.339,10.339,0,0,0,3.649-.9l.956,1.225c-.376,1.33-.038,4.281.01,5.757q.172,5.232.22,10.466a44.739,44.739,0,0,1-.052,5.528,4.358,4.358,0,0,1-.935.946q-2.245.025-4.49-.009a2.341,2.341,0,0,0,.51-1.26,56.4,56.4,0,0,0,.094-7.151Z" transform="translate(-1007.771 -290.176)" fill="#facd7b"/>
      <path id="Trazado_897999" data-name="Trazado 897999" d="M1923.317,1708.462l.983-.219a16.381,16.381,0,0,1-1.925,2.9c-2.522,3.476-5.042,6.131-9.136,7.734a13.5,13.5,0,0,1-7.348.84,4.777,4.777,0,0,1-1.107-.229.571.571,0,0,1-.226-.191l-.4-.231c-.354.067-.708.13-1.059.212a24.778,24.778,0,0,1,1.774-2.646C1910.043,1709.983,1915.577,1709.438,1923.317,1708.462Z" transform="translate(-1597.65 -1439.346)" fill="#8cb939"/>
      <path id="Trazado_898000" data-name="Trazado 898000" d="M1931.911,1729.609h.352l.063.139c-.894,1.078-11.947,6.653-13.762,7.432-1.26.541-2.519.858-3.8,1.3l-.4-.231c1.784-.824,3.629-1.5,5.4-2.359.245-.764.883-2.789,1.517-3.207l.109.12a11.379,11.379,0,0,1-.847,2.715c.937-.6,4.18-1.914,4.614-2.5a8.652,8.652,0,0,1,1.752-3.594l-.029.128a23.76,23.76,0,0,1-1.084,3.2C1926.847,1732.511,1930.5,1730.247,1931.911,1729.609Z" transform="translate(-1607.856 -1458.531)" fill="#269b55"/>
      <path id="Trazado_898001" data-name="Trazado 898001" d="M1889.4,1619.881c-6.893.338-13.737.531-20.639.456a73.254,73.254,0,0,1-10.027-.466,11.061,11.061,0,0,1-3.356-.961,5.779,5.779,0,0,1-3.06-3.371,5.643,5.643,0,0,1-.413-1.688,1.092,1.092,0,0,1,.432-.895,8.664,8.664,0,0,0,4.907,4.531,8.471,8.471,0,0,0,1.9.349c1.879.132,3.823.019,5.708.011a41.551,41.551,0,0,0,5.455-.109,5.51,5.51,0,0,0,1.969-.631,14.837,14.837,0,0,0,1.353-.864,30.191,30.191,0,0,0,8.324,1.892c3.148.33,4.931,0,7.416-2.014.872.053,1.732.139,2.6.247,2.869.279,6.251.426,8.857,1.743C1898.12,1619.644,1892.563,1619.635,1889.4,1619.881Z" transform="translate(-1551.275 -1353.022)" fill="#91a6b4"/>
      <path id="Trazado_898002" data-name="Trazado 898002" d="M1844.34,918.539l.077-1.154.043.056c-.034,1.242,1.113,3.726,1.656,4.882a23.4,23.4,0,0,0,13,12.261,19.136,19.136,0,0,0,15.159-.782,22.268,22.268,0,0,0,11.362-13.276,19.16,19.16,0,0,0,.948-4.042c.1-1.08-.044-4.979.241-5.627a1.154,1.154,0,0,1,.073-.122c.333,1.279.6,2.562.857,3.859.2,6.325-1.309,12.374-5.744,17.1q-.187.2-.378.391t-.387.382q-.2.189-.4.372t-.406.362q-.2.179-.415.353t-.423.342q-.214.168-.431.332t-.439.321q-.221.158-.447.31t-.455.3q-.229.147-.461.288t-.468.277q-.236.135-.475.265t-.481.253q-.242.124-.488.242t-.493.23q-.248.112-.5.218t-.5.205q-.253.1-.509.193t-.513.18q-.258.087-.517.168t-.521.155q-.261.074-.525.142t-.528.13q-.265.062-.531.117t-.534.1q-.268.048-.536.09t-.538.077q-.27.036-.54.064t-.542.051q-.271.022-.543.038t-.543.024q-.271.007-.542.007t-.542-.006q-.271-.007-.542-.019t-.541-.033q-.27-.02-.54-.046t-.538-.059q-.269-.033-.537-.072t-.535-.086q-.267-.046-.533-.1t-.53-.112q-.264-.059-.527-.125t-.524-.138q-.261-.072-.52-.151t-.516-.163q-.257-.085-.512-.176t-.508-.189q-.253-.1-.5-.2t-.5-.214q-.248-.11-.492-.226t-.487-.238q-.242-.122-.481-.25t-.474-.262q-.236-.134-.468-.273t-.461-.285q-.229-.145-.454-.3t-.446-.307q-.221-.156-.438-.318t-.431-.329q-.213-.167-.422-.339t-.414-.349q-.2-.177-.405-.36t-.4-.37a21.029,21.029,0,0,1-6.444-13.951C1844.341,918.6,1844.34,918.57,1844.34,918.539Z" transform="translate(-1544.419 -716.856)" fill="#623b7f"/>
      <path id="Trazado_898003" data-name="Trazado 898003" d="M2096.658,1374.05a7.39,7.39,0,0,1,4.854,3.057c2.563,3.476,2.913,8.579,2.259,12.708q-.055.35-.124.7t-.152.691q-.083.344-.18.685t-.208.677q-.11.336-.235.668t-.262.658q-.137.326-.288.647t-.314.634q-.163.314-.339.622t-.364.607q-.188.3-.389.592t-.412.576q-.212.284-.435.558t-.457.54q-.234.266-.479.521t-.5.5c-2.485,2.009-4.268,2.344-7.416,2.014a30.2,30.2,0,0,1-8.324-1.892,9.7,9.7,0,0,0,2.556-4.795,14.852,14.852,0,0,0,7.664.459,10.2,10.2,0,0,0,6.366-4.979,13.925,13.925,0,0,0,1.327-10.51c-.487-1.87-1.571-4.131-3.308-5.138C2097.111,1374.623,2096.814,1374.486,2096.658,1374.05Z" transform="translate(-1760.532 -1136.589)" fill="#d95724"/>
      <path id="Trazado_898004" data-name="Trazado 898004" d="M1530.522,194.192q1.966,2.78,3.774,5.666c.728.229,3.06.282,3.395.54a10.088,10.088,0,0,0-.431,2.055,14.477,14.477,0,0,0,.7,7.922l-.211.059a3.665,3.665,0,0,1-1.237-.6,1.95,1.95,0,0,0-.794-.343,3.131,3.131,0,0,1-2.031-.024c-.8.079-1.547.39-2.344.495l-.129-.008-.216-.016c-3.966-.267-7.369-2.67-10.4-5.049a28.216,28.216,0,0,1,4.2-.621q-.966-1.041-1.842-2.159t-1.655-2.306q-.779-1.188-1.457-2.436t-1.248-2.549l.434.161c1.819-.023,4.533,1.211,6.308,1.779a31.292,31.292,0,0,0,4.671,1.16C1530.15,196.668,1530.325,195.433,1530.522,194.192Z" transform="translate(-1249.323 -67.716)" fill="#669f26"/>
      <path id="Trazado_898005" data-name="Trazado 898005" d="M1622.75,302.869a4.41,4.41,0,0,0,1.38.269,3.655,3.655,0,0,1,.89.011,24.317,24.317,0,0,1,2.249,2.566,23.568,23.568,0,0,0,1.991,1.966l.112.1.7.169a3.131,3.131,0,0,1-2.031-.024C1626.866,305.678,1624.8,304.233,1622.75,302.869Z" transform="translate(-1343.673 -166.171)" fill="#52c0e6"/>
      <path id="Trazado_898006" data-name="Trazado 898006" d="M1523.22,202.562c1.82-.023,4.533,1.211,6.308,1.779a31.291,31.291,0,0,0,4.671,1.16,28.788,28.788,0,0,0,.032,2.973c-2.486-3.437-7.335-3.967-10.852-5.827Z" transform="translate(-1253.505 -75.299)" fill="#bce5f7"/>
      <path id="Trazado_898007" data-name="Trazado 898007" d="M1685.44,254.429c.728.229,3.06.282,3.395.54a10.1,10.1,0,0,0-.431,2.055,14.476,14.476,0,0,0,.7,7.922l-.211.059a3.665,3.665,0,0,1-1.237-.6,1.95,1.95,0,0,0-.794-.343l-.7-.169a12.583,12.583,0,0,0,.559-1.4C1687.7,259.6,1686.724,257.044,1685.44,254.429Z" transform="translate(-1400.466 -122.287)" fill="url(#linear-gradient-5)"/>
      <path id="Trazado_898008" data-name="Trazado 898008" d="M649.692,413.775c3.2,4.741,4.264,11.715,3.182,17.269q-.052.268-.11.535t-.123.532q-.065.265-.136.529t-.149.525q-.078.262-.162.521t-.174.517q-.09.258-.187.513t-.2.508q-.1.253-.212.5t-.224.5q-.115.247-.236.492t-.248.486q-.127.242-.26.48t-.272.474q-.139.235-.283.467t-.295.46q-.15.228-.306.453t-.316.445q-.161.221-.328.437t-.338.429q-.172.212-.348.42t-.358.412q-.182.2-.369.4t-.378.394q-.191.195-.388.384t-.4.375q-.2.185-.406.365t-.415.355q-.21.175-.424.345t-.431.335q-.218.164-.44.324t-.447.313a24.934,24.934,0,0,1-12.53,3.908l-1.04-.018c-1.1-.192-2.2-.3-3.285-.563q-.412-.1-.82-.218t-.812-.249q-.4-.132-.8-.278t-.791-.308q-.393-.161-.779-.338t-.766-.366q-.379-.19-.752-.395t-.736-.423q-.364-.218-.72-.45t-.7-.477q-.347-.245-.684-.5t-.665-.528q-.328-.27-.645-.552t-.624-.576q-.307-.294-.6-.6t-.579-.621a39.756,39.756,0,0,1,3.91,1.811q.424.178.854.341t.866.311q.436.147.876.279t.886.248q.445.116.894.215t.9.183q.452.083.907.15t.912.118q.457.051.916.084t.918.052q.46.018.919.019t.92-.014q.46-.016.918-.048t.916-.081q.457-.049.913-.114t.908-.147a19.587,19.587,0,0,0,12.774-8.4C651.143,429.589,651.266,421.919,649.692,413.775Z" transform="translate(-430.88 -266.644)" fill="#da811e"/>
      <path id="Trazado_898009" data-name="Trazado 898009" d="M1251.691,742.247a18.225,18.225,0,0,1,.039,2.3c10.72-.1,21.911,5.23,29.5,12.67q1.141,1.114,2.189,2.317c.339.4.619.871.973,1.246l.335.293.5.4c-1.09,1.28-2.15,2.65-3.341,3.834l-.213-.1-.408-.394c-2.048-1.688-3.844-3.68-5.9-5.372q-.619-.518-1.259-1.01t-1.3-.959q-.659-.466-1.336-.906t-1.371-.851q-.694-.412-1.4-.8t-1.435-.738q-.725-.355-1.464-.68t-1.49-.621q-.751-.3-1.514-.56t-1.535-.5q-.772-.234-1.554-.437t-1.57-.374q-.789-.171-1.584-.311t-1.6-.247q-.8-.107-1.6-.183t-1.61-.118a61.921,61.921,0,0,1-.117,7.189c-.17-2.7-.007-5.486-.011-8.2A51.826,51.826,0,0,1,1251.691,742.247Z" transform="translate(-1007.377 -564.218)" fill="#a9dbd7"/>
      <path id="Trazado_898010" data-name="Trazado 898010" d="M1571.09,942.343l.5.4c-1.09,1.28-2.15,2.65-3.341,3.834l-.213-.1-.408-.394C1568.76,944.811,1570.033,943.669,1571.09,942.343Z" transform="translate(-1293.738 -745.491)" fill="#42c9c6"/>
      <path id="Trazado_898011" data-name="Trazado 898011" d="M349.356,1541.74a12.038,12.038,0,0,1,2.7.5,11.065,11.065,0,0,1,4.431,2.457,10.167,10.167,0,0,1-1.185,8.214,10.312,10.312,0,0,1-6.519,4.5,13.116,13.116,0,0,1-9.405-2.054,6.058,6.058,0,0,1-.7-.551c-.257.042-.147,0-.34.12a6.03,6.03,0,0,1-.249-1.4l-.041-1.076a17.01,17.01,0,0,1,.721-3.666,11.177,11.177,0,0,1,2.19-3.542C343.224,1542.775,346.1,1541.891,349.356,1541.74Z" transform="translate(-179.82 -1288.505)" fill="#f4c63d"/>
      <path id="Trazado_898012" data-name="Trazado 898012" d="M349.356,1541.74a12.038,12.038,0,0,1,2.7.5l-.113.047a16.221,16.221,0,0,1-3.25.507,12.88,12.88,0,0,0-8.4,5.478c-.768,1.109-1.4,3.375-2.239,4.171a17.012,17.012,0,0,1,.721-3.666,11.178,11.178,0,0,1,2.19-3.542C343.224,1542.775,346.1,1541.891,349.356,1541.74Z" transform="translate(-179.821 -1288.505)" fill="#facd7b"/>
      <path id="Trazado_898013" data-name="Trazado 898013" d="M169.127,1044.831l6.7,0c1.332,0,2.692-.052,4.019.062a32.716,32.716,0,0,0,3.348-.017l8.475.027c1.185.011,2.373.044,3.556-.03l.619,0,14.416-.024c2.988,0,6.011-.088,8.994.058a2.717,2.717,0,0,1,2.049.875q.063.077.118.159c.036.055.07.112.1.17s.059.118.084.179.047.123.066.187.034.127.047.192a1.946,1.946,0,0,1,.028.2q.009.1.008.2t-.011.2a2.546,2.546,0,0,1-.993,1.734,4.572,4.572,0,0,1-.635.412c-3.062.222-6.211.034-9.285.044q-9.975.051-19.951-.006l-14.792,0c-2.44,0-4.991.152-7.421-.034a2.638,2.638,0,0,1-1.725-.645,3.857,3.857,0,0,1-.673-.838,2.792,2.792,0,0,1,.066-2.216,2.023,2.023,0,0,1,1.45-.894Z" transform="translate(-24.024 -838.325)" fill="#3d85bd"/>
      <path id="Trazado_898014" data-name="Trazado 898014" d="M564.554,1947.95c1.219,6.309,4.137,10.475,9.463,14.1a31.074,31.074,0,0,0,17.951,5.232l.027,4.31.056.039a54.209,54.209,0,0,0,.1,6.876l-.121.035c-.9-.106-1.846-.083-2.756-.127a27.856,27.856,0,0,1-15.1-5.749,34.691,34.691,0,0,1-4.036-3.935c-.669-1.029-1.462-1.96-2.1-3.023a26.109,26.109,0,0,1-3.491-15.719A16.108,16.108,0,0,1,564.554,1947.95Z" transform="translate(-384.934 -1656.504)" fill="#669f26"/>
      <path id="Trazado_898015" data-name="Trazado 898015" d="M565.07,1947.95c1.219,6.309,4.137,10.475,9.463,14.1a31.074,31.074,0,0,0,17.951,5.232l.027,4.31c-7.109-.219-13.765-2.023-19.311-6.672a21.864,21.864,0,0,1-8.134-14.93A16.087,16.087,0,0,1,565.07,1947.95Z" transform="translate(-385.45 -1656.504)" fill="#f1a82b"/>
      <path id="Trazado_898016" data-name="Trazado 898016" d="M1549.054,986.215l.213.1c4.439.8,8.914,1.574,11.7,5.537,2.692,3.832,3.206,9.7,2.941,14.255a40.048,40.048,0,0,0-.391,4.2,25.64,25.64,0,0,0-5.089-.166c-3.914-.028-7.84.021-11.751-.116.321-1.857.776-3.68,1.05-5.547a5.687,5.687,0,0,0,2.676-1.069,5.8,5.8,0,0,0,2.339-3.894,4.874,4.874,0,0,0-.942-3.664,3.786,3.786,0,0,0-2.594-1.27c.042-2.486.384-5.606-.612-7.923Z" transform="translate(-1274.754 -785.237)" fill="#eb9948"/>
      <path id="Trazado_898017" data-name="Trazado 898017" d="M1034.886,260.367a11.122,11.122,0,0,1,6.525,5.771,10.759,10.759,0,0,1,.447,8.442q-.1.282-.207.559t-.234.548q-.124.271-.26.536t-.286.522q-.149.258-.311.508t-.335.492q-.174.242-.359.475t-.382.457q-.2.224-.4.438t-.425.418q-.217.2-.444.4t-.463.374q-.236.182-.481.351t-.5.328q-.253.158-.513.3t-.527.277q-.246.12-.5.227t-.507.2q-.256.095-.517.177t-.525.151q-.264.069-.532.125t-.537.1q-.27.042-.542.072t-.545.045q-.273.016-.546.018t-.546-.009q-.273-.011-.545-.036t-.543-.063q-.27-.038-.539-.09t-.534-.117q-.265-.065-.527-.143t-.52-.169a11.725,11.725,0,0,1-4.912-3.585l-.956-1.225a10.34,10.34,0,0,1-3.649.9,10.454,10.454,0,0,1-2.831-.345,11.235,11.235,0,0,0-2.381-.73l-.269.38a11.787,11.787,0,0,1-2.886,3.017,9.982,9.982,0,0,1-7.556,1.777,10.681,10.681,0,0,1-6.978-4.556,11.7,11.7,0,0,1-1.925-8.98,1.215,1.215,0,0,1,.324.358,6.939,6.939,0,0,1,.3,1.18,12.019,12.019,0,0,0,1.424,3.458,9.171,9.171,0,0,0,1.951,2.02,10.58,10.58,0,0,0,7.65,2.137,11.366,11.366,0,0,0,7.537-4.653,10.683,10.683,0,0,0,9.4-.048,8.917,8.917,0,0,0,2.49,2.617,7.93,7.93,0,0,0,5.9.948q.215-.047.426-.1t.42-.126q.209-.068.413-.147t.406-.168q.2-.089.4-.188t.386-.208q.191-.109.375-.227t.363-.246q.179-.128.35-.264t.337-.282q.165-.145.322-.3t.306-.314q.149-.161.29-.329t.273-.344q.132-.175.255-.357t.236-.37a10.733,10.733,0,0,0,.814-9.286,21.046,21.046,0,0,1-1.317-2.909C1034.909,260.491,1034.9,260.429,1034.886,260.367Z" transform="translate(-772.873 -127.667)" fill="#0f743d"/>
      <path id="Trazado_898018" data-name="Trazado 898018" d="M314.1,1194.381c.888,0,1.792-.033,2.678.012l-.018.43c.127,1.47.005,2.946.1,4.415a11.778,11.778,0,0,1,6.97,6.571,10.857,10.857,0,0,1,.747,2.911,51.178,51.178,0,0,1,.1,5.689c0,4.182-.112,8.4.036,12.575-3.255.152-6.132,1.035-8.394,3.5a11.176,11.176,0,0,0-2.19,3.542c-.246-.9-.3-10.361-.009-10.99a4.305,4.305,0,0,0,.435-.086,2.453,2.453,0,0,0,1.678-1.149c1.013-1.833-1.562-6.82-2.135-8.886l-.039-.143a13.07,13.07,0,0,1-.087-2.92l.013-7.088a22.105,22.105,0,0,0-.072-3.628l-.986-.065a10.84,10.84,0,0,0-2.046.237l-.034-4.48.091-.355A10.484,10.484,0,0,1,314.1,1194.381Z" transform="translate(-155.175 -973.748)" fill="#326a9f"/>
      <path id="Trazado_898019" data-name="Trazado 898019" d="M314.1,1194.381c.888,0,1.792-.033,2.678.012l-.018.43a42.605,42.605,0,0,0,0,4.5,12.138,12.138,0,0,0-3.835-.262,10.829,10.829,0,0,0-2.046.237l-.034-4.48.091-.355A10.485,10.485,0,0,1,314.1,1194.381Z" transform="translate(-155.175 -973.748)" fill="#001840"/>
      <path id="Trazado_898020" data-name="Trazado 898020" d="M907.729,2216.352c7.625-.082,15.257-.015,22.883-.012l8.121,0c1.363,0,2.781-.078,4.14.014a6.3,6.3,0,0,1,2.272,4.742,5.182,5.182,0,0,1-1.4,3.78,7.286,7.286,0,0,1-.87.7H908a5.358,5.358,0,0,1-2.049-1.212,13.841,13.841,0,0,1-.186-6.209A3.367,3.367,0,0,1,907.729,2216.352Z" transform="translate(-693.863 -1899.622)" fill="#52c0e6"/>
      <path id="Trazado_898021" data-name="Trazado 898021" d="M935.166,2265.085c2.786-.154,5.626-.055,8.418-.057l15.064-.01h7.03a15.76,15.76,0,0,1,3.19.071l.121.226c-.014.308.043.387-.166.628H946.547l-7.131,0c-1.216,0-2.456.073-3.669.01-.347-.018-.539,0-.794-.233A.886.886,0,0,1,935.166,2265.085Z" transform="translate(-720.575 -1943.702)" fill="#3d85bd"/>
      <path id="Trazado_898022" data-name="Trazado 898022" d="M779.889,781.23q1.04-1.192,2.151-2.318.374-.389.758-.768t.776-.749q.393-.37.795-.729t.812-.709q.411-.349.83-.689t.847-.668q.427-.329.863-.647t.879-.625q.443-.307.894-.6t.909-.581q.458-.285.923-.558t.936-.535q.471-.262.949-.512t.962-.488q.484-.238.974-.464t.985-.44q.5-.214,1-.415t1.005-.39q.505-.189,1.015-.365t1.023-.34q.514-.163,1.032-.314t1.039-.289q.521-.138,1.046-.262t1.052-.237q.528-.112,1.058-.21t1.063-.184q.532-.085,1.067-.157t1.07-.131q.536-.059,1.073-.1t1.076-.078q.538-.032,1.077-.051t1.078-.024c.007,1.851-.028,3.713.038,5.562-2.074.2-4.159.316-6.208.715q-.419.08-.837.169t-.833.187q-.415.1-.829.205t-.824.223q-.411.116-.819.241t-.814.258q-.405.133-.808.276t-.8.293q-.4.151-.8.31t-.788.327q-.392.168-.781.344t-.774.361q-.385.185-.766.377t-.758.394q-.377.2-.749.41t-.74.426q-.368.217-.731.442t-.721.457q-.358.233-.711.473t-.7.488q-.347.248-.69.5t-.679.518q-.337.262-.668.532t-.656.546q-.325.277-.644.561t-.632.574q-.313.291-.619.588t-.607.6q-.3.3-.593.614t-.58.626q-.287.316-.567.639t-.553.651c-5.455,6.616-8.1,14.08-8.9,22.535a.949.949,0,0,0-.2.493c-.01.071-.012.142-.023.213-.044.295-.047.32-.272.5a42.446,42.446,0,0,1-5.145-.108,3.934,3.934,0,0,0-.053-.937c-.014-.06-.03-.12-.045-.18a25.261,25.261,0,0,1,.343-3.446q.155-1.1.362-2.2t.466-2.179q.259-1.084.569-2.154t.671-2.125q.361-1.054.772-2.09t.87-2.051q.459-1.015.967-2.008t1.061-1.959a53.848,53.848,0,0,1,4.112-5.863C779.433,781.689,779.663,781.461,779.889,781.23Z" transform="translate(-570.252 -585.372)" fill="#a9dbd7"/>
      <path id="Trazado_898023" data-name="Trazado 898023" d="M2028.17,1368.423q.132-.263.287-.513t.33-.486q.176-.236.371-.456t.409-.422q.214-.2.444-.385t.475-.346q.245-.163.5-.3t.528-.259a6.137,6.137,0,0,1,6.209.658,9.65,9.65,0,0,0,2.09,1.388c.052.019.106.035.159.052a2.5,2.5,0,0,0,1.457-.106l.964-.588a6.076,6.076,0,0,1,4.688-1.077c.157.436.454.573.841.8,1.737,1.008,2.821,3.268,3.308,5.138a13.926,13.926,0,0,1-1.327,10.51,10.2,10.2,0,0,1-6.366,4.979,14.853,14.853,0,0,1-7.664-.459l.094-1.094c.4-2.843-.936-6.338-2.6-8.6-.861-1.173-1.911-2.232-2.692-3.459C2029.694,1371.843,2029,1370.064,2028.17,1368.423Z" transform="translate(-1710.957 -1128.119)" fill="#e96d2f"/>
      <path id="Trazado_898024" data-name="Trazado 898024" d="M1723.358,1838.085c4.425-1.472,8.669-3.506,13.234-1.243q.257.128.508.27t.494.294q.243.153.479.318t.463.341q.227.177.445.364t.427.385q.209.2.408.405t.387.425q.189.218.366.443t.344.461q.167.234.321.477t.3.492q.142.25.273.506t.248.519q.118.262.222.531t.2.541c1.861,5.585-.461,12.649-2.36,17.991-1.905,4.326-4.4,9.4-9.067,11.242-4.335,1.714-7.193-1.33-11.255-.183.252-1.549,2.65-.936,3.73-1.143a3.764,3.764,0,0,0,1.767-.93c3.977-3.524,6.283-13.263,6.547-18.447.2-3.961-.415-8.377-3.21-11.409A7.794,7.794,0,0,0,1723.358,1838.085Z" transform="translate(-1431.586 -1554.931)" fill="#b91c26"/>
      <path id="Trazado_898025" data-name="Trazado 898025" d="M483.811,786.715a28.162,28.162,0,0,1,18.209,12.453,24.241,24.241,0,0,1,3.975,11.922c-2.983-.146-6.007-.058-8.994-.058l-14.416.024c.078-1.327.316-2.655.488-3.973q.385-2.992.6-6C483.981,796.316,483.791,791.491,483.811,786.715Z" transform="translate(-310.759 -604.503)" fill="#d95724"/>
      <path id="Trazado_898026" data-name="Trazado 898026" d="M531.379,1008.118a4.346,4.346,0,0,1,.583,0,1.607,1.607,0,0,1,1.122.6,1.435,1.435,0,0,1,.251,1.173,2.29,2.29,0,0,1-1.094,1.461,2.418,2.418,0,0,1-.454.015,1.606,1.606,0,0,1-1.05-.624,1.8,1.8,0,0,1,.642-2.63Z" transform="translate(-354.087 -805.071)" fill="#fff"/>
      <path id="Trazado_898027" data-name="Trazado 898027" d="M529.039,847.235a2.982,2.982,0,0,1,.767.077,1.719,1.719,0,0,1,1.029.794,1.459,1.459,0,0,1,.076,1.19,2.066,2.066,0,0,1-1.223,1.154,3.269,3.269,0,0,1-.531-.03,1.706,1.706,0,0,1-1.113-.743,1.531,1.531,0,0,1-.159-1.236A1.939,1.939,0,0,1,529.039,847.235Z" transform="translate(-351.741 -659.33)" fill="#fff"/>
      <path id="Trazado_898028" data-name="Trazado 898028" d="M617.187,938.778a2.6,2.6,0,0,1,.83.156,1.554,1.554,0,0,1,.865,2.126,2.133,2.133,0,0,1-1.389,1.143,3.783,3.783,0,0,1-.61-.1,1.673,1.673,0,0,1-1.019-.857,1.609,1.609,0,0,1-.01-1.295A2.154,2.154,0,0,1,617.187,938.778Z" transform="translate(-431.374 -742.262)" fill="#fff"/>
      <path id="Trazado_898029" data-name="Trazado 898029" d="M232.838,1199.81l.042,0,.034,4.48a10.829,10.829,0,0,1,2.046-.237l.986.065a22.1,22.1,0,0,1,.072,3.628l-.013,7.088a13.065,13.065,0,0,0,.087,2.92l.039.143c.572,2.066,3.148,7.053,2.135,8.886a2.453,2.453,0,0,1-1.678,1.149,4.376,4.376,0,0,1-.435.086c-.293.629-.237,10.085.009,10.99a17,17,0,0,0-.721,3.666l.041,1.076c-3.125-.119-6.277-.054-9.405-.059a3.177,3.177,0,0,1-1.14-1.814l-.059-.565c.059-2.138-.013-4.294-.017-6.434l-.012-12.855a66.662,66.662,0,0,1,.124-8.053,11.764,11.764,0,0,1,1.2-3.964,10.972,10.972,0,0,1,6.638-5.662C232.8,1202.841,232.748,1201.314,232.838,1199.81Z" transform="translate(-77.21 -978.739)" fill="#3d85bd"/>
      <path id="Trazado_898030" data-name="Trazado 898030" d="M317.676,1400.866q-.138-.012-.276-.028a3.314,3.314,0,0,1-2.277-1.16,1.6,1.6,0,0,1-.312-1.372c.158-.967,2.338-7.381,2.805-7.7l.039.143c.572,2.066,3.148,7.053,2.135,8.886a2.453,2.453,0,0,1-1.678,1.149A4.147,4.147,0,0,1,317.676,1400.866Z" transform="translate(-158.735 -1151.583)" fill="#fff"/>
      <path id="Trazado_898031" data-name="Trazado 898031" d="M1848.877,1368.237a9.026,9.026,0,0,1,.112-4.58,16,16,0,0,1,2.724-5.712,23.933,23.933,0,0,0,1.713-2.46c1.43-2.614,3.592-9.1,6.02-10.511a2.374,2.374,0,0,1,1.838-.264c2.077.572,3.313,3.81,4.224,5.53.828,1.641,1.524,3.419,2.509,4.968.78,1.227,1.831,2.287,2.692,3.459,1.661,2.263,3,5.757,2.6,8.6l-.095,1.094a9.694,9.694,0,0,1-2.556,4.795,14.841,14.841,0,0,1-1.353.864,5.509,5.509,0,0,1-1.969.631,41.576,41.576,0,0,1-5.455.109c-1.885.008-3.829.121-5.708-.011a8.482,8.482,0,0,1-1.9-.349,8.665,8.665,0,0,1-4.907-4.532C1849.167,1369.336,1849.028,1368.782,1848.877,1368.237Z" transform="translate(-1548.295 -1109.934)" fill="#99cd56"/>
      <path id="Trazado_898032" data-name="Trazado 898032" d="M1934.86,1376.72a1.97,1.97,0,0,1,.376.171,1.378,1.378,0,0,1,.516.812c.427,1.659-1.37,3.876-2.22,5.195l-.181.045-.286-.2a3.563,3.563,0,0,1-.16-2.088A6.079,6.079,0,0,1,1934.86,1376.72Z" transform="translate(-1624.58 -1139.008)" fill="#fff"/>
      <path id="Trazado_898033" data-name="Trazado 898033" d="M1851.36,1584.352c.882.168,2.11.989,3.259,1.2,2.7.5,5.707.087,8.445.055,1.978-.023,3.967.109,5.943.013,2.113-.1,4.662-.37,6.156-2.042a1.192,1.192,0,0,1,.464-.395l.163.2-.095,1.094a9.7,9.7,0,0,1-2.556,4.795,14.839,14.839,0,0,1-1.352.864,5.511,5.511,0,0,1-1.969.631,41.574,41.574,0,0,1-5.455.109c-1.885.008-3.829.121-5.708-.011a8.483,8.483,0,0,1-1.9-.349,8.664,8.664,0,0,1-4.907-4.532C1851.65,1585.452,1851.511,1584.9,1851.36,1584.352Z" transform="translate(-1550.778 -1326.05)" fill="#2db34f"/>
      <path id="Trazado_898034" data-name="Trazado 898034" d="M1445.662,2001.99a8.965,8.965,0,0,1,6.516,3.176c3.372,4.073,1.828,10.258,2.108,15.15-.023,2.288-.189,4.709.01,6.982a8.848,8.848,0,0,1-2.823,6.553,8.194,8.194,0,0,1-5.96,2.259q-.343-.012-.684-.05t-.678-.1q-.337-.065-.667-.157t-.653-.209q-.322-.118-.634-.26t-.612-.31q-.3-.167-.585-.357t-.556-.4a9.462,9.462,0,0,1-3.326-6.033,82.266,82.266,0,0,1-.1-8.269c-.016-2.781-.334-8.309.122-10.739q.053-.281.124-.558t.158-.55q.088-.272.192-.539t.225-.526q.12-.259.257-.511t.289-.494q.152-.243.319-.475t.347-.455C1440.8,2002.977,1443,2002.247,1445.662,2001.99Z" transform="translate(-1175.299 -1705.461)" fill="#10488f"/>
      <path id="Trazado_898035" data-name="Trazado 898035" d="M1546.35,2018.23a7.739,7.739,0,0,1,4.818,3.8c1.232,2.259,1.163,4.594,1.109,7.087l-3.965-.021q.053-.7.062-1.393t-.027-1.394q-.036-.7-.116-1.39t-.2-1.379q-.124-.686-.292-1.364t-.378-1.342q-.21-.665-.463-1.315T1546.35,2018.23Z" transform="translate(-1274.46 -1720.173)" fill="#b1afbb"/>
      <path id="Trazado_898036" data-name="Trazado 898036" d="M1454.887,2046.35a6.9,6.9,0,0,1-3.781-5.786c-.111-1.579.007-3.237.01-4.823.005-2.356-.082-4.751.045-7.1.007-.122.156-1.674.145-1.687-.171-.184-.289.045-.508-.3a17.49,17.49,0,0,1,.29-5.346q.062-.191.134-.378t.152-.371q.081-.184.17-.364t.188-.355q.1-.175.2-.345t.221-.334q.115-.164.238-.323t.253-.311q.13-.153.268-.3t.282-.285c.1-.093.2-.183.3-.271s.2-.173.309-.256.212-.163.321-.24.22-.152.333-.224.227-.141.343-.208.234-.13.353-.191a6.148,6.148,0,0,1,4.578-.55q.293.633.545,1.283t.462,1.315q.211.665.378,1.342t.292,1.364q.124.686.2,1.379t.116,1.39q.036.7.027,1.394t-.062,1.393l-9.309-.033v7.685c0,2.529-.225,5.306.474,7.759A16.328,16.328,0,0,0,1454.887,2046.35Z" transform="translate(-1187.84 -1717.945)" fill="#fff"/>
      <path id="Trazado_898037" data-name="Trazado 898037" d="M1467.931,2133.34l9.309.033,3.965.021q.015,4.295-.016,8.589a28.024,28.024,0,0,1-.275,6.324q-.056.236-.128.467t-.16.457q-.088.226-.19.445t-.22.431q-.118.212-.249.415t-.277.4q-.145.194-.3.377t-.328.356a7.678,7.678,0,0,1-5.161,2.161,5.531,5.531,0,0,1-3.462-.952,16.316,16.316,0,0,1-2.029-4.076c-.7-2.454-.473-5.23-.474-7.759Z" transform="translate(-1203.386 -1824.455)" fill="#3d85bd"/>
      <path id="Trazado_898038" data-name="Trazado 898038" d="M1454.317,425.489c-.027-1.819-.359-3.384,1.015-4.807.49-.507,1.4-1.665,2.127-1.648.917.021,1.992,1.1,2.552,1.781,1.227,1.483,1.1,2.822,1.088,4.63a3.956,3.956,0,0,1,2.878-.524,2.243,2.243,0,0,1,1.3,1.188c.905,1.79.028,4.864.042,6.878a4.669,4.669,0,0,1,3.055-.649,2.938,2.938,0,0,1,1.63,1.722c.7,2.668-1.184,10.585-2.568,12.8-1.176,1.88-3.574,2.963-5.675,3.425-1.241.273-2.68.218-3.868.608l-.03-.062-.543-.041-.036.091-.186-.044c-.772-.179-1.59-.211-2.373-.356-2.432-.45-5.385-1.423-6.777-3.611-1.306-2.053-3.287-10.119-2.745-12.587a2.654,2.654,0,0,1,1.1-1.683,2.9,2.9,0,0,1,2.3-.194,5.377,5.377,0,0,1,1.194.532c-.013-2.073-.968-5.883.612-7.445a2.247,2.247,0,0,1,1.682-.622A5.442,5.442,0,0,1,1454.317,425.489Z" transform="translate(-1182.748 -271.408)" fill="#269b55"/>
      <path id="Trazado_898039" data-name="Trazado 898039" d="M1507.555,540.538c.015-.053.03-.107.044-.161a15.624,15.624,0,0,0,.085-3.441l0-8.294a32.882,32.882,0,0,1,.027-3.986,1.212,1.212,0,0,1,.271-.722l.174.011-.118.063.177-.017c.666.916-.239,14.062.242,16.715a47.383,47.383,0,0,1,6.44-6.7c.268.075.2.05.341.256a87.527,87.527,0,0,1-6.834,7.1c-.053,1.475.017,3.036-.147,4.5l-.543-.041c-.066-1.464-.037-2.944-.044-4.409-1.252-.92-3.541-3.738-4.775-5a15.87,15.87,0,0,1-2.156-2.152c.1-.27.09-.268.339-.41A56.711,56.711,0,0,1,1507.555,540.538Z" transform="translate(-1233.141 -366.441)" fill="#126127"/>
      <path id="Trazado_898040" data-name="Trazado 898040" d="M198.513,808.454c.013-.9.025-1.8.128-2.7a26.793,26.793,0,0,1,9.7-17.04c5.483-4.281,11.342-5.406,18.122-4.552-.02,4.776.17,9.6-.142,14.367q-.213,3.009-.6,6c-.171,1.318-.409,2.646-.488,3.973l-.619,0c-1.183.074-2.371.041-3.556.03l-8.475-.027a32.7,32.7,0,0,1-3.348.017c-1.327-.114-2.687-.06-4.019-.062Z" transform="translate(-53.409 -601.947)" fill="#e96d2f"/>
      <path id="Trazado_898041" data-name="Trazado 898041" d="M438.2,1030.146a2.579,2.579,0,0,1,1.443-1.554,1.327,1.327,0,0,1,1.115.125,2.738,2.738,0,0,1,1,1.4C440.57,1030.19,439.382,1030.157,438.2,1030.146Z" transform="translate(-270.547 -823.565)" fill="#fff"/>
      <path id="Trazado_898042" data-name="Trazado 898042" d="M312.508,1027.2a2.132,2.132,0,0,1,.824-1.667,1.381,1.381,0,0,1,1.078-.217,1.8,1.8,0,0,1,1.16.9,3.785,3.785,0,0,1,.285.968A32.474,32.474,0,0,1,312.508,1027.2Z" transform="translate(-156.681 -820.633)" fill="#fff"/>
      <path id="Trazado_898043" data-name="Trazado 898043" d="M275.869,939.81a4.975,4.975,0,0,1,.683,0,1.624,1.624,0,0,1,1.065.681,1.438,1.438,0,0,1,.187,1.2,1.851,1.851,0,0,1-1.121,1.157,2.347,2.347,0,0,1-.363.006,1.571,1.571,0,0,1-1.194-.6,1.508,1.508,0,0,1-.239-1.248A1.864,1.864,0,0,1,275.869,939.81Z" transform="translate(-122.56 -743.186)" fill="#fff"/>
      <path id="Trazado_898044" data-name="Trazado 898044" d="M347.81,863.085a3.177,3.177,0,0,1,.663.094,1.655,1.655,0,0,1,1.022.827,1.328,1.328,0,0,1,.06.136,1.369,1.369,0,0,1,.045.141,1.348,1.348,0,0,1,.029.146,1.275,1.275,0,0,1,.013.148,1.364,1.364,0,0,1,0,.149,1.338,1.338,0,0,1-.02.147,1.36,1.36,0,0,1-.036.145,1.4,1.4,0,0,1-.051.139,1.942,1.942,0,0,1-1.164,1.024,2.6,2.6,0,0,1-.747-.1,1.642,1.642,0,0,1-.305-.139,1.639,1.639,0,0,1-.27-.2,1.6,1.6,0,0,1-.118-.12,1.648,1.648,0,0,1-.2-.272,1.636,1.636,0,0,1-.076-.15,1.431,1.431,0,0,1-.053-.138,1.453,1.453,0,0,1-.038-.143,1.471,1.471,0,0,1-.023-.146,1.442,1.442,0,0,1-.008-.148c0-.049,0-.1.007-.148s.012-.1.022-.146a1.475,1.475,0,0,1,.088-.282A1.812,1.812,0,0,1,347.81,863.085Z" transform="translate(-187.505 -673.689)" fill="#fff"/>
      <path id="Trazado_898045" data-name="Trazado 898045" d="M414.309,938.656a2.623,2.623,0,0,1,.808.13,1.711,1.711,0,0,1,.933.962,1.548,1.548,0,0,1,.052.156,1.591,1.591,0,0,1,.035.161,1.608,1.608,0,0,1,.018.164,1.559,1.559,0,0,1,0,.165,1.6,1.6,0,0,1-.017.164,1.625,1.625,0,0,1-.034.161,1.516,1.516,0,0,1-.051.157,1.543,1.543,0,0,1-.067.15,1.684,1.684,0,0,1-1.158.856,2.656,2.656,0,0,1-.592-.082,1.677,1.677,0,0,1-1-.795,1.568,1.568,0,0,1-.07-1.253A1.956,1.956,0,0,1,414.309,938.656Z" transform="translate(-247.785 -742.151)" fill="#fff"/>
      <path id="Trazado_898046" data-name="Trazado 898046" d="M437.086,800.79a2.625,2.625,0,0,1,.858.1,1.683,1.683,0,0,1,1,.877q.031.066.055.135t.04.14q.017.071.026.143t.011.145a1.441,1.441,0,0,1-.022.289,1.4,1.4,0,0,1-.08.279,1.879,1.879,0,0,1-1.129,1.032,4.708,4.708,0,0,1-.691-.026,1.709,1.709,0,0,1-1.072-.713,1.405,1.405,0,0,1-.189-1.167A2.054,2.054,0,0,1,437.086,800.79Z" transform="translate(-268.409 -617.254)" fill="#fff"/>
      <path id="Trazado_898047" data-name="Trazado 898047" d="M1788.627,415.994a13.605,13.605,0,0,1,6.9-3.829,13.817,13.817,0,0,1,10.887,2.453,14.526,14.526,0,0,1,4.8,6.765,25.548,25.548,0,0,1,.613,2.955,12.654,12.654,0,0,1-3.1,9.841,13.159,13.159,0,0,1-9.355,4.8q-.326.031-.654.046t-.655.013q-.328,0-.655-.019t-.653-.052q-.326-.034-.65-.085t-.645-.117q-.321-.067-.638-.149t-.63-.181q-.313-.1-.62-.212t-.609-.243q-.3-.129-.6-.273t-.581-.3q-.287-.159-.566-.331t-.548-.359q-.27-.186-.53-.386t-.51-.412q-.261-.226-.51-.464t-.487-.489q-.237-.25-.462-.512t-.436-.534q-.211-.272-.409-.555t-.381-.575q-.184-.292-.353-.593t-.323-.609q-.154-.309-.293-.624t-.261-.638q-.123-.322-.23-.65t-.2-.661q-.091-.333-.165-.67t-.131-.677q-.057-.34-.1-.683t-.064-.687A14.058,14.058,0,0,1,1788.627,415.994Z" transform="translate(-1490.488 -264.935)" fill="url(#linear-gradient-6)"/>
      <path id="Trazado_898048" data-name="Trazado 898048" d="M1901.688,566.295a.773.773,0,0,1,.68-.131,1.2,1.2,0,0,1,.281.443l-.013.13c-.138,1.56.258,9.465-.3,10.186a3.39,3.39,0,0,1-2.123.017,8.889,8.889,0,0,0,1.05-.934,1.963,1.963,0,0,0,.427-1.047A59.376,59.376,0,0,0,1901.688,566.295Z" transform="translate(-1595.035 -404.674)" fill="#d95724"/>
      <path id="Trazado_898049" data-name="Trazado 898049" d="M1848.2,567.816a59.429,59.429,0,0,1,0,8.663,1.962,1.962,0,0,1-.427,1.047,8.894,8.894,0,0,1-1.05.934,9.6,9.6,0,0,1-5.554-3.051,19.983,19.983,0,0,1,3.1-3.436C1845.486,570.529,1846.9,569.188,1848.2,567.816Z" transform="translate(-1541.547 -406.195)" fill="#e96d2f"/>
      <path id="Trazado_898050" data-name="Trazado 898050" d="M1928.49,437.251c.283-2.54-.4-7,.2-9.227a.97.97,0,0,1,.815-.259,9.537,9.537,0,0,1,6.679,3.14l-.768.95c-2.145,2.513-4.53,5-6.889,7.313Z" transform="translate(-1620.601 -279.317)" fill="#e96d2f"/>
      <path id="Trazado_898051" data-name="Trazado 898051" d="M1845.592,433.9c-.285-.723-1.412-1.36-1.887-2.026a1,1,0,0,1-.182-.839,9.716,9.716,0,0,1,3.942-2.683c.978-.4,2.559-.976,3.575-.545.507.589.22,4.138.249,5.174-.043,1.1.217,5.23-.179,5.859C1850.011,438.82,1846.638,434.822,1845.592,433.9Z" transform="translate(-1543.658 -279.22)" fill="#e96d2f"/>
      <path id="Trazado_898052" data-name="Trazado 898052" d="M1937.18,558.2q3.053-.036,6.1.014l4.334.014a2.186,2.186,0,0,1,.792.794c.184,1.817-1.156,4.764-2.278,6.167-.281.351-.752.884-1.246.882a1.5,1.5,0,0,1-.888-.367l-4.451-4.462a17.6,17.6,0,0,1-2.219-2.322A1.085,1.085,0,0,1,1937.18,558.2Z" transform="translate(-1628.526 -397.469)" fill="#d95724"/>
      <path id="Trazado_898053" data-name="Trazado 898053" d="M1942.855,463.311a11.046,11.046,0,0,1,4.079,6.889,1.664,1.664,0,0,1-.3,1.276.966.966,0,0,1-.742.379c-.083.005-.167,0-.25.006-.1,0-.2.013-.3.019a8.563,8.563,0,0,1-1.248.118c.387.08,1.5-.047,1.695.129-1.3.17-2.62.043-3.929.138q-3.052-.05-6.1-.014l.5-.19-.167-.127a5.319,5.319,0,0,1-.455-.3.822.822,0,0,1-.025-.219c.056-.349,5.938-6.063,6.717-7.214C1942.515,463.907,1942.689,463.617,1942.855,463.311Z" transform="translate(-1627.099 -311.52)" fill="#d95724"/>
      <path id="Trazado_898054" data-name="Trazado 898054" d="M1937.521,553.751a22.984,22.984,0,0,1,3.895-.088c1.784.008,3.577-.019,5.359.034a8.57,8.57,0,0,1-1.248.118c.387.08,1.5-.047,1.695.129-1.3.169-2.62.042-3.929.138q-3.053-.05-6.1-.014l.5-.19Z" transform="translate(-1628.533 -393.338)" fill="#f1baa2"/>
      <path id="Trazado_898055" data-name="Trazado 898055" d="M1821,471.238c.307,0,.169-.043.414.139-.779,1.151-6.66,6.866-6.717,7.214a.821.821,0,0,0,.025.219,5.3,5.3,0,0,0,.455.3l.167.127-.5.19a1.08,1.08,0,0,0,.147.719,17.6,17.6,0,0,0,2.22,2.322l4.451,4.462-.375.233a1.127,1.127,0,0,1,.47.717,1.448,1.448,0,0,1-.586,1.111,9.976,9.976,0,0,1-6.078,2.253.974.974,0,0,1-.753-.389,3.857,3.857,0,0,1-.381-.762c-.225-.212-.091-8.325-.156-9.464a1.2,1.2,0,0,0-.281-.443.773.773,0,0,0-.68.131c-1.3,1.371-2.714,2.713-3.934,4.158l-.391-.069c-1.025.986-1.875,2.375-3.137,3.058a11.957,11.957,0,0,1-3.2-6.077,1.824,1.824,0,0,1,.247-1.457,1.713,1.713,0,0,1,1.184-.468l.161-.377a1.712,1.712,0,0,1-1.193-.422,1.881,1.881,0,0,1-.286-1.468,9.721,9.721,0,0,1,3.054-5.9,22.651,22.651,0,0,1,2.9,2.885,3.551,3.551,0,0,1-.126-.8c1.046.919,4.419,4.918,5.516,4.94.4-.629.136-4.759.179-5.859.576.947.169,3.034.26,4.171l.034,1.918C1816.467,476.235,1818.851,473.751,1821,471.238Z" transform="translate(-1506.185 -318.699)" fill="#d95724"/>
      <path id="Trazado_898056" data-name="Trazado 898056" d="M1835.2,471.238c.307,0,.169-.043.414.139-.779,1.151-6.66,6.866-6.717,7.214a.821.821,0,0,0,.025.219,5.3,5.3,0,0,0,.455.3l.167.127-.5.19a1.08,1.08,0,0,0,.147.719,17.6,17.6,0,0,0,2.22,2.322l4.451,4.462-.375.233c-.716-.709-6.757-7.054-6.956-7.107-.371.365-.3,1.227-.3,1.721-.014,1.489.253,7.355-.071,8.316-.225-.212-.091-8.325-.156-9.464a1.206,1.206,0,0,0-.281-.443.773.773,0,0,0-.68.131c-1.3,1.371-2.714,2.713-3.934,4.158l-.391-.069c1.249-1.386,2.744-2.63,3.919-4.069.2-.242.344-.384.319-.709-.474-.3-7.86-.139-9.14-.166l.161-.377c3.161-.094,6.326.006,9.488-.073a54.337,54.337,0,0,1-5.016-4.83,3.558,3.558,0,0,1-.125-.8c1.046.919,4.419,4.918,5.516,4.94.4-.629.136-4.759.179-5.859.576.947.169,3.034.26,4.171l.034,1.918C1830.671,476.235,1833.055,473.751,1835.2,471.238Z" transform="translate(-1520.389 -318.699)" fill="#f1baa2"/>
      <path id="Trazado_898057" data-name="Trazado 898057" d="M1806.568,471.932a22.65,22.65,0,0,1,2.9,2.885,54.318,54.318,0,0,0,5.016,4.83c-3.162.079-6.327-.022-9.488.073a1.712,1.712,0,0,1-1.193-.422,1.88,1.88,0,0,1-.286-1.468A9.716,9.716,0,0,1,1806.568,471.932Z" transform="translate(-1507.405 -319.33)" fill="#e96d2f"/>
      <path id="Trazado_898058" data-name="Trazado 898058" d="M1803.605,558.53c1.28.028,8.666-.137,9.14.166.026.325-.121.466-.319.709-1.175,1.439-2.67,2.683-3.919,4.069-1.025.986-1.875,2.375-3.137,3.058a11.957,11.957,0,0,1-3.2-6.077,1.824,1.824,0,0,1,.247-1.457A1.713,1.713,0,0,1,1803.605,558.53Z" transform="translate(-1506.18 -397.764)" fill="#e96d2f"/>
      <path id="Trazado_898059" data-name="Trazado 898059" d="M1526.148,1850.979a21.249,21.249,0,0,1-.025-8.136,9.7,9.7,0,0,1,4.364-6.1c5.418-3.3,10.122-.089,15.465,1.191a5.017,5.017,0,0,0,1.079-.2l.527-.135a7.794,7.794,0,0,1,5.268,2.651c2.8,3.032,3.412,7.448,3.21,11.409-.264,5.184-2.571,14.923-6.547,18.447a3.764,3.764,0,0,1-1.767.93c-1.081.207-3.479-.406-3.73,1.143-.7.259-1.4.445-2.121.635q-.415-.009-.829-.028c-2.688-.123-4.513-1.581-6.268-3.485-.28-4.892,1.264-11.077-2.108-15.15A8.961,8.961,0,0,0,1526.148,1850.979Z" transform="translate(-1255.786 -1554.449)" fill="#e3333a"/>
      <path id="Trazado_898060" data-name="Trazado 898060" d="M1565.551,1871.713a4.162,4.162,0,0,1,1.349.135,2.332,2.332,0,0,1,1.536.995,1.015,1.015,0,0,1,.042.122c.188.637-.3,1.164-.694,1.609-2.437,2.744-1.777,3.066-3.1,6a2.7,2.7,0,0,1-1.813,1.694,2.984,2.984,0,0,1-2.019-.324,2.715,2.715,0,0,1-1.1-1.96,8.337,8.337,0,0,1,1.465-5.868A6.147,6.147,0,0,1,1565.551,1871.713Z" transform="translate(-1286.538 -1587.432)" fill="#f2767d"/>
      <path id="Trazado_898061" data-name="Trazado 898061" d="M565.093,1722.025c-.048-.658-.041-1.354-.023-2.015a21.8,21.8,0,0,1,7.132-15.222c6.078-5.674,12.368-6.439,20.285-6.178l.014,28.617-.019,8.512c-.009,1.717-.1,3.482.027,5.192l0,.425a31.073,31.073,0,0,1-17.951-5.232C569.229,1732.5,566.312,1728.334,565.093,1722.025Z" transform="translate(-385.473 -1430.579)" fill="#facd7b"/>
      <path id="Trazado_898062" data-name="Trazado 898062" d="M794.646,2064.159a2.931,2.931,0,0,1,.762.019,1.7,1.7,0,0,1,1.072.722,1.817,1.817,0,0,1,.2,1.482,2.121,2.121,0,0,1-1.114,1.3,2.955,2.955,0,0,1-.5-.014,1.817,1.817,0,0,1-1.265-.716,1.723,1.723,0,0,1-.267-1.416A2.11,2.11,0,0,1,794.646,2064.159Z" transform="translate(-592.416 -1761.768)" fill="#eb9948"/>
      <path id="Trazado_898063" data-name="Trazado 898063" d="M639.244,1845.8a2.921,2.921,0,0,1,.74.13,1.615,1.615,0,0,1,1.022,2.21,2.083,2.083,0,0,1-1.288,1.166,3.632,3.632,0,0,1-1.551-.608,4.21,4.21,0,0,1-.366-.76,1.628,1.628,0,0,1,.125-1.289A2,2,0,0,1,639.244,1845.8Z" transform="translate(-451.305 -1563.963)" fill="#eb9948"/>
      <path id="Trazado_898064" data-name="Trazado 898064" d="M736.405,1787.39a3.025,3.025,0,0,1,.806.171,1.7,1.7,0,0,1,.935.933,1.635,1.635,0,0,1-.048,1.265,2.229,2.229,0,0,1-1.391,1.145,2.729,2.729,0,0,1-.9-.2,1.857,1.857,0,0,1-.973-1.121,1.578,1.578,0,0,1-.062-.317,1.577,1.577,0,0,1-.006-.162,1.564,1.564,0,0,1,.038-.321,1.511,1.511,0,0,1,.044-.156q.026-.077.059-.151a1.6,1.6,0,0,1,.075-.144A2.135,2.135,0,0,1,736.405,1787.39Z" transform="translate(-539.214 -1511.048)" fill="#eb9948"/>
      <path id="Trazado_898065" data-name="Trazado 898065" d="M741.562,1970.193a3.341,3.341,0,0,1,.984.03,1.827,1.827,0,0,1,1.092.8,1.545,1.545,0,0,1,.078.142,1.516,1.516,0,0,1,.063.15,1.549,1.549,0,0,1,.077.315,1.6,1.6,0,0,1,.013.162,1.612,1.612,0,0,1,0,.162,1.548,1.548,0,0,1-.021.161,1.6,1.6,0,0,1-.037.158,2.14,2.14,0,0,1-1.235,1.295,2.18,2.18,0,0,1-.834-.008,1.788,1.788,0,0,1-1.144-.786,1.746,1.746,0,0,1-.163-1.323A2.052,2.052,0,0,1,741.562,1970.193Z" transform="translate(-544.295 -1676.636)" fill="#eb9948"/>
      <path id="Trazado_898066" data-name="Trazado 898066" d="M675.946,2019.935a2.845,2.845,0,0,1,.932-.044,1.986,1.986,0,0,1,1.171.781q.047.066.087.136t.073.144a1.569,1.569,0,0,1,.058.151q.025.077.043.156t.027.159q.009.08.011.161t-.005.161q-.007.081-.022.16a2.136,2.136,0,0,1-1.084,1.375,2.882,2.882,0,0,1-.777.084,1.566,1.566,0,0,1-.167-.011q-.083-.01-.165-.029a1.613,1.613,0,0,1-.161-.046,1.573,1.573,0,0,1-.3-.142,1.54,1.54,0,0,1-.139-.094,1.584,1.584,0,0,1-.245-.229,1.715,1.715,0,0,1-.361-1.263A2.218,2.218,0,0,1,675.946,2019.935Z" transform="translate(-484.992 -1721.656)" fill="#eb9948"/>
      <path id="Trazado_898067" data-name="Trazado 898067" d="M746.23,1889.7a2.923,2.923,0,0,1,.851.167,1.9,1.9,0,0,1,1.055,1.081,1.574,1.574,0,0,1,.049.156,1.542,1.542,0,0,1,.033.16c.008.054.014.108.017.163s0,.109,0,.164a1.627,1.627,0,0,1-.1.479c-.019.051-.041.1-.065.15a1.887,1.887,0,0,1-1.211.947,2.627,2.627,0,0,1-1.08-.124,1.768,1.768,0,0,1-.95-.941,1.605,1.605,0,0,1-.055-.157c-.016-.053-.029-.107-.039-.162a1.621,1.621,0,0,1-.022-.165q-.007-.083-.005-.166a1.625,1.625,0,0,1,.012-.166,1.661,1.661,0,0,1,.029-.164,1.6,1.6,0,0,1,.046-.16,1.553,1.553,0,0,1,.062-.155A2.1,2.1,0,0,1,746.23,1889.7Z" transform="translate(-548.226 -1603.734)" fill="#eb9948"/>
      <path id="Trazado_898068" data-name="Trazado 898068" d="M803.77,1744.255a2.628,2.628,0,0,1,.92.024,1.752,1.752,0,0,1,1.061.844,1.778,1.778,0,0,1,.076.166,1.752,1.752,0,0,1,.1.35,1.71,1.71,0,0,1,.021.181,1.743,1.743,0,0,1,0,.182,1.773,1.773,0,0,1-.017.181,1.747,1.747,0,0,1-.09.352,2.053,2.053,0,0,1-1.275,1.207,2.335,2.335,0,0,1-.542.024,1.738,1.738,0,0,1-1.18-.636,1.834,1.834,0,0,1-.255-1.489A2.151,2.151,0,0,1,803.77,1744.255Z" transform="translate(-600.616 -1471.944)" fill="#eb9948"/>
      <path id="Trazado_898069" data-name="Trazado 898069" d="M633.037,1939.74q.218.017.433.048a1.836,1.836,0,0,1,1.357.767,1.564,1.564,0,0,1,.081.137,1.493,1.493,0,0,1,.067.145,1.546,1.546,0,0,1,.088.306,1.537,1.537,0,0,1,.02.158c0,.053.005.106,0,.159a1.519,1.519,0,0,1-.013.159,1.491,1.491,0,0,1-.029.157,2.515,2.515,0,0,1-1.292,1.529,2.843,2.843,0,0,1-.9-.03,1.737,1.737,0,0,1-1.036-.8,1.758,1.758,0,0,1-.128-1.407A2.181,2.181,0,0,1,633.037,1939.74Z" transform="translate(-445.759 -1649.066)" fill="#eb9948"/>
      <path id="Trazado_898070" data-name="Trazado 898070" d="M1005.909,126.33a16.033,16.033,0,0,1,5.669-5.115,15.649,15.649,0,0,1,11.655-1.118,16.546,16.546,0,0,1,7.61,4.674,16.854,16.854,0,0,1,3.612,7.311,14.757,14.757,0,0,0,2.422.62c.012.062.022.124.035.186a21.042,21.042,0,0,0,1.317,2.909,10.732,10.732,0,0,1-.814,9.286q-.113.188-.236.37t-.255.357q-.132.175-.273.344t-.29.33q-.149.161-.306.314t-.322.3q-.164.145-.336.282t-.351.264q-.178.128-.363.246t-.375.227q-.191.109-.387.208t-.4.188q-.2.089-.406.168t-.413.147q-.209.068-.421.126t-.426.1a7.93,7.93,0,0,1-5.9-.948,8.918,8.918,0,0,1-2.49-2.617,10.683,10.683,0,0,1-9.4.048,11.365,11.365,0,0,1-7.537,4.653,10.58,10.58,0,0,1-7.65-2.137,9.164,9.164,0,0,1-1.951-2.02,12.023,12.023,0,0,1-1.424-3.458,6.917,6.917,0,0,0-.3-1.18,1.216,1.216,0,0,0-.324-.358q.106-.528.263-1.044t.362-1.014q.205-.5.457-.975t.549-.926a10.875,10.875,0,0,1,7.209-4.653A16.149,16.149,0,0,1,1005.909,126.33Z" transform="translate(-774.864)" fill="#269b55"/>
      <path id="Trazado_898071" data-name="Trazado 898071" d="M1296.164,126.372a16.546,16.546,0,0,1,7.61,4.674,16.852,16.852,0,0,1,3.612,7.311c-.652.036-1.325-.073-1.98-.081a13.641,13.641,0,0,0-4.221.8c.12-4.207-.6-7.465-3.386-10.772-.512-.607-1.107-1.127-1.649-1.706Z" transform="translate(-1047.795 -6.276)" fill="#0f743d"/>
      <path id="Trazado_898072" data-name="Trazado 898072" d="M1252.215,826.154q.806.043,1.61.118t1.6.183q.8.108,1.6.247t1.584.311q.789.171,1.57.374t1.553.437q.773.234,1.535.5t1.514.56q.751.3,1.49.621t1.464.68q.725.355,1.435.738t1.4.8q.694.412,1.371.851t1.336.906q.659.466,1.3.959t1.259,1.01c2.054,1.692,3.85,3.684,5.9,5.372l.408.394-.462.442c1,2.317.654,5.438.612,7.923a3.787,3.787,0,0,1,2.594,1.27,4.874,4.874,0,0,1,.942,3.664,5.8,5.8,0,0,1-2.339,3.894,5.684,5.684,0,0,1-2.676,1.069c-.274,1.868-.73,3.69-1.05,5.547-6.382-.165-12.793-.09-19.179-.132q-2.693-.007-5.386-.069c-.882-.012-1.777.059-2.656-.021a.821.821,0,0,1-.449-.161l-.045-.273c.174-10.333-.008-20.686.048-31.022A61.894,61.894,0,0,0,1252.215,826.154Z" transform="translate(-1007.844 -640.232)" fill="#fff"/>
      <path id="Trazado_898073" data-name="Trazado 898073" d="M1364.17,916.848l.391.241.021-.05.192.145c.722-1.59.718-3.346,2.621-4.1a3.935,3.935,0,0,1,1.688-.189,4.706,4.706,0,0,0-3.095,2.42,5.3,5.3,0,0,0-.53,1.84l.126.488a2.505,2.505,0,0,1-.295.324.665.665,0,0,1-.611.189A2.981,2.981,0,0,1,1364.17,916.848Z" transform="translate(-1109.417 -718.807)" fill="#126127"/>
      <path id="Trazado_898074" data-name="Trazado 898074" d="M1363.575,952.117a2.93,2.93,0,0,1,2.372-.577,4.2,4.2,0,0,1,2.543,1.973A5.776,5.776,0,0,1,1369,958a5.492,5.492,0,0,1-2.312,3.44,5.73,5.73,0,0,1-4.1.358c-.166-.029-.324-.063-.486-.108,0-.057-.026-.119,0-.172.114-.254.87-.66,1.118-.885a5.9,5.9,0,0,0,1.014-1.237,6.317,6.317,0,0,0,.93-4.762,3.275,3.275,0,0,0-1.462-2.025Z" transform="translate(-1107.533 -753.764)" fill="#b91c26"/>
      <path id="Trazado_898075" data-name="Trazado 898075" d="M1312.719,961.075a4.739,4.739,0,0,1-2.8-.27,5.1,5.1,0,0,1-2.483-3.019,6.074,6.074,0,0,1,.144-4.631,4.49,4.49,0,0,1,2.525-2.367,3.132,3.132,0,0,1,2.317.3,2.984,2.984,0,0,0,.508,1.312.665.665,0,0,0,.611-.19,2.5,2.5,0,0,0,.295-.324,3.275,3.275,0,0,1,1.462,2.025,6.317,6.317,0,0,1-.93,4.762,5.894,5.894,0,0,1-1.014,1.237c-.248.225-1,.631-1.118.885-.024.052,0,.115,0,.172C1312.4,961.012,1312.553,961.046,1312.719,961.075Z" transform="translate(-1057.663 -753.045)" fill="#e3333a"/>
      <path id="Trazado_898076" data-name="Trazado 898076" d="M1319.191,978.729c.066,0,.132,0,.2,0a1.136,1.136,0,0,1,.879.418,3.074,3.074,0,0,1,.427,2.305,2.88,2.88,0,0,1-1.16,2.223,2.254,2.254,0,0,1-.889-.628,3.353,3.353,0,0,1-.6-2.644A2.291,2.291,0,0,1,1319.191,978.729Z" transform="translate(-1067.579 -778.455)" fill="#f2767d"/>
      <path id="Trazado_898077" data-name="Trazado 898077" d="M1252.05,1013.623c4.552-3.132,9.374-5.854,13.929-8.995a97.753,97.753,0,0,0,15.7-13.717c1,2.317.654,5.438.611,7.923a3.787,3.787,0,0,1,2.594,1.27,4.874,4.874,0,0,1,.942,3.664,5.8,5.8,0,0,1-2.339,3.894,5.683,5.683,0,0,1-2.676,1.069c-.274,1.868-.73,3.69-1.05,5.547-6.382-.165-12.793-.09-19.179-.132q-2.693-.007-5.386-.069c-.882-.012-1.777.059-2.656-.021a.82.82,0,0,1-.449-.161Z" transform="translate(-1007.844 -789.491)" fill="#f7aa70"/>
      <path id="Trazado_898078" data-name="Trazado 898078" d="M1497.509,1060.674a2.146,2.146,0,0,1,.96-.915c.208.131.207.146.25.381a5.074,5.074,0,0,1,0,1.06l.1.006a3.787,3.787,0,0,1,2.594,1.27,4.874,4.874,0,0,1,.942,3.664,5.8,5.8,0,0,1-2.339,3.895,5.686,5.686,0,0,1-2.676,1.069,11.33,11.33,0,0,1-2.533.086,2.847,2.847,0,0,1-2.105-1.305,6.9,6.9,0,0,1-1.637-4.063,4.721,4.721,0,0,1,1.239-3.527c1.118-1.146,1.568-.953,2.968-.981l.157,0a4.656,4.656,0,0,1,1.126.886,3.544,3.544,0,0,1,.595-1.559Z" transform="translate(-1224.374 -851.862)" fill="#e3333a"/>
      <path id="Trazado_898079" data-name="Trazado 898079" d="M1500.643,1098a1.144,1.144,0,0,1,.808.407,2.981,2.981,0,0,1,.466,2.073,2.609,2.609,0,0,1-.955,2.115,3.043,3.043,0,0,1-.581-.406,2.929,2.929,0,0,1-.75-2.123A2.729,2.729,0,0,1,1500.643,1098Z" transform="translate(-1232.133 -886.506)" fill="#f2767d"/>
      <path id="Trazado_898080" data-name="Trazado 898080" d="M1513.337,1060.674a2.146,2.146,0,0,1,.96-.915c.208.131.207.146.25.381a5.083,5.083,0,0,1,0,1.06l.1.006a3.787,3.787,0,0,1,2.594,1.27,4.874,4.874,0,0,1,.942,3.664,5.8,5.8,0,0,1-2.339,3.895,5.686,5.686,0,0,1-2.676,1.069,11.329,11.329,0,0,1-2.533.086,2.848,2.848,0,0,1-2.106-1.305c1.6-.213,2.36.439,4.225-.327q.118-.049.232-.1t.227-.116q.112-.061.221-.127t.214-.137q.105-.071.207-.148t.2-.158q.1-.081.192-.167t.184-.177q.089-.091.174-.185t.165-.194q.08-.1.156-.2t.145-.209q.07-.106.135-.216t.124-.222c.04-.075.077-.151.113-.228s.069-.155.1-.234a4.8,4.8,0,0,0-.078-3.609,1.726,1.726,0,0,0-1.027-1.041,1.545,1.545,0,0,0-1.139.227,1.436,1.436,0,0,1-1.088.243,1.278,1.278,0,0,1-.831-.541c-.211-.316-.188-.346-.125-.7a4.655,4.655,0,0,1,1.126.886,3.544,3.544,0,0,1,.595-1.559Z" transform="translate(-1240.203 -851.862)" fill="#b61f4f"/>
      <path id="Trazado_898081" data-name="Trazado 898081" d="M1556.255,1060.674a2.146,2.146,0,0,1,.96-.915c.208.131.207.146.25.381a5.091,5.091,0,0,1,0,1.06,9.679,9.679,0,0,0-1.559.651Z" transform="translate(-1283.12 -851.862)" fill="#f1baa2"/>
      <path id="Trazado_898082" data-name="Trazado 898082" d="M1843.3,766.85a5.336,5.336,0,0,1-.084-.693,22.327,22.327,0,0,1,5.825-15.717q.183-.2.371-.395t.381-.386q.193-.19.39-.376t.4-.367q.2-.181.408-.357t.417-.346q.211-.171.425-.336t.434-.326q.219-.16.441-.315t.449-.3q.227-.149.456-.293t.463-.281q.233-.138.47-.27t.477-.259q.24-.126.483-.247t.489-.235q.246-.114.494-.223t.5-.21q.251-.1.5-.2t.509-.186q.256-.09.514-.173t.518-.16q.26-.077.521-.147t.525-.135q.263-.064.528-.122t.531-.109q.266-.051.533-.1t.536-.082q.268-.038.538-.069t.539-.056q.27-.025.541-.043t.541-.029c6.587-.241,11.845,2.374,16.549,6.785a21.563,21.563,0,0,1,4.937,8.951,1.159,1.159,0,0,0-.073.122c-.286.648-.138,4.547-.242,5.627a19.154,19.154,0,0,1-.948,4.042,22.267,22.267,0,0,1-11.362,13.276,19.137,19.137,0,0,1-15.159.782,23.4,23.4,0,0,1-13-12.261c-.544-1.156-1.69-3.639-1.656-4.882l-.043-.056Z" transform="translate(-1543.382 -565.167)" fill="#916bae"/>
      <path id="Trazado_898083" data-name="Trazado 898083" d="M1918.442,796.337a17,17,0,0,1,11.4,4.216q.293.264.572.541t.546.568q.266.291.517.594t.488.618q.237.315.458.641t.427.663q.205.336.394.682t.361.7q.172.355.326.717t.291.732q.137.369.256.745t.219.757q.1.381.183.766t.145.774q.064.389.108.78t.07.785q.02.4.02.805t-.02.805q-.02.4-.06.8t-.1.8q-.059.4-.138.794t-.177.786q-.1.391-.215.776t-.253.765q-.136.379-.29.751t-.327.736q-.172.364-.362.719t-.4.7q-.207.345-.431.68t-.464.658q-.24.323-.5.635t-.527.61a15.891,15.891,0,0,1-11.248,5.151q-.379.016-.76.013t-.76-.023q-.379-.02-.757-.059t-.754-.094q-.376-.056-.749-.13t-.741-.165q-.369-.091-.733-.2t-.723-.234q-.359-.125-.711-.268t-.7-.3q-.345-.158-.683-.333t-.666-.365q-.329-.19-.648-.4t-.629-.426q-.309-.221-.608-.455t-.586-.483q-.307-.259-.6-.532t-.573-.562q-.28-.288-.544-.59t-.514-.617q-.249-.315-.482-.642t-.449-.666q-.216-.338-.415-.688t-.379-.708q-.181-.359-.343-.726t-.306-.742q-.144-.375-.269-.757t-.229-.77q-.105-.387-.191-.78t-.151-.789q-.066-.4-.111-.8t-.071-.8a15.847,15.847,0,0,1,3.941-11.631A16.714,16.714,0,0,1,1918.442,796.337Z" transform="translate(-1597.424 -613.212)" fill="#fff"/>
      <path id="Trazado_898084" data-name="Trazado 898084" d="M2080.414,927.1c-.265.8-3.056,3.359-3.834,3.889l-1.1-.565C2077.109,929.3,2078.729,928.144,2080.414,927.1Z" transform="translate(-1753.813 -731.681)" fill="#916bae"/>
      <path id="Trazado_898085" data-name="Trazado 898085" d="M2075.507,836.146c.083,0,.166.008.249.017,2.417.252,5.919,1.6,7.43,3.606a1.252,1.252,0,0,1,.291,1.072c-.288,1.049-3.253,2.734-4.251,3.407q-2.417,1.608-4.754,3.331c0-1.694-.22-9.633.047-10.577C2074.658,836.509,2075.088,836.365,2075.507,836.146Z" transform="translate(-1752.825 -649.284)" fill="#916bae"/>
      <path id="Trazado_898086" data-name="Trazado 898086" d="M1978.6,837.514a1.721,1.721,0,0,1,1.38.267c.389.653.2,9.909.2,11.25-1.642-.835-3.206-1.885-4.776-2.85-1.164-.723-2.368-1.385-3.525-2.119-.458-.291-1.085-.61-1.166-1.2a1.853,1.853,0,0,1,.442-1.288A12.228,12.228,0,0,1,1978.6,837.514Z" transform="translate(-1658.9 -650.498)" fill="#916bae"/>
      <path id="Trazado_898087" data-name="Trazado 898087" d="M1978.323,966.676c.133.034.054,0,.179.188.113,2,.021,4.052.026,6.061a29.965,29.965,0,0,1-.121,5.759,1.086,1.086,0,0,1-.693.414c-1.487.3-5.046-1.417-6.3-2.242-.25-.2-.5-.4-.74-.616a4.544,4.544,0,0,1-1.827-2.818C1969.191,972.638,1977.164,967.416,1978.323,966.676Z" transform="translate(-1657.217 -767.535)" fill="#623b7f"/>
      <path id="Trazado_898088" data-name="Trazado 898088" d="M1943.1,904.106a20.493,20.493,0,0,1,3.8,2.135c1.861,1.153,3.71,2.338,5.623,3.4-1.625,1.217-3.377,2.313-5.059,3.452-.783.537-3.8,2.922-4.576,2.786a1.524,1.524,0,0,1-.992-.8,11.3,11.3,0,0,1-.893-7.454A5.536,5.536,0,0,1,1943.1,904.106Z" transform="translate(-1631.755 -710.851)" fill="#916bae"/>
      <path id="Trazado_898089" data-name="Trazado 898089" d="M2075.247,967.741a105.767,105.767,0,0,1,9.681,5.873,1.041,1.041,0,0,1,.29.843c-.062,1.313-1.477,2.391-2.388,3.181a11.9,11.9,0,0,1-6,2.427,1.61,1.61,0,0,1-1.257-.353.981.981,0,0,1-.284-.679,33.526,33.526,0,0,1-.039-3.718C2075.259,972.791,2075.3,970.264,2075.247,967.741Z" transform="translate(-1753.577 -768.5)" fill="#623b7f"/>
      <path id="Trazado_898090" data-name="Trazado 898090" d="M2091.032,894.9c1.554-1.082,3.045-2.316,4.626-3.344a9.108,9.108,0,0,1,2.773,6.385c.09,1.573-.066,4.466-1.149,5.7a1.288,1.288,0,0,1-.92.448c-.86.041-7.83-4.518-9.165-5.3C2087.976,898.258,2090.767,895.7,2091.032,894.9Z" transform="translate(-1764.432 -699.481)" fill="#623b7f"/>
      <path id="Trazado_898091" data-name="Trazado 898091" d="M574.365,301.346c6.483.147,11.878,2.088,16.442,6.869a12.073,12.073,0,0,1,2.715,3.707c1.574,8.144,1.451,15.814-3.4,22.951a19.587,19.587,0,0,1-12.774,8.4q-.453.082-.908.147t-.913.114q-.457.049-.916.081t-.918.048q-.46.015-.92.014t-.919-.019q-.46-.017-.918-.052t-.916-.084q-.457-.051-.912-.118t-.907-.15q-.452-.083-.9-.183t-.894-.215q-.445-.116-.886-.248t-.876-.279q-.436-.148-.866-.311t-.854-.341a39.756,39.756,0,0,0-3.91-1.811c-2.591-2.281-4.806-7.41-5.419-10.773a24.666,24.666,0,0,1,4.352-19c.592-.725,1.194-1.451,1.834-2.134q.174-.189.354-.373t.363-.365q.183-.18.372-.355t.381-.346q.192-.17.389-.336t.4-.326q.2-.161.405-.316t.413-.306q.209-.151.421-.3t.428-.285q.216-.14.435-.275t.442-.263q.222-.129.448-.252t.454-.241q.228-.118.46-.23t.466-.218q.234-.106.471-.206t.476-.195q.239-.094.481-.183t.485-.171q.244-.082.489-.159t.493-.146q.247-.07.5-.134t.5-.122q.251-.058.5-.109t.505-.1q.253-.045.507-.084t.509-.071q.255-.032.511-.059t.512-.046q.256-.02.513-.033T574.365,301.346Z" transform="translate(-374.71 -164.791)" fill="#f1a82b"/>
      <path id="Trazado_898092" data-name="Trazado 898092" d="M642.684,357.418a1.814,1.814,0,0,1,1.211.551,1.029,1.029,0,0,1,.065.791c-.34,1.077-2.592,2.661-3.568,3.185a2.041,2.041,0,0,1-1.25-.631.836.836,0,0,1-.117-.763C639.329,359.292,641.611,357.991,642.684,357.418Z" transform="translate(-452.446 -215.588)" fill="#facd7b"/>
      <path id="Trazado_898093" data-name="Trazado 898093" d="M601.46,406.075a1.626,1.626,0,0,1,1.265.3,1.006,1.006,0,0,1,.295.8,14.069,14.069,0,0,1-2.3,4.774c-.18.019-.359.036-.54.038a1.071,1.071,0,0,1-.931-.36,1.373,1.373,0,0,1-.228-.94A8.458,8.458,0,0,1,601.46,406.075Z" transform="translate(-416.237 -259.662)" fill="#facd7b"/>
      <path id="Trazado_898094" data-name="Trazado 898094" d="M708.652,327.506a1.881,1.881,0,0,1,.84.081,1.383,1.383,0,0,1,.8.85.966.966,0,0,1,.024.1.937.937,0,0,1,.013.1.9.9,0,0,1,0,.1.921.921,0,0,1-.009.1.9.9,0,0,1-.02.1.96.96,0,0,1-.031.1.917.917,0,0,1-.041.094.957.957,0,0,1-.051.089c-.543.855-3.456,1.167-4.5,1.441a2.383,2.383,0,0,1-.92.048,1.622,1.622,0,0,1-.777-.9.828.828,0,0,1,.129-.756C704.825,328.013,707.474,327.648,708.652,327.506Z" transform="translate(-511.292 -188.479)" fill="#facd7b"/>
      <path id="Trazado_898095" data-name="Trazado 898095" d="M723.456,478.332a6.655,6.655,0,0,1,3.666.6q.131.064.258.135t.25.149q.123.078.242.161t.234.174q.115.09.224.186t.214.2q.1.1.2.208t.193.218q.094.111.181.228t.169.237q.081.12.157.245t.144.253q.069.128.13.26t.117.267q.055.135.1.272t.088.277a6.138,6.138,0,0,1-.519,4.8A5.986,5.986,0,0,1,725.624,490a6.389,6.389,0,0,1-4.251-.744q-.127-.075-.249-.156t-.241-.169q-.119-.088-.232-.181t-.223-.193q-.109-.1-.212-.2t-.2-.214q-.1-.11-.19-.225t-.178-.234q-.086-.119-.166-.243t-.153-.251q-.074-.127-.14-.259t-.126-.266q-.06-.135-.113-.272t-.1-.277q-.046-.14-.084-.282t-.069-.286a6,6,0,0,1,.729-4.527A6.223,6.223,0,0,1,723.456,478.332Z" transform="translate(-524.52 -325.095)" fill="#e96d2f"/>
      <path id="Trazado_898096" data-name="Trazado 898096" d="M856.232,1699.03a31.607,31.607,0,0,1,8.5.85c6.348,1.818,13.794,7.189,17.052,13.018.957,1.713,2.108,4.779,1.9,6.759a34.879,34.879,0,0,1-.1,9.32c1.569.1,3.167.033,4.74.029,3.442-.009,6.892-.064,10.333.013a5.512,5.512,0,0,1,1.96,4.079,5.34,5.34,0,0,1-1.343,3.994c-.241.247-.513.471-.774.7a27.908,27.908,0,0,1-3.852.058,7.944,7.944,0,0,0-2.086.165c1.907.052,3.829.139,5.736.043a6.449,6.449,0,0,1,2.214,4.779,6,6,0,0,1-1.593,4.438,5.764,5.764,0,0,1-.431.4l-.256.065c-1.359-.092-2.776-.014-4.14-.014l-8.121,0c-7.626,0-15.258-.07-22.883.011a3.366,3.366,0,0,0-1.966,1.808,8.164,8.164,0,0,0-.255,3.254,41.1,41.1,0,0,1-4.427.211,54.209,54.209,0,0,1-.1-6.876l-.056-.039-.027-4.31,0-.425c-.126-1.71-.036-3.475-.027-5.192l.019-8.512Z" transform="translate(-649.218 -1430.999)" fill="#eb9948"/>
      <path id="Trazado_898097" data-name="Trazado 898097" d="M1036.129,1945.653a5.335,5.335,0,0,1,.735.024,1.837,1.837,0,0,1,1.142.727,1.562,1.562,0,0,1,.243,1.251,2.052,2.052,0,0,1-1.109,1.344,4.524,4.524,0,0,1-.792-.025,1.8,1.8,0,0,1-1.13-.733,1.558,1.558,0,0,1-.225-1.243A2.1,2.1,0,0,1,1036.129,1945.653Z" transform="translate(-811.166 -1654.422)" fill="#e96d2f"/>
      <path id="Trazado_898098" data-name="Trazado 898098" d="M919.322,1908.92a3.45,3.45,0,0,1,.781.133,1.831,1.831,0,0,1,1.029.967q.033.076.059.154t.043.159a1.644,1.644,0,0,1,.027.163q.009.082.01.165a1.61,1.61,0,0,1-.007.165,1.638,1.638,0,0,1-.023.163q-.016.081-.039.16a1.623,1.623,0,0,1-.056.155,1.953,1.953,0,0,1-1.235,1.056,2.959,2.959,0,0,1-.841-.1,1.7,1.7,0,0,1-.987-.825,1.608,1.608,0,0,1-.067-1.278A2.2,2.2,0,0,1,919.322,1908.92Z" transform="translate(-705.14 -1621.146)" fill="#e96d2f"/>
      <path id="Trazado_898099" data-name="Trazado 898099" d="M1038.6,1855.342a5.191,5.191,0,0,1,.792.019,1.825,1.825,0,0,1,1.112.715,1.576,1.576,0,0,1,.253,1.271,2.069,2.069,0,0,1-1.134,1.338,5.315,5.315,0,0,1-.746-.009,1.857,1.857,0,0,1-1.151-.665,1.531,1.531,0,0,1-.266-1.269A2.2,2.2,0,0,1,1038.6,1855.342Z" transform="translate(-813.405 -1572.602)" fill="#e96d2f"/>
      <path id="Trazado_898100" data-name="Trazado 898100" d="M944.789,1800.28c.169,0,.339.009.508.027a2,2,0,0,1,1.328.814,1.7,1.7,0,0,1,.267,1.286,1.979,1.979,0,0,1-1.082,1.35,5.9,5.9,0,0,1-.8.015,1.655,1.655,0,0,1-1.022-.569,1.584,1.584,0,0,1-.333-1.236A2.4,2.4,0,0,1,944.789,1800.28Z" transform="translate(-728.441 -1522.725)" fill="#e96d2f"/>
      <path id="Trazado_898101" data-name="Trazado 898101" d="M1110.55,1927.568a25.689,25.689,0,0,0,3.566-9.253,34.888,34.888,0,0,1-.1,9.32l-.186.015A22.59,22.59,0,0,0,1110.55,1927.568Z" transform="translate(-879.654 -1629.657)" fill="#da811e"/>
      <path id="Trazado_898102" data-name="Trazado 898102" d="M856.879,2150.693c1.541,0,3.071-.153,4.6-.287a30.669,30.669,0,0,0,.168,4.12,20.81,20.81,0,0,1-4.69.517l-.056-.039Z" transform="translate(-649.845 -1839.916)" fill="#da811e"/>
      <path id="Trazado_898103" data-name="Trazado 898103" d="M933.852,2164.858c7.98-.189,15.991-.032,23.975-.04,1.942,0,8.293-.256,9.681.06.292.066.291.117.436.363a1.5,1.5,0,0,1-.35.4l-22.614.028c-3.549,0-7.191.2-10.729.014a.636.636,0,0,1-.54-.192A.837.837,0,0,1,933.852,2164.858Z" transform="translate(-719.436 -1852.884)" fill="#da811e"/>
      <path id="Trazado_898104" data-name="Trazado 898104" d="M857.206,2194.717a20.809,20.809,0,0,0,4.69-.517,3.875,3.875,0,0,0,2.059,2.12,3.367,3.367,0,0,0-1.966,1.808,8.163,8.163,0,0,0-.255,3.254,41.065,41.065,0,0,1-4.427.211A54.185,54.185,0,0,1,857.206,2194.717Z" transform="translate(-650.089 -1879.59)" fill="#0f743d"/>
      <path id="Trazado_898105" data-name="Trazado 898105" d="M928.551,2016.716c1.57.1,3.167.033,4.74.029,3.442-.009,6.892-.063,10.333.013a5.512,5.512,0,0,1,1.96,4.079,5.34,5.34,0,0,1-1.343,3.994c-.241.247-.513.471-.774.7a27.909,27.909,0,0,1-3.852.058,65.671,65.671,0,0,0-7.795-.1l-16.407-.005a44.91,44.91,0,0,1-6.74-.109,3.09,3.09,0,0,1-1.493-.712,4.075,4.075,0,0,1-1.323-2.9,5.618,5.618,0,0,1,1.03-4.064,2.878,2.878,0,0,1,1.8-.876,34.241,34.241,0,0,1,5.56-.107c4.687,0,9.442.21,14.119.025Z" transform="translate(-694.19 -1718.737)" fill="#f4c63d"/>
      <path id="Trazado_898106" data-name="Trazado 898106" d="M936.769,2069.158c2.478-.012,21.608-.182,22.479.135.119.26.106.247.016.52a1.4,1.4,0,0,1-.257.157c-.382.13-9.861-.023-11.124-.025l-15.487-.052c-2.141-.007-4.923.16-6.987,0a1.469,1.469,0,0,1-1.07-.384,1.5,1.5,0,0,1,.9-.278c1.284-.118,2.652-.036,3.945-.043Z" transform="translate(-710.959 -1766.26)" fill="#f1a82b"/>
      <path id="Trazado_898107" data-name="Trazado 898107" d="M811.748,742.208l1.663,0a51.866,51.866,0,0,0-.07,6.886c0,2.709-.159,5.5.011,8.2-.056,10.336.126,20.689-.048,31.022l.045.273a.819.819,0,0,0,.449.161c.879.08,1.774.008,2.656.021q2.693.062,5.386.069c6.386.042,12.8-.033,19.178.132,3.911.137,7.837.089,11.751.116a25.611,25.611,0,0,1,5.089.166l-.108.262c-.04.779.057,1.545.067,2.323q-.024.71-.071,1.419t-.117,1.416q-.07.707-.163,1.411t-.208,1.405q-.116.7-.254,1.4t-.3,1.389q-.161.692-.344,1.378t-.388,1.366q-.205.68-.432,1.353t-.476,1.339q-.249.665-.519,1.322t-.561,1.3q-.292.648-.6,1.286t-.645,1.266q-.333.628-.685,1.244t-.725,1.221l-.474.811a56.423,56.423,0,0,1-5.013,6.542q-.6.644-1.224,1.265t-1.273,1.216q-.648.6-1.319,1.165t-1.364,1.113q-.693.543-1.406,1.058t-1.447,1q-.733.487-1.484.946t-1.521.887q-.769.428-1.554.826t-1.585.765q-.8.367-1.613.7t-1.64.639q-.826.3-1.664.574t-1.685.509q-.847.238-1.7.443t-1.719.376q-2.128.391-4.281.6t-4.316.246c-.444.008-.88.011-1.324-.019q-.967-.042-1.933-.1-.543-.036-1.084-.086t-1.082-.113q-.54-.063-1.079-.14t-1.075-.167q-.537-.09-1.071-.193t-1.066-.219q-.531-.116-1.06-.246t-1.053-.272q-.525-.142-1.046-.3t-1.038-.324q-.517-.168-1.03-.349t-1.021-.375q-.508-.194-1.012-.4t-1-.425q-.5-.219-.991-.45t-.979-.474q-.487-.243-.967-.5t-.954-.522q-.474-.267-.941-.546t-.927-.569q-.46-.29-.913-.592t-.9-.614q-.445-.313-.883-.636t-.866-.658q-.429-.334-.85-.679t-.833-.7q-.412-.355-.815-.72t-.8-.74q-.394-.375-.779-.76t-.76-.779q-.375-.394-.74-.8t-.72-.816q-.5-.583-.99-1.182t-.953-1.213q-.467-.614-.914-1.242t-.874-1.271q-.427-.642-.833-1.3t-.792-1.324q-.385-.668-.749-1.348t-.706-1.371q-.342-.691-.662-1.393t-.618-1.413q-.3-.711-.573-1.432t-.527-1.449q-.252-.729-.481-1.465t-.434-1.48q-.206-.743-.387-1.493t-.34-1.5a29,29,0,0,1-.817-7.915,8.641,8.641,0,0,0,.031-1.182l-.059.044a7.59,7.59,0,0,1,.1-2.029c.015.06.031.12.045.18a3.936,3.936,0,0,1,.053.937,42.41,42.41,0,0,0,5.145.108c.224-.175.227-.2.272-.5.01-.071.013-.142.023-.213a.948.948,0,0,1,.2-.493c.8-8.455,3.448-15.919,8.9-22.535q.273-.328.552-.651t.567-.639q.287-.317.58-.626t.594-.614q.3-.3.606-.6t.619-.588q.313-.291.632-.574t.644-.561q.325-.277.656-.546t.668-.532q.337-.262.679-.518t.69-.5q.348-.248.7-.488t.711-.473q.358-.233.721-.457t.73-.442q.367-.217.74-.426t.749-.41q.377-.2.758-.394t.766-.377q.385-.185.774-.361t.781-.344q.393-.168.788-.327t.8-.31q.4-.151.8-.293t.808-.276q.405-.133.814-.258t.819-.241q.411-.116.824-.223t.829-.2q.415-.1.833-.187t.837-.169c2.048-.4,4.133-.518,6.208-.715-.065-1.849-.031-3.711-.038-5.562Z" transform="translate(-569.097 -564.182)" fill="#0b826f"/>
      <path id="Trazado_898108" data-name="Trazado 898108" d="M767.863,1216.37c.015.06.031.12.045.18a3.93,3.93,0,0,1,.054.937,42.434,42.434,0,0,0,5.145.108c.224-.175.227-.2.272-.5.01-.071.013-.142.023-.213a.947.947,0,0,1,.2-.493q-.04.873-.115,1.743a78.19,78.19,0,0,1,7.928.038c-2.151.146-12.545-.2-13.591.18l-.059.044A7.586,7.586,0,0,1,767.863,1216.37Z" transform="translate(-569.094 -993.742)" fill="#bce5f7"/>
      <path id="Trazado_898109" data-name="Trazado 898109" d="M1129.8,1613.538a36.49,36.49,0,0,1,3.741-1.327,55.744,55.744,0,0,1,6.191-2.263l.008,5.29C1136.483,1615.034,1132.85,1614.781,1129.8,1613.538Z" transform="translate(-897.093 -1350.297)" fill="#8cb939"/>
      <path id="Trazado_898110" data-name="Trazado 898110" d="M1251.51,1256.77q2.532,2.658,5.117,5.263c2.139,2.145,10.491,10.127,11.5,12.327l-.458-.106a35.124,35.124,0,0,0-4.123-1.4l-7.549-2.323c-1.461-.444-3-.821-4.415-1.4v-7.817C1251.583,1259.81,1251.651,1258.26,1251.51,1256.77Z" transform="translate(-1007.354 -1030.341)" fill="#8cb939"/>
      <path id="Trazado_898111" data-name="Trazado 898111" d="M1281.73,1255.815l24.472-.028a36.661,36.661,0,0,0-1.817,4.339,3.542,3.542,0,0,0-2.262-.469c-.482.16-.818.921-1.061,1.337l-.17-.144a2.064,2.064,0,0,0-1.406-1.084,1.916,1.916,0,0,0-1.486.438,4.205,4.205,0,0,0-1.561,2.827,5.156,5.156,0,0,0,1.234,3.925c.149.176.311.342.475.5l.386.42a31.017,31.017,0,0,1-1.982,2.879c-1.428-1.242-2.74-2.773-4.074-4.128C1288.915,1263.014,1285.432,1259.291,1281.73,1255.815Z" transform="translate(-1034.732 -1029.451)" fill="#f7aa70"/>
      <path id="Trazado_898112" data-name="Trazado 898112" d="M1252.31,1388.11c1.412.581,2.954.958,4.415,1.4l7.549,2.323a35.1,35.1,0,0,1,4.124,1.4q-.325.514-.665,1.018t-.694,1q-.354.494-.723.978t-.751.957q-.382.473-.778.935t-.8.912q-.409.45-.83.888t-.855.864q-.434.426-.88.839t-.9.813q-.458.4-.927.787t-.949.76q-.48.373-.971.732t-.991.7q-.5.345-1.011.675t-1.03.646a10.392,10.392,0,0,1-2.065,1.3,1.706,1.706,0,0,1-.223.031Z" transform="translate(-1008.079 -1149.327)" fill="#99cd56"/>
      <path id="Trazado_898113" data-name="Trazado 898113" d="M853.756,1252.9c1.55-.1,3.145,0,4.7.011l8.045.043c7.745.032,15.5-.035,23.241.073-.133,4-.161,8.072-.074,12.077a30.117,30.117,0,0,0-3.885-1.449q-3.53-1.205-7.074-2.369l-18.294-6.209C858.686,1254.5,855.075,1253.769,853.756,1252.9Z" transform="translate(-647.016 -1026.792)" fill="#8cb939"/>
      <path id="Trazado_898114" data-name="Trazado 898114" d="M1268.7,1442.63l.458.106c1.2.779,3.73,3.694,4.82,4.817,1.778,1.832,3.709,3.607,5.4,5.518a40.5,40.5,0,0,1-26.731,10.7l0-6.3a1.69,1.69,0,0,0,.223-.031,10.414,10.414,0,0,0,2.065-1.3q.52-.315,1.03-.646t1.011-.675q.5-.345.991-.7t.971-.732q.48-.373.949-.76t.927-.787q.458-.4.9-.813t.88-.839q.434-.426.855-.864t.83-.888q.409-.45.8-.912t.778-.935q.382-.473.751-.957t.723-.978q.354-.494.694-1T1268.7,1442.63Z" transform="translate(-1008.383 -1198.718)" fill="#8cb939"/>
      <path id="Trazado_898115" data-name="Trazado 898115" d="M1447.53,1255.79l11.558.012a39.9,39.9,0,0,1-9.9,26.13c-3.929-3.531-7.526-7.477-11.307-11.169a31.065,31.065,0,0,0,1.982-2.879l-.385-.42c-.164-.163-.326-.328-.475-.5a5.155,5.155,0,0,1-1.234-3.925,4.205,4.205,0,0,1,1.561-2.827,1.916,1.916,0,0,1,1.486-.438,2.064,2.064,0,0,1,1.406,1.084l.17.144c.243-.416.579-1.177,1.061-1.337a3.544,3.544,0,0,1,2.262.468A36.739,36.739,0,0,1,1447.53,1255.79Z" transform="translate(-1176.059 -1029.453)" fill="#eb9948"/>
      <path id="Trazado_898116" data-name="Trazado 898116" d="M1459,1297.5l.17.144c.243-.416.579-1.177,1.061-1.337a3.083,3.083,0,0,1,3.634,2.984,5.772,5.772,0,0,1-1.065,4.144,3.38,3.38,0,0,1-2.3,1.311,12.6,12.6,0,0,1-3.856-.216l-.385-.42a1.635,1.635,0,0,1,.334-.091,6.024,6.024,0,0,0,2.356-.909,3.883,3.883,0,0,0,1.623-2.731c.1-.691.182-1.936-.34-2.472-.574-.589-.737.427-1.258.485a3.547,3.547,0,0,1-.431-.936l.108-.1Z" transform="translate(-1192.844 -1066.098)" fill="#b91c26"/>
      <path id="Trazado_898117" data-name="Trazado 898117" d="M1439.479,1305.578c-.164-.163-.326-.328-.475-.5a5.156,5.156,0,0,1-1.234-3.925,4.205,4.205,0,0,1,1.561-2.827,1.916,1.916,0,0,1,1.486-.438,2.064,2.064,0,0,1,1.406,1.084l-.352-.145-.108.1a3.547,3.547,0,0,0,.431.936c.52-.058.684-1.074,1.258-.485.522.536.437,1.781.34,2.472a3.883,3.883,0,0,1-1.623,2.731,6.02,6.02,0,0,1-2.356.909A1.661,1.661,0,0,0,1439.479,1305.578Z" transform="translate(-1176.063 -1067.568)" fill="#e3333a"/>
      <path id="Trazado_898118" data-name="Trazado 898118" d="M1445.412,1319.24a1.409,1.409,0,0,1,.875.236,1.848,1.848,0,0,1,.607,1.361,2.779,2.779,0,0,1-.879,2.28.942.942,0,0,1-.723-.282,2.123,2.123,0,0,1-.517-1.354A2.8,2.8,0,0,1,1445.412,1319.24Z" transform="translate(-1182.424 -1086.935)" fill="#f2767d"/>
      <path id="Trazado_898119" data-name="Trazado 898119" d="M829.733,1252.13c.755.005,1.507.061,2.26.11,1.319.875,4.93,1.605,6.659,2.177l18.294,6.209q3.544,1.163,7.074,2.369a30.077,30.077,0,0,1,3.885,1.449l-.012,21.344a55.744,55.744,0,0,0-6.191,2.263,36.5,36.5,0,0,0-3.741,1.327q-.563-.165-1.121-.346t-1.11-.38q-.552-.2-1.1-.413t-1.085-.446q-.539-.231-1.071-.479t-1.056-.511q-.524-.263-1.04-.542t-1.023-.574q-.507-.294-1.005-.6t-.987-.634q-.489-.325-.967-.664t-.946-.693q-.468-.353-.925-.721t-.9-.749q-.446-.381-.88-.775t-.856-.8A40.5,40.5,0,0,1,829.733,1252.13Z" transform="translate(-625.253 -1026.138)" fill="#99cd56"/>
      <path id="Trazado_898120" data-name="Trazado 898120" d="M1014.6,1412.251a10.918,10.918,0,0,1,3,.381c1.3.283,4.993,1.09,5.728,2.24a.982.982,0,0,1-.276.742c-1.626-.131-3.454-1.124-5.034-1.6a20.917,20.917,0,0,0-2.529-.45c-.512-.089-.879-.128-1.189-.569A1.1,1.1,0,0,1,1014.6,1412.251Z" transform="translate(-792.461 -1171.186)" fill="#2db34f"/>
      <path id="Trazado_898121" data-name="Trazado 898121" d="M1084.2,1486.26a1.591,1.591,0,0,1,.727.128c.613.393,1.141,1.631,1.627,2.222a10.118,10.118,0,0,0,2.462,2.073,15.463,15.463,0,0,0,2.46,1.3c.923.366,4.975,1.419,5.424,1.886a1.452,1.452,0,0,1-.073.93,16.265,16.265,0,0,1-4.926-1.288c-2.735-1-6.453-3.219-7.665-6A1.281,1.281,0,0,1,1084.2,1486.26Z" transform="translate(-855.646 -1238.244)" fill="#2db34f"/>
      <path id="Trazado_898122" data-name="Trazado 898122" d="M859.354,1294.957a3.611,3.611,0,0,1,.744-.015c.393.071.546.514.69.842a33.366,33.366,0,0,1,1.186,3.818,54.978,54.978,0,0,0,2.853,7.819,33.631,33.631,0,0,0,9.125,11.891c1.114.864,3.446,1.907,4.154,3.005a1.721,1.721,0,0,1-.165,1.066,1.119,1.119,0,0,1-.331.027c-1.135-.133-8.546-6.376-9.6-7.5C863.474,1311.047,859.124,1301.684,859.354,1294.957Z" transform="translate(-652.079 -1064.907)" fill="#c4e487"/>
      <path id="Trazado_898123" data-name="Trazado 898123" d="M828.945,861.591c.8-8.455,3.448-15.919,8.9-22.535q.273-.328.553-.651t.567-.639q.287-.316.58-.626t.594-.614q.3-.3.607-.6t.619-.588q.313-.29.632-.574t.644-.561q.325-.277.656-.546t.667-.532q.337-.262.679-.518t.69-.5q.348-.248.7-.488t.711-.473q.358-.233.721-.457t.731-.442q.367-.217.74-.426t.749-.41q.377-.2.758-.394t.766-.377q.385-.184.774-.361t.782-.344q.392-.168.788-.327t.8-.31q.4-.151.8-.293t.808-.276q.405-.133.814-.258t.819-.241q.411-.116.824-.223t.829-.205q.415-.1.833-.187t.837-.169c2.049-.4,4.133-.518,6.208-.715l-.011,38.666c-10.115-.067-20.24.1-30.351-.02a78.155,78.155,0,0,0-7.928-.038Q828.9,862.464,828.945,861.591Z" transform="translate(-624.434 -638.939)" fill="#fff"/>
      <path id="Trazado_898124" data-name="Trazado 898124" d="M1056.044,949.015a7.717,7.717,0,0,1,1.03,1.525,21.213,21.213,0,0,0-1.831,1.276,6.031,6.031,0,0,0-2.349,4.292c-.135.982.11,2.027-.015,3.042-.23-.916-.308-1.83-.484-2.751a16.388,16.388,0,0,1,.178-2.2A8.034,8.034,0,0,1,1056.044,949.015Z" transform="translate(-826.97 -751.536)" fill="url(#linear-gradient-7)"/>
      <path id="Trazado_898125" data-name="Trazado 898125" d="M969.555,1021.524l.136.155c.6-.07,1.169-.261,1.766-.36a5.946,5.946,0,0,1,4.767,1.132,6.316,6.316,0,0,1,2.169,4.392,10.316,10.316,0,0,1-2.489,7.1,6.631,6.631,0,0,1-4.289,2.436c-.755.034-1.51-.154-2.264-.163-.677-.008-1.349.138-2.024.158a5.823,5.823,0,0,1-3.92-1.88,9.985,9.985,0,0,1-3-6.849,6.954,6.954,0,0,1,1.737-4.815,5.22,5.22,0,0,1,3.841-1.556,12.522,12.522,0,0,1,3.075.543c.176.921.254,1.835.484,2.751C969.665,1023.552,969.42,1022.507,969.555,1021.524Z" transform="translate(-743.631 -816.953)" fill="url(#linear-gradient-8)"/>
      <path id="Trazado_898126" data-name="Trazado 898126" d="M985.31,1063.023a2.431,2.431,0,0,1,.883.022,1.154,1.154,0,0,1,.6.508c.481.81.429,4.378.13,5.317a1.548,1.548,0,0,1-.846.908,2.557,2.557,0,0,1-.716-.6,6.263,6.263,0,0,1-1.172-4.254A2.577,2.577,0,0,1,985.31,1063.023Z" transform="translate(-765.141 -854.792)" fill="#f2767d"/>
    </g>
  </g>
</svg>
