<svg xmlns="http://www.w3.org/2000/svg" width="85" height="85" viewBox="0 0 85 85">
  <g id="Grupo_1111643" data-name="Grupo 1111643" transform="translate(-180.051 -1083)">
    <rect id="Rectángulo_402740" data-name="Rectángulo 402740" width="85" height="85" rx="10" transform="translate(180.051 1083)" fill="#fed57b"/>
    <g id="Grupo_1111642" data-name="Grupo 1111642" transform="translate(186.677 1072.583)">
      <g id="Grupo_1111640" data-name="Grupo 1111640" transform="translate(1.053 21.689)">
        <g id="Grupo_1111639" data-name="Grupo 1111639" transform="translate(0 0)">
          <g id="Grupo_1111630" data-name="Grupo 1111630" transform="translate(26.871)">
            <g id="Grupo_1111629" data-name="Grupo 1111629">
              <path id="Trazado_900768" data-name="Trazado 900768" d="M232.215,28.157l-23.13-.019a9.8,9.8,0,0,0-6.375,17.271,1.748,1.748,0,0,1,.622,1.331L203.309,72.7a5.414,5.414,0,0,0,5.413,5.415l23.772.019a5.414,5.414,0,0,0,5.422-5.406l.021-25.962a1.749,1.749,0,0,1,.624-1.33,9.8,9.8,0,0,0-6.347-17.282Z" transform="translate(-199.256 -28.138)" fill="#e8b266"/>
              <path id="Trazado_900769" data-name="Trazado 900769" d="M231.549,97.2a1.7,1.7,0,0,1-1.7-1.7l.021-25.962a5.454,5.454,0,0,0-1.928-4.161,6.089,6.089,0,0,1,3.959-10.73l23.13.019A6.089,6.089,0,0,1,258.977,65.4a5.455,5.455,0,0,0-1.935,4.158l-.021,25.962a1.7,1.7,0,0,1-1.7,1.695Z" transform="translate(-222.08 -50.934)" fill="#fff1ec"/>
              <path id="Trazado_900770" data-name="Trazado 900770" d="M291.4,54.668l-23.13-.019c-.06,0-.12,0-.18,0l17.706.014A6.089,6.089,0,0,1,289.734,65.4a5.455,5.455,0,0,0-1.935,4.158l-.021,25.962a1.7,1.7,0,0,1-1.609,1.69l5.515,0a1.7,1.7,0,0,0,1.7-1.695l.021-25.962a5.455,5.455,0,0,1,1.935-4.158A6.089,6.089,0,0,0,291.4,54.668Z" transform="translate(-258.442 -50.934)" fill="#fce2c5"/>
            </g>
          </g>
          <g id="Grupo_1111631" data-name="Grupo 1111631" transform="translate(1.169 15.505)">
            <path id="Trazado_900771" data-name="Trazado 900771" d="M99.742,146.851c-2.936,2.871-8,2.471-8,2.471s-.3-5.055,2.632-7.925,8-2.471,8-2.471S102.678,143.98,99.742,146.851Z" transform="translate(-81.096 -138.89)" fill="#fed23a"/>
            <path id="Trazado_900772" data-name="Trazado 900772" d="M18.459,146.737c2.932,2.876,8,2.484,8,2.484s.312-5.054-2.619-7.93-8-2.484-8-2.484S15.528,143.862,18.459,146.737Z" transform="translate(-15.83 -138.79)" fill="#f7c000"/>
          </g>
          <g id="Grupo_1111633" data-name="Grupo 1111633" transform="translate(3.602 0)">
            <path id="Trazado_900773" data-name="Trazado 900773" d="M97.976,87.426c-2.267,2.216-6.177,1.907-6.177,1.907s-.235-3.9,2.032-6.119,6.177-1.907,6.177-1.907S100.242,85.21,97.976,87.426Z" transform="translate(-83.581 -73.845)" fill="#f7c000"/>
            <g id="Grupo_1111632" data-name="Grupo 1111632">
              <path id="Trazado_900774" data-name="Trazado 900774" d="M70.749,33.849c.034-3.168,3.017-5.711,3.017-5.711S76.7,30.732,76.661,33.9s-3.017,5.711-3.017,5.711S70.715,37.017,70.749,33.849Z" transform="translate(-65.487 -28.138)" fill="#fed23a"/>
              <path id="Trazado_900775" data-name="Trazado 900775" d="M35.225,87.339c2.263,2.22,6.174,1.917,6.174,1.917s.241-3.9-2.022-6.122S33.2,81.217,33.2,81.217,32.962,85.119,35.225,87.339Z" transform="translate(-33.196 -73.768)" fill="#fed23a"/>
            </g>
          </g>
          <g id="Grupo_1111635" data-name="Grupo 1111635" transform="translate(1.151 26.002)">
            <path id="Trazado_900776" data-name="Trazado 900776" d="M99.681,221.762c-2.936,2.871-8,2.471-8,2.471s-.3-5.055,2.632-7.925,8-2.471,8-2.471.3,5.055-2.632,7.925Z" transform="translate(-81.027 -213.801)" fill="#f7c000"/>
            <g id="Grupo_1111634" data-name="Grupo 1111634">
              <path id="Trazado_900777" data-name="Trazado 900777" d="M18.4,221.648c2.932,2.876,8,2.484,8,2.484s.312-5.054-2.619-7.93-8-2.484-8-2.484S15.467,218.773,18.4,221.648Z" transform="translate(-15.761 -213.701)" fill="#fed23a"/>
              <path id="Trazado_900778" data-name="Trazado 900778" d="M18.337,296.273c2.932,2.876,8,2.484,8,2.484s.312-5.054-2.619-7.93-8-2.484-8-2.484S15.406,293.4,18.337,296.273Z" transform="translate(-15.708 -277.869)" fill="#fed23a"/>
            </g>
          </g>
          <g id="Grupo_1111638" data-name="Grupo 1111638" transform="translate(0 34.679)">
            <g id="Grupo_1111637" data-name="Grupo 1111637">
              <path id="Trazado_900779" data-name="Trazado 900779" d="M57.764,304.8l-43.5-.035a6.794,6.794,0,0,1-6.688-6.108c-1.1-11.972,9.21-23.043,21.013-23.034l14.9.012c11.8.01,22.1,11.1,20.976,23.068a6.794,6.794,0,0,1-6.7,6.1Z" transform="translate(-7.491 -275.627)" fill="#e8b266"/>
              <path id="Trazado_900780" data-name="Trazado 900780" d="M171.017,275.64l-14.9-.012c-.1,0-.208,0-.312,0l9.608.008c11.8.01,22.1,11.1,20.976,23.068a6.8,6.8,0,0,1-6.512,6.093l5.419,0a6.794,6.794,0,0,0,6.7-6.1C193.115,286.736,182.819,275.65,171.017,275.64Z" transform="translate(-135.022 -275.628)" fill="#d9a359"/>
              <g id="Grupo_1111636" data-name="Grupo 1111636" transform="translate(14.919 0.004)">
                <path id="Trazado_900781" data-name="Trazado 900781" d="M116.05,289.263a2.1,2.1,0,0,0,2.095-2.1l.009-10.866a20.413,20.413,0,0,0-4.187.849l-.008,10.013A2.1,2.1,0,0,0,116.05,289.263Z" transform="translate(-113.959 -276.211)" fill="#8f5a46"/>
                <path id="Trazado_900782" data-name="Trazado 900782" d="M198.292,288.72a2.1,2.1,0,0,0,2.095-2.1l.009-10.962-4.186,0-.009,10.962A2.1,2.1,0,0,0,198.292,288.72Z" transform="translate(-184.677 -275.659)" fill="#8f5a46"/>
                <path id="Trazado_900783" data-name="Trazado 900783" d="M280.534,289.376a2.1,2.1,0,0,0,2.095-2.1l.008-10.013a20.416,20.416,0,0,0-4.186-.856l-.009,10.866A2.1,2.1,0,0,0,280.534,289.376Z" transform="translate(-255.394 -276.306)" fill="#8f5a46"/>
              </g>
            </g>
          </g>
        </g>
      </g>
      <g id="Grupo_1111641" data-name="Grupo 1111641" transform="translate(0.003 20.638)">
        <path id="Trazado_900784" data-name="Trazado 900784" d="M69.943,25.526a1.051,1.051,0,0,0-1.752,1.162,8.746,8.746,0,0,1-1.642,11.5,2.8,2.8,0,0,0-.995,2.13l-.021,25.962a4.367,4.367,0,0,1-4.362,4.356h0l-3.24-.017q-.286-.809-.636-1.6l3.873,0h0a2.752,2.752,0,0,0,2.749-2.745l.021-25.962A4.405,4.405,0,0,1,65.5,36.96,7.144,7.144,0,0,0,60.88,24.372l-23.13-.019h-.006a7.14,7.14,0,0,0-4.635,12.581,4.405,4.405,0,0,1,1.558,3.36l-.012,15.034H33.037l.012-15.034a2.8,2.8,0,0,0-.991-2.132,8.752,8.752,0,0,1,5.686-15.42h.007l23.13.019a8.711,8.711,0,0,1,3.613.778,1.051,1.051,0,0,0,.868-1.914,10.8,10.8,0,0,0-4.479-.966l-23.13-.019h-.009A10.854,10.854,0,0,0,30.7,39.761a.7.7,0,0,1,.252.53l-.012,15.034-8.419-.007a13.315,13.315,0,0,0,2.024-7.655,1.051,1.051,0,0,0-.966-.985,14.58,14.58,0,0,0-3.136.166,8.047,8.047,0,0,0,1.164-.938h0c3.242-3.17,2.96-8.514,2.947-8.74a1.051,1.051,0,0,0-.966-.985,14.869,14.869,0,0,0-4.544.463,6.352,6.352,0,0,0,.746-.623c2.58-2.523,2.357-6.754,2.347-6.933a1.051,1.051,0,0,0-.966-.985,11.551,11.551,0,0,0-4.428.632,6.467,6.467,0,0,0,.144-1.274c.039-3.607-3.115-6.441-3.249-6.56a1.051,1.051,0,0,0-1.378-.013c-.137.116-3.348,2.895-3.387,6.5a6.472,6.472,0,0,0,.128,1.336,11.56,11.56,0,0,0-4.413-.634,1.051,1.051,0,0,0-.968.983c-.011.179-.241,4.41,2.335,6.937a6.356,6.356,0,0,0,.745.624,14.867,14.867,0,0,0-4.543-.471,1.051,1.051,0,0,0-.968.983c-.014.226-.3,5.57,2.932,8.745a8.053,8.053,0,0,0,1.162.94,14.574,14.574,0,0,0-3.135-.171,1.051,1.051,0,0,0-.968.983c-.014.226-.3,5.57,2.932,8.745a8.024,8.024,0,0,0,1.084.888,14.5,14.5,0,0,0-3.057-.159,1.051,1.051,0,0,0-.968.983c-.012.2-.264,4.788,2.257,7.99A21.564,21.564,0,0,0,.088,79.5a7.834,7.834,0,0,0,7.733,7.063l4.4.006a1.053,1.053,0,0,0,0-2.1l-4.4-.006A5.717,5.717,0,0,1,2.18,79.306,19.952,19.952,0,0,1,7.53,64.152a21.088,21.088,0,0,1,7.4-5.254l-.007,8.426c0,4.022,6.285,4.092,6.288.005l.008-9.885c1.74-.09,3.494-.023,5.236-.021l-.008,9.911c0,4.024,6.285,4.091,6.288,0l.008-9.911c1.741,0,3.5-.063,5.236.03l-.008,9.885c0,4.023,6.285,4.092,6.288.005l.007-8.426a21.086,21.086,0,0,1,7.389,5.266A19.952,19.952,0,0,1,56.978,79.35a5.717,5.717,0,0,1-5.647,5.144h0L17.74,84.469a1.053,1.053,0,0,0,0,2.1l33.587.025h.006a7.835,7.835,0,0,0,7.739-7.05,20.649,20.649,0,0,0-.515-6.821l2.607.013h.005a6.473,6.473,0,0,0,6.469-6.456l.021-25.962a.7.7,0,0,1,.253-.53,10.848,10.848,0,0,0,2.034-14.265ZM20.124,54.9a5.874,5.874,0,0,1-.675.566c-.018.013-.034.027-.051.041a21.181,21.181,0,0,0-5.48,1.536c.081-1.5.485-4.314,2.307-6.095s4.712-2.133,6.208-2.182C22.356,50.254,21.96,53.1,20.124,54.9Zm-5.369-5.455a7.991,7.991,0,0,0-.86,1l0-1.75a15.6,15.6,0,0,0,2.022-.184A8.046,8.046,0,0,0,14.755,49.445ZM20.132,44.4c-1.831,1.79-4.712,2.133-6.208,2.182.076-1.488.472-4.338,2.309-6.133s4.712-2.133,6.208-2.182c-.076,1.488-.472,4.338-2.309,6.134Zm-5.369-5.455a7.985,7.985,0,0,0-.854.988l0-1.7a11.969,11.969,0,0,0,2.109-.283,8.1,8.1,0,0,0-1.257,1Zm3.551-4.429a6.97,6.97,0,0,1-4.367,1.6,6.91,6.91,0,0,1,1.692-4.313A6.968,6.968,0,0,1,20,30.206,6.951,6.951,0,0,1,18.314,34.519ZM12.92,23.194a6.913,6.913,0,0,1,1.859,4.246,6.949,6.949,0,0,1-1.95,4.215,6.954,6.954,0,0,1-1.861-4.243A6.952,6.952,0,0,1,12.92,23.194Zm-7.184,7A7.013,7.013,0,0,1,10.1,31.806a6.908,6.908,0,0,1,1.684,4.312A7.013,7.013,0,0,1,7.42,34.51,6.908,6.908,0,0,1,5.736,30.2Zm6.075,8.031,0,1.694a7.993,7.993,0,0,0-.844-.978,8.1,8.1,0,0,0-1.256-1A11.976,11.976,0,0,0,11.81,38.229Zm-8.52.025c1.5.052,4.375.4,6.2,2.192s2.22,4.646,2.3,6.137c-1.5-.052-4.375-.4-6.2-2.192s-2.22-4.646-2.3-6.137ZM11.8,48.689l0,1.721a7.975,7.975,0,0,0-.838-.968,8.059,8.059,0,0,0-1.163-.94A15.533,15.533,0,0,0,11.8,48.689Zm-8.514.062c1.5.052,4.375.4,6.2,2.192s2.22,4.646,2.3,6.137c-1.5-.052-4.375-.4-6.2-2.192s-2.22-4.646-2.3-6.137Zm6.946,10.312-.15.1q-.107-.079-.216-.153c.125.019.246.036.366.052Zm-4.25,3.672Q5.3,63.475,4.7,64.26a10.816,10.816,0,0,1-1.427-5.055A10.913,10.913,0,0,1,8.3,60.51a23.909,23.909,0,0,0-2.326,2.225Zm13.129,4.592a1.043,1.043,0,0,1-2.084,0l.008-9.171a18.763,18.763,0,0,1,2.085-.479Zm11.524.009a1.043,1.043,0,0,1-2.084,0l.008-9.911,2.084,0Zm11.524.009a1.043,1.043,0,0,1-2.084,0l.008-9.652a18.784,18.784,0,0,1,2.084.483Zm-5.4-12.017L36.768,40.3a6.5,6.5,0,0,0-2.3-4.962,5.038,5.038,0,0,1,3.273-8.879h0l23.13.019a5.038,5.038,0,0,1,3.262,8.884,6.505,6.505,0,0,0-2.305,4.958l-.021,25.962a.647.647,0,0,1-.647.645h0l-4.939,0c-3.586-6.2-11.433-11.59-19.471-11.59Z" transform="translate(-0.003 -20.638)" fill="#060606"/>
        <path id="Trazado_900785" data-name="Trazado 900785" d="M277.617,100.753a1.052,1.052,0,0,0,0,2.1A1.052,1.052,0,0,0,277.617,100.753Z" transform="translate(-237.844 -89.527)" fill="#060606"/>
        <path id="Trazado_900786" data-name="Trazado 900786" d="M384.426,182.775a1.052,1.052,0,0,0,0,2.1A1.052,1.052,0,0,0,384.426,182.775Z" transform="translate(-329.686 -160.056)" fill="#060606"/>
        <path id="Trazado_900787" data-name="Trazado 900787" d="M298.356,214.961a1.052,1.052,0,0,0,0,2.1A1.052,1.052,0,0,0,298.356,214.961Z" transform="translate(-255.677 -187.732)" fill="#060606"/>
        <path id="Trazado_900788" data-name="Trazado 900788" d="M397.907,278.319a1.052,1.052,0,0,0,0-2.1A1.052,1.052,0,0,0,397.907,278.319Z" transform="translate(-341.278 -240.404)" fill="#060606"/>
        <path id="Trazado_900789" data-name="Trazado 900789" d="M412.425,90.4a1.052,1.052,0,0,0,0-2.1A1.052,1.052,0,0,0,412.425,90.4Z" transform="translate(-353.762 -78.815)" fill="#060606"/>
      </g>
    </g>
  </g>
</svg>
