<svg xmlns="http://www.w3.org/2000/svg" width="400" height="85" viewBox="0 0 400 85">
  <g id="Grupo_1112246" data-name="Grupo 1112246" transform="translate(-600 -938)">
    <g id="Grupo_1107857" data-name="Grupo 1107857">
      <rect id="BG" width="85" height="85" rx="5" transform="translate(810 938)" fill="#e0ecf9" opacity="0.949"/>
      <circle id="Elipse_11659" data-name="Elipse 11659" cx="31.5" cy="31.5" r="31.5" transform="translate(821 949)" fill="#b4d1f0"/>
      <g id="Grupo_1107844" data-name="Grupo 1107844" transform="translate(823 951)">
        <g id="Grupo_1107844-2" data-name="Grupo 1107844" transform="translate(0.895 0.897)">
          <path id="Trazado_898157" data-name="Trazado 898157" d="M269.026,20.2c7.42,7.421-9.131,14.36-14.186,15.932a21.008,21.008,0,0,0-9.127-9.127,20.092,20.092,0,0,0-1.932-.866C246.826,18.383,247.76,5,255.85,9.358a5.263,5.263,0,0,1,2.48,2.525c3.931-3.892,8.543-6.282,12.457-2.369C274.226,12.954,272.467,16.792,269.026,20.2Z" transform="translate(-216.416 -7.515)" fill="#70d65b"/>
          <path id="Trazado_898158" data-name="Trazado 898158" d="M37.95,154.919c-13.766-1.5-25.5,37.532-23.071,39.961s41.464-9.305,39.961-23.071a17.088,17.088,0,0,0-1.856-5.906,21.006,21.006,0,0,0-9.127-9.127A17.09,17.09,0,0,0,37.95,154.919Z" transform="translate(-14.559 -137.284)" fill="#ff8040"/>
          <path id="Trazado_898159" data-name="Trazado 898159" d="M14.88,194.881c-2.43-2.43,9.3-41.464,23.071-39.961a17.107,17.107,0,0,1,5.907,1.856,20.97,20.97,0,0,1,5.28,3.844,3.816,3.816,0,0,0-2.46-1.025,8.394,8.394,0,0,0-3.508.542C34.12,163.352,13.952,193.952,14.88,194.881Z" transform="translate(-14.56 -137.284)" fill="#ed761d"/>
          <path id="Trazado_898160" data-name="Trazado 898160" d="M258.333,19.19a58.994,58.994,0,0,0-8.857,12.255L247.439,35.3q-.835-.532-1.722-.986a20.093,20.093,0,0,0-1.932-.866c3.044-7.759,3.978-21.14,12.068-16.783A5.263,5.263,0,0,1,258.333,19.19Z" transform="translate(-216.419 -14.822)" fill="#58b741"/>
        </g>
        <g id="Grupo_1107845" data-name="Grupo 1107845" transform="translate(0 0)">
          <path id="Trazado_898161" data-name="Trazado 898161" d="M62.958,2.263A6.907,6.907,0,0,0,57.02.056c-2.163.27-4.492,1.539-6.95,3.781a6.726,6.726,0,0,0-2.258-1.885,5.832,5.832,0,0,0-5.156-.592c-3.355,1.423-4.783,6.5-6.3,11.874-.494,1.756-1,3.562-1.571,5.151a16.316,16.316,0,0,0-3.347-.742c-3.742-.409-7.546,1.783-11.307,6.514a63.706,63.706,0,0,0-8.29,15.059.9.9,0,1,0,1.66.671c.694-1.716,1.569-3.727,2.6-5.811l3.549,3.549a.9.9,0,0,0,1.266-1.266L16.972,32.4a47.2,47.2,0,0,1,4.567-7.133,23.583,23.583,0,0,1,3.154-3.326,37.95,37.95,0,0,1,5.275,5.395.9.9,0,1,0,1.393-1.125,40.28,40.28,0,0,0-5.193-5.373,7.736,7.736,0,0,1,5.081-1.419,16.232,16.232,0,0,1,5.6,1.763,20.234,20.234,0,0,1,8.738,8.738,16.235,16.235,0,0,1,1.763,5.6c.253,2.316-.755,5.931-6.675,10.346a27.71,27.71,0,0,0-5.3-6.286.9.9,0,0,0-1.162,1.363,26.185,26.185,0,0,1,5,5.965,76.554,76.554,0,0,1-18.589,8.627A63.859,63.859,0,0,1,12.652,57.6a9.86,9.86,0,0,1-3.725.244c-.075-.274-.248-1.38.43-4.7a74.729,74.729,0,0,1,2.8-9.716.9.9,0,1,0-1.687-.6A74.892,74.892,0,0,0,7.529,53.153c-.848,4.347-.385,5.476.113,5.974.188.188.583.583,2.147.583a30.443,30.443,0,0,0,7.173-1.243,90.723,90.723,0,0,0,15.524-5.717A47.922,47.922,0,0,0,44.393,45.1c3.493-3.26,5.085-6.55,4.732-9.776a17.429,17.429,0,0,0-1.5-5.278,51.1,51.1,0,0,0,6.757-2.927.9.9,0,1,0-.833-1.585,48.934,48.934,0,0,1-6.737,2.9,22.053,22.053,0,0,0-9.155-8.841q-.6-.306-1.2-.567c.594-1.656,1.116-3.507,1.622-5.306,1.331-4.731,2.708-9.623,5.271-10.71a4.113,4.113,0,0,1,3.608.52A4.726,4.726,0,0,1,48.77,5.1q-.586.6-1.18,1.278a60.527,60.527,0,0,0-6.246,8.745.9.9,0,0,0,1.539.916,58.727,58.727,0,0,1,6.052-8.478c3.081-3.5,5.876-5.429,8.307-5.732a5.136,5.136,0,0,1,4.449,1.7,4.588,4.588,0,0,1,1.552,4.06C62.7,11.244,57.5,15.969,48.97,20.551a.9.9,0,1,0,.847,1.578,60.7,60.7,0,0,0,9.167-5.936q.821-.667,1.532-1.324a4,4,0,0,1,1.018,2.969c-.2,1.888-1.99,3.986-5.185,6.068a.9.9,0,1,0,.978,1.5c3.715-2.421,5.73-4.905,5.989-7.383A5.832,5.832,0,0,0,61.793,13.6,11.18,11.18,0,0,0,65.015,7.85,6.343,6.343,0,0,0,62.958,2.263Z" transform="translate(-7.059 0)"/>
          <path id="Trazado_898162" data-name="Trazado 898162" d="M107.2,392.146a.9.9,0,0,0,.633-1.529l-3.5-3.5a.9.9,0,1,0-1.266,1.266l3.5,3.5A.892.892,0,0,0,107.2,392.146Z" transform="translate(-91.37 -340.669)"/>
        </g>
      </g>
    </g>
    <g id="Grupo_1107858" data-name="Grupo 1107858" transform="translate(10)">
      <rect id="BG-2" data-name="BG" width="85" height="85" rx="5" transform="translate(905 938)" fill="#e0ecf9" opacity="0.949"/>
      <circle id="Elipse_11660" data-name="Elipse 11660" cx="31.5" cy="31.5" r="31.5" transform="translate(916 949)" fill="#b4d1f0"/>
      <g id="Grupo_1107845-2" data-name="Grupo 1107845" transform="translate(919 949)">
        <g id="Grupo_1107847" data-name="Grupo 1107847" transform="translate(0.954 0.953)">
          <path id="Trazado_898163" data-name="Trazado 898163" d="M69.919,104.212c-9.6,9.361-22.241,11.827-30.691,10.728a23.1,23.1,0,0,1-7.112-1.926h0c-3.984-1.865-5.908-4.563-5.471-6.428.6-3.126,5.419-4.9,10.8-7.589A65.769,65.769,0,0,0,54.4,87.693,65.774,65.774,0,0,0,66.733,71.472c3.02-5.2,5.088-9.9,8.246-10.3a2.9,2.9,0,0,1,1.7.282c2.574,1.186,5.476,5.686,5.859,12.8C83.106,82.749,79.858,95.209,69.919,104.212Z" transform="translate(-26.584 -54.323)" fill="#ffe239"/>
          <path id="Trazado_898164" data-name="Trazado 898164" d="M76.676,61.451,76.5,63.633c-1.908-.48-3.5,15.978-16.575,27.07s-29.786,13.42-27.806,22.309c-3.984-1.865-5.908-4.563-5.471-6.428.6-3.126,5.419-4.9,10.8-7.589A65.768,65.768,0,0,0,54.4,87.693,65.774,65.774,0,0,0,66.733,71.472c3.02-5.2,5.088-9.9,8.246-10.3A2.9,2.9,0,0,1,76.676,61.451Z" transform="translate(-26.584 -54.323)" fill="#ffb83b"/>
          <path id="Trazado_898165" data-name="Trazado 898165" d="M394.415,7.5V17.631l-3.266-.822-4.126-1.039.794-8.271Z" transform="translate(-341.236 -7.499)" fill="#70d65b"/>
          <path id="Trazado_898166" data-name="Trazado 898166" d="M391.149,16.809l-4.126-1.039.794-8.271h2.875Z" transform="translate(-341.236 -7.499)" fill="#58b741"/>
        </g>
        <g id="Grupo_1107848" data-name="Grupo 1107848" transform="translate(0)">
          <path id="Trazado_898167" data-name="Trazado 898167" d="M76.96,24.192a30.625,30.625,0,0,0-.032-3.366,21.269,21.269,0,0,0-2.771-10.011V.953A.953.953,0,0,0,73.2,0h-6.6a.953.953,0,0,0-.948.862L64.9,8.8a33.427,33.427,0,0,0-4.156,6.374c-.445.8-.905,1.617-1.389,2.45l-.008.014A64.46,64.46,0,0,1,47.186,33.629,64.438,64.438,0,0,1,30.472,44.766a.953.953,0,1,0,.823,1.719,66.3,66.3,0,0,0,17.2-11.467A66.322,66.322,0,0,0,61,18.573c.49-.843.952-1.669,1.4-2.469a34.744,34.744,0,0,1,3.717-5.82l6.471,1.63a20.148,20.148,0,0,1,2.434,9.028,37.646,37.646,0,0,1-12.3,29.194l-.025.024a38.091,38.091,0,0,1-26.18,10.695,29.093,29.093,0,0,1-3.735-.231c-3.963-.462-8.968-2.051-11.128-5.127a2.741,2.741,0,0,1-.638-2.064c0-.013.006-.026.008-.039.367-1.922,3.1-3.407,6.11-4.885a.953.953,0,1,0-.84-1.71c-3.584,1.759-6.6,3.442-7.138,6.219a4.509,4.509,0,0,0,.939,3.574,12.318,12.318,0,0,0,4.584,3.684,23.505,23.505,0,0,0,7.87,2.24,31.216,31.216,0,0,0,4.016.251,39.276,39.276,0,0,0,11.3-1.726,39.87,39.87,0,0,0,16.153-9.5A39.877,39.877,0,0,0,74.5,36a39.045,39.045,0,0,0,2.455-11.751C76.959,24.233,76.961,24.212,76.96,24.192ZM67.473,1.905h4.779V9.863L66.84,8.5Z" transform="translate(-19.072)"/>
          <path id="Trazado_898168" data-name="Trazado 898168" d="M185.408,257.42a47.488,47.488,0,0,1-19.137,10.422.953.953,0,1,0,.531,1.83A49.374,49.374,0,0,0,186.7,258.823a43.743,43.743,0,0,0,10.077-13.8.953.953,0,0,0-1.726-.806A41.85,41.85,0,0,1,185.408,257.42Z" transform="translate(-146.972 -212.713)"/>
          <path id="Trazado_898169" data-name="Trazado 898169" d="M409.911,176.86a.952.952,0,0,0,1.219-.574,45.734,45.734,0,0,0,1.645-5.709.953.953,0,0,0-1.862-.406,43.824,43.824,0,0,1-1.576,5.47A.953.953,0,0,0,409.911,176.86Z" transform="translate(-359.712 -147.899)"/>
          <path id="Trazado_898170" data-name="Trazado 898170" d="M357.284,152.379a.952.952,0,1,0,.188-1.264A.96.96,0,0,0,357.284,152.379Z" transform="translate(-314.182 -131.734)"/>
          <path id="Trazado_898171" data-name="Trazado 898171" d="M388.475,146.685a.953.953,0,1,0,.358-1.16A.963.963,0,0,0,388.475,146.685Z" transform="translate(-341.49 -126.904)"/>
          <path id="Trazado_898172" data-name="Trazado 898172" d="M375.677,168.128a.953.953,0,1,0,.032,1.314A.961.961,0,0,0,375.677,168.128Z" transform="translate(-328.958 -146.533)"/>
          <path id="Trazado_898173" data-name="Trazado 898173" d="M86.347,402.7a.953.953,0,1,0-.112-1.21A.961.961,0,0,0,86.347,402.7Z" transform="translate(-77.561 -350.123)"/>
          <path id="Trazado_898174" data-name="Trazado 898174" d="M106.578,382.63a.952.952,0,1,0,1.05.533A.961.961,0,0,0,106.578,382.63Z" transform="translate(-94.794 -334.009)"/>
          <path id="Trazado_898175" data-name="Trazado 898175" d="M112.788,406.36a.952.952,0,1,0,1.183.392A.96.96,0,0,0,112.788,406.36Z" transform="translate(-100.381 -354.677)"/>
        </g>
      </g>
    </g>
    <g id="Grupo_1107855" data-name="Grupo 1107855">
      <rect id="BG-3" data-name="BG" width="85" height="85" rx="5" transform="translate(600 938)" fill="#e0ecf9" opacity="0.949"/>
      <circle id="Elipse_11661" data-name="Elipse 11661" cx="31.5" cy="31.5" r="31.5" transform="translate(611 949)" fill="#b4d1f0"/>
      <g id="Grupo_1107846" data-name="Grupo 1107846" transform="translate(612 951)">
        <g id="Grupo_1107850" data-name="Grupo 1107850" transform="translate(0.893 0.893)">
          <path id="Trazado_898176" data-name="Trazado 898176" d="M186.731,17.467c-1.944,2.637-2.967,8.043-3.383,10.8H169.556c-.416-2.76-1.438-8.165-3.383-10.8,0,0,4.539,1.3,6.633,4.141l1.126-1.657,2.519-3.709,3.646,5.366C182.192,18.767,186.731,17.467,186.731,17.467Z" transform="translate(-147.281 -16.242)" fill="#ad7136"/>
          <path id="Trazado_898177" data-name="Trazado 898177" d="M65.841,135.892c0-13.471-13.06-24.391-29.171-24.391S7.5,122.421,7.5,135.892s13.06,20.526,29.171,20.526S65.841,149.363,65.841,135.892Z" transform="translate(-7.5 -100.159)" fill="#ff3b6a"/>
          <path id="Trazado_898178" data-name="Trazado 898178" d="M175.633,37.335h-6.077c-.416-2.76-1.438-8.165-3.383-10.8,0,0,4.539,1.3,6.633,4.141l1.126-1.657A33.856,33.856,0,0,0,175.633,37.335Z" transform="translate(-147.281 -25.307)" fill="#8c531f"/>
          <path id="Trazado_898179" data-name="Trazado 898179" d="M36.671,156.418c-16.111,0-29.171-7.056-29.171-20.527S20.56,111.5,36.671,111.5c-8.012,0-14.508,10.921-14.508,24.391S28.659,156.418,36.671,156.418Z" transform="translate(-7.5 -100.158)" fill="#e21e56"/>
        </g>
        <g id="Grupo_1107851" data-name="Grupo 1107851" transform="translate(0 0)">
          <path id="Trazado_898180" data-name="Trazado 898180" d="M51.263,27.437a31.6,31.6,0,0,0-13.288-6.471c.154-.926.326-1.828.517-2.688a.893.893,0,1,0-1.744-.386c-.193.873-.369,1.785-.525,2.722a36.079,36.079,0,0,0-12.317,0,36.955,36.955,0,0,0-2.152-8.027A10.572,10.572,0,0,1,25.7,15.532a.893.893,0,0,0,1.458-.028l2.907-4.279L32.971,15.5a.893.893,0,0,0,1.458.028,10.571,10.571,0,0,1,3.944-2.943q-.38.877-.723,1.936a.893.893,0,1,0,1.7.551,13.258,13.258,0,0,1,1.714-3.685A.893.893,0,0,0,40.1,10a16.5,16.5,0,0,0-6.3,3.538L30.8,9.134a.893.893,0,0,0-1.477,0l-2.994,4.407A16.5,16.5,0,0,0,20.031,10a.893.893,0,0,0-.965,1.388c.6.811,2.058,3.335,3.087,9.574A31.6,31.6,0,0,0,8.864,27.437C3.148,32.216,0,38.585,0,45.369A18.019,18.019,0,0,0,5.21,58.381a.893.893,0,0,0,1.279-1.247,16.289,16.289,0,0,1-4.7-11.765c0-12.957,12.685-23.5,28.278-23.5s28.278,10.541,28.278,23.5A16.824,16.824,0,0,1,50.2,59.936C45.2,63.2,38.048,65,30.064,65c-8.542,0-16.029-2.031-21.082-5.718a.893.893,0,0,0-1.053,1.443c5.356,3.909,13.218,6.061,22.135,6.061,8.448,0,15.749-1.852,21.115-5.357,5.854-3.824,8.949-9.378,8.949-16.062C60.127,38.585,56.979,32.216,51.263,27.437Z" transform="translate(0 -8.743)"/>
          <path id="Trazado_898181" data-name="Trazado 898181" d="M392.847,406.247a.893.893,0,1,0,1.015.575A.9.9,0,0,0,392.847,406.247Z" transform="translate(-345.449 -358.904)"/>
          <path id="Trazado_898182" data-name="Trazado 898182" d="M387.89,379.933a.892.892,0,1,0,.354,1.015A.9.9,0,0,0,387.89,379.933Z" transform="translate(-340.485 -335.607)"/>
          <path id="Trazado_898183" data-name="Trazado 898183" d="M410.182,388.04a.893.893,0,1,0,.149-1.164A.9.9,0,0,0,410.182,388.04Z" transform="translate(-361.215 -341.658)"/>
          <path id="Trazado_898184" data-name="Trazado 898184" d="M33.363,289.365a.893.893,0,1,0-.137,1.152A.9.9,0,0,0,33.363,289.365Z" transform="translate(-27.95 -255.603)"/>
          <path id="Trazado_898185" data-name="Trazado 898185" d="M38.1,264.023a.893.893,0,1,0-1.142-.128A.9.9,0,0,0,38.1,264.023Z" transform="translate(-32.342 -232.188)"/>
          <path id="Trazado_898186" data-name="Trazado 898186" d="M57.058,279.434a.893.893,0,1,0-1.1-.348A.9.9,0,0,0,57.058,279.434Z" transform="translate(-49.179 -245.693)"/>
        </g>
      </g>
    </g>
    <g id="Grupo_1107856" data-name="Grupo 1107856">
      <rect id="BG-4" data-name="BG" width="85" height="85" rx="5" transform="translate(705 938)" fill="#e0ecf9" opacity="0.949"/>
      <circle id="Elipse_11658" data-name="Elipse 11658" cx="31.5" cy="31.5" r="31.5" transform="translate(716 949)" fill="#b4d1f0"/>
      <g id="Grupo_1107847-2" data-name="Grupo 1107847" transform="translate(721 952)">
        <g id="Grupo_1107853" data-name="Grupo 1107853" transform="translate(0.856 5.769)">
          <path id="Trazado_898187" data-name="Trazado 898187" d="M52.525,73.98A59.089,59.089,0,0,0,66.194,52.709a3.282,3.282,0,0,1,5.4-1.179l.229.231a29.359,29.359,0,0,1-41.735,41.3l-.037-.037a3.277,3.277,0,0,1,1.2-5.378A59.09,59.09,0,0,0,52.525,73.98Z" transform="translate(-29.103 -50.565)" fill="#4aa032"/>
          <circle id="Elipse_11654" data-name="Elipse 11654" cx="4.651" cy="4.651" r="4.651" transform="translate(36.301 7.17)" fill="#70d65b"/>
          <path id="Trazado_898188" data-name="Trazado 898188" d="M351.378,121.346A4.628,4.628,0,0,0,353.3,122.5a4.652,4.652,0,1,1,0-8.895,4.653,4.653,0,0,0-1.922,7.737Z" transform="translate(-310.981 -106.236)" fill="#58b741"/>
          <ellipse id="Elipse_11655" data-name="Elipse 11655" cx="6.948" cy="6.948" rx="6.948" ry="6.948" transform="translate(32.208 20.007)" fill="#70d65b"/>
          <path id="Trazado_898189" data-name="Trazado 898189" d="M317.146,237.788a6.914,6.914,0,0,0,3.054,1.782,6.948,6.948,0,1,1,0-13.39,6.948,6.948,0,0,0-3.054,11.608Z" transform="translate(-279.187 -205.921)" fill="#58b741"/>
          <circle id="Elipse_11656" data-name="Elipse 11656" cx="4.651" cy="4.651" r="4.651" transform="translate(7.176 36.295)" fill="#70d65b"/>
          <path id="Trazado_898190" data-name="Trazado 898190" d="M96.1,376.619a4.629,4.629,0,0,0,1.922,1.158,4.652,4.652,0,1,1,0-8.895,4.653,4.653,0,0,0-1.922,7.737Z" transform="translate(-84.827 -332.384)" fill="#58b741"/>
          <ellipse id="Elipse_11657" data-name="Elipse 11657" cx="6.948" cy="6.948" rx="6.948" ry="6.948" transform="translate(19.611 32.604)" fill="#70d65b"/>
          <path id="Trazado_898191" data-name="Trazado 898191" d="M206.736,348.2a6.914,6.914,0,0,0,3.054,1.782,6.948,6.948,0,1,1,0-13.39,6.948,6.948,0,0,0-3.054,11.608Z" transform="translate(-181.373 -303.735)" fill="#58b741"/>
        </g>
        <g id="Grupo_1107854" data-name="Grupo 1107854" transform="translate(0 0)">
          <path id="Trazado_898192" data-name="Trazado 898192" d="M349.2,115.306a5.513,5.513,0,1,0-3.894,1.61A5.513,5.513,0,0,0,349.2,115.306Zm-6.578-6.578a3.8,3.8,0,1,1,0,5.368A3.77,3.77,0,0,1,342.624,108.728Z" transform="translate(-303.5 -93.822)"/>
          <path id="Trazado_898193" data-name="Trazado 898193" d="M317.244,231.772a7.813,7.813,0,1,0-5.518,2.282A7.813,7.813,0,0,0,317.244,231.772Zm-11.61-5.518a6.092,6.092,0,1,1,1.784,4.308A6.052,6.052,0,0,1,305.634,226.254Z" transform="translate(-271.715 -193.53)"/>
          <path id="Trazado_898194" data-name="Trazado 898194" d="M86.136,362.8a5.507,5.507,0,1,0,3.894-1.613A5.513,5.513,0,0,0,86.136,362.8Zm6.578,6.578a3.8,3.8,0,1,1,0-5.368A3.8,3.8,0,0,1,92.714,369.375Z" transform="translate(-77.347 -319.976)"/>
          <path id="Trazado_898195" data-name="Trazado 898195" d="M201.316,328.833a7.8,7.8,0,1,0,5.518,2.286A7.752,7.752,0,0,0,201.316,328.833Zm4.308,12.112a6.092,6.092,0,1,1,1.785-4.308A6.052,6.052,0,0,1,205.624,340.945Z" transform="translate(-173.902 -291.316)"/>
          <path id="Trazado_898196" data-name="Trazado 898196" d="M73.869,186.21a.856.856,0,0,0-1.682.316,28.479,28.479,0,0,1-27.98,33.832h-.078a28.325,28.325,0,0,1-20.08-8.35l-.035-.035a2.357,2.357,0,0,1-.641-2.207A2.429,2.429,0,0,1,24.907,208a59.99,59.99,0,0,0,6.247-2.732.856.856,0,0,0-.774-1.526,58.274,58.274,0,0,1-6.068,2.653,4.133,4.133,0,0,0-2.611,3,4.092,4.092,0,0,0,1.1,3.782l.039.039a30.024,30.024,0,0,0,21.284,8.85h.082a30.19,30.19,0,0,0,29.662-35.86Z" transform="translate(-21.604 -164.347)"/>
          <path id="Trazado_898197" data-name="Trazado 898197" d="M121.44,39.391a.852.852,0,0,0,.43-.116,60.349,60.349,0,0,0,12.3-9.487A59.676,59.676,0,0,0,148.039,8.21a2.426,2.426,0,0,1,3.994-.872l.223.225a28.079,28.079,0,0,1,6.8,11.353.856.856,0,1,0,1.633-.512,29.775,29.775,0,0,0-7.214-12.039l-.235-.237a4.126,4.126,0,0,0-3.813-1.118,4.179,4.179,0,0,0-.5.142,6.651,6.651,0,0,0-.406-.677,5.619,5.619,0,0,0,1.153-3.468.856.856,0,1,0-1.711,0,3.947,3.947,0,0,1-.579,2.11c-1.851-1.858-4.574-3.322-6.4-3.093-.674.084-2.241.542-2.241,2.966a3.6,3.6,0,0,0,1.455,3,5.178,5.178,0,0,0,3.1.934,6.965,6.965,0,0,0,3.962-1.244,4.02,4.02,0,0,1,.2.373,4.142,4.142,0,0,0-1.033,1.566,57.974,57.974,0,0,1-13.472,20.963A58.635,58.635,0,0,1,121.009,37.8a.856.856,0,0,0,.431,1.6ZM143.3,5.208a3.474,3.474,0,0,1-2.073-.591,1.925,1.925,0,0,1-.772-1.627c0-1.175.5-1.238.742-1.268a1.766,1.766,0,0,1,.221-.013c1.293,0,3.358,1.236,4.765,2.64A5.214,5.214,0,0,1,143.3,5.208Z" transform="translate(-109.291 0)"/>
        </g>
      </g>
    </g>
  </g>
</svg>
