<svg xmlns="http://www.w3.org/2000/svg" xmlns:xlink="http://www.w3.org/1999/xlink" width="85" height="66.883" viewBox="0 0 85 66.883">
  <defs>
    <clipPath id="clip-path">
      <rect id="Rectángulo_400902" data-name="Rectángulo 400902" width="38.221" height="33.885" fill="#997b4d"/>
    </clipPath>
  </defs>
  <g id="Grupo_1108153" data-name="Grupo 1108153" transform="translate(-1230 -405)">
    <rect id="Rectángulo_402716" data-name="Rectángulo 402716" width="85" height="47" rx="10" transform="translate(1230 405)" fill="#c6e697"/>
    <g id="Rectángulo_402718" data-name="Rectángulo 402718" transform="translate(1246 415)" fill="none" stroke="#b09455" stroke-width="1">
      <rect width="53" height="49" stroke="none"/>
      <rect x="0.5" y="0.5" width="52" height="48" fill="none"/>
    </g>
    <g id="Grupo_1107842" data-name="Grupo 1107842" transform="translate(1252.923 422.795)">
      <g id="Grupo_1098724" data-name="Grupo 1098724" transform="translate(0 0)">
        <g id="Grupo_1098723" data-name="Grupo 1098723" clip-path="url(#clip-path)">
          <path id="Trazado_872910" data-name="Trazado 872910" d="M1.526.763A.763.763,0,1,1,.763,0a.763.763,0,0,1,.763.763" fill="#997b4d"/>
          <path id="Trazado_872911" data-name="Trazado 872911" d="M30.48.763A.763.763,0,1,1,29.717,0a.763.763,0,0,1,.763.763" transform="translate(-21.615)" fill="#997b4d"/>
          <path id="Trazado_872912" data-name="Trazado 872912" d="M59.433.763A.763.763,0,1,1,58.67,0a.763.763,0,0,1,.763.763" transform="translate(-43.229)" fill="#997b4d"/>
          <path id="Trazado_872913" data-name="Trazado 872913" d="M88.386.763A.763.763,0,1,1,87.623,0a.763.763,0,0,1,.763.763" transform="translate(-64.843)" fill="#997b4d"/>
          <path id="Trazado_872914" data-name="Trazado 872914" d="M117.339.763A.763.763,0,1,1,116.576,0a.763.763,0,0,1,.763.763" transform="translate(-86.457)" fill="#997b4d"/>
          <path id="Trazado_872915" data-name="Trazado 872915" d="M146.293.763A.763.763,0,1,1,145.53,0a.763.763,0,0,1,.763.763" transform="translate(-108.072)" fill="#997b4d"/>
          <path id="Trazado_872916" data-name="Trazado 872916" d="M1.526,32.678a.763.763,0,1,1-.763-.763.763.763,0,0,1,.763.763" transform="translate(0 -23.825)" fill="#997b4d"/>
          <path id="Trazado_872917" data-name="Trazado 872917" d="M30.48,32.678a.763.763,0,1,1-.763-.763.763.763,0,0,1,.763.763" transform="translate(-21.615 -23.825)" fill="#997b4d"/>
          <path id="Trazado_872918" data-name="Trazado 872918" d="M59.433,32.678a.763.763,0,1,1-.763-.763.763.763,0,0,1,.763.763" transform="translate(-43.229 -23.825)" fill="#997b4d"/>
          <path id="Trazado_872919" data-name="Trazado 872919" d="M88.386,32.678a.763.763,0,1,1-.763-.763.763.763,0,0,1,.763.763" transform="translate(-64.843 -23.825)" fill="#997b4d"/>
          <path id="Trazado_872920" data-name="Trazado 872920" d="M117.339,32.678a.763.763,0,1,1-.763-.763.763.763,0,0,1,.763.763" transform="translate(-86.457 -23.825)" fill="#997b4d"/>
          <path id="Trazado_872921" data-name="Trazado 872921" d="M146.293,32.678a.763.763,0,1,1-.763-.763.763.763,0,0,1,.763.763" transform="translate(-108.072 -23.825)" fill="#997b4d"/>
          <path id="Trazado_872922" data-name="Trazado 872922" d="M1.526,64.593a.763.763,0,1,1-.763-.763.763.763,0,0,1,.763.763" transform="translate(0 -47.651)" fill="#997b4d"/>
          <path id="Trazado_872923" data-name="Trazado 872923" d="M30.48,64.593a.763.763,0,1,1-.763-.763.763.763,0,0,1,.763.763" transform="translate(-21.615 -47.651)" fill="#997b4d"/>
          <path id="Trazado_872924" data-name="Trazado 872924" d="M59.433,64.593a.763.763,0,1,1-.763-.763.763.763,0,0,1,.763.763" transform="translate(-43.229 -47.651)" fill="#997b4d"/>
          <path id="Trazado_872925" data-name="Trazado 872925" d="M88.386,64.593a.763.763,0,1,1-.763-.763.763.763,0,0,1,.763.763" transform="translate(-64.843 -47.651)" fill="#997b4d"/>
          <path id="Trazado_872926" data-name="Trazado 872926" d="M117.339,64.593a.763.763,0,1,1-.763-.763.763.763,0,0,1,.763.763" transform="translate(-86.457 -47.651)" fill="#997b4d"/>
          <path id="Trazado_872927" data-name="Trazado 872927" d="M146.293,64.593a.763.763,0,1,1-.763-.763.763.763,0,0,1,.763.763" transform="translate(-108.072 -47.651)" fill="#997b4d"/>
          <path id="Trazado_872928" data-name="Trazado 872928" d="M1.526,96.508a.763.763,0,1,1-.763-.763.763.763,0,0,1,.763.763" transform="translate(0 -71.476)" fill="#997b4d"/>
          <path id="Trazado_872929" data-name="Trazado 872929" d="M30.48,96.508a.763.763,0,1,1-.763-.763.763.763,0,0,1,.763.763" transform="translate(-21.615 -71.476)" fill="#997b4d"/>
          <path id="Trazado_872930" data-name="Trazado 872930" d="M59.433,96.508a.763.763,0,1,1-.763-.763.763.763,0,0,1,.763.763" transform="translate(-43.229 -71.476)" fill="#997b4d"/>
          <path id="Trazado_872931" data-name="Trazado 872931" d="M88.386,96.508a.763.763,0,1,1-.763-.763.763.763,0,0,1,.763.763" transform="translate(-64.843 -71.476)" fill="#997b4d"/>
          <path id="Trazado_872932" data-name="Trazado 872932" d="M117.339,96.508a.763.763,0,1,1-.763-.763.763.763,0,0,1,.763.763" transform="translate(-86.457 -71.476)" fill="#997b4d"/>
          <path id="Trazado_872933" data-name="Trazado 872933" d="M146.293,96.508a.763.763,0,1,1-.763-.763.763.763,0,0,1,.763.763" transform="translate(-108.072 -71.476)" fill="#997b4d"/>
          <path id="Trazado_872934" data-name="Trazado 872934" d="M1.526,128.423a.763.763,0,1,1-.763-.763.763.763,0,0,1,.763.763" transform="translate(0 -95.301)" fill="#997b4d"/>
          <path id="Trazado_872935" data-name="Trazado 872935" d="M30.48,128.423a.763.763,0,1,1-.763-.763.763.763,0,0,1,.763.763" transform="translate(-21.615 -95.301)" fill="#997b4d"/>
          <path id="Trazado_872936" data-name="Trazado 872936" d="M59.433,128.423a.763.763,0,1,1-.763-.763.763.763,0,0,1,.763.763" transform="translate(-43.229 -95.301)" fill="#997b4d"/>
          <path id="Trazado_872937" data-name="Trazado 872937" d="M88.386,128.423a.763.763,0,1,1-.763-.763.763.763,0,0,1,.763.763" transform="translate(-64.843 -95.301)" fill="#997b4d"/>
          <path id="Trazado_872938" data-name="Trazado 872938" d="M117.339,128.423a.763.763,0,1,1-.763-.763.763.763,0,0,1,.763.763" transform="translate(-86.457 -95.301)" fill="#997b4d"/>
          <path id="Trazado_872939" data-name="Trazado 872939" d="M146.293,128.423a.763.763,0,1,1-.763-.763.763.763,0,0,1,.763.763" transform="translate(-108.072 -95.301)" fill="#997b4d"/>
        </g>
      </g>
    </g>
    <g id="Grupo_1108155" data-name="Grupo 1108155" transform="translate(1241.46 410.278)">
      <g id="Grupo_1108154" data-name="Grupo 1108154" transform="translate(1.175 11.327)">
        <path id="Trazado_899055" data-name="Trazado 899055" d="M23.423,389.734A7.131,7.131,0,0,1,16.8,394.35a7.219,7.219,0,0,1-7.124-7.311,7.33,7.33,0,0,1,3.99-6.567,6.979,6.979,0,0,0,6.962,1.266,7.536,7.536,0,0,0-.266,1.99,7.357,7.357,0,0,0,3.061,6.006Zm0,0" transform="translate(-9.676 -345.231)" fill="#ab6dd0"/>
        <path id="Trazado_899056" data-name="Trazado 899056" d="M43.044,182.676a7.286,7.286,0,0,0-4.2,5.207,7.613,7.613,0,0,0-.153,1.337,6.982,6.982,0,0,1-6.8-1.253,7.361,7.361,0,0,1-2.625-5.667,7.237,7.237,0,0,1,6.571-7.289,7.155,7.155,0,0,0,5.438,4.21,7.332,7.332,0,0,0,1.773,3.455Zm0,0" transform="translate(-26.887 -164.681)" fill="#ab6dd0"/>
        <path id="Trazado_899057" data-name="Trazado 899057" d="M91.876,94.2h0a7.287,7.287,0,0,0-.544,1.292h-.075A7.193,7.193,0,0,0,84.177,102a7.326,7.326,0,0,0-.043.8,7.472,7.472,0,0,0,.161,1.552,7.155,7.155,0,0,1-5.438-4.209,7.439,7.439,0,0,1-.635-3.021,7.218,7.218,0,0,1,7.124-7.309,7.121,7.121,0,0,1,6.53,4.387Zm0,0" transform="translate(-69.912 -89.812)" fill="#ab6dd0"/>
        <path id="Trazado_899058" data-name="Trazado 899058" d="M138.277,145.657a7.315,7.315,0,0,0-2.708,3.921,7.415,7.415,0,0,0-.266,1.584,6.984,6.984,0,0,1-5.968-1.775c-.147-.136-.287-.277-.422-.425a7.324,7.324,0,0,1-1.773-3.455,7.472,7.472,0,0,1-.161-1.552,7.319,7.319,0,0,1,.043-.8,7.193,7.193,0,0,1,7.08-6.509h.075a7.525,7.525,0,0,0,.252,5.16h0A7.237,7.237,0,0,0,138.277,145.657Zm0,0" transform="translate(-112.758 -130.967)" fill="#ab6dd0"/>
        <path id="Trazado_899059" data-name="Trazado 899059" d="M197.692,318.318a7.119,7.119,0,0,1-6.488,4.288,6.953,6.953,0,0,1-3.35-.857,7.486,7.486,0,0,0,.1-1.219,7.336,7.336,0,0,0-3.774-6.453c.022-.133.047-.262.075-.393a7.276,7.276,0,0,1,4.19-5.13q.168.129.343.244h0a6.99,6.99,0,0,0,5.346,1.032,7.532,7.532,0,0,0-.27,2A7.333,7.333,0,0,0,197.692,318.318Zm0,0" transform="translate(-163.022 -282.033)" fill="#ab6dd0"/>
        <path id="Trazado_899060" data-name="Trazado 899060" d="M209.763,207.08a7.458,7.458,0,0,1-.188,1.67q-.038.168-.082.333a7.265,7.265,0,0,1-4.1,4.738,6.871,6.871,0,0,1-1.3.417,6.99,6.99,0,0,1-5.346-1.032h0q-.175-.116-.343-.244a7.359,7.359,0,0,1-2.891-5.879c0-.15,0-.3.013-.448a7.414,7.414,0,0,1,.266-1.584,7.315,7.315,0,0,1,2.708-3.921,6.97,6.97,0,0,1,4.136-1.358l.188,0a6.936,6.936,0,0,1,2.5.535,7.314,7.314,0,0,1,4.441,6.773Zm0,0" transform="translate(-172.983 -186.438)" fill="#ab6dd0"/>
        <path id="Trazado_899061" data-name="Trazado 899061" d="M278.309,282.631a7.219,7.219,0,0,1-7.124,7.31,6.936,6.936,0,0,1-3.3-.828,7.333,7.333,0,0,1-3.827-6.482,7.533,7.533,0,0,1,.269-2,6.872,6.872,0,0,0,1.3-.417,7.265,7.265,0,0,0,4.1-4.738,6.97,6.97,0,0,1,1.457-.153,7.219,7.219,0,0,1,7.124,7.311Zm0,0" transform="translate(-233.219 -252.828)" fill="#ab6dd0"/>
        <path id="Trazado_899062" data-name="Trazado 899062" d="M36.03,290q-.318.085-.623.2a7.226,7.226,0,0,0-4.221,4.188q-.134.345-.234.705a6.979,6.979,0,0,1-6.962-1.266A7.419,7.419,0,0,1,25,281.872a6.982,6.982,0,0,0,6.8,1.253c0,.064,0,.13,0,.2a7.339,7.339,0,0,0,3.716,6.421c.167.094.339.181.514.261Zm0,0" transform="translate(-20.001 -258.585)" fill="#ab6dd0"/>
        <path id="Trazado_899063" data-name="Trazado 899063" d="M120.609,246.757a7.276,7.276,0,0,0-4.19,5.13c-.028.13-.054.26-.075.393q-.224-.121-.456-.229h0a6.978,6.978,0,0,0-4.671-.4h0c-.175-.08-.347-.167-.514-.261a7.337,7.337,0,0,1-3.716-6.421c0-.066,0-.132,0-.2a7.567,7.567,0,0,1,.154-1.337,7.285,7.285,0,0,1,4.2-5.207c.134.148.275.289.422.425a6.983,6.983,0,0,0,5.968,1.775c-.009.148-.013.3-.013.448a7.359,7.359,0,0,0,2.891,5.879Zm0,0" transform="translate(-95.186 -220.236)" fill="#ab6dd0"/>
        <path id="Trazado_899064" data-name="Trazado 899064" d="M112.051,354.345a7.433,7.433,0,0,1-.1,1.219,7.18,7.18,0,0,1-7.024,6.092,6.966,6.966,0,0,1-4.062-1.3,7.357,7.357,0,0,1-3.061-6.006,7.541,7.541,0,0,1,.266-1.99q.1-.359.234-.705a7.226,7.226,0,0,1,4.221-4.188q.3-.113.623-.2h0a6.979,6.979,0,0,1,4.671.4h0q.232.107.456.229a7.336,7.336,0,0,1,3.774,6.453Zm0,0" transform="translate(-87.12 -315.848)" fill="#ab6dd0"/>
        <path id="Trazado_899065" data-name="Trazado 899065" d="M287.966,160.587a7.219,7.219,0,0,1-7.124,7.309l-.188,0a7.487,7.487,0,0,0,.188-1.67,7.314,7.314,0,0,0-4.441-6.773,7.357,7.357,0,0,0,2.987-5.952c0-.023,0-.047,0-.069a6.939,6.939,0,0,1,1.454-.153A7.219,7.219,0,0,1,287.966,160.587Zm0,0" transform="translate(-244.063 -145.582)" fill="#ab6dd0"/>
        <path id="Trazado_899066" data-name="Trazado 899066" d="M197.789,102.126a7.356,7.356,0,0,1-2.987,5.952,6.942,6.942,0,0,0-2.5-.535l-.187,0a6.981,6.981,0,0,0-4.137,1.358,7.238,7.238,0,0,1-3.848-3.85h0a7.525,7.525,0,0,1-.252-5.16,7.285,7.285,0,0,1,.544-1.292h0a7.1,7.1,0,0,1,6.238-3.78,7.216,7.216,0,0,1,7.123,7.241c0,.023,0,.046,0,.069Zm0,0" transform="translate(-162.463 -94.209)" fill="#ab6dd0"/>
      </g>
      <path id="Trazado_899067" data-name="Trazado 899067" d="M408.223,101.063C399.3,95.338,397.61,90,398.207,85.338a18.678,18.678,0,0,1,.956-3.815c.317-.9.674-1.765,1.023-2.592,17.19,9.033,8.037,22.132,8.037,22.132Zm0,0" transform="translate(-349.83 -68.923)" fill="#78d0a9"/>
      <path id="Trazado_899068" data-name="Trazado 899068" d="M42.535,103.772c5.573-3.843,4.282-13.37-2.357-15.269a25.08,25.08,0,0,1-2.647-.3c-.365-.348-.554-1.978-.842-2.527A8.409,8.409,0,0,0,33.016,82.1,8.193,8.193,0,0,0,23.2,83.872a7.954,7.954,0,0,0-9.829-2.523A8.961,8.961,0,0,0,9.44,84.81c-1.111,1.83-.955,3.4-1.093,5.407-.06.873.4.605-.49,1.09-.392.213-.831.341-1.224.564A8.151,8.151,0,0,0,4.2,93.994,8.979,8.979,0,0,0,2.383,99.58a8.633,8.633,0,0,0,.5,2.753,8.345,8.345,0,0,0,.653,1.4,5.694,5.694,0,0,1,.5.754c.194.614.2.127-.1.715-.485.957-1.39,1.672-1.831,2.719a8.889,8.889,0,0,0-.694,3.658,8.71,8.71,0,0,0,.678,3.173,17.16,17.16,0,0,1,.861,1.564c.142.5.276.12.118.574-.093.269-.677.6-.9.849a8.7,8.7,0,0,0-2.17,6.129,8.358,8.358,0,0,0,8.807,8.1,8.365,8.365,0,0,0,5.726-2.852c.177-.206.643-1.14.858-1.206a10.366,10.366,0,0,1,1.635.58,8.054,8.054,0,0,0,3.548.037,8.515,8.515,0,0,0,5.334-3.676,10.75,10.75,0,0,1,.683-1.3c.654-.729-.092-.256.692-.319a4.2,4.2,0,0,1,.779.152,8.172,8.172,0,0,0,3.839-.348,8.425,8.425,0,0,0,3.268-2.045c.483-.487.861-1.247,1.394-1.369.48-.11,1.421.341,1.97.375a8.426,8.426,0,0,0,6.733-2.825,8.692,8.692,0,0,0-2.742-13.4l.98-.676-.98.676Zm-6.829-8.7a6.039,6.039,0,0,0,.808-1.177q.105-.184.2-.373a8.658,8.658,0,0,0,.682-1.846c.242-1,.008-.981.98-1.084a4.569,4.569,0,0,1,2.344.679,6,6,0,0,1,2.773,3.861,6.764,6.764,0,0,1-.567,4.788,5.5,5.5,0,0,1-1.5,1.747c-.231.174-2.332,1.2-2.332.977,0-.039,0-.08,0-.121a7.243,7.243,0,0,0-.025-.866c0-.043-.006-.086-.01-.129,0-.006,0-.012,0-.019a8.568,8.568,0,0,0-3.567-6.183l.214-.253c.036-.042-.068.086,0,0,.306-.358-.068.086,0,0Zm-.173,3.6c.019.024.036.047.052.071a6.082,6.082,0,0,1,.724,1.366c.021.055.042.11.06.166.009.023.017.045.024.068s.025.074.036.112a6.465,6.465,0,0,1,.251,1.2c.006.057.012.115.016.172a.8.8,0,0,1,.006.082c0,.055.008.11.01.165,0,.013,0,.027,0,.041a4.791,4.791,0,0,1-.155,1.643.873.873,0,0,0-.021.138c-.871,2.094-2.2,3.944-4.539,4.441h0a5.674,5.674,0,0,1-4.429-.863c-.1-.063-.19-.13-.278-.2l0,0a6.184,6.184,0,0,1-1.458-7.995,5.686,5.686,0,0,1,7.21-2.6c.063.026.125.055.187.083a0,0,0,0,1,0,0c.061.028.122.057.181.089l.032.015a5.309,5.309,0,0,1,.5.293q.224.144.433.307t.383.326c.023.019.044.039.065.061a10.341,10.341,0,0,1,.714.818c.019.024-.069-.1,0,0ZM22.8,99.991a8.228,8.228,0,0,0-.187.818,6.021,6.021,0,0,1-4.438-1.918A6.137,6.137,0,0,1,16.694,96c-1.134-2.959,1.614-6.56,4.376-7.253a8.686,8.686,0,0,0,3.565,7.885,8.581,8.581,0,0,0-1.84,3.381c.048-.173.1-.345.145-.518l-.14.5C22.725,100.26,23.152,98.742,22.8,99.991Zm1.769,8h0a8.021,8.021,0,0,0-3.079,4.119h0q-.293-.071-.58-.167a5.741,5.741,0,0,0-1.717-.234q-.345-.007-.69.009a3.1,3.1,0,0,1-.537.046,2.214,2.214,0,0,0-.43.064l-.03,0a.509.509,0,0,1-.188.036,6.172,6.172,0,0,1-3.179-5.585v-.016q0-.094.009-.188a.14.14,0,0,1,0-.02c0-.046.006-.092.01-.137,0-.006,0-.012,0-.018a3.981,3.981,0,0,1,.074-.573,1.532,1.532,0,0,0,.161-.68l.007-.023a.275.275,0,0,1,.012-.042,6.528,6.528,0,0,1,.49-1.161q.143-.261.31-.505a5.508,5.508,0,0,1,1.173-1.283,1.556,1.556,0,0,1,.434-.322c.05-.035.1-.068.152-.1.036-.024.072-.045.107-.067h0a8.174,8.174,0,0,0,5.4,2.045h.036a4.759,4.759,0,0,0,.3,1.554q.037.131.08.261c0,.009.006.016.008.024q.044.132.09.263a8.711,8.711,0,0,0,1.572,2.69Zm-.42-21.34c0-.011.011-.021.016-.032l0-.009c2.892-5.292,11.023-2.932,11.089,2.945,0,.013,0,.027,0,.041v.018a6.35,6.35,0,0,1-1.34,3.875l-.02.025a5.973,5.973,0,0,1-.661.7,7.585,7.585,0,0,0-5.366.162c-1.1.411-1.249.838-2.253,0a6.172,6.172,0,0,1-1.7-2.281.309.309,0,0,0-.012-.029,6.639,6.639,0,0,1,.205-5.349q-.1.193.039-.071c0-.011-.185.341,0,0Zm-7.574-3.765a5.906,5.906,0,0,1,5.2,3.186c-.009.019-.018.038-.026.059s-.025.055-.037.084a8.564,8.564,0,0,0-7.541,8.391,4.965,4.965,0,0,1-1.359-.865c-.044-.036-.087-.074-.129-.112C8.306,90.34,11.4,82.887,16.577,82.887ZM9.419,93.334a.416.416,0,0,0,.024.039,4.615,4.615,0,0,0,.585.877c.032.044.067.089.1.131s.044.056.068.084.064.08.1.121h0a7.47,7.47,0,0,0,2.42,1.963c.48.259,1.468.382,1.844.715s.643,1.572.95,2.057a6.449,6.449,0,0,0-1.158.938.744.744,0,0,0-.056.054q-.05.047-.1.1a8.461,8.461,0,0,0-1.407,1.9.3.3,0,0,0-.016.03.452.452,0,0,0-.178.349c-.027.063-.056.126-.087.188,0,0,0,0,0,.006q-.129.282-.233.573a3.849,3.849,0,0,0-.163.494c-.015.048-.029.1-.042.144s-.027.093-.038.141c0,.016-.008.031-.012.046-.01.037-.02.074-.028.111,0,.007,0,.013,0,.02-.065.27-.088.551-.155.819,0,.006,0,.011,0,.017a.048.048,0,0,0,0,.014.194.194,0,0,0,0,.028l0,.029h0c-.065.009-.129.022-.193.037a5.382,5.382,0,0,1-1.432.066h-.015c-.057,0-.115-.009-.171-.016a.168.168,0,0,0-.034,0,6.3,6.3,0,0,1-1.433-.359,5.9,5.9,0,0,1-.636-.3,3.253,3.253,0,0,0-.325-.188q-.091-.056-.179-.117c-.045-.031-.092-.062-.137-.094l-.007,0c-.117-.095-.235-.187-.355-.277-3.7-3.105-2.287-9.688,2.512-10.738-.049-.09-1.138.367-1.194.264.017.031,1.224-.271,1.194-.264.007.013-2.689.589,0,0Zm-3.3,13.126a4.4,4.4,0,0,0,1.736.879,7.785,7.785,0,0,0,2.32.48h0a4.944,4.944,0,0,0,1.235-.021q.44-.274.44-.051a7.729,7.729,0,0,0,1.518,3.741,0,0,0,0,0,0,0,7.9,7.9,0,0,0,1.286,1.419.09.09,0,0,0,.014.012c-1.19.729-3.519,2.751-3.519,4.353a5.507,5.507,0,0,1-.873.155.6.6,0,0,1-.072.007c-5.848.534-8.582-7.454-4.089-10.976a3.093,3.093,0,0,1-.617.521,5.925,5.925,0,0,0,.617-.521c.2.13-1.463,1.148,0,0Zm2.155,23.191a5.965,5.965,0,0,1-5.789-5.334,6.323,6.323,0,0,1,.706-3.931c.3-.538.905-1.541,1.521-1.753.734-.253,1.848.6,2.729.894a7.635,7.635,0,0,0,2.747.3l.463-.039a8.013,8.013,0,0,0,.42,3.121,5.6,5.6,0,0,0,.526,1.262,7.009,7.009,0,0,0,1.212,1.77c.632.732.66.714.018,1.509a5.994,5.994,0,0,1-1.13,1.079,5.839,5.839,0,0,1-3.423,1.116Zm16.518-8.407s0,0,0,.006a5.948,5.948,0,1,1-11.621-2.494c.552-1.922,2.159-4.161,4.309-4.469,1.1-.292,3.341-.384,4.239.516l.006,0h0a6.377,6.377,0,0,1,3.077,6.363q.031-.188-.012.073s.056-.336,0,0Zm4.524-.144a5.789,5.789,0,0,1-2.071-.385,6.477,6.477,0,0,0,0-1.037c-.021-.356-.079-.7-.129-1.054q-.021-.111-.044-.222a.042.042,0,0,1,0-.007c-.013-.064-.027-.129-.043-.192l0-.017c-.3-1.115-.92-3.033-1.941-3.716-.047-.055-.1-.108-.148-.161-.024-.027-.05-.055-.079-.082a7.879,7.879,0,0,0-1.208-1.033c0-.013.008-.025.012-.037.009-.036.02-.07.032-.105a5.2,5.2,0,0,1,.468-1.089,5.5,5.5,0,0,1,1.037-1.383c.032-.033.065-.065.1-.1s.062-.06.094-.089.054-.049.081-.072a.445.445,0,0,1,.043-.038c.029-.025.056-.049.085-.072a5.044,5.044,0,0,1,.862-.6,8.207,8.207,0,0,0,4.348,1.245c0,.015,0,.032,0,.049-.1,1.569.367,5.379,2.038,6.219.018.022.036.043.056.065,0,0,0,0,0,0h0c.037.043.075.086.114.128h0c.624.7,1.226.7.889,1.523a3.613,3.613,0,0,1-1.141,1.1,5.844,5.844,0,0,1-3.448,1.147Zm9.777-3.463a6.179,6.179,0,0,1-5.84-7.159,7.035,7.035,0,0,0,3.172-1.884c.084-.079.166-.161.247-.243a.529.529,0,0,0,.039-.041q.167-.173.322-.356c.032-.036.062-.072.092-.108.013-.014.025-.029.037-.044a4.644,4.644,0,0,0,.56-.769,7.679,7.679,0,0,0,.78-1.512c.014-.032.026-.066.039-.1C46.511,104.638,47.082,117.637,39.092,117.637Zm0,0" transform="translate(0 -70.387)"/>
      <path id="Trazado_899069" data-name="Trazado 899069" d="M427.525,127.155a1.194,1.194,0,0,1,0-2.389h0a1.194,1.194,0,0,1,0,2.389Zm0,0" transform="translate(-374.64 -109.201)"/>
      <path id="Trazado_899070" data-name="Trazado 899070" d="M342.318,20.769c-1.066-4.392-4.263-8.148-9.51-11.177.755-1.146,4.65-8.615,1.877-9.076-1.687-.28-1.677,2.656-1.992,3.7a14.847,14.847,0,0,1-2.461,4.9h0a12.077,12.077,0,0,1-9.5,4.543,1.21,1.21,0,0,0-.954,1.988c.476.528,1.28.415,1.913.376a14.671,14.671,0,0,0,6.666-2.105c-2.3,8.524,3.35,14.9,10.077,19.22h0l.036.022a1.166,1.166,0,0,0,.7.161.328.328,0,0,0,.055-.006.848.848,0,0,0,.128-.023,1.074,1.074,0,0,0,.217-.075.133.133,0,0,0,.024-.011.155.155,0,0,0,.024-.012,1.19,1.19,0,0,0,.421-.359l.014-.019a16.063,16.063,0,0,0,2.261-12.048h0Zm-2.972,8.193c-.636-2.032-1.278-4.063-1.966-6.077-.332-.972-.736-3.347-2.012-3.49-2.082-.234-.951,2.244-.613,3.19.775,2.167,1.459,4.369,2.15,6.563-2.683-2.074-5.248-4.687-6.274-8.008-.992-3.208-.193-6.436,1.011-9.468,6.313,3.654,10.579,9.873,7.7,17.289h0Zm0,0" transform="translate(-280.751)"/>
    </g>
  </g>
</svg>
