<svg xmlns="http://www.w3.org/2000/svg" xmlns:xlink="http://www.w3.org/1999/xlink" width="412" height="297" viewBox="0 0 412 297">
  <defs>
    <clipPath id="clip-path">
      <rect id="Rectángulo_403420" data-name="Rectángulo 403420" width="221.242" height="238.214" fill="none"/>
    </clipPath>
  </defs>
  <g id="Grupo_1111858" data-name="Grupo 1111858" transform="translate(-895.051 -2179)">
    <rect id="Rectángulo_403417" data-name="Rectángulo 403417" width="412" height="297" rx="10" transform="translate(895.051 2179)" fill="#e8f5d5"/>
    <g id="Grupo_1111857" data-name="Grupo 1111857" transform="translate(990.051 2208)">
      <path id="Trazado_901277" data-name="Trazado 901277" d="M97.923,271.913,46.968,323.18l50.956,50.956h71.462l54.063-50.645-54.063-50.645Z" transform="translate(-35.603 -206.119)" fill="#a3c2e8"/>
      <g id="Grupo_1111856" data-name="Grupo 1111856">
        <g id="Grupo_1111855" data-name="Grupo 1111855" clip-path="url(#clip-path)">
          <path id="Trazado_901278" data-name="Trazado 901278" d="M535.188,244.917c0,5.8-4.1,10.5-9.148,10.5s-9.149-4.7-9.149-10.5,4.1-10.5,9.149-10.5,9.148,4.7,9.148,10.5" transform="translate(-391.82 -177.693)" fill="#fff"/>
          <path id="Trazado_901279" data-name="Trazado 901279" d="M95.717,115.859v38.588L44.695,205.47V246.2" transform="translate(-33.88 -87.825)" fill="none" stroke="#161615" stroke-miterlimit="10" stroke-width="5"/>
          <line id="Línea_583" data-name="Línea 583" x1="39.875" y1="39.017" transform="translate(147.16 78.628)" fill="none" stroke="#161615" stroke-miterlimit="10" stroke-width="5"/>
          <line id="Línea_584" data-name="Línea 584" x2="57.883" transform="translate(61.837 66.623)" fill="none" stroke="#161615" stroke-miterlimit="10" stroke-width="5"/>
          <path id="Trazado_901280" data-name="Trazado 901280" d="M96,541.939h75.462l50.165-54.881-53.166,47.163H98.577L46.7,486.2Z" transform="translate(-35.4 -368.556)" fill="#161615"/>
          <path id="Trazado_901281" data-name="Trazado 901281" d="M96,541.939h75.462l50.165-54.881-53.166,47.163H98.577L46.7,486.2Z" transform="translate(-35.4 -368.556)" fill="none" stroke="#161615" stroke-miterlimit="10" stroke-width="5"/>
          <line id="Línea_585" data-name="Línea 585" y1="35.587" transform="translate(134.583 173.384)" fill="none" stroke="#161615" stroke-miterlimit="10" stroke-width="5"/>
          <line id="Línea_586" data-name="Línea 586" y2="34.158" transform="translate(62.837 131.508)" fill="none" stroke="#161615" stroke-miterlimit="10" stroke-width="5"/>
          <path id="Trazado_901282" data-name="Trazado 901282" d="M232.85,15.577l3.08.778a10.37,10.37,0,0,1-3.485,5.787,9.6,9.6,0,0,1-6.152,1.992,11.054,11.054,0,0,1-6.12-1.532,9.565,9.565,0,0,1-3.588-4.437,15.833,15.833,0,0,1-1.23-6.239,13.713,13.713,0,0,1,1.389-6.342A9.519,9.519,0,0,1,220.7,1.471a11.55,11.55,0,0,1,5.644-1.4,9.543,9.543,0,0,1,5.874,1.778,9.235,9.235,0,0,1,3.318,5L232.5,7.56a7.194,7.194,0,0,0-2.35-3.7A6.262,6.262,0,0,0,226.278,2.7a7.524,7.524,0,0,0-4.485,1.286,6.789,6.789,0,0,0-2.532,3.453,13.9,13.9,0,0,0-.73,4.469,14.2,14.2,0,0,0,.865,5.183,6.445,6.445,0,0,0,2.691,3.31,7.546,7.546,0,0,0,3.953,1.1,6.624,6.624,0,0,0,4.382-1.492,7.637,7.637,0,0,0,2.429-4.429" transform="translate(-163.246 -0.05)" fill="#161615"/>
          <path id="Trazado_901283" data-name="Trazado 901283" d="M316.464,24.98V1.705h3.08v9.557h12.1V1.705h3.08V24.98h-3.08V14.009h-12.1V24.98Z" transform="translate(-239.89 -1.293)" fill="#161615"/>
          <path id="Trazado_901284" data-name="Trazado 901284" d="M414.08,98.356v1.6h-8.969a2.945,2.945,0,0,1,.194-1.157,6.115,6.115,0,0,1,1.1-1.8,17.167,17.167,0,0,1,2.18-2.055,18.48,18.48,0,0,0,2.99-2.874,3.441,3.441,0,0,0,.777-2,2.226,2.226,0,0,0-.708-1.671,2.555,2.555,0,0,0-1.847-.68,2.6,2.6,0,0,0-1.925.722,2.731,2.731,0,0,0-.731,2l-1.712-.176a4.215,4.215,0,0,1,1.323-2.92,4.515,4.515,0,0,1,3.082-1,4.3,4.3,0,0,1,3.092,1.083,3.556,3.556,0,0,1,1.138,2.684,4.071,4.071,0,0,1-.333,1.6,6.22,6.22,0,0,1-1.106,1.657,26.974,26.974,0,0,1-2.569,2.388q-1.5,1.259-1.925,1.708a5.483,5.483,0,0,0-.7.9Z" transform="translate(-307.086 -65.443)" fill="#161615"/>
          <path id="Trazado_901285" data-name="Trazado 901285" d="M452.809,12.351q0-5.795,3.112-9.073A10.579,10.579,0,0,1,463.954,0a11.147,11.147,0,0,1,5.811,1.54,10.06,10.06,0,0,1,3.945,4.294,13.949,13.949,0,0,1,1.357,6.247,13.713,13.713,0,0,1-1.429,6.334,9.754,9.754,0,0,1-4.048,4.231,11.567,11.567,0,0,1-5.652,1.437,11,11,0,0,1-5.874-1.588,10.213,10.213,0,0,1-3.921-4.334,13.136,13.136,0,0,1-1.334-5.811m3.175.048a9.323,9.323,0,0,0,2.262,6.628,7.892,7.892,0,0,0,11.4-.024q2.246-2.445,2.246-6.938a11.925,11.925,0,0,0-.961-4.961,7.384,7.384,0,0,0-2.81-3.286,7.622,7.622,0,0,0-4.152-1.167A7.876,7.876,0,0,0,458.342,4.9q-2.357,2.247-2.358,7.5" transform="translate(-343.244)" fill="#161615"/>
          <path id="Trazado_901286" data-name="Trazado 901286" d="M561.595,24.98V1.705h3.08v9.557h12.1V1.705h3.08V24.98h-3.08V14.009h-12.1V24.98Z" transform="translate(-425.707 -1.293)" fill="#161615"/>
          <path id="Trazado_901287" data-name="Trazado 901287" d="M214.358,439.789q0-5.795,3.112-9.073a10.579,10.579,0,0,1,8.033-3.278,11.147,11.147,0,0,1,5.811,1.54,10.059,10.059,0,0,1,3.945,4.294,13.949,13.949,0,0,1,1.357,6.247,13.713,13.713,0,0,1-1.429,6.334,9.756,9.756,0,0,1-4.048,4.231,11.567,11.567,0,0,1-5.652,1.437,11,11,0,0,1-5.874-1.588,10.213,10.213,0,0,1-3.921-4.334,13.136,13.136,0,0,1-1.334-5.811m3.175.048a9.324,9.324,0,0,0,2.262,6.628,7.892,7.892,0,0,0,11.4-.024q2.247-2.445,2.247-6.938a11.925,11.925,0,0,0-.961-4.961,7.383,7.383,0,0,0-2.81-3.286,7.62,7.62,0,0,0-4.152-1.167,7.876,7.876,0,0,0-5.628,2.246q-2.357,2.247-2.357,7.5" transform="translate(-162.49 -324.012)" fill="#161615"/>
          <path id="Trazado_901288" data-name="Trazado 901288" d="M323.144,452.418V429.144h3.08V438.7h12.1v-9.557h3.08v23.274h-3.08v-10.97h-12.1v10.97Z" transform="translate(-244.954 -325.305)" fill="#161615"/>
          <path id="Trazado_901289" data-name="Trazado 901289" d="M0,686.142q0-5.794,3.112-9.073a10.579,10.579,0,0,1,8.033-3.278,11.147,11.147,0,0,1,5.811,1.54,10.059,10.059,0,0,1,3.945,4.294,13.948,13.948,0,0,1,1.357,6.247,13.709,13.709,0,0,1-1.429,6.334,9.754,9.754,0,0,1-4.048,4.231,11.567,11.567,0,0,1-5.652,1.437,11,11,0,0,1-5.874-1.588,10.213,10.213,0,0,1-3.921-4.334A13.135,13.135,0,0,1,0,686.142m3.175.048a9.325,9.325,0,0,0,2.262,6.628,7.441,7.441,0,0,0,5.676,2.421,7.43,7.43,0,0,0,5.724-2.445q2.246-2.445,2.247-6.938a11.926,11.926,0,0,0-.961-4.961,7.382,7.382,0,0,0-2.81-3.286,7.617,7.617,0,0,0-4.152-1.167,7.876,7.876,0,0,0-5.628,2.246q-2.357,2.247-2.357,7.5" transform="translate(-0.001 -510.755)" fill="#161615"/>
          <path id="Trazado_901290" data-name="Trazado 901290" d="M108.785,698.771V675.5h3.08v9.557h12.1V675.5h3.08v23.274h-3.08V687.8h-12.1v10.97Z" transform="translate(-82.463 -512.048)" fill="#161615"/>
          <path id="Trazado_901291" data-name="Trazado 901291" d="M515.1,897.3q0-5.795,3.112-9.073a10.579,10.579,0,0,1,8.033-3.278,11.146,11.146,0,0,1,5.811,1.54A10.059,10.059,0,0,1,536,890.784a13.949,13.949,0,0,1,1.357,6.247,13.713,13.713,0,0,1-1.429,6.334,9.755,9.755,0,0,1-4.048,4.231,11.566,11.566,0,0,1-5.652,1.437,11.005,11.005,0,0,1-5.874-1.588,10.215,10.215,0,0,1-3.921-4.334A13.135,13.135,0,0,1,515.1,897.3m3.175.048a9.323,9.323,0,0,0,2.262,6.628,7.892,7.892,0,0,0,11.4-.024q2.246-2.445,2.247-6.938a11.925,11.925,0,0,0-.961-4.961,7.383,7.383,0,0,0-2.81-3.286,7.623,7.623,0,0,0-4.152-1.167,7.876,7.876,0,0,0-5.628,2.246q-2.357,2.247-2.357,7.5" transform="translate(-390.463 -670.82)" fill="#161615"/>
          <path id="Trazado_901292" data-name="Trazado 901292" d="M623.887,909.93V886.656h3.08v9.557h12.1v-9.557h3.08V909.93h-3.08V898.96h-12.1v10.97Z" transform="translate(-472.926 -672.114)" fill="#161615"/>
          <line id="Línea_587" data-name="Línea 587" y1="35.587" transform="translate(186.607 116.046)" fill="none" stroke="#161615" stroke-miterlimit="10" stroke-width="5"/>
          <path id="Trazado_901293" data-name="Trazado 901293" d="M730.1,664.47q0-5.795,3.111-9.073a10.58,10.58,0,0,1,8.034-3.278,11.147,11.147,0,0,1,5.811,1.54A10.06,10.06,0,0,1,751,657.952a13.95,13.95,0,0,1,1.357,6.247,13.713,13.713,0,0,1-1.429,6.334,9.755,9.755,0,0,1-4.048,4.231,11.566,11.566,0,0,1-5.652,1.437,11.006,11.006,0,0,1-5.874-1.588,10.214,10.214,0,0,1-3.921-4.334,13.134,13.134,0,0,1-1.333-5.811m3.175.048a9.324,9.324,0,0,0,2.262,6.628,7.892,7.892,0,0,0,11.4-.024q2.247-2.445,2.247-6.938a11.926,11.926,0,0,0-.961-4.961,7.385,7.385,0,0,0-2.81-3.286,7.619,7.619,0,0,0-4.152-1.167,7.875,7.875,0,0,0-5.628,2.246q-2.358,2.247-2.358,7.5" transform="translate(-553.442 -494.326)" fill="#161615"/>
          <path id="Trazado_901294" data-name="Trazado 901294" d="M838.889,677.1V653.823h3.08v9.557h12.1v-9.557h3.08V677.1h-3.08v-10.97h-12.1V677.1Z" transform="translate(-635.904 -495.619)" fill="#161615"/>
          <path id="Trazado_901295" data-name="Trazado 901295" d="M509.5,245.906q0-5.795,3.112-9.073a10.58,10.58,0,0,1,8.033-3.278,11.147,11.147,0,0,1,5.811,1.54,10.06,10.06,0,0,1,3.945,4.294,13.95,13.95,0,0,1,1.357,6.247,13.712,13.712,0,0,1-1.429,6.334,9.756,9.756,0,0,1-4.048,4.231,11.566,11.566,0,0,1-5.652,1.437,11,11,0,0,1-5.874-1.588,10.213,10.213,0,0,1-3.921-4.334,13.135,13.135,0,0,1-1.333-5.811m3.175.048a9.323,9.323,0,0,0,2.262,6.628,7.892,7.892,0,0,0,11.4-.024q2.246-2.445,2.246-6.938a11.926,11.926,0,0,0-.961-4.961,7.381,7.381,0,0,0-2.81-3.286,7.617,7.617,0,0,0-4.152-1.167,7.876,7.876,0,0,0-5.628,2.246q-2.357,2.247-2.357,7.5" transform="translate(-386.22 -177.042)" fill="#161615"/>
        </g>
      </g>
    </g>
  </g>
</svg>
