<svg xmlns="http://www.w3.org/2000/svg" xmlns:xlink="http://www.w3.org/1999/xlink" width="412" height="297" viewBox="0 0 412 297">
  <defs>
    <clipPath id="clip-path">
      <rect id="Rectángulo_403421" data-name="Rectángulo 403421" width="265.191" height="238.789" fill="none"/>
    </clipPath>
  </defs>
  <g id="Grupo_1111862" data-name="Grupo 1111862" transform="translate(4074 9417)">
    <rect id="Rectángulo_403418" data-name="Rectángulo 403418" width="412" height="297" rx="10" transform="translate(-4074 -9417)" fill="#e8f5d5"/>
    <g id="Grupo_1111861" data-name="Grupo 1111861" transform="translate(-4001 -9388)">
      <path id="Trazado_901296" data-name="Trazado 901296" d="M91.147,306.315h62.642L199.6,240.547,121.772,190.3,46.409,240.547Z" transform="translate(-34.323 -140.747)" fill="#eb95bf"/>
      <g id="Grupo_1111860" data-name="Grupo 1111860">
        <g id="Grupo_1111859" data-name="Grupo 1111859" clip-path="url(#clip-path)">
          <path id="Trazado_901297" data-name="Trazado 901297" d="M321.256,175.175c0,6.131-4.329,11.1-9.669,11.1s-9.669-4.97-9.669-11.1,4.329-11.1,9.669-11.1,9.669,4.97,9.669,11.1" transform="translate(-223.295 -121.347)" fill="#fff"/>
          <line id="Línea_588" data-name="Línea 588" y1="69.406" transform="translate(12.414 31.592)" fill="none" stroke="#161615" stroke-miterlimit="10" stroke-width="5"/>
          <line id="Línea_589" data-name="Línea 589" x1="61.179" y1="40.127" transform="translate(105.25 59.311)" fill="none" stroke="#161615" stroke-miterlimit="10" stroke-width="5"/>
          <line id="Línea_590" data-name="Línea 590" y1="42.037" x2="60.39" transform="translate(11.186 58.064)" fill="none" stroke="#161615" stroke-miterlimit="10" stroke-width="5"/>
          <path id="Trazado_901298" data-name="Trazado 901298" d="M86.6,456h66.805l44.41-70.505L150.75,446.087H88.88L42.954,384.394Z" transform="translate(-31.768 -284.293)" fill="#161615"/>
          <path id="Trazado_901299" data-name="Trazado 901299" d="M86.6,456h66.805l44.41-70.505L150.75,446.087H88.88L42.954,384.394Z" transform="translate(-31.768 -284.293)" fill="none" stroke="#161615" stroke-miterlimit="10" stroke-width="3"/>
          <line id="Línea_591" data-name="Línea 591" y2="37.992" transform="translate(55.664 171.439)" fill="none" stroke="#161615" stroke-miterlimit="10" stroke-width="5"/>
          <line id="Línea_592" data-name="Línea 592" y1="37.069" transform="translate(119.984 123.226)" fill="none" stroke="#161615" stroke-miterlimit="10" stroke-width="5"/>
          <path id="Trazado_901300" data-name="Trazado 901300" d="M435.594,372.423q0,6.236-3.349,9.765a11.386,11.386,0,0,1-8.646,3.528,12,12,0,0,1-6.254-1.657,10.827,10.827,0,0,1-4.246-4.622,15.012,15.012,0,0,1-1.461-6.724,14.758,14.758,0,0,1,1.538-6.817,10.5,10.5,0,0,1,4.357-4.554,12.448,12.448,0,0,1,6.083-1.546,11.842,11.842,0,0,1,6.322,1.709,10.991,10.991,0,0,1,4.22,4.664,14.137,14.137,0,0,1,1.435,6.254m-3.417-.051a10.033,10.033,0,0,0-2.435-7.133,8.494,8.494,0,0,0-12.268.026q-2.418,2.631-2.418,7.467a12.835,12.835,0,0,0,1.034,5.339,7.945,7.945,0,0,0,3.024,3.537,8.2,8.2,0,0,0,4.468,1.256,8.476,8.476,0,0,0,6.057-2.418q2.537-2.418,2.537-8.073" transform="translate(-304.443 -266.1)" fill="#161615"/>
          <path id="Trazado_901301" data-name="Trazado 901301" d="M339.037,361.437v25.049h-3.315V376.2H322.7v10.286h-3.315V361.437H322.7v11.807h13.02V361.437Z" transform="translate(-236.215 -267.314)" fill="#161615"/>
          <path id="Trazado_901302" data-name="Trazado 901302" d="M167.86,830.723q0-6.236,3.349-9.765a11.387,11.387,0,0,1,8.646-3.528,12,12,0,0,1,6.254,1.657,10.827,10.827,0,0,1,4.246,4.622,15.012,15.012,0,0,1,1.461,6.724,14.758,14.758,0,0,1-1.538,6.817,10.5,10.5,0,0,1-4.357,4.554,12.448,12.448,0,0,1-6.083,1.546,11.843,11.843,0,0,1-6.322-1.709,10.994,10.994,0,0,1-4.22-4.665,14.136,14.136,0,0,1-1.435-6.254m3.417.051a10.035,10.035,0,0,0,2.435,7.134,8.494,8.494,0,0,0,12.268-.026q2.418-2.631,2.418-7.467a12.835,12.835,0,0,0-1.034-5.339,7.945,7.945,0,0,0-3.024-3.537,8.2,8.2,0,0,0-4.468-1.256,8.476,8.476,0,0,0-6.057,2.418q-2.537,2.418-2.537,8.073" transform="translate(-124.147 -604.561)" fill="#161615"/>
          <path id="Trazado_901303" data-name="Trazado 901303" d="M276.645,844.184V819.136h3.315v10.286h13.02V819.136h3.315v25.049h-3.315V832.378h-13.02v11.807Z" transform="translate(-204.603 -605.822)" fill="#161615"/>
          <path id="Trazado_901304" data-name="Trazado 901304" d="M293.834,171.592q-.306-6.229,2.866-9.917a11.386,11.386,0,0,1,8.462-3.948,12,12,0,0,1,6.327,1.349,10.828,10.828,0,0,1,4.468,4.408,15.015,15.015,0,0,1,1.789,6.644,14.761,14.761,0,0,1-1.2,6.885,10.5,10.5,0,0,1-4.129,4.762,12.446,12.446,0,0,1-6,1.843,11.845,11.845,0,0,1-6.4-1.4,11,11,0,0,1-4.444-4.452,14.136,14.136,0,0,1-1.74-6.176m3.416-.116a10.035,10.035,0,0,0,2.782,7.006,8.494,8.494,0,0,0,12.252-.627q2.286-2.746,2.049-7.576A12.835,12.835,0,0,0,313.037,165a7.945,7.945,0,0,0-3.194-3.384,8.2,8.2,0,0,0-4.524-1.035,8.475,8.475,0,0,0-5.931,2.712q-2.416,2.539-2.138,8.188" transform="translate(-217.296 -116.64)" fill="#161615"/>
          <path id="Trazado_901305" data-name="Trazado 901305" d="M18.829,16.759l3.315.837a11.16,11.16,0,0,1-3.75,6.228,10.334,10.334,0,0,1-6.621,2.144A11.9,11.9,0,0,1,5.186,24.32a10.293,10.293,0,0,1-3.862-4.776A17.04,17.04,0,0,1,0,12.829,14.759,14.759,0,0,1,1.5,6,10.245,10.245,0,0,1,5.75,1.578,12.429,12.429,0,0,1,11.824.066,10.272,10.272,0,0,1,18.146,1.98a9.941,9.941,0,0,1,3.571,5.382l-3.263.769A7.745,7.745,0,0,0,15.925,4.15,6.741,6.741,0,0,0,11.756,2.9,8.1,8.1,0,0,0,6.929,4.286,7.306,7.306,0,0,0,4.2,8a14.955,14.955,0,0,0-.786,4.81,15.283,15.283,0,0,0,.931,5.579,6.936,6.936,0,0,0,2.9,3.562A8.121,8.121,0,0,0,11.5,23.133a7.129,7.129,0,0,0,4.716-1.606,8.219,8.219,0,0,0,2.614-4.767" transform="translate(0 -0.049)" fill="#161615"/>
          <path id="Trazado_901306" data-name="Trazado 901306" d="M101.109,26.754V1.706h3.315V11.992h13.02V1.706h3.315V26.754h-3.315V14.948h-13.02V26.754Z" transform="translate(-74.779 -1.262)" fill="#161615"/>
          <path id="Trazado_901307" data-name="Trazado 901307" d="M199.409,99.274V101h-9.652a3.17,3.17,0,0,1,.209-1.245,6.579,6.579,0,0,1,1.18-1.942,18.489,18.489,0,0,1,2.346-2.211,19.881,19.881,0,0,0,3.218-3.093,3.7,3.7,0,0,0,.837-2.157,2.4,2.4,0,0,0-.762-1.8,2.749,2.749,0,0,0-1.987-.732,2.8,2.8,0,0,0-2.072.777,2.939,2.939,0,0,0-.787,2.152l-1.843-.189a4.536,4.536,0,0,1,1.424-3.143,4.859,4.859,0,0,1,3.317-1.081,4.628,4.628,0,0,1,3.327,1.165,3.827,3.827,0,0,1,1.225,2.889,4.382,4.382,0,0,1-.359,1.723,6.681,6.681,0,0,1-1.19,1.783,28.993,28.993,0,0,1-2.764,2.57Q193.462,97.819,193,98.3a5.9,5.9,0,0,0-.757.971Z" transform="translate(-140.34 -63.852)" fill="#161615"/>
          <path id="Trazado_901308" data-name="Trazado 901308" d="M237.454,13.293q0-6.236,3.349-9.765A11.387,11.387,0,0,1,249.448,0,12,12,0,0,1,255.7,1.657a10.826,10.826,0,0,1,4.246,4.622A15.012,15.012,0,0,1,261.409,13a14.758,14.758,0,0,1-1.538,6.817,10.5,10.5,0,0,1-4.357,4.554,12.448,12.448,0,0,1-6.083,1.546,11.842,11.842,0,0,1-6.322-1.709,10.992,10.992,0,0,1-4.22-4.665,14.136,14.136,0,0,1-1.435-6.254m3.417.051a10.034,10.034,0,0,0,2.435,7.133,8.494,8.494,0,0,0,12.268-.026q2.418-2.631,2.418-7.467a12.835,12.835,0,0,0-1.034-5.34,7.945,7.945,0,0,0-3.024-3.537,8.2,8.2,0,0,0-4.468-1.256,8.476,8.476,0,0,0-6.057,2.418q-2.537,2.418-2.537,8.073" transform="translate(-175.618)" fill="#161615"/>
          <path id="Trazado_901309" data-name="Trazado 901309" d="M346.239,26.754V1.706h3.315V11.992h13.02V1.706h3.315V26.754h-3.315V14.948h-13.02V26.754Z" transform="translate(-256.074 -1.262)" fill="#161615"/>
          <path id="Trazado_901310" data-name="Trazado 901310" d="M615.484,571.172l3.315.837a11.16,11.16,0,0,1-3.75,6.228,10.334,10.334,0,0,1-6.621,2.144,11.9,11.9,0,0,1-6.587-1.649,10.291,10.291,0,0,1-3.862-4.776,17.039,17.039,0,0,1-1.324-6.715,14.759,14.759,0,0,1,1.495-6.826,10.244,10.244,0,0,1,4.255-4.425,12.43,12.43,0,0,1,6.074-1.512,10.271,10.271,0,0,1,6.322,1.914,9.941,9.941,0,0,1,3.571,5.382l-3.264.769a7.746,7.746,0,0,0-2.529-3.981,6.741,6.741,0,0,0-4.169-1.247,8.1,8.1,0,0,0-4.827,1.384,7.306,7.306,0,0,0-2.725,3.716,14.952,14.952,0,0,0-.786,4.81A15.283,15.283,0,0,0,601,572.8a6.936,6.936,0,0,0,2.9,3.562,8.121,8.121,0,0,0,4.254,1.179,7.129,7.129,0,0,0,4.716-1.606,8.219,8.219,0,0,0,2.614-4.767" transform="translate(-441.278 -410.085)" fill="#161615"/>
          <path id="Trazado_901311" data-name="Trazado 901311" d="M697.764,581.167V556.118h3.315V566.4H714.1V556.118h3.315v25.049H714.1V569.36h-13.02v11.807Z" transform="translate(-516.057 -411.298)" fill="#161615"/>
          <path id="Trazado_901312" data-name="Trazado 901312" d="M796.064,653.686v1.723h-9.653a3.172,3.172,0,0,1,.209-1.245,6.579,6.579,0,0,1,1.18-1.942,18.476,18.476,0,0,1,2.346-2.211,19.888,19.888,0,0,0,3.217-3.093,3.7,3.7,0,0,0,.837-2.157,2.4,2.4,0,0,0-.762-1.8,2.75,2.75,0,0,0-1.987-.732,2.8,2.8,0,0,0-2.072.777,2.94,2.94,0,0,0-.787,2.152l-1.843-.189a4.535,4.535,0,0,1,1.425-3.143,4.858,4.858,0,0,1,3.317-1.081,4.629,4.629,0,0,1,3.327,1.165,3.827,3.827,0,0,1,1.226,2.889,4.382,4.382,0,0,1-.359,1.723,6.682,6.682,0,0,1-1.19,1.783,28.967,28.967,0,0,1-2.764,2.57q-1.614,1.355-2.072,1.838a5.9,5.9,0,0,0-.757.971Z" transform="translate(-581.619 -473.887)" fill="#161615"/>
          <path id="Trazado_901313" data-name="Trazado 901313" d="M834.109,567.706q0-6.236,3.349-9.765a11.387,11.387,0,0,1,8.646-3.528,12,12,0,0,1,6.254,1.657,10.826,10.826,0,0,1,4.246,4.622,15.013,15.013,0,0,1,1.461,6.724,14.757,14.757,0,0,1-1.538,6.817,10.5,10.5,0,0,1-4.357,4.554,12.448,12.448,0,0,1-6.083,1.546,11.844,11.844,0,0,1-6.322-1.709,10.994,10.994,0,0,1-4.22-4.665,14.136,14.136,0,0,1-1.435-6.254m3.417.051a10.034,10.034,0,0,0,2.435,7.133,8.494,8.494,0,0,0,12.268-.026q2.418-2.631,2.418-7.467a12.836,12.836,0,0,0-1.034-5.34,7.947,7.947,0,0,0-3.024-3.537,8.2,8.2,0,0,0-4.468-1.256,8.476,8.476,0,0,0-6.057,2.418q-2.537,2.418-2.537,8.073" transform="translate(-616.896 -410.037)" fill="#161615"/>
          <path id="Trazado_901314" data-name="Trazado 901314" d="M942.894,581.167V556.118h3.315V566.4h13.02V556.118h3.315v25.049h-3.315V569.36h-13.02v11.807Z" transform="translate(-697.352 -411.298)" fill="#161615"/>
          <line id="Línea_593" data-name="Línea 593" y1="42.54" transform="translate(166.061 97.985)" fill="none" stroke="#161615" stroke-miterlimit="10" stroke-width="5"/>
        </g>
      </g>
    </g>
  </g>
</svg>
